<svg width="89" height="89" viewBox="0 0 89 89" fill="none" xmlns="http://www.w3.org/2000/svg">
<rect width="89" height="89" rx="8" fill="#E4EEFC"/>
<path d="M45 35.2C42.6854 35.2 40.4656 36.1271 38.8289 37.7775C37.1922 39.4278 36.2727 41.6661 36.2727 44C36.2727 46.3339 37.1922 48.5722 38.8289 50.2225C40.4656 51.8729 42.6854 52.8 45 52.8C47.3146 52.8 49.5344 51.8729 51.1711 50.2225C52.8078 48.5722 53.7273 46.3339 53.7273 44C53.7273 41.6661 52.8078 39.4278 51.1711 37.7775C49.5344 36.1271 47.3146 35.2 45 35.2ZM45 58.6667C41.1423 58.6667 37.4426 57.1214 34.7148 54.3709C31.987 51.6204 30.4545 47.8898 30.4545 44C30.4545 40.1102 31.987 36.3796 34.7148 33.6291C37.4426 30.8786 41.1423 29.3333 45 29.3333C48.8577 29.3333 52.5574 30.8786 55.2852 33.6291C58.013 36.3796 59.5455 40.1102 59.5455 44C59.5455 47.8898 58.013 51.6204 55.2852 54.3709C52.5574 57.1214 48.8577 58.6667 45 58.6667ZM45 22C30.4545 22 18.0327 31.1227 13 44C18.0327 56.8773 30.4545 66 45 66C59.5455 66 71.9673 56.8773 77 44C71.9673 31.1227 59.5455 22 45 22Z" fill="#2274AC"/>
<circle cx="45" cy="44" r="8.75" fill="white" stroke="#2274AC" stroke-width="0.5"/>
</svg>
