<svg width="30" height="28" viewBox="0 0 30 28" fill="none" xmlns="http://www.w3.org/2000/svg">
<path fill-rule="evenodd" clip-rule="evenodd" d="M0 13.9998C0 14.5794 0.485775 15.0498 1.08432 15.0498H16.9486L14.1135 17.4017C14.0053 17.4915 13.9164 17.6009 13.8518 17.7239C13.7873 17.8469 13.7484 17.981 13.7374 18.1186C13.7264 18.2561 13.7435 18.3944 13.7877 18.5255C13.8319 18.6567 13.9023 18.7781 13.995 18.8829C14.0876 18.9877 14.2007 19.0738 14.3277 19.1363C14.4547 19.1988 14.5932 19.2364 14.7352 19.2471C14.8772 19.2577 15.0201 19.2412 15.1555 19.1984C15.2909 19.1556 15.4163 19.0874 15.5246 18.9977L20.5847 14.7978C20.7038 14.6992 20.7993 14.5768 20.8649 14.4391C20.9304 14.3013 20.9643 14.1515 20.9643 13.9998C20.9643 13.8481 20.9304 13.6983 20.8649 13.5605C20.7993 13.4228 20.7038 13.3004 20.5847 13.2018L15.5246 9.00188C15.306 8.82068 15.0221 8.73098 14.7352 8.75251C14.4483 8.77404 14.1821 8.90503 13.995 9.11667C13.8078 9.32831 13.7152 9.60326 13.7374 9.88104C13.7597 10.1588 13.8949 10.4167 14.1135 10.5978L16.9472 12.9498H1.08577C0.798186 12.9498 0.522385 13.0604 0.319036 13.2573C0.115686 13.4543 0.00144583 13.7213 0.00144583 13.9998H0Z" fill="#275473"/>
<path d="M11.2049 10.8498H11.7514C11.5126 10.1957 11.5034 9.48349 11.7254 8.82381C11.9474 8.16414 12.3882 7.5939 12.9792 7.20163C13.5702 6.80936 14.2784 6.61701 14.9938 6.65445C15.7093 6.69189 16.392 6.95702 16.9359 7.40868L21.996 11.6086C22.3522 11.9043 22.638 12.2711 22.834 12.6839C23.03 13.0966 23.1315 13.5455 23.1315 13.9998C23.1315 14.454 23.03 14.9029 22.834 15.3157C22.638 15.7284 22.3522 16.0952 21.996 16.3909L16.9359 20.5909C16.392 21.0425 15.7093 21.3077 14.9938 21.3451C14.2784 21.3825 13.5702 21.1902 12.9792 20.7979C12.3882 20.4056 11.9474 19.8354 11.7254 19.1757C11.5034 18.5161 11.5126 17.8039 11.7514 17.1497H11.2049V19.5997C11.2049 23.5588 11.2049 25.5398 12.4757 26.769C13.7451 27.9995 15.7908 27.9995 19.8795 27.9995H21.3252C25.4138 27.9995 27.4596 27.9995 28.7289 26.769C29.9998 25.5398 29.9998 23.5588 29.9998 19.5997V8.39986C29.9998 4.44073 29.9998 2.45976 28.7289 1.23058C27.4596 -8.34451e-08 25.4138 0 21.3252 0H19.8795C15.7908 0 13.7451 -8.34451e-08 12.4757 1.23058C11.2049 2.45976 11.2049 4.44073 11.2049 8.39986V10.8498Z" fill="#275473"/>
</svg>
