<svg width="23" height="16" viewBox="0 0 23 16" fill="none" xmlns="http://www.w3.org/2000/svg">
<path d="M8.80611 11.4286L14.5191 8L8.80611 4.57143V11.4286ZM21.5309 2.48C21.674 3.01714 21.7731 3.73714 21.8391 4.65143C21.9162 5.56571 21.9492 6.35429 21.9492 7.04L22.0153 8C22.0153 10.5029 21.8391 12.3429 21.5309 13.52C21.2557 14.5486 20.6173 15.2114 19.6266 15.4971C19.1093 15.6457 18.1626 15.7486 16.7096 15.8171C15.2786 15.8971 13.9687 15.9314 12.7578 15.9314L11.0076 16C6.39543 16 3.52244 15.8171 2.38866 15.4971C1.39797 15.2114 0.759527 14.5486 0.484336 13.52C0.341237 12.9829 0.242168 12.2629 0.176122 11.3486C0.0990688 10.4343 0.0660457 9.64571 0.0660457 8.96L0 8C0 5.49714 0.176122 3.65714 0.484336 2.48C0.759527 1.45143 1.39797 0.788572 2.38866 0.502857C2.90602 0.354286 3.85267 0.251428 5.30568 0.182857C6.73667 0.102857 8.04658 0.0685714 9.25742 0.0685714L11.0076 0C15.6198 0 18.4928 0.182857 19.6266 0.502857C20.6173 0.788572 21.2557 1.45143 21.5309 2.48Z" fill="white"/>
</svg>
