<svg width="25" height="24" viewBox="0 0 25 24" fill="none" xmlns="http://www.w3.org/2000/svg">
<mask id="path-1-inside-1_0_57" fill="white">
<path d="M15.1723 14.4934C14.8061 14.0947 14.4033 13.743 13.9639 13.4381C13.5245 13.1332 13.0525 12.8713 12.548 12.6524C12.0434 12.4336 11.5308 12.2733 11.01 12.1717C10.4892 12.07 9.94398 12.0153 9.37436 12.0075C8.65826 12.0075 7.96658 12.0974 7.29931 12.2772C6.63203 12.457 6.00952 12.7072 5.43176 13.0277C4.854 13.3482 4.32913 13.7391 3.85716 14.2003C3.38519 14.6615 2.97831 15.1696 2.63654 15.7247C2.29476 16.2797 2.0303 16.8777 1.84314 17.5188C1.65597 18.1598 1.56239 18.8243 1.56239 19.5122H0C0 18.5741 0.142406 17.6712 0.427217 16.8035C0.712028 15.9357 1.12297 15.1345 1.66004 14.3996C2.19712 13.6648 2.83184 13.012 3.56421 12.4414C4.29658 11.8707 5.1266 11.4212 6.05427 11.0929C5.13474 10.5144 4.41864 9.78737 3.90598 8.91182C3.39332 8.03627 3.13292 7.06692 3.12479 6.00375C3.12479 5.17511 3.28754 4.39728 3.61303 3.67026C3.93853 2.94325 4.38202 2.30613 4.94351 1.75891C5.50499 1.21169 6.1682 0.781739 6.93312 0.469043C7.69804 0.156348 8.51179 0 9.37436 0C10.2369 0 11.0466 0.156348 11.8034 0.469043C12.5602 0.781739 13.2234 1.20779 13.793 1.74719C14.3626 2.28659 14.8102 2.9237 15.1357 3.65854C15.4612 4.39337 15.6239 5.17511 15.6239 6.00375C15.6239 6.5197 15.5588 7.02392 15.4286 7.51642C15.2984 8.00891 15.1031 8.47405 14.8427 8.91182C14.5823 9.34959 14.2772 9.75219 13.9273 10.1196C13.5774 10.487 13.1664 10.8114 12.6944 11.0929C13.378 11.343 14.0209 11.6635 14.623 12.0544C15.2252 12.4453 15.7745 12.9026 16.2709 13.4264L15.1723 14.4934ZM4.68718 6.00375C4.68718 6.62914 4.80924 7.21154 5.05337 7.75094C5.29749 8.29034 5.63113 8.7672 6.05427 9.18152C6.47742 9.59584 6.97381 9.92026 7.54343 10.1548C8.11305 10.3893 8.72336 10.5066 9.37436 10.5066C10.0172 10.5066 10.6235 10.3893 11.1931 10.1548C11.7627 9.92026 12.2591 9.59975 12.6822 9.19325C13.1054 8.78674 13.4431 8.30988 13.6954 7.76266C13.9476 7.21545 14.0697 6.62914 14.0615 6.00375C14.0615 5.38618 13.9395 4.80378 13.6954 4.25657C13.4512 3.70935 13.1176 3.23249 12.6944 2.82598C12.2713 2.41948 11.7708 2.09506 11.1931 1.85272C10.6153 1.61038 10.0091 1.49312 9.37436 1.50094C8.72336 1.50094 8.11712 1.6182 7.55564 1.85272C6.99415 2.08724 6.49776 2.40775 6.06648 2.81426C5.63519 3.22076 5.29749 3.70153 5.05337 4.25657C4.80924 4.8116 4.68718 5.394 4.68718 6.00375ZM22.5571 10.5066C22.8988 10.5066 23.2162 10.5652 23.5091 10.6825C23.8021 10.7997 24.0625 10.96 24.2903 11.1632C24.5182 11.3665 24.6891 11.6127 24.803 11.902C24.9169 12.1912 24.982 12.5 24.9983 12.8283C24.9983 13.1332 24.9373 13.4303 24.8152 13.7195C24.6931 14.0088 24.5182 14.2628 24.2903 14.4817L15.5385 22.8893L10.9368 23.9916L12.0841 19.5708L20.836 11.175C21.072 10.9482 21.3364 10.7802 21.6294 10.6707C21.9223 10.5613 22.2316 10.5066 22.5571 10.5066ZM23.1796 13.4264C23.3505 13.2622 23.4359 13.0629 23.4359 12.8283C23.4359 12.586 23.3545 12.3906 23.1918 12.242C23.029 12.0935 22.8174 12.0153 22.5571 12.0075C22.4431 12.0075 22.3333 12.0231 22.2275 12.0544C22.1217 12.0857 22.0281 12.1443 21.9467 12.2303L13.5001 20.3447L13.085 21.9278L14.7329 21.5291L23.1796 13.4264Z"/>
</mask>
<path d="M15.1723 14.4934C14.8061 14.0947 14.4033 13.743 13.9639 13.4381C13.5245 13.1332 13.0525 12.8713 12.548 12.6524C12.0434 12.4336 11.5308 12.2733 11.01 12.1717C10.4892 12.07 9.94398 12.0153 9.37436 12.0075C8.65826 12.0075 7.96658 12.0974 7.29931 12.2772C6.63203 12.457 6.00952 12.7072 5.43176 13.0277C4.854 13.3482 4.32913 13.7391 3.85716 14.2003C3.38519 14.6615 2.97831 15.1696 2.63654 15.7247C2.29476 16.2797 2.0303 16.8777 1.84314 17.5188C1.65597 18.1598 1.56239 18.8243 1.56239 19.5122H0C0 18.5741 0.142406 17.6712 0.427217 16.8035C0.712028 15.9357 1.12297 15.1345 1.66004 14.3996C2.19712 13.6648 2.83184 13.012 3.56421 12.4414C4.29658 11.8707 5.1266 11.4212 6.05427 11.0929C5.13474 10.5144 4.41864 9.78737 3.90598 8.91182C3.39332 8.03627 3.13292 7.06692 3.12479 6.00375C3.12479 5.17511 3.28754 4.39728 3.61303 3.67026C3.93853 2.94325 4.38202 2.30613 4.94351 1.75891C5.50499 1.21169 6.1682 0.781739 6.93312 0.469043C7.69804 0.156348 8.51179 0 9.37436 0C10.2369 0 11.0466 0.156348 11.8034 0.469043C12.5602 0.781739 13.2234 1.20779 13.793 1.74719C14.3626 2.28659 14.8102 2.9237 15.1357 3.65854C15.4612 4.39337 15.6239 5.17511 15.6239 6.00375C15.6239 6.5197 15.5588 7.02392 15.4286 7.51642C15.2984 8.00891 15.1031 8.47405 14.8427 8.91182C14.5823 9.34959 14.2772 9.75219 13.9273 10.1196C13.5774 10.487 13.1664 10.8114 12.6944 11.0929C13.378 11.343 14.0209 11.6635 14.623 12.0544C15.2252 12.4453 15.7745 12.9026 16.2709 13.4264L15.1723 14.4934ZM4.68718 6.00375C4.68718 6.62914 4.80924 7.21154 5.05337 7.75094C5.29749 8.29034 5.63113 8.7672 6.05427 9.18152C6.47742 9.59584 6.97381 9.92026 7.54343 10.1548C8.11305 10.3893 8.72336 10.5066 9.37436 10.5066C10.0172 10.5066 10.6235 10.3893 11.1931 10.1548C11.7627 9.92026 12.2591 9.59975 12.6822 9.19325C13.1054 8.78674 13.4431 8.30988 13.6954 7.76266C13.9476 7.21545 14.0697 6.62914 14.0615 6.00375C14.0615 5.38618 13.9395 4.80378 13.6954 4.25657C13.4512 3.70935 13.1176 3.23249 12.6944 2.82598C12.2713 2.41948 11.7708 2.09506 11.1931 1.85272C10.6153 1.61038 10.0091 1.49312 9.37436 1.50094C8.72336 1.50094 8.11712 1.6182 7.55564 1.85272C6.99415 2.08724 6.49776 2.40775 6.06648 2.81426C5.63519 3.22076 5.29749 3.70153 5.05337 4.25657C4.80924 4.8116 4.68718 5.394 4.68718 6.00375ZM22.5571 10.5066C22.8988 10.5066 23.2162 10.5652 23.5091 10.6825C23.8021 10.7997 24.0625 10.96 24.2903 11.1632C24.5182 11.3665 24.6891 11.6127 24.803 11.902C24.9169 12.1912 24.982 12.5 24.9983 12.8283C24.9983 13.1332 24.9373 13.4303 24.8152 13.7195C24.6931 14.0088 24.5182 14.2628 24.2903 14.4817L15.5385 22.8893L10.9368 23.9916L12.0841 19.5708L20.836 11.175C21.072 10.9482 21.3364 10.7802 21.6294 10.6707C21.9223 10.5613 22.2316 10.5066 22.5571 10.5066ZM23.1796 13.4264C23.3505 13.2622 23.4359 13.0629 23.4359 12.8283C23.4359 12.586 23.3545 12.3906 23.1918 12.242C23.029 12.0935 22.8174 12.0153 22.5571 12.0075C22.4431 12.0075 22.3333 12.0231 22.2275 12.0544C22.1217 12.0857 22.0281 12.1443 21.9467 12.2303L13.5001 20.3447L13.085 21.9278L14.7329 21.5291L23.1796 13.4264Z" fill="#275473"/>
<path d="M15.1723 14.4934L11.856 17.5394L14.9882 20.9496L18.3097 17.7234L15.1723 14.4934ZM9.37436 12.0075L9.43615 7.50511L9.40526 7.50469H9.37436V12.0075ZM1.56239 19.5122V24.015H6.06521V19.5122H1.56239ZM0 19.5122H-4.50281V24.015H0V19.5122ZM6.05427 11.0929L7.55663 15.3377L16.3248 12.2344L8.45201 7.28155L6.05427 11.0929ZM3.12479 6.00375H-1.37803V6.02098L-1.3779 6.03822L3.12479 6.00375ZM12.6944 11.0929L10.3884 7.2254L2.26319 12.0702L11.1469 15.3214L12.6944 11.0929ZM16.2709 13.4264L19.4082 16.6563L22.5987 13.5573L19.5391 10.329L16.2709 13.4264ZM14.0615 6.00375H9.55872V6.03305L9.5591 6.06234L14.0615 6.00375ZM9.37436 1.50094V6.00375H9.40209L9.42981 6.00341L9.37436 1.50094ZM24.9983 12.8283H29.5011V12.7168L29.4956 12.6054L24.9983 12.8283ZM15.5385 22.8893L16.5874 27.2683L17.7763 26.9835L18.658 26.1365L15.5385 22.8893ZM10.9368 23.9916L6.57834 22.8604L4.69495 30.1168L11.9856 28.3705L10.9368 23.9916ZM12.0841 19.5708L8.96693 16.3215L8.04625 17.2047L7.72573 18.4396L12.0841 19.5708ZM20.836 11.175L23.9532 14.4243L23.9554 14.4221L20.836 11.175ZM23.1796 13.4264L26.2967 16.6758L26.299 16.6736L23.1796 13.4264ZM22.5571 12.0075L22.6922 7.50672L22.6246 7.50469H22.5571V12.0075ZM21.9467 12.2303L25.0662 15.4775L25.1436 15.4032L25.2173 15.3253L21.9467 12.2303ZM13.5001 20.3447L10.3806 17.0976L9.46604 17.9761L9.14443 19.2029L13.5001 20.3447ZM13.085 21.9278L8.72942 20.7859L6.81801 28.0768L14.1439 26.3043L13.085 21.9278ZM14.7329 21.5291L15.7918 25.9056L16.973 25.6198L17.85 24.7785L14.7329 21.5291ZM18.4886 11.4475C17.9002 10.8069 17.2466 10.2352 16.5307 9.73852L11.3971 17.1377C11.56 17.2507 11.712 17.3826 11.856 17.5394L18.4886 11.4475ZM16.5307 9.73852C15.8411 9.26005 15.1087 8.8551 14.3401 8.52163L10.7558 16.7832C10.9963 16.8876 11.2079 17.0064 11.3971 17.1377L16.5307 9.73852ZM14.3401 8.52163C13.5479 8.17793 12.7241 7.9184 11.8724 7.75221L10.1476 16.5911C10.3375 16.6282 10.539 16.6892 10.7558 16.7832L14.3401 8.52163ZM11.8724 7.75221C11.0692 7.59549 10.255 7.51635 9.43615 7.50511L9.31257 16.5099C9.63292 16.5143 9.90917 16.5446 10.1476 16.5911L11.8724 7.75221ZM9.37436 7.50469C8.27702 7.50469 7.1907 7.64305 6.12778 7.92946L8.47083 16.6249C8.74246 16.5518 9.0395 16.5103 9.37436 16.5103V7.50469ZM6.12778 7.92946C5.12372 8.20001 4.15924 8.58433 3.24742 9.09016L7.6161 16.9652C7.8598 16.83 8.14035 16.714 8.47083 16.6249L6.12778 7.92946ZM3.24742 9.09016C2.3186 9.60542 1.46986 10.2374 0.710064 10.9799L7.00425 17.4207C7.1884 17.2408 7.38939 17.0909 7.6161 16.9652L3.24742 9.09016ZM0.710064 10.9799C-0.0219217 11.6952 -0.660447 12.4913 -1.19766 13.3637L6.47074 18.0857C6.61707 17.848 6.79229 17.6278 7.00425 17.4207L0.710064 10.9799ZM-1.19766 13.3637C-1.7557 14.2699 -2.18199 15.2388 -2.47921 16.2568L6.16548 18.7808C6.24258 18.5167 6.34523 18.2895 6.47074 18.0857L-1.19766 13.3637ZM-2.47921 16.2568C-2.78966 17.32 -2.94042 18.4101 -2.94042 19.5122H6.06521C6.06521 19.2384 6.10161 18.9995 6.16548 18.7808L-2.47921 16.2568ZM1.56239 15.0094H0V24.015H1.56239V15.0094ZM4.50281 19.5122C4.50281 19.038 4.57346 18.6099 4.70547 18.2077L-3.85104 15.3992C-4.28865 16.7325 -4.50281 18.1102 -4.50281 19.5122H4.50281ZM4.70547 18.2077C4.84351 17.7871 5.03795 17.4088 5.29539 17.0566L-1.9753 11.7426C-2.79201 12.8601 -3.41946 14.0843 -3.85104 15.3992L4.70547 18.2077ZM5.29539 17.0566C5.58116 16.6656 5.92211 16.3125 6.33183 15.9932L0.796587 8.88952C-0.258438 9.71161 -1.18693 10.664 -1.9753 11.7426L5.29539 17.0566ZM6.33183 15.9932C6.66012 15.7374 7.05777 15.5142 7.55663 15.3377L4.55192 6.84808C3.19544 7.32818 1.93304 8.00399 0.796587 8.88952L6.33183 15.9932ZM8.45201 7.28155C8.1002 7.06022 7.91329 6.84428 7.7917 6.63661L0.0202692 11.187C0.923996 12.7305 2.16928 13.9685 3.65654 14.9042L8.45201 7.28155ZM7.7917 6.63661C7.69662 6.47424 7.62988 6.2837 7.62747 5.96929L-1.3779 6.03822C-1.36403 7.85014 -0.909975 9.59831 0.0202692 11.187L7.7917 6.63661ZM7.6276 6.00375C7.6276 5.78313 7.66687 5.63507 7.72275 5.51026L-0.496681 1.83027C-1.0918 3.15949 -1.37803 4.56709 -1.37803 6.00375H7.6276ZM7.72275 5.51026C7.81993 5.29319 7.93813 5.12794 8.08624 4.98359L1.80077 -1.46577C0.825918 -0.515682 0.0571308 0.593303 -0.496681 1.83027L7.72275 5.51026ZM8.08624 4.98359C8.21108 4.86193 8.37851 4.7427 8.63697 4.63704L5.22927 -3.69896C3.95789 -3.17923 2.79891 -2.43854 1.80077 -1.46577L8.08624 4.98359ZM8.63697 4.63704C8.83745 4.55509 9.07003 4.50281 9.37436 4.50281V-4.50281C7.95354 -4.50281 6.55864 -4.2424 5.22927 -3.69896L8.63697 4.63704ZM9.37436 4.50281C9.67894 4.50281 9.90119 4.55512 10.0839 4.63061L13.5229 -3.69252C12.192 -4.24243 10.7949 -4.50281 9.37436 -4.50281V4.50281ZM10.0839 4.63061C10.3537 4.7421 10.5451 4.87291 10.6969 5.01671L16.8891 -1.52234C15.9017 -2.45734 14.7666 -3.17862 13.5229 -3.69252L10.0839 4.63061ZM10.6969 5.01671C10.8232 5.1363 10.9284 5.27845 11.0187 5.48218L19.2527 1.83489C18.6919 0.568955 17.902 -0.563126 16.8891 -1.52234L10.6969 5.01671ZM11.0187 5.48218C11.0818 5.6247 11.1211 5.78326 11.1211 6.00375H20.1267C20.1267 4.56696 19.8405 3.16204 19.2527 1.83489L11.0187 5.48218ZM11.1211 6.00375C11.1211 6.13626 11.105 6.25346 11.0754 6.36556L19.7819 8.66727C20.0127 7.79439 20.1267 6.90314 20.1267 6.00375H11.1211ZM11.0754 6.36556C11.052 6.45382 11.0194 6.53153 10.9728 6.60988L18.7127 11.2138C19.1869 10.4166 19.5448 9.564 19.7819 8.66727L11.0754 6.36556ZM10.9728 6.60988C10.8841 6.75904 10.783 6.89196 10.6666 7.01426L17.188 13.2249C17.7713 12.6124 18.2806 11.9402 18.7127 11.2138L10.9728 6.60988ZM10.6666 7.01426C10.6211 7.06198 10.538 7.1362 10.3884 7.2254L15.0005 14.9603C15.7949 14.4867 16.5336 13.9121 17.188 13.2249L10.6666 7.01426ZM11.1469 15.3214C11.5176 15.457 11.8567 15.627 12.1714 15.8313L17.0746 8.2775C16.185 7.70008 15.2384 7.229 14.242 6.86433L11.1469 15.3214ZM12.1714 15.8313C12.474 16.0277 12.7494 16.2566 13.0026 16.5238L19.5391 10.329C18.7995 9.5486 17.9764 8.86286 17.0746 8.2775L12.1714 15.8313ZM13.1335 10.1964L12.035 11.2635L18.3097 17.7234L19.4082 16.6563L13.1335 10.1964ZM0.184365 6.00375C0.184365 7.23269 0.428242 8.45221 0.951129 9.60755L9.1556 5.89433C9.16952 5.92509 9.17985 5.9576 9.18579 5.98593C9.19157 6.01354 9.18999 6.02183 9.18999 6.00375H0.184365ZM0.951129 9.60755C1.42553 10.6558 2.08203 11.594 2.90404 12.3989L9.20451 5.96417C9.18022 5.94038 9.16945 5.92492 9.1556 5.89433L0.951129 9.60755ZM2.90404 12.3989C3.75718 13.2342 4.74641 13.8727 5.82916 14.3185L9.25769 5.99106C9.22432 5.97732 9.20978 5.96797 9.20735 5.96638C9.20526 5.96501 9.20546 5.9651 9.20451 5.96417L2.90404 12.3989ZM5.82916 14.3185C6.97307 14.7895 8.16917 15.0094 9.37436 15.0094V6.00375C9.32051 6.00375 9.2902 5.99903 9.27798 5.99669C9.26633 5.99445 9.26118 5.99249 9.25769 5.99106L5.82916 14.3185ZM9.37436 15.0094C10.5792 15.0094 11.7703 14.7866 12.9073 14.3185L9.47882 5.99106C9.47661 5.99197 9.45523 6.00375 9.37436 6.00375V15.0094ZM12.9073 14.3185C13.9723 13.8801 14.9516 13.2571 15.8017 12.4404L9.56277 5.94605C9.56063 5.94811 9.55768 5.95081 9.55007 5.95573C9.54208 5.96089 9.52053 5.97388 9.47882 5.99106L12.9073 14.3185ZM15.8017 12.4404C16.6413 11.6339 17.3034 10.6916 17.7846 9.64776L9.60613 5.87757C9.58278 5.92821 9.56948 5.93961 9.56277 5.94605L15.8017 12.4404ZM17.7846 9.64776C18.3284 8.46816 18.5805 7.21495 18.564 5.94517L9.5591 6.06234C9.55911 6.06286 9.55901 6.05643 9.56019 6.04397C9.56136 6.03143 9.56365 6.0147 9.5678 5.99477C9.57663 5.95238 9.59054 5.91138 9.60613 5.87757L17.7846 9.64776ZM18.5644 6.00375C18.5644 4.77392 18.3172 3.56446 17.8075 2.42205L9.58319 6.09108C9.57578 6.07447 9.56801 6.05167 9.56293 6.02743C9.55793 6.0036 9.55872 5.9936 9.55872 6.00375H18.5644ZM17.8075 2.42205C17.3318 1.35581 16.665 0.396378 15.8139 -0.421207L9.57498 6.07318C9.57659 6.07473 9.57655 6.07483 9.57549 6.07359C9.57443 6.07234 9.57335 6.07095 9.57258 6.06984C9.57181 6.06874 9.57223 6.0692 9.57375 6.07189C9.57528 6.07461 9.57857 6.08073 9.58319 6.09108L17.8075 2.42205ZM15.8139 -0.421207C14.9647 -1.23703 13.9886 -1.85757 12.9348 -2.29961L9.4514 6.00506C9.50613 6.02801 9.53747 6.04648 9.5524 6.05616C9.56686 6.06553 9.57279 6.07107 9.57498 6.07318L15.8139 -0.421207ZM12.9348 -2.29961C11.7806 -2.78372 10.562 -3.01684 9.31891 -3.00153L9.42981 6.00341C9.44082 6.00328 9.44715 6.00373 9.44948 6.00393C9.45177 6.00413 9.45171 6.00423 9.44998 6.0039C9.44825 6.00356 9.44668 6.00315 9.44587 6.0029C9.44508 6.00266 9.44679 6.00312 9.4514 6.00506L12.9348 -2.29961ZM9.37436 -3.00188C8.16968 -3.00188 6.96902 -2.78207 5.82019 -2.30223L9.29108 6.00767C9.28404 6.0106 9.28069 6.01089 9.28653 6.00976C9.29308 6.00849 9.32038 6.00375 9.37436 6.00375V-3.00188ZM5.82019 -2.30223C4.77212 -1.86447 3.81437 -1.25073 2.97804 -0.462459L9.15492 6.09098C9.18116 6.06624 9.21618 6.03895 9.29108 6.00767L5.82019 -2.30223ZM2.97804 -0.462459C2.09746 0.367519 1.41289 1.34947 0.931622 2.44368L9.17511 6.06946C9.17847 6.06181 9.18023 6.05878 9.17986 6.05944C9.17947 6.06013 9.17768 6.06321 9.17438 6.0679C9.17107 6.07261 9.16725 6.07752 9.16325 6.08214C9.15926 6.08674 9.15624 6.08973 9.15492 6.09098L2.97804 -0.462459ZM0.931622 2.44368C0.434744 3.57337 0.184365 4.77344 0.184365 6.00375H9.18999C9.18999 6.00155 9.18998 6.0133 9.18579 6.0333C9.18158 6.05336 9.17632 6.0667 9.17511 6.06946L0.931622 2.44368ZM22.5571 15.0094C22.3736 15.0094 22.1178 14.9757 21.8358 14.8628L25.1824 6.5021C24.3146 6.15471 23.4241 6.00375 22.5571 6.00375V15.0094ZM21.8358 14.8628C21.6596 14.7923 21.4685 14.68 21.2929 14.5234L27.2878 7.80306C26.6565 7.23994 25.9446 6.80716 25.1824 6.5021L21.8358 14.8628ZM21.2929 14.5234C20.9853 14.249 20.7528 13.9059 20.6134 13.5521L28.9925 10.2518C28.6253 9.31951 28.0511 8.48397 27.2878 7.80306L21.2929 14.5234ZM20.6134 13.5521C20.5377 13.3599 20.5076 13.184 20.501 13.0513L29.4956 12.6054C29.4565 11.816 29.2961 11.0225 28.9925 10.2518L20.6134 13.5521ZM20.4955 12.8283C20.4955 12.5138 20.562 12.2168 20.6667 11.9688L28.9637 15.4702C29.3125 14.6438 29.5011 13.7526 29.5011 12.8283H20.4955ZM20.6667 11.9688C20.784 11.6908 20.9605 11.4366 21.1709 11.2345L27.4098 17.7289C28.0758 17.089 28.6023 16.3267 28.9637 15.4702L20.6667 11.9688ZM21.1709 11.2345L12.419 19.6421L18.658 26.1365L27.4098 17.7289L21.1709 11.2345ZM14.4896 18.5104L9.88787 19.6126L11.9856 28.3705L16.5874 27.2683L14.4896 18.5104ZM15.2952 25.1228L16.4425 20.702L7.72573 18.4396L6.57834 22.8604L15.2952 25.1228ZM15.2013 22.8202L23.9532 14.4243L17.7188 7.92559L8.96693 16.3215L15.2013 22.8202ZM23.9554 14.4221C23.7695 14.6008 23.5143 14.7733 23.2052 14.8888L20.0535 6.45267C19.1586 6.78701 18.3745 7.29568 17.7165 7.92776L23.9554 14.4221ZM23.2052 14.8888C22.9737 14.9753 22.7473 15.0094 22.5571 15.0094V6.00375C21.7158 6.00375 20.871 6.14727 20.0535 6.45267L23.2052 14.8888ZM26.299 16.6736C27.3433 15.6704 27.9387 14.3028 27.9387 12.8283H18.9331C18.9331 12.3858 19.0166 11.885 19.2332 11.3798C19.4493 10.8756 19.7511 10.476 20.0601 10.1792L26.299 16.6736ZM27.9387 12.8283C27.9387 11.4613 27.424 10.0084 26.2271 8.91608L20.1564 15.568C19.7723 15.2174 19.4405 14.7653 19.218 14.2308C18.9996 13.7064 18.9331 13.2159 18.9331 12.8283H27.9387ZM26.2271 8.91608C25.1289 7.91382 23.8223 7.54065 22.6922 7.50672L22.4219 16.5083C21.8126 16.49 20.9291 16.2732 20.1564 15.568L26.2271 8.91608ZM22.5571 7.50469C22.0253 7.50469 21.4847 7.57855 20.9511 7.73629L23.5039 16.3725C23.1818 16.4677 22.861 16.5103 22.5571 16.5103V7.50469ZM20.9511 7.73629C20.0288 8.00892 19.2616 8.51672 18.6762 9.13533L25.2173 15.3253C24.7946 15.7719 24.2146 16.1624 23.5039 16.3725L20.9511 7.73629ZM18.8273 8.98311L10.3806 17.0976L16.6195 23.5919L25.0662 15.4775L18.8273 8.98311ZM9.14443 19.2029L8.72942 20.7859L17.4407 23.0697L17.8557 21.4866L9.14443 19.2029ZM14.1439 26.3043L15.7918 25.9056L13.674 17.1525L12.0262 17.5512L14.1439 26.3043ZM17.85 24.7785L26.2967 16.6758L20.0624 10.1769L11.6158 18.2796L17.85 24.7785Z" fill="#275473" mask="url(#path-1-inside-1_0_57)"/>
</svg>
