<svg width="21" height="19" viewBox="0 0 21 19" fill="none" xmlns="http://www.w3.org/2000/svg">
<path d="M10.2751 0.15303C9.62632 0.15303 9.10037 0.678986 9.10037 1.32779V17.6722C9.10037 18.321 9.62632 18.847 10.2751 18.847H10.4689C11.1177 18.847 11.6436 18.321 11.6436 17.6722V1.32779C11.6436 0.678986 11.1177 0.15303 10.4689 0.15303H10.2751Z" fill="#6F6C90" stroke="#6F6C90" stroke-width="0.3" stroke-linecap="round"/>
<path d="M1.32878 8.32524C0.679983 8.32524 0.154027 8.8512 0.154027 9.5C0.154027 10.1488 0.679983 10.6748 1.32878 10.6748H19.4171C20.0659 10.6748 20.5919 10.1488 20.5919 9.5C20.5919 8.8512 20.0659 8.32524 19.4171 8.32524H1.32878Z" fill="#6F6C90" stroke="#6F6C90" stroke-width="0.3" stroke-linecap="round"/>
</svg>
