<svg width="32" height="33" viewBox="0 0 32 33" fill="none" xmlns="http://www.w3.org/2000/svg">
<g clip-path="url(#clip0_849_12487)">
<path d="M26.9956 1.63968L27.2936 1.33237C27.5179 1.1012 27.7842 0.917852 28.0772 0.792794C28.3702 0.667737 28.6842 0.60342 29.0013 0.603516C29.3184 0.603611 29.6324 0.668118 29.9254 0.793352C30.2183 0.918587 30.4845 1.1021 30.7086 1.3334C30.9328 1.56471 31.1106 1.83929 31.2319 2.14145C31.3531 2.44362 31.4155 2.76745 31.4154 3.09448C31.4153 3.4215 31.3528 3.7453 31.2313 4.04739C31.1099 4.34948 30.9319 4.62395 30.7076 4.85512L30.4096 5.16037C30.9194 5.74996 31.1912 6.51831 31.1692 7.30791C31.1473 8.0975 30.8333 8.84854 30.2916 9.40706L9.70763 30.6364C9.57895 30.7684 9.41786 30.8618 9.24163 30.9066L1.24163 32.9691C1.07422 33.0121 0.898864 33.0096 0.732618 32.9621C0.566372 32.9145 0.414889 32.8234 0.292893 32.6976C0.170898 32.5718 0.0825403 32.4155 0.0364095 32.2441C-0.00972135 32.0727 -0.0120561 31.8918 0.0296321 31.7192L2.02963 23.4692C2.07339 23.2882 2.16394 23.1228 2.29163 22.9907L21.5756 3.10406C21.3828 2.96408 21.1481 2.8989 20.9132 2.92003C20.6782 2.94116 20.4581 3.04726 20.2916 3.21956L13.7076 10.0114C13.6147 10.1073 13.5043 10.1833 13.3828 10.2352C13.2613 10.2871 13.1311 10.3138 12.9996 10.3138C12.8681 10.3138 12.7379 10.2871 12.6165 10.2352C12.495 10.1833 12.3846 10.1073 12.2916 10.0114C12.1987 9.91549 12.1249 9.80166 12.0746 9.67639C12.0243 9.55111 11.9984 9.41684 11.9984 9.28125C11.9984 9.14565 12.0243 9.01138 12.0746 8.88611C12.1249 8.76083 12.1987 8.647 12.2916 8.55112L18.8796 1.76137C19.4216 1.20247 20.1504 0.878665 20.9166 0.85642C21.6827 0.834175 22.428 1.11517 22.9996 1.64175C23.5492 1.13528 24.2602 0.855134 24.9972 0.854754C25.7343 0.854373 26.4456 1.13378 26.9956 1.63968ZM25.7076 3.21956C25.5201 3.02623 25.2658 2.91762 25.0006 2.91762C24.7355 2.91762 24.4812 3.02623 24.2936 3.21956L3.89963 24.2467L2.37163 30.5518L8.48563 28.9761L28.8796 7.94887C28.9728 7.85308 29.0466 7.73928 29.0971 7.61399C29.1475 7.4887 29.1734 7.35439 29.1734 7.21875C29.1734 7.0831 29.1475 6.94879 29.0971 6.8235C29.0466 6.69822 28.9728 6.58442 28.8796 6.48862L25.7076 3.21956Z" fill="#2274AC"/>
</g>
<defs>
<clipPath id="clip0_849_12487">
<rect width="32" height="33" fill="white"/>
</clipPath>
</defs>
</svg>
