<svg width="150" height="85" viewBox="0 0 150 85" fill="none" xmlns="http://www.w3.org/2000/svg">
<path fill-rule="evenodd" clip-rule="evenodd" d="M142.953 59.2529C141.972 58.288 140.412 58.3029 139.439 59.2705C127.778 70.487 115.499 76.1923 102.979 76.3353C90.7887 76.4728 78.4729 71.1842 66.3896 60.7057C63.7037 58.4186 59.5521 53.6565 55.9 48.034C58.9643 43.6263 61.0063 38.4066 62.0146 33.3778C63.5017 25.9506 62.4188 19.1215 59.9679 15.7392C58.6098 13.8663 56.8586 12.7186 54.8111 12.2402C52.1902 11.6315 48.6289 12.1745 44.5417 15.6414C38.9025 20.4471 37.5318 27.3089 39.2164 34.8607C40.1062 38.8306 41.9026 42.9967 44.1402 47.0002C41.551 49.0671 38.3297 50.2627 34.4094 49.8323C26.111 48.9773 19.8888 42.1632 15.463 34.1459C11.6248 27.2102 7.00074 16.9641 8.22305 8.82259C8.63685 6.05587 9.8472 3.67802 7.56379 1.41683C4.06784 -2.08167 0.86322 1.53984 0.289508 5.33989C-0.938651 13.5032 1.9711 23.3368 4.84284 30.8674C10.1132 44.7258 20.0034 57.1901 33.3577 58.9085C39.6183 59.6853 44.9306 58.0206 49.2336 54.9273C53.3179 60.5955 57.7229 65.285 60.6133 67.6387C74.9146 79.0507 89.3076 84.3578 103.233 83.5506C117.145 82.7513 130.638 75.9207 142.971 62.7669C143.936 61.7854 143.935 60.2177 142.953 59.2529ZM50.1924 37.0297C49.324 34.7265 48.7371 32.4637 48.565 30.312C48.3507 27.5759 48.8785 25.0385 51.011 23.2353C51.3724 22.9344 51.8125 22.5143 52.1738 22.2134C52.4456 23.1635 52.9158 25.0324 52.9226 26.5784C52.9222 30.029 52.1377 34.1352 50.5632 37.9596C50.4151 37.6391 50.2969 37.3384 50.1924 37.0297Z" fill="#4D2C5E"/>
<path fill-rule="evenodd" clip-rule="evenodd" d="M52.4977 21.9511C52.7421 22.0868 52.9763 22.173 52.9576 21.9808C52.9288 21.7391 52.7665 21.7775 52.4977 21.9511Z" fill="#4D2C5E"/>
<path fill-rule="evenodd" clip-rule="evenodd" d="M136.125 64.7097C134.988 67.2477 133.89 69.9481 133.107 72.5223C131.902 76.5392 131.385 80.2141 132.376 82.8893C132.686 84.2238 134.031 85.0522 135.358 84.7292C136.692 84.42 137.52 83.0745 137.197 81.748C137.129 81.0863 137.36 80.3996 137.578 79.6276C138.078 77.8079 139.195 75.9081 140.411 73.8593C141.965 71.2461 143.834 68.6354 145.429 66.2201C146.88 64.0355 148.09 62.0084 148.86 60.4016C150.075 57.8731 150.141 55.7501 149.866 54.5066C149.789 54.1819 147.094 49.3539 142.484 51.2772C140.837 51.9703 136.753 53.9407 136.551 54.0387C134.097 55.3816 129.539 57.81 125.199 59.0799C123.827 59.4844 122.503 59.8431 121.296 59.8941C121.232 59.7834 121.168 59.6727 121.09 59.57C119.963 57.9696 117.771 57.5928 116.163 58.7059C115.272 59.2391 114.109 60.7407 113.798 61.6399C113.201 63.3867 113.865 64.7929 115.496 65.9551C117.717 67.5327 120.929 67.9842 124.541 67.6886C128.337 67.3606 132.638 66.0214 136.125 64.7097ZM140.134 56.6014C140.403 56.0769 140.494 55.692 140.131 55.6064C139.725 55.5091 139.995 56.2016 140.134 56.6014Z" fill="#4D2C5E"/>
</svg>
