<svg width="21" height="19" viewBox="0 0 21 19" fill="none" xmlns="http://www.w3.org/2000/svg">
<path d="M1.92413 1.27745L3.42211 0.450212C4.10394 0.0733261 4.90171 -0.074384 5.66651 0.034655C6.43131 0.143694 7.11086 0.50203 7.57831 1.04277L9.07046 2.76885C9.47251 3.23383 9.69573 3.80843 9.7088 4.41204C9.72187 5.01564 9.52414 5.61795 9.14336 6.13444L7.75905 8.01244C7.74195 8.03568 7.72956 8.06131 7.7225 8.08808C7.62257 8.46489 8.12138 9.28158 9.32514 10.4042C10.6826 11.6694 11.5887 12.0778 11.9168 11.8989L14.0521 10.7085C14.637 10.3829 15.3108 10.2249 15.9789 10.2567C16.6471 10.2886 17.2762 10.5086 17.7781 10.886L19.634 12.2802C20.2167 12.718 20.5914 13.3401 20.6885 14.031C20.7856 14.7219 20.5985 15.4345 20.1619 16.0365L19.197 17.3655C18.8616 17.8281 18.411 18.2166 17.8837 18.498C17.3564 18.7794 16.768 18.9452 16.1688 18.9814C12.6106 19.1956 8.95563 17.5185 5.19109 14.0097C1.42494 10.4987 -0.313837 7.14464 0.0464227 3.94259C0.106712 3.40652 0.308893 2.88447 0.635884 2.42054C0.962875 1.95662 1.4041 1.56471 1.92413 1.27745ZM2.65202 2.40675C2.33998 2.57907 2.07463 2.81433 1.8784 3.09266C1.68216 3.37099 1.5608 3.68421 1.52458 4.00585C1.21388 6.76514 2.77871 9.78472 6.28632 13.0543C9.79135 16.3218 13.0831 17.8318 16.1485 17.6467C16.5082 17.625 16.8614 17.5254 17.1779 17.3564C17.4944 17.1875 17.7648 16.9542 17.966 16.6764L18.9302 15.3485C19.1654 15.0244 19.2663 14.6407 19.2141 14.2686C19.1619 13.8966 18.9602 13.5615 18.6465 13.3257L16.7904 11.9306C16.5202 11.7274 16.1815 11.609 15.8218 11.5918C15.4621 11.5746 15.0994 11.6596 14.7844 11.8349L12.6437 13.0284C11.457 13.6791 10.0267 13.0349 8.2297 11.3588C6.70779 9.94106 6.02158 8.8142 6.27845 7.8449C6.32814 7.65747 6.4148 7.47822 6.53432 7.31544L7.91863 5.43744C8.12377 5.1593 8.23031 4.83493 8.2233 4.50985C8.21629 4.18476 8.09608 3.87529 7.87954 3.62488L6.38759 1.89966C6.13587 1.6084 5.76989 1.4154 5.35799 1.35669C4.94609 1.29798 4.51643 1.37757 4.14926 1.58061L2.65127 2.40785L2.65202 2.40675Z" fill="white"/>
</svg>
