<svg width="13" height="15" viewBox="0 0 13 15" fill="none" xmlns="http://www.w3.org/2000/svg">
<path d="M6.5 2.92301e-09C7.62116 -4.11501e-05 8.6987 0.434464 9.50623 1.21223C10.3138 1.98999 10.7884 3.05046 10.8304 4.17083L10.8333 4.33333H11.5556C11.92 4.33322 12.271 4.47085 12.5382 4.71864C12.8054 4.96642 12.9691 5.30606 12.9964 5.66944L13 5.77778V13C13.0001 13.3644 12.8625 13.7154 12.6147 13.9826C12.3669 14.2498 12.0273 14.4135 11.6639 14.4408L11.5556 14.4444H1.44444C1.08003 14.4446 0.729035 14.3069 0.461827 14.0591C0.194618 13.8114 0.0309425 13.4717 0.00361127 13.1083L7.24158e-08 13V5.77778C-0.000115252 5.41336 0.137516 5.06237 0.385303 4.79516C0.633091 4.52795 0.972721 4.36428 1.33611 4.33694L1.44444 4.33333H2.16667C2.16667 3.18406 2.62321 2.08186 3.43587 1.2692C4.24853 0.456546 5.35073 2.92301e-09 6.5 2.92301e-09ZM11.5556 5.77778H1.44444V13H11.5556V5.77778ZM6.5 7.22222C6.80809 7.22232 7.10808 7.32093 7.35615 7.50364C7.60422 7.68635 7.78737 7.94359 7.87885 8.23779C7.97033 8.53198 7.96534 8.84772 7.86462 9.13889C7.76389 9.43005 7.57271 9.68138 7.319 9.85617L7.22222 9.91756V10.8333C7.22202 11.0174 7.15153 11.1945 7.02516 11.3283C6.8988 11.4622 6.72609 11.5427 6.54233 11.5535C6.35856 11.5643 6.17761 11.5045 6.03645 11.3864C5.89529 11.2682 5.80457 11.1006 5.78283 10.9178L5.77778 10.8333V9.91756C5.50242 9.75856 5.28723 9.51316 5.16556 9.2194C5.04389 8.92564 5.02254 8.59994 5.10484 8.29281C5.18713 7.98569 5.36847 7.7143 5.62072 7.52073C5.87297 7.32716 6.18204 7.22224 6.5 7.22222ZM6.5 1.44444C5.73382 1.44444 4.99902 1.74881 4.45725 2.29058C3.91548 2.83235 3.61111 3.56715 3.61111 4.33333H9.38889C9.38889 3.56715 9.08452 2.83235 8.54275 2.29058C8.00098 1.74881 7.26618 1.44444 6.5 1.44444Z" fill="white"/>
</svg>
