<svg width="104" height="106" viewBox="0 0 104 106" fill="none" xmlns="http://www.w3.org/2000/svg">
<path fill-rule="evenodd" clip-rule="evenodd" d="M51.9608 92.7499C57.0785 92.7499 62.1461 91.7217 66.8743 89.7241C71.6024 87.7265 75.8985 84.7985 79.5173 81.1074C83.1361 77.4163 86.0066 73.0343 87.9651 68.2116C89.9235 63.3889 90.9316 58.2199 90.9316 52.9999C90.9316 47.7799 89.9235 42.6109 87.9651 37.7882C86.0066 32.9655 83.1361 28.5835 79.5173 24.8924C75.8985 21.2013 71.6024 18.2733 66.8743 16.2757C62.1461 14.2781 57.0785 13.2499 51.9608 13.2499C41.6251 13.2499 31.7128 17.4378 24.4043 24.8924C17.0959 32.347 12.9901 42.4575 12.9901 52.9999C12.9901 63.5423 17.0959 73.6528 24.4043 81.1074C31.7128 88.562 41.6251 92.7499 51.9608 92.7499ZM51.9608 101.583C78.2661 101.583 99.5917 79.8311 99.5917 52.9999C99.5917 26.1686 78.2661 4.41656 51.9608 4.41656C25.6555 4.41656 4.32989 26.1686 4.32989 52.9999C4.32989 79.8311 25.6555 101.583 51.9608 101.583Z" fill="white"/>
<path d="M69.2813 52.9999L43.3008 72.1241V33.8758L69.2813 52.9999Z" fill="white"/>
</svg>
