<svg width="24" height="24" viewBox="0 0 24 24" fill="none" xmlns="http://www.w3.org/2000/svg">
<path d="M22.6455 21.174L15.6893 14.2178C16.7688 12.8223 17.3527 11.116 17.3527 9.32136C17.3527 7.17314 16.5143 5.15886 14.9982 3.64011C13.4821 2.12136 11.4625 1.28564 9.31696 1.28564C7.17143 1.28564 5.15179 2.12404 3.63571 3.64011C2.11696 5.15618 1.28125 7.17314 1.28125 9.32136C1.28125 11.4669 2.11964 13.4865 3.63571 15.0026C5.15179 16.5214 7.16875 17.3571 9.31696 17.3571C11.1116 17.3571 12.8152 16.7731 14.2107 15.6964L21.167 22.6499C21.1874 22.6703 21.2116 22.6865 21.2382 22.6976C21.2649 22.7086 21.2935 22.7143 21.3223 22.7143C21.3512 22.7143 21.3797 22.7086 21.4064 22.6976C21.4331 22.6865 21.4573 22.6703 21.4777 22.6499L22.6455 21.4848C22.6659 21.4644 22.6821 21.4401 22.6932 21.4135C22.7042 21.3868 22.7099 21.3582 22.7099 21.3294C22.7099 21.3005 22.7042 21.272 22.6932 21.2453C22.6821 21.2187 22.6659 21.1944 22.6455 21.174ZM13.5598 13.5642C12.4241 14.6973 10.9187 15.3214 9.31696 15.3214C7.71518 15.3214 6.20982 14.6973 5.07411 13.5642C3.94107 12.4285 3.31696 10.9231 3.31696 9.32136C3.31696 7.71957 3.94107 6.21154 5.07411 5.0785C6.20982 3.94547 7.71518 3.32136 9.31696 3.32136C10.9187 3.32136 12.4268 3.94279 13.5598 5.0785C14.6929 6.21422 15.317 7.71957 15.317 9.32136C15.317 10.9231 14.6929 12.4312 13.5598 13.5642Z" fill="#6E7175"/>
</svg>
