<svg width="31" height="29" viewBox="0 0 31 29" fill="none" xmlns="http://www.w3.org/2000/svg">
<path fill-rule="evenodd" clip-rule="evenodd" d="M0 2.89991C0 2.1308 0.326596 1.3932 0.90794 0.849364C1.48928 0.305525 2.27776 0 3.0999 0L27.8991 0C28.7213 0 29.5097 0.305525 30.0911 0.849364C30.6724 1.3932 30.999 2.1308 30.999 2.89991V10.633L29.3457 9.4711C27.5549 8.21461 25.3396 7.60459 23.1067 7.75304C20.8737 7.9015 18.7729 8.79846 17.19 10.2792C15.6071 11.76 14.6483 13.7253 14.4896 15.8142C14.3309 17.9031 14.983 19.9754 16.3262 21.6507L16.5328 21.9098V28.9991H3.0999C2.27776 28.9991 1.48928 28.6936 0.90794 28.1497C0.326596 27.6059 0 26.8683 0 26.0992L0 2.89991ZM16.5328 9.66636H6.1998V7.73309H16.5328V9.66636ZM6.1998 15.4662H12.3996V13.5329H6.1998V15.4662Z" fill="#5D99C3"/>
<path fill-rule="evenodd" clip-rule="evenodd" d="M23.7658 9.6662C22.3413 9.66601 20.9485 10.0593 19.762 10.7968C18.5755 11.5342 17.6482 12.583 17.0964 13.8116C16.5446 15.0401 16.3929 16.3938 16.6603 17.7027C16.9276 19.0116 17.6022 20.2175 18.5993 21.1692V28.0323C18.5993 28.2118 18.6528 28.3878 18.7537 28.5405C18.8546 28.6932 18.9989 28.8166 19.1705 28.8969C19.3422 28.9772 19.5343 29.0111 19.7254 28.995C19.9166 28.9789 20.0991 28.9133 20.2526 28.8056L23.7658 26.3407L27.2791 28.8056C27.4326 28.9133 27.6151 28.9789 27.8063 28.995C27.9974 29.0111 28.1895 28.9772 28.3612 28.8969C28.5328 28.8166 28.6771 28.6932 28.778 28.5405C28.8789 28.3878 28.9324 28.2118 28.9324 28.0323V21.1692C29.9295 20.2175 30.6041 19.0116 30.8714 17.7027C31.1388 16.3938 30.9871 15.0401 30.4353 13.8116C29.8835 12.583 28.9562 11.5342 27.7697 10.7968C26.5832 10.0593 25.1903 9.66601 23.7658 9.6662ZM20.6659 26.099V22.5476C21.6062 22.9652 22.6561 23.1991 23.7658 23.1991C24.8756 23.1991 25.9254 22.9671 26.8658 22.5476V26.099L24.3858 24.3591C24.207 24.2336 23.9894 24.1657 23.7658 24.1657C23.5423 24.1657 23.3247 24.2336 23.1459 24.3591L20.6659 26.099Z" fill="#5D99C3"/>
</svg>
