<svg width="28" height="27" viewBox="0 0 28 27" fill="none" xmlns="http://www.w3.org/2000/svg">
<path d="M14 0C15.2852 0 16.5247 0.158203 17.7188 0.474609C18.9128 0.791016 20.0293 1.24365 21.0684 1.83252C22.1074 2.42139 23.0508 3.12451 23.8984 3.94189C24.7461 4.75928 25.4753 5.67334 26.0859 6.68408C26.6966 7.69482 27.166 8.77148 27.4941 9.91406C27.8223 11.0566 27.9909 12.252 28 13.5C28 14.3701 27.9134 15.2271 27.7402 16.0708C27.5671 16.9146 27.3118 17.7451 26.9746 18.5625H22.75V16.875H25.7305C26.0768 15.7676 26.25 14.6426 26.25 13.5C26.25 12.3311 26.0814 11.2061 25.7441 10.125H20.7812C20.8542 10.6875 20.9089 11.2456 20.9453 11.7993C20.9818 12.353 21 12.9199 21 13.5H19.25C19.25 12.9287 19.2318 12.3662 19.1953 11.8125C19.1589 11.2588 19.0996 10.6963 19.0176 10.125H8.98242C8.9095 10.6875 8.85482 11.2456 8.81836 11.7993C8.7819 12.353 8.75911 12.9199 8.75 13.5C8.75 14.0713 8.76823 14.6338 8.80469 15.1875C8.84115 15.7412 8.90039 16.3037 8.98242 16.875H17.5V18.5625H9.2832C9.35612 18.9053 9.46094 19.3096 9.59766 19.7754C9.73438 20.2412 9.903 20.7246 10.1035 21.2256C10.304 21.7266 10.5319 22.2188 10.7871 22.7021C11.0423 23.1855 11.3385 23.625 11.6758 24.0205C12.013 24.416 12.3685 24.728 12.7422 24.9565C13.1159 25.1851 13.5352 25.3037 14 25.3125C14.2734 25.3125 14.5332 25.2642 14.7793 25.1675C15.0254 25.0708 15.2578 24.939 15.4766 24.772C15.6953 24.605 15.8958 24.4248 16.0781 24.2314C16.2604 24.0381 16.429 23.8359 16.584 23.625H17.5V26.5518C16.9258 26.7012 16.347 26.811 15.7637 26.8813C15.1803 26.9517 14.5924 26.9912 14 27C12.7148 27 11.4753 26.8418 10.2812 26.5254C9.08724 26.209 7.9707 25.7563 6.93164 25.1675C5.89258 24.5786 4.94922 23.8755 4.10156 23.0581C3.25391 22.2407 2.52474 21.3267 1.91406 20.3159C1.30339 19.3052 0.833984 18.2329 0.505859 17.0991C0.177734 15.9653 0.00911458 14.7656 0 13.5C0 12.2607 0.164062 11.0654 0.492188 9.91406C0.820312 8.7627 1.28971 7.68604 1.90039 6.68408C2.51107 5.68213 3.24023 4.77246 4.08789 3.95508C4.93555 3.1377 5.88346 2.43457 6.93164 1.8457C7.97982 1.25684 9.0918 0.804199 10.2676 0.487793C11.4434 0.171387 12.6875 0.00878906 14 0ZM9.99414 2.3335C9.2194 2.58838 8.48568 2.91797 7.79297 3.32227C7.10026 3.72656 6.44857 4.18799 5.83789 4.70654C5.22721 5.2251 4.6849 5.79639 4.21094 6.42041C3.73698 7.04443 3.31315 7.7168 2.93945 8.4375H7.49219C7.59245 7.91895 7.71549 7.3916 7.86133 6.85547C8.00716 6.31934 8.1849 5.7876 8.39453 5.26025C8.60417 4.73291 8.84115 4.22314 9.10547 3.73096C9.36979 3.23877 9.66602 2.77295 9.99414 2.3335ZM9.99414 24.6665C9.66602 24.2358 9.36979 23.7744 9.10547 23.2822C8.84115 22.79 8.60872 22.2803 8.4082 21.7529C8.20768 21.2256 8.02995 20.6938 7.875 20.1577C7.72005 19.6216 7.59245 19.0898 7.49219 18.5625H2.93945C3.29492 19.2744 3.71419 19.9424 4.19727 20.5664C4.68034 21.1904 5.22721 21.7661 5.83789 22.2935C6.44857 22.8208 7.0957 23.2822 7.7793 23.6777C8.46289 24.0732 9.20117 24.4028 9.99414 24.6665ZM7.21875 16.875C7.14583 16.3125 7.09115 15.7544 7.05469 15.2007C7.01823 14.647 7 14.0801 7 13.5C7 12.9287 7.01823 12.3662 7.05469 11.8125C7.09115 11.2588 7.14583 10.6963 7.21875 10.125H2.25586C1.91862 11.2061 1.75 12.3311 1.75 13.5C1.75 14.6689 1.91862 15.7939 2.25586 16.875H7.21875ZM18.7168 8.4375C18.6439 8.09473 18.5391 7.69043 18.4023 7.22461C18.2656 6.75879 18.097 6.27539 17.8965 5.77441C17.696 5.27344 17.4681 4.78125 17.2129 4.29785C16.9577 3.81445 16.6615 3.375 16.3242 2.97949C15.987 2.58398 15.6315 2.27197 15.2578 2.04346C14.8841 1.81494 14.4648 1.69629 14 1.6875C13.5534 1.6875 13.1387 1.80615 12.7559 2.04346C12.373 2.28076 12.013 2.59277 11.6758 2.97949C11.3385 3.36621 11.0469 3.80127 10.8008 4.28467C10.5547 4.76807 10.3223 5.26465 10.1035 5.77441C9.88477 6.28418 9.71615 6.76758 9.59766 7.22461C9.47917 7.68164 9.37435 8.08594 9.2832 8.4375H18.7168ZM25.0605 8.4375C24.7051 7.72559 24.2858 7.05762 23.8027 6.43359C23.3197 5.80957 22.7728 5.23389 22.1621 4.70654C21.5514 4.1792 20.9043 3.71777 20.2207 3.32227C19.5371 2.92676 18.7988 2.59717 18.0059 2.3335C18.334 2.76416 18.6302 3.22559 18.8945 3.71777C19.1589 4.20996 19.3913 4.71973 19.5918 5.24707C19.7923 5.77441 19.9701 6.30615 20.125 6.84229C20.2799 7.37842 20.4076 7.91016 20.5078 8.4375H25.0605ZM21 20.25H26.25V21.9375H21V27H19.25V21.9375H14V20.25H19.25V15.1875H21V20.25Z" fill="#999999"/>
</svg>
