<svg width="17" height="13" viewBox="0 0 17 13" fill="none" xmlns="http://www.w3.org/2000/svg">
<path d="M5.95001 0.905003C5.95001 0.124985 7.03291 -0.287414 7.71801 0.22971L11.5371 3.11506C11.6536 3.20329 11.8042 3.25212 11.9604 3.25228H15.0875C15.5944 3.25228 16.0806 3.42329 16.4392 3.72773C16.7979 4.03217 16.9995 4.44514 17 4.87588V8.12379C17 8.55477 16.7985 8.96811 16.4398 9.27286C16.0812 9.57761 15.5947 9.74882 15.0875 9.74882H11.9595C11.8034 9.74898 11.6528 9.79781 11.5362 9.88605L7.71886 12.7699C7.03376 13.2878 5.95001 12.8747 5.95001 12.0954V0.905003ZM10.6888 3.92396L7.22501 1.30657V11.6938L10.6888 9.07714C11.0388 8.81252 11.491 8.66629 11.9595 8.66619H15.0875C15.2566 8.66619 15.4187 8.60912 15.5383 8.50753C15.6578 8.40595 15.725 8.26817 15.725 8.12451V4.87588C15.725 4.73221 15.6578 4.59443 15.5383 4.49285C15.4187 4.39127 15.2566 4.3342 15.0875 4.3342H11.9595C11.4911 4.33429 11.0389 4.18832 10.6888 3.92396ZM2.55681 2.09453C2.42098 2.00902 2.25074 1.97285 2.08353 1.99398C1.91632 2.01511 1.76583 2.09181 1.66516 2.2072C0.581085 3.44957 -0.00283623 4.95576 9.53674e-06 6.50236C-0.00252914 8.04903 0.581684 9.55521 1.66601 10.7975C1.7153 10.8559 1.77776 10.9053 1.84975 10.943C1.92174 10.9806 2.00183 11.0057 2.08535 11.0169C2.16887 11.028 2.25416 11.0248 2.33624 11.0077C2.41833 10.9905 2.49559 10.9597 2.56351 10.9169C2.63143 10.8741 2.68866 10.8203 2.73187 10.7586C2.77508 10.6968 2.80341 10.6284 2.8152 10.5573C2.827 10.4861 2.82203 10.4137 2.80058 10.3442C2.77913 10.2748 2.74163 10.2096 2.69026 10.1526C1.76867 9.09686 1.27236 7.81677 1.27501 6.50236C1.27254 5.18819 1.76884 3.90838 2.69026 2.85288C2.74018 2.79567 2.77632 2.73065 2.79664 2.66155C2.81695 2.59245 2.82102 2.52063 2.80863 2.45019C2.79623 2.37975 2.76761 2.31208 2.7244 2.25105C2.68119 2.19003 2.62424 2.13684 2.55681 2.09453ZM4.12846 3.87991C4.05485 3.84598 3.97409 3.82472 3.8908 3.81732C3.80752 3.80992 3.72333 3.81654 3.64305 3.83679C3.56278 3.85705 3.48798 3.89055 3.42295 3.93537C3.35791 3.98019 3.3039 4.03546 3.26401 4.09802C2.80841 4.81376 2.55001 5.63278 2.55001 6.50236C2.54859 7.3416 2.79403 8.16783 3.26401 8.90597C3.30386 8.96857 3.35783 9.02389 3.42284 9.06876C3.48785 9.11364 3.56262 9.14719 3.64289 9.16751C3.72317 9.18783 3.80736 9.19452 3.89067 9.18719C3.97399 9.17987 4.05479 9.15867 4.12846 9.12481C4.20213 9.09095 4.26723 9.04509 4.32004 8.98985C4.37286 8.93462 4.41235 8.87108 4.43627 8.80287C4.46018 8.73467 4.46805 8.66313 4.45943 8.59234C4.45081 8.52154 4.42586 8.45289 4.38601 8.39029C4.02901 7.82911 3.82501 7.18632 3.82501 6.50164C3.82406 5.84245 4.0169 5.1935 4.38601 4.6137C4.4663 4.48736 4.48428 4.3391 4.43599 4.20151C4.38769 4.06391 4.27708 3.94824 4.12846 3.87991Z" fill="white"/>
</svg>
