<svg width="17" height="16" viewBox="0 0 17 16" fill="none" xmlns="http://www.w3.org/2000/svg">
<path fill-rule="evenodd" clip-rule="evenodd" d="M11.6342 10.478L16.0111 14.8518L14.8621 16L10.4852 11.6261C9.38462 12.4811 8.00162 12.9902 6.49963 12.9902C2.90998 12.9902 0 10.0823 0 6.49512C0 2.90796 2.90998 0 6.49963 0C10.0893 0 12.9993 2.90796 12.9993 6.49512C12.9993 7.99607 12.4898 9.37811 11.6342 10.478ZM6.49963 11.3665C9.19186 11.3665 11.3743 9.18548 11.3743 6.49512C11.3743 3.80475 9.19186 1.62378 6.49963 1.62378C3.80739 1.62378 1.62491 3.80475 1.62491 6.49512C1.62491 9.18548 3.80739 11.3665 6.49963 11.3665Z" fill="#FFB656"/>
</svg>
