<svg width="630" height="330" viewBox="0 0 630 330" fill="none" xmlns="http://www.w3.org/2000/svg">
<path d="M617.683 1.99474C617.125 0.432239 615.406 -0.38204 613.844 0.175995C612.281 0.734031 611.467 2.45306 612.025 4.01556L617.683 1.99474ZM498.693 227.817L498.122 224.868L498.693 227.817ZM0 313.937C0 322.786 7.17341 329.959 16.0223 329.959C24.8711 329.959 32.0445 322.786 32.0445 313.937C32.0445 305.088 24.8711 297.915 16.0223 297.915C7.17341 297.915 0 305.088 0 313.937ZM19.2722 307.996C19.3784 306.34 18.1223 304.912 16.4665 304.806C14.8108 304.7 13.3824 305.956 13.2762 307.612L19.2722 307.996ZM14.5091 294.955C14.2986 296.601 15.462 298.106 17.1078 298.316C18.7535 298.527 20.2583 297.363 20.4689 295.718L14.5091 294.955ZM22.3694 283.53C22.6691 281.898 21.5892 280.332 19.9573 280.033C18.3254 279.733 16.7596 280.813 16.4599 282.445L22.3694 283.53ZM19.0862 270.02C18.6999 271.633 19.6947 273.254 21.3082 273.641C22.9218 274.027 24.543 273.032 24.9294 271.419L19.0862 270.02ZM28.1117 259.548C28.5848 257.958 27.6791 256.285 26.0888 255.812C24.4985 255.339 22.8258 256.245 22.3528 257.835L28.1117 259.548ZM26.3151 245.769C25.7526 247.33 26.562 249.051 28.1229 249.613C29.6838 250.176 31.4052 249.367 31.9676 247.806L26.3151 245.769ZM36.4703 236.377C37.1245 234.852 36.4188 233.086 34.8941 232.432C33.3693 231.778 31.603 232.483 30.9488 234.008L36.4703 236.377ZM36.3137 222.509C35.5648 223.989 36.1578 225.797 37.6382 226.546C39.1187 227.295 40.9261 226.702 41.675 225.221L36.3137 222.509ZM47.5952 214.422C48.4414 212.995 47.9705 211.152 46.5433 210.306C45.1162 209.46 43.2733 209.931 42.427 211.358L47.5952 214.422ZM49.2701 200.683C48.3258 202.047 48.6661 203.919 50.0303 204.863C51.3945 205.807 53.266 205.467 54.2103 204.103L49.2701 200.683ZM61.5518 194.285C62.594 192.994 62.3924 191.102 61.1015 190.06C59.8105 189.018 57.9191 189.22 56.8769 190.511L61.5518 194.285ZM65.2365 180.927C64.0985 182.134 64.1549 184.036 65.3624 185.173C66.5698 186.311 68.4711 186.255 69.6091 185.048L65.2365 180.927ZM78.3571 176.464C79.5863 175.349 79.6792 173.45 78.5647 172.22C77.4502 170.991 75.5503 170.898 74.3212 172.013L78.3571 176.464ZM84.085 163.841C82.7714 164.855 82.5282 166.741 83.5418 168.055C84.5553 169.368 86.4418 169.612 87.7554 168.598L84.085 163.841ZM97.7478 161.501C99.1372 160.594 99.5285 158.732 98.6217 157.343C97.715 155.953 95.8535 155.562 94.4641 156.469L97.7478 161.501ZM105.38 149.935C103.925 150.731 103.391 152.557 104.188 154.012C104.984 155.468 106.81 156.002 108.265 155.205L105.38 149.935ZM119.232 149.726C120.743 149.04 121.411 147.259 120.725 145.748C120.039 144.238 118.258 143.569 116.747 144.255L119.232 149.726ZM128.479 139.425C126.924 140.003 126.131 141.732 126.708 143.287C127.286 144.843 129.015 145.635 130.57 145.058L128.479 139.425ZM142.208 141.18C143.798 140.708 144.705 139.036 144.232 137.445C143.76 135.855 142.088 134.948 140.497 135.42L142.208 141.18ZM152.736 132.202C151.119 132.574 150.111 134.187 150.483 135.804C150.855 137.42 152.468 138.429 154.085 138.057L152.736 132.202ZM166.158 135.646C167.793 135.367 168.894 133.815 168.615 132.18C168.337 130.544 166.785 129.444 165.149 129.722L166.158 135.646ZM177.709 127.933C176.061 128.123 174.879 129.614 175.07 131.262C175.261 132.91 176.751 134.092 178.4 133.901L177.709 127.933ZM190.73 132.785C192.386 132.675 193.639 131.244 193.53 129.589C193.42 127.933 191.989 126.68 190.334 126.79L190.73 132.785ZM202.856 126.245C201.197 126.28 199.881 127.654 199.917 129.313C199.952 130.972 201.326 132.287 202.985 132.252L202.856 126.245ZM215.35 132.249C217.009 132.285 218.383 130.969 218.419 129.311C218.454 127.652 217.139 126.278 215.48 126.242L215.35 132.249ZM227.656 126.775C226.001 126.665 224.569 127.918 224.459 129.573C224.349 131.229 225.602 132.66 227.258 132.77L227.656 126.775ZM239.12 133.841C240.768 134.03 242.258 132.848 242.447 131.199C242.636 129.551 241.453 128.061 239.805 127.872L239.12 133.841ZM251.899 129.569C250.262 129.297 248.715 130.403 248.442 132.039C248.169 133.676 249.275 135.224 250.912 135.496L251.899 129.569ZM262.602 137.762C264.222 138.121 265.826 137.099 266.185 135.479C266.544 133.859 265.522 132.255 263.902 131.896L262.602 137.762ZM275.772 134.869C274.174 134.421 272.516 135.354 272.069 136.952C271.622 138.55 272.555 140.207 274.152 140.655L275.772 134.869ZM285.525 144.179C287.096 144.713 288.803 143.874 289.337 142.303C289.872 140.732 289.032 139.026 287.462 138.491L285.525 144.179ZM298.93 142.748C297.391 142.129 295.641 142.874 295.021 144.414C294.402 145.953 295.148 147.703 296.687 148.322L298.93 142.748ZM307.613 153.056C309.118 153.754 310.904 153.101 311.603 151.596C312.302 150.091 311.648 148.305 310.143 147.606L307.613 153.056ZM321.082 153.014C319.612 152.243 317.796 152.81 317.026 154.279C316.256 155.749 316.823 157.565 318.292 158.335L321.082 153.014ZM328.736 164.105C330.172 164.937 332.01 164.448 332.842 163.013C333.675 161.578 333.186 159.739 331.75 158.907L328.736 164.105ZM342.182 165.217C340.777 164.334 338.922 164.757 338.039 166.162C337.156 167.566 337.579 169.421 338.984 170.304L342.182 165.217ZM349.042 176.83C350.422 177.751 352.288 177.379 353.208 175.998C354.129 174.618 353.757 172.753 352.377 171.832L349.042 176.83ZM362.387 178.648C361.023 177.704 359.151 178.044 358.207 179.409C357.263 180.773 357.603 182.644 358.967 183.589L362.387 178.648ZM368.857 190.492C370.216 191.444 372.089 191.115 373.041 189.756C373.993 188.397 373.664 186.524 372.305 185.572L368.857 190.492ZM382.192 192.465C380.826 191.523 378.955 191.866 378.013 193.231C377.07 194.596 377.413 196.467 378.778 197.41L382.192 192.465ZM388.819 204.202C390.204 205.115 392.067 204.733 392.98 203.347C393.893 201.962 393.511 200.099 392.125 199.186L388.819 204.202ZM402.231 205.599C400.813 204.738 398.965 205.19 398.104 206.609C397.244 208.027 397.696 209.875 399.114 210.736L402.231 205.599ZM409.727 216.807C411.19 217.59 413.01 217.038 413.792 215.575C414.575 214.111 414.023 212.291 412.56 211.509L409.727 216.807ZM423.197 216.735C421.682 216.059 419.906 216.74 419.23 218.255C418.554 219.771 419.235 221.547 420.75 222.223L423.197 216.735ZM432.21 226.761C433.778 227.303 435.489 226.47 436.03 224.902C436.571 223.334 435.739 221.623 434.171 221.082L432.21 226.761ZM445.463 224.377C443.849 223.992 442.229 224.989 441.844 226.603C441.46 228.217 442.456 229.837 444.07 230.222L445.463 224.377ZM456.229 232.463C457.874 232.679 459.383 231.52 459.598 229.875C459.814 228.23 458.655 226.721 457.01 226.506L456.229 232.463ZM468.76 227.432C467.101 227.386 465.719 228.693 465.673 230.352C465.627 232.01 466.934 233.392 468.592 233.438L468.76 227.432ZM480.904 233.188C482.559 233.077 483.811 231.645 483.7 229.989C483.589 228.334 482.157 227.082 480.501 227.193L480.904 233.188ZM492.215 225.893C490.575 226.145 489.449 227.678 489.7 229.318C489.952 230.958 491.485 232.084 493.125 231.832L492.215 225.893ZM505.463 229.49C507.084 229.135 508.11 227.534 507.755 225.913C507.401 224.292 505.799 223.266 504.178 223.62L505.463 229.49ZM515.815 220.766C514.214 221.203 513.271 222.855 513.709 224.455C514.146 226.056 515.798 226.999 517.398 226.562L515.815 220.766ZM529.283 222.95C530.856 222.421 531.702 220.717 531.173 219.145C530.644 217.572 528.941 216.726 527.368 217.255L529.283 222.95ZM538.688 213.045C537.153 213.674 536.418 215.429 537.048 216.964C537.677 218.499 539.431 219.234 540.966 218.605L538.688 213.045ZM552.31 213.485C553.797 212.748 554.404 210.945 553.667 209.459C552.93 207.972 551.128 207.365 549.641 208.102L552.31 213.485ZM560.161 202.369C558.736 203.22 558.272 205.065 559.124 206.489C559.975 207.913 561.82 208.377 563.244 207.526L560.161 202.369ZM573.668 200.679C575.014 199.708 575.318 197.831 574.348 196.485C573.378 195.139 571.5 194.834 570.154 195.805L573.668 200.679ZM579.513 188.389C578.262 189.479 578.131 191.376 579.221 192.628C580.31 193.879 582.208 194.01 583.459 192.92L579.513 188.389ZM592.488 184.263C593.628 183.058 593.576 181.156 592.37 180.016C591.165 178.876 589.264 178.928 588.123 180.133L592.488 184.263ZM595.88 171.081C594.864 172.392 595.104 174.279 596.416 175.295C597.728 176.311 599.615 176.071 600.631 174.759L595.88 171.081ZM607.793 164.499C608.675 163.093 608.25 161.239 606.844 160.357C605.439 159.476 603.585 159.901 602.703 161.306L607.793 164.499ZM608.544 150.907C607.802 152.391 608.402 154.196 609.886 154.938C611.37 155.681 613.175 155.08 613.917 153.597L608.544 150.907ZM618.987 142.182C619.591 140.637 618.828 138.894 617.283 138.29C615.738 137.686 613.995 138.449 613.391 139.994L618.987 142.182ZM617.267 128.657C616.797 130.248 617.706 131.919 619.297 132.389C620.888 132.859 622.559 131.95 623.029 130.359L617.267 128.657ZM626.082 118.266C626.425 116.643 625.388 115.049 623.764 114.706C622.141 114.362 620.547 115.4 620.203 117.023L626.082 118.266ZM622.258 105.186C622.033 106.83 623.182 108.345 624.826 108.571C626.47 108.796 627.985 107.647 628.211 106.003L622.258 105.186ZM629.489 93.6521C629.606 91.997 628.359 90.5603 626.704 90.4429C625.049 90.3256 623.613 91.5721 623.495 93.2271L629.489 93.6521ZM623.981 81.1774C623.964 82.8364 625.294 84.1958 626.953 84.2137C628.612 84.2316 629.972 82.9011 629.989 81.242L623.981 81.1774ZM629.776 68.8301C629.703 67.1725 628.299 65.8885 626.642 65.962C624.984 66.0356 623.7 67.4389 623.774 69.0964L629.776 68.8301ZM622.93 57.0755C623.088 58.7271 624.555 59.9382 626.206 59.7805C627.858 59.6227 629.069 58.1559 628.911 56.5043L622.93 57.0755ZM627.431 44.1728C627.194 42.5306 625.671 41.3915 624.029 41.6284C622.387 41.8654 621.247 43.3887 621.484 45.0308L627.431 44.1728ZM619.488 33.1429C619.8 34.7724 621.374 35.8403 623.004 35.5281C624.633 35.2159 625.701 33.6418 625.389 32.0123L619.488 33.1429ZM622.786 19.9396C622.399 18.3263 620.777 17.3326 619.163 17.7201C617.55 18.1076 616.557 19.7295 616.944 21.3428L622.786 19.9396ZM613.802 9.59323C614.275 11.1834 615.948 12.0888 617.538 11.6154C619.129 11.142 620.034 9.4691 619.561 7.87891L613.802 9.59323ZM16.0223 313.937C19.0264 313.937 19.0264 313.937 19.0264 313.937C19.0264 313.937 19.0264 313.937 19.0264 313.938C19.0264 313.938 19.0264 313.938 19.0264 313.938C19.0264 313.938 19.0264 313.938 19.0264 313.938C19.0264 313.938 19.0264 313.937 19.0264 313.936C19.0264 313.933 19.0264 313.929 19.0265 313.922C19.0265 313.909 19.0266 313.887 19.0268 313.856C19.0273 313.796 19.0282 313.702 19.03 313.575C19.0338 313.322 19.0413 312.939 19.0566 312.434C19.0871 311.424 19.1485 309.925 19.2722 307.996L13.2762 307.612C13.1479 309.611 13.0834 311.179 13.0509 312.253C13.0347 312.79 13.0265 313.204 13.0223 313.487C13.0203 313.629 13.0192 313.738 13.0187 313.813C13.0184 313.85 13.0182 313.88 13.0182 313.9C13.0181 313.911 13.0181 313.919 13.0181 313.925C13.0181 313.928 13.0181 313.931 13.0181 313.933C13.0181 313.934 13.0181 313.935 13.0181 313.935C13.0181 313.936 13.0181 313.936 13.0181 313.936C13.0181 313.936 13.0181 313.937 13.0181 313.937C13.0181 313.937 13.0181 313.937 16.0223 313.937ZM20.4689 295.718C20.9354 292.07 21.5527 287.977 22.3694 283.53L16.4599 282.445C15.6221 287.006 14.9884 291.208 14.5091 294.955L20.4689 295.718ZM24.9294 271.419C25.8421 267.607 26.8957 263.636 28.1117 259.548L22.3528 257.835C21.1041 262.033 20.0227 266.109 19.0862 270.02L24.9294 271.419ZM31.9676 247.806C33.3224 244.046 34.8184 240.227 36.4703 236.377L30.9488 234.008C29.2475 237.973 27.7081 241.903 26.3151 245.769L31.9676 247.806ZM41.675 225.221C43.4984 221.617 45.4679 218.01 47.5952 214.422L42.427 211.358C40.2285 215.066 38.1948 218.791 36.3137 222.509L41.675 225.221ZM54.2103 204.103C56.5051 200.787 58.9491 197.509 61.5518 194.285L56.8769 190.511C54.1781 193.853 51.646 197.251 49.2701 200.683L54.2103 204.103ZM69.6091 185.048C72.3716 182.116 75.2848 179.25 78.3571 176.464L74.3212 172.013C71.1296 174.907 68.1042 177.884 65.2365 180.927L69.6091 185.048ZM87.7554 168.598C90.936 166.144 94.2644 163.774 97.7478 161.501L94.4641 156.469C90.8468 158.83 87.3895 161.291 84.085 163.841L87.7554 168.598ZM108.265 155.205C111.779 153.281 115.433 151.451 119.232 149.726L116.747 144.255C112.812 146.043 109.025 147.939 105.38 149.935L108.265 155.205ZM130.57 145.058C134.32 143.666 138.197 142.371 142.208 141.18L140.497 135.42C136.36 136.649 132.356 137.986 128.479 139.425L130.57 145.058ZM154.085 138.057C157.993 137.157 162.016 136.351 166.158 135.646L165.149 129.722C160.896 130.447 156.759 131.275 152.736 132.202L154.085 138.057ZM178.4 133.901C182.407 133.437 186.516 133.064 190.73 132.785L190.334 126.79C186.023 127.075 181.816 127.457 177.709 127.933L178.4 133.901ZM202.985 132.252C205.063 132.207 207.165 132.185 209.291 132.185V126.176C207.122 126.176 204.977 126.199 202.856 126.245L202.985 132.252ZM209.291 132.185C211.334 132.185 213.354 132.206 215.35 132.249L215.48 126.242C213.44 126.199 211.377 126.176 209.291 126.176V132.185ZM227.258 132.77C231.31 133.039 235.262 133.399 239.12 133.841L239.805 127.872C235.851 127.418 231.803 127.051 227.656 126.775L227.258 132.77ZM250.912 135.496C254.912 136.162 258.806 136.92 262.602 137.762L263.902 131.896C260.003 131.031 256.004 130.253 251.899 129.569L250.912 135.496ZM274.152 140.655C278.047 141.744 281.835 142.923 285.525 144.179L287.462 138.491C283.668 137.2 279.775 135.989 275.772 134.869L274.152 140.655ZM296.687 148.322C300.426 149.826 304.065 151.408 307.613 153.056L310.143 147.606C306.504 145.917 302.77 144.293 298.93 142.748L296.687 148.322ZM318.292 158.335C321.857 160.204 325.334 162.132 328.736 164.105L331.75 158.907C328.281 156.895 324.729 154.925 321.082 153.014L318.292 158.335ZM338.984 170.304C342.4 172.452 345.748 174.632 349.042 176.83L352.377 171.832C349.046 169.61 345.652 167.399 342.182 165.217L338.984 170.304ZM358.967 183.589C362.302 185.897 365.591 188.203 368.857 190.492L372.305 185.572C369.042 183.285 365.739 180.969 362.387 178.648L358.967 183.589ZM378.778 197.41C382.128 199.723 385.47 201.995 388.819 204.202L392.125 199.186C388.824 197.009 385.52 194.763 382.192 192.465L378.778 197.41ZM399.114 210.736C402.615 212.86 406.146 214.893 409.727 216.807L412.56 211.509C409.09 209.653 405.654 207.676 402.231 205.599L399.114 210.736ZM420.75 222.223C424.492 223.891 428.305 225.413 432.21 226.761L434.171 221.082C430.444 219.795 426.793 218.339 423.197 216.735L420.75 222.223ZM444.07 230.222C448.017 231.162 452.064 231.917 456.229 232.463L457.01 226.506C453.056 225.987 449.213 225.271 445.463 224.377L444.07 230.222ZM468.592 233.438C472.585 233.55 476.684 233.472 480.904 233.188L480.501 227.193C476.468 227.464 472.559 227.538 468.76 227.432L468.592 233.438ZM493.125 231.832C495.144 231.523 497.189 231.168 499.263 230.767L498.122 224.868C496.123 225.255 494.155 225.596 492.215 225.893L493.125 231.832ZM499.263 230.767C501.361 230.361 503.428 229.935 505.463 229.49L504.178 223.62C502.192 224.055 500.173 224.471 498.122 224.868L499.263 230.767ZM517.398 226.562C521.499 225.441 525.459 224.236 529.283 222.95L527.368 217.255C523.656 218.503 519.807 219.675 515.815 220.766L517.398 226.562ZM540.966 218.605C544.908 216.99 548.688 215.281 552.31 213.485L549.641 208.102C546.15 209.833 542.501 211.483 538.688 213.045L540.966 218.605ZM563.244 207.526C566.901 205.339 570.373 203.053 573.668 200.679L570.154 195.805C567.001 198.078 563.673 200.269 560.161 202.369L563.244 207.526ZM583.459 192.92C586.669 190.125 589.675 187.235 592.488 184.263L588.123 180.133C585.444 182.965 582.578 185.721 579.513 188.389L583.459 192.92ZM600.631 174.759C603.223 171.412 605.606 167.986 607.793 164.499L602.703 161.306C600.618 164.63 598.349 167.893 595.88 171.081L600.631 174.759ZM613.917 153.597C615.8 149.835 617.484 146.025 618.987 142.182L613.391 139.994C611.953 143.673 610.342 147.316 608.544 150.907L613.917 153.597ZM623.029 130.359C624.217 126.336 625.229 122.299 626.082 118.266L620.203 117.023C619.381 120.909 618.408 124.793 617.267 128.657L623.029 130.359ZM628.211 106.003C628.78 101.854 629.199 97.7301 629.489 93.6521L623.495 93.2271C623.215 97.1817 622.809 101.175 622.258 105.186L628.211 106.003ZM629.989 81.242C630.035 77.0208 629.956 72.875 629.776 68.8301L623.774 69.0964C623.949 73.038 624.026 77.0732 623.981 81.1774L629.989 81.242ZM628.911 56.5043C628.502 52.2224 627.998 48.0999 627.431 44.1728L621.484 45.0308C622.038 48.869 622.531 52.8957 622.93 57.0755L628.911 56.5043ZM625.389 32.0123C624.54 27.5793 623.649 23.5299 622.786 19.9396L616.944 21.3428C617.786 24.8499 618.658 28.8082 619.488 33.1429L625.389 32.0123ZM619.561 7.87891C619.002 6.00363 618.537 4.54372 618.209 3.54721C618.045 3.04893 617.916 2.66643 617.826 2.40571C617.781 2.27534 617.747 2.17541 617.723 2.10667C617.711 2.0723 617.701 2.04572 617.695 2.02704C617.691 2.01769 617.689 2.01032 617.687 2.00494C617.686 2.00224 617.685 2.00004 617.684 1.99834C617.684 1.99749 617.684 1.99677 617.684 1.99617C617.684 1.99587 617.683 1.9956 617.683 1.99536C617.683 1.99524 617.683 1.99508 617.683 1.99503C617.683 1.99488 617.683 1.99474 614.854 3.00515C612.025 4.01556 612.025 4.01544 612.025 4.01532C612.025 4.01529 612.025 4.01519 612.025 4.01513C612.025 4.01501 612.025 4.01493 612.025 4.01488C612.025 4.01478 612.025 4.0148 612.025 4.01494C612.025 4.01523 612.025 4.01601 612.025 4.01728C612.026 4.01983 612.028 4.02436 612.03 4.03084C612.035 4.04381 612.042 4.06463 612.052 4.0932C612.072 4.15034 612.103 4.23849 612.144 4.35689C612.225 4.5937 612.346 4.95152 612.502 5.42436C612.813 6.3701 613.261 7.77565 613.802 9.59323L619.561 7.87891Z" fill="#85B6FF"/>
</svg>
