<svg width="34" height="32" viewBox="0 0 34 32" fill="none" xmlns="http://www.w3.org/2000/svg">
<path d="M1.88889 17.7778H13.2222C14.2611 17.7778 15.1111 16.9778 15.1111 16V1.77778C15.1111 0.8 14.2611 0 13.2222 0H1.88889C0.85 0 0 0.8 0 1.77778V16C0 16.9778 0.85 17.7778 1.88889 17.7778ZM1.88889 32H13.2222C14.2611 32 15.1111 31.2 15.1111 30.2222V23.1111C15.1111 22.1333 14.2611 21.3333 13.2222 21.3333H1.88889C0.85 21.3333 0 22.1333 0 23.1111V30.2222C0 31.2 0.85 32 1.88889 32ZM20.7778 32H32.1111C33.15 32 34 31.2 34 30.2222V16C34 15.0222 33.15 14.2222 32.1111 14.2222H20.7778C19.7389 14.2222 18.8889 15.0222 18.8889 16V30.2222C18.8889 31.2 19.7389 32 20.7778 32ZM18.8889 1.77778V8.88889C18.8889 9.86667 19.7389 10.6667 20.7778 10.6667H32.1111C33.15 10.6667 34 9.86667 34 8.88889V1.77778C34 0.8 33.15 0 32.1111 0H20.7778C19.7389 0 18.8889 0.8 18.8889 1.77778Z" fill="#5D99C3"/>
</svg>
