<svg width="48" height="35" viewBox="0 0 48 35" fill="none" xmlns="http://www.w3.org/2000/svg">
<path d="M45.5031 0H2.3949C1.75996 0.000623475 1.15124 0.213563 0.702267 0.592107C0.253296 0.970652 0.000739471 1.48389 0 2.01923V32.9808C0.000739471 33.5161 0.253296 34.0293 0.702267 34.4079C1.15124 34.7864 1.75996 34.9994 2.3949 35H11.1762V30.051C11.1764 29.7511 11.2716 29.4566 11.452 29.1981C11.6324 28.9395 11.8915 28.7263 12.2024 28.5805L21.3808 24.2793L18.3609 17.9139V12.7885C18.3609 11.5389 18.9497 10.3405 19.9976 9.4569C21.0456 8.57332 22.467 8.07692 23.949 8.07692C25.4311 8.07692 26.8524 8.57332 27.9004 9.4569C28.9484 10.3405 29.5371 11.5389 29.5371 12.7885V17.9139L26.5172 24.2791L35.6956 28.5805C36.0065 28.7263 36.2656 28.9395 36.446 29.1981C36.6264 29.4566 36.7216 29.7511 36.7218 30.051V35H45.5031C46.1381 34.9994 46.7468 34.7864 47.1958 34.4079C47.6447 34.0293 47.8973 33.5161 47.898 32.9808V2.01923C47.8973 1.48389 47.6447 0.970652 47.1958 0.592107C46.7468 0.213563 46.1381 0.000623475 45.5031 0ZM44.7048 32.3077H39.915V30.051C39.9147 29.271 39.6672 28.5052 39.1981 27.8329C38.7291 27.1606 38.0554 26.6062 37.2469 26.227L30.5265 23.0781L32.7303 18.4323V12.7885C32.7303 10.8248 31.8052 8.94164 30.1583 7.55315C28.5115 6.16466 26.278 5.38462 23.949 5.38462C21.6201 5.38462 19.3865 6.16466 17.7397 7.55315C16.0929 8.94164 15.1677 10.8248 15.1677 12.7885V18.4323L17.3715 23.0781L10.6511 26.2275C9.8427 26.6066 9.1691 27.1609 8.70001 27.8331C8.23092 28.5054 7.98338 29.2711 7.98301 30.051V32.3077H3.1932V2.69231H44.7048V32.3077Z" fill="#2274AC"/>
</svg>
