<svg width="277" height="121" viewBox="0 0 277 121" fill="none" xmlns="http://www.w3.org/2000/svg">
<rect x="0.104864" y="79.2803" width="128.456" height="40.1424" rx="10" transform="rotate(0.270663 0.104864 79.2803)" fill="white"/>
<rect x="148.63" y="79.9821" width="128.456" height="40.1424" rx="10" transform="rotate(0.270663 148.63 79.9821)" fill="#0053F7"/>
<path d="M210.903 96.6677L210.867 104.362L209.863 104.357L209.879 100.869L205.96 100.85L205.944 104.339L204.939 104.334L204.975 96.6397L205.98 96.6444L205.964 100.022L209.883 100.041L209.899 96.6629L210.903 96.6677ZM213.134 97.3406C212.943 97.3397 212.782 97.2727 212.65 97.1396C212.518 97.0065 212.452 96.8442 212.453 96.6529C212.454 96.4616 212.521 96.3 212.654 96.1681C212.787 96.0363 212.95 95.9708 213.141 95.9717C213.325 95.9726 213.479 96.0395 213.604 96.1726C213.735 96.3057 213.801 96.4679 213.8 96.6593C213.799 96.8506 213.732 97.0122 213.599 97.144C213.473 97.2759 213.318 97.3414 213.134 97.3406ZM213.616 98.3253L213.587 104.375L212.582 104.37L212.611 98.3206L213.616 98.3253ZM216.328 99.3206C216.506 98.9756 216.757 98.7081 217.082 98.5183C217.414 98.3285 217.816 98.2348 218.287 98.237L218.282 99.2747L218.017 99.2734C216.891 99.2681 216.325 99.8763 216.319 101.098L216.304 104.388L215.299 104.383L215.328 98.3334L216.332 98.3382L216.328 99.3206ZM224.952 101.172C224.951 101.363 224.939 101.565 224.916 101.779L220.081 101.756C220.115 102.352 220.315 102.821 220.681 103.161C221.055 103.494 221.507 103.661 222.037 103.664C222.471 103.666 222.832 103.568 223.12 103.371C223.415 103.166 223.623 102.895 223.742 102.557L224.824 102.562C224.659 103.143 224.333 103.616 223.846 103.982C223.358 104.34 222.754 104.517 222.033 104.514C221.459 104.511 220.944 104.38 220.489 104.12C220.042 103.861 219.69 103.495 219.435 103.022C219.179 102.543 219.053 101.99 219.056 101.365C219.059 100.739 219.187 100.192 219.439 99.7217C219.692 99.2519 220.043 98.8929 220.493 98.6448C220.951 98.3894 221.474 98.2631 222.062 98.2659C222.636 98.2686 223.144 98.3961 223.584 98.6484C224.024 98.9007 224.361 99.2482 224.595 99.6909C224.836 100.126 224.955 100.62 224.952 101.172ZM223.915 100.957C223.917 100.574 223.834 100.247 223.666 99.9735C223.498 99.693 223.267 99.4822 222.974 99.341C222.687 99.1924 222.367 99.1173 222.014 99.1157C221.506 99.1133 221.071 99.2731 220.709 99.5952C220.355 99.9174 220.15 100.365 220.096 100.939L223.915 100.957Z" fill="white"/>
<path d="M48.0819 95.954L48.0458 103.593L47.0413 103.588L47.0682 97.8921L44.5023 103.576L43.7958 103.573L41.2727 97.8537L41.2458 103.561L40.2412 103.556L40.2773 95.9171L41.3591 95.9222L44.1553 102.25L47.0111 95.9489L48.0819 95.954ZM55.2843 100.371C55.2834 100.562 55.2715 100.764 55.2484 100.978L50.4133 100.955C50.4472 101.551 50.6474 102.019 51.0138 102.36C51.3875 102.693 51.8394 102.86 52.3692 102.863C52.8034 102.865 53.1645 102.767 53.4525 102.57C53.7478 102.365 53.9552 102.094 54.0745 101.756L55.1563 101.761C54.9917 102.342 54.6656 102.815 54.1782 103.18C53.6908 103.539 53.0864 103.716 52.3652 103.713C51.7912 103.71 51.2766 103.579 50.8216 103.319C50.3739 103.059 50.0224 102.693 49.767 102.221C49.5117 101.742 49.3855 101.189 49.3885 100.564C49.3914 99.938 49.5191 99.3903 49.7716 98.9205C50.024 98.4507 50.3753 98.0917 50.8254 97.8436C51.2829 97.5882 51.806 97.4619 52.3947 97.4647C52.9688 97.4674 53.476 97.5949 53.9164 97.8472C54.3567 98.0995 54.6936 98.447 54.927 98.8897C55.1679 99.325 55.287 99.8187 55.2843 100.371ZM54.2477 100.156C54.2495 99.7733 54.1664 99.4454 53.9984 99.1723C53.8305 98.8919 53.5996 98.681 53.3059 98.5398C53.0196 98.3913 52.6998 98.3161 52.3466 98.3145C51.8388 98.3121 51.4038 98.4719 51.0417 98.794C50.6869 99.1162 50.4824 99.5642 50.4282 100.138L54.2477 100.156ZM58.7361 103.743C58.2724 103.741 57.857 103.661 57.4897 103.505C57.1225 103.342 56.8329 103.119 56.6208 102.839C56.4087 102.551 56.2925 102.223 56.2722 101.855L57.3098 101.859C57.3379 102.161 57.4765 102.409 57.7258 102.601C57.9825 102.794 58.3169 102.891 58.729 102.893C59.1117 102.895 59.4138 102.811 59.6354 102.643C59.857 102.475 59.9684 102.262 59.9696 102.004C59.9709 101.74 59.854 101.544 59.6191 101.418C59.3843 101.284 59.0206 101.154 58.5281 101.026C58.0797 100.906 57.7123 100.787 57.4259 100.668C57.1468 100.541 56.9048 100.36 56.6998 100.123C56.5023 99.8796 56.4044 99.5627 56.4063 99.1726C56.4077 98.8635 56.5011 98.5806 56.6863 98.3239C56.8715 98.0672 57.1337 97.8661 57.4729 97.7205C57.8122 97.5675 58.1989 97.4921 58.6331 97.4941C59.3028 97.4973 59.8429 97.6691 60.2534 98.0096C60.664 98.3501 60.8826 98.8148 60.9092 99.4037L59.9047 99.3989C59.8841 99.0824 59.7565 98.8279 59.5219 98.6354C59.2947 98.443 58.986 98.3458 58.596 98.344C58.2354 98.3423 57.948 98.4182 57.7338 98.5718C57.5197 98.7253 57.412 98.9272 57.4108 99.1774C57.4099 99.3761 57.4717 99.542 57.5961 99.675C57.728 99.8008 57.8894 99.9046 58.0804 99.9864C58.2788 100.061 58.5507 100.147 58.8961 100.244C59.3297 100.364 59.6824 100.483 59.9542 100.602C60.2259 100.714 60.457 100.884 60.6472 101.114C60.8449 101.343 60.9465 101.641 60.9521 102.009C60.9505 102.34 60.8571 102.638 60.6719 102.902C60.4867 103.166 60.2244 103.375 59.8852 103.528C59.5533 103.673 59.1703 103.745 58.7361 103.743ZM64.5035 103.77C64.0399 103.768 63.6244 103.689 63.2572 103.532C62.89 103.369 62.6003 103.147 62.3882 102.866C62.1762 102.578 62.06 102.25 62.0396 101.882L63.0773 101.887C63.1053 102.189 63.244 102.436 63.4933 102.628C63.75 102.821 64.0844 102.918 64.4965 102.92C64.8792 102.922 65.1813 102.839 65.4029 102.67C65.6245 102.502 65.7359 102.289 65.7371 102.032C65.7383 101.767 65.6215 101.571 65.3866 101.445C65.1517 101.311 64.7881 101.181 64.2956 101.053C63.8472 100.934 63.4798 100.814 63.1933 100.695C62.9143 100.569 62.6723 100.387 62.4673 100.151C62.2698 99.9069 62.1719 99.5899 62.1737 99.1999C62.1752 98.8908 62.2685 98.6079 62.4537 98.3512C62.6389 98.0945 62.9011 97.8933 63.2404 97.7477C63.5796 97.5948 63.9664 97.5193 64.4006 97.5214C65.0703 97.5246 65.6104 97.6964 66.0209 98.0369C66.4314 98.3773 66.65 98.842 66.6767 99.4309L65.6721 99.4262C65.6515 99.1096 65.524 98.8551 65.2894 98.6626C65.0621 98.4702 64.7535 98.3731 64.3634 98.3712C64.0028 98.3695 63.7154 98.4455 63.5013 98.599C63.2871 98.7525 63.1795 98.9544 63.1783 99.2046C63.1774 99.4033 63.2391 99.5692 63.3636 99.7023C63.4955 99.828 63.6569 99.9318 63.8479 100.014C64.0462 100.088 64.3181 100.174 64.6636 100.271C65.0972 100.391 65.4499 100.511 65.7216 100.63C65.9934 100.741 66.2244 100.912 66.4147 101.141C66.6123 101.37 66.714 101.668 66.7196 102.036C66.718 102.368 66.6246 102.665 66.4394 102.929C66.2541 103.193 65.9919 103.402 65.6526 103.555C65.3208 103.7 64.9377 103.772 64.5035 103.77ZM67.769 100.639C67.7719 100.021 67.8995 99.4808 68.1519 99.0184C68.4044 98.5486 68.7483 98.1859 69.1837 97.9304C69.6265 97.6749 70.1165 97.5484 70.6538 97.5509C71.1836 97.5534 71.6431 97.6697 72.032 97.8997C72.421 98.1296 72.7103 98.418 72.9 98.7648L72.9053 97.6609L73.9208 97.6657L73.8923 103.715L72.8767 103.71L72.882 102.584C72.6816 102.937 72.3822 103.23 71.9837 103.463C71.5925 103.69 71.1357 103.801 70.6132 103.799C70.076 103.796 69.5909 103.662 69.1579 103.395C68.725 103.128 68.3845 102.754 68.1366 102.275C67.8886 101.795 67.7661 101.25 67.769 100.639ZM72.891 100.675C72.8932 100.218 72.8031 99.8205 72.6207 99.4811C72.4383 99.1417 72.1893 98.8829 71.8737 98.7048C71.5654 98.5193 71.2237 98.4257 70.8483 98.424C70.473 98.4222 70.1304 98.5089 69.8205 98.684C69.5105 98.8592 69.2628 99.1156 69.0772 99.4533C68.8916 99.7909 68.7977 100.188 68.7956 100.644C68.7934 101.108 68.8835 101.513 69.0658 101.86C69.2482 102.199 69.4935 102.462 69.8017 102.647C70.11 102.825 70.4518 102.915 70.8271 102.917C71.2024 102.919 71.5451 102.832 71.855 102.657C72.1723 102.474 72.4238 102.214 72.6094 101.877C72.795 101.532 72.8889 101.131 72.891 100.675ZM78.1137 97.5862C78.6363 97.5886 79.092 97.7049 79.481 97.9349C79.8773 98.1649 80.1703 98.4533 80.36 98.8001L80.3652 97.6962L81.3808 97.701L81.3516 103.883C81.349 104.435 81.229 104.924 80.9914 105.349C80.7539 105.782 80.4138 106.119 79.9711 106.36C79.5357 106.601 79.0273 106.72 78.4459 106.717C77.6511 106.713 76.9897 106.523 76.4616 106.145C75.9335 105.767 75.6231 105.254 75.5305 104.606L76.524 104.611C76.6327 104.979 76.8594 105.275 77.2043 105.497C77.5491 105.727 77.9643 105.843 78.4501 105.845C79.002 105.848 79.4518 105.677 79.7993 105.333C80.1542 104.988 80.3331 104.504 80.336 103.878L80.342 102.609C80.1417 102.961 79.8459 103.254 79.4547 103.487C79.0636 103.721 78.6067 103.837 78.0842 103.834C77.547 103.832 77.0582 103.697 76.6179 103.43C76.185 103.163 75.8445 102.79 75.5965 102.31C75.3486 101.831 75.226 101.285 75.2289 100.675C75.2319 100.056 75.3595 99.5161 75.6119 99.0536C75.8644 98.5838 76.2083 98.2211 76.6437 97.9656C77.0865 97.7101 77.5765 97.5836 78.1137 97.5862ZM80.351 100.71C80.3532 100.254 80.263 99.8557 80.0807 99.5163C79.8983 99.1769 79.6493 98.9181 79.3337 98.74C79.0254 98.5546 78.6837 98.461 78.3083 98.4592C77.933 98.4574 77.5904 98.5441 77.2804 98.7193C76.9705 98.8945 76.7228 99.1509 76.5372 99.4885C76.3516 99.8262 76.2577 100.223 76.2556 100.679C76.2534 101.143 76.3435 101.548 76.5258 101.895C76.7082 102.234 76.9535 102.497 77.2617 102.682C77.57 102.86 77.9118 102.95 78.2871 102.952C78.6624 102.954 79.0051 102.867 79.315 102.692C79.6323 102.51 79.8838 102.249 80.0693 101.912C80.255 101.567 80.3488 101.166 80.351 100.71ZM88.5848 100.528C88.5839 100.719 88.5719 100.922 88.5488 101.135L83.7137 101.112C83.7477 101.708 83.9478 102.177 84.3142 102.517C84.688 102.85 85.1398 103.018 85.6697 103.02C86.1039 103.022 86.4649 102.924 86.7529 102.727C87.0482 102.522 87.2556 102.251 87.3749 101.913L88.4568 101.918C88.2921 102.499 87.9661 102.972 87.4786 103.338C86.9912 103.696 86.3869 103.873 85.6656 103.87C85.0916 103.867 84.5771 103.736 84.122 103.476C83.6743 103.217 83.3228 102.851 83.0674 102.379C82.8121 101.899 82.6859 101.346 82.6889 100.721C82.6918 100.095 82.8195 99.5476 83.072 99.0778C83.3244 98.608 83.6757 98.249 84.1258 98.001C84.5833 97.7455 85.1064 97.6192 85.6952 97.622C86.2692 97.6247 86.7764 97.7522 87.2168 98.0045C87.6571 98.2568 87.994 98.6043 88.2275 99.047C88.4683 99.4823 88.5874 99.976 88.5848 100.528ZM87.5481 100.313C87.5499 99.9306 87.4668 99.6027 87.2988 99.3296C87.1309 99.0492 86.9 98.8383 86.6063 98.6971C86.32 98.5486 86.0002 98.4735 85.647 98.4718C85.1392 98.4694 84.7042 98.6292 84.3421 98.9514C83.9873 99.2735 83.7828 99.7215 83.7286 100.295L87.5481 100.313Z" fill="black"/>
<rect x="0.479485" width="69.2457" height="25.089" rx="6" transform="rotate(0.270663 0.479485 0)" fill="#B2E9AA"/>
<path d="M13.7209 8.425C14.5599 8.42896 15.284 8.59061 15.8934 8.90995C16.5101 9.22196 16.979 9.66943 17.3001 10.2524C17.6285 10.8353 17.7908 11.5205 17.7871 12.308C17.7834 13.0954 17.6146 13.7791 17.2807 14.3589C16.9541 14.9314 16.4811 15.3707 15.8614 15.6769C15.2492 15.9757 14.5235 16.1232 13.6846 16.1192L11.2891 16.1079L11.3254 8.41368L13.7209 8.425ZM13.6885 15.2913C14.682 15.296 15.4412 15.0383 15.9662 14.5183C16.4913 13.9909 16.756 13.2525 16.7605 12.3031C16.765 11.3464 16.5036 10.5982 15.9763 10.0584C15.4563 9.51873 14.7032 9.24655 13.7171 9.24189L12.3261 9.23532L12.2976 15.2847L13.6885 15.2913ZM24.629 12.9143C24.6281 13.1057 24.6161 13.308 24.593 13.5213L19.7579 13.4985C19.7919 14.0948 19.992 14.563 20.3584 14.9033C20.7322 15.2362 21.184 15.404 21.7139 15.4065C22.1481 15.4085 22.5091 15.3109 22.7971 15.1135C23.0924 14.9089 23.2998 14.6375 23.4191 14.2996L24.501 14.3047C24.3363 14.8853 24.0103 15.3584 23.5228 15.7241C23.0354 16.0824 22.4311 16.2599 21.7098 16.2565C21.1358 16.2538 20.6213 16.1225 20.1662 15.8628C19.7185 15.6031 19.367 15.2372 19.1116 14.7649C18.8563 14.2854 18.7301 13.7328 18.7331 13.1073C18.736 12.4817 18.8637 11.934 19.1162 11.4642C19.3686 10.9944 19.7199 10.6354 20.17 10.3873C20.6275 10.1319 21.1506 10.0056 21.7394 10.0084C22.3134 10.0111 22.8206 10.1386 23.261 10.3909C23.7014 10.6432 24.0382 10.9907 24.2717 11.4334C24.5125 11.8687 24.6316 12.3624 24.629 12.9143ZM23.5923 12.6997C23.5941 12.317 23.511 11.9891 23.343 11.716C23.1751 11.4356 22.9443 11.2247 22.6505 11.0835C22.3642 10.935 22.0444 10.8598 21.6912 10.8582C21.1834 10.8558 20.7484 11.0156 20.3863 11.3377C20.0315 11.6599 19.827 12.1079 19.7728 12.6816L23.5923 12.6997ZM28.0807 16.2866C27.617 16.2844 27.2016 16.2051 26.8343 16.0489C26.4671 15.8852 26.1775 15.6631 25.9654 15.3824C25.7533 15.0944 25.6371 14.7663 25.6168 14.3983L26.6545 14.4032C26.6825 14.705 26.8211 14.9522 27.0704 15.1448C27.3271 15.3373 27.6615 15.4346 28.0736 15.4365C28.4563 15.4383 28.7585 15.3551 28.98 15.1869C29.2016 15.0187 29.313 14.8058 29.3142 14.5482C29.3155 14.2833 29.1987 14.0877 28.9638 13.9615C28.7289 13.8279 28.3652 13.6974 27.8727 13.5699C27.4243 13.4501 27.0569 13.3306 26.7705 13.2115C26.4914 13.085 26.2494 12.9036 26.0445 12.6671C25.8469 12.4233 25.749 12.1064 25.7509 11.7163C25.7523 11.4072 25.8457 11.1243 26.0309 10.8676C26.2161 10.6109 26.4783 10.4098 26.8175 10.2642C27.1568 10.1112 27.5435 10.0358 27.9777 10.0378C28.6474 10.041 29.1875 10.2128 29.5981 10.5533C30.0086 10.8938 30.2272 11.3585 30.2538 11.9474L29.2493 11.9426C29.2287 11.6261 29.1011 11.3716 28.8665 11.1791C28.6393 10.9867 28.3306 10.8895 27.9406 10.8877C27.58 10.886 27.2926 10.9619 27.0784 11.1155C26.8643 11.269 26.7566 11.4709 26.7554 11.7211C26.7545 11.9198 26.8163 12.0857 26.9408 12.2187C27.0726 12.3445 27.2341 12.4483 27.425 12.5301C27.6234 12.6047 27.8953 12.6906 28.2407 12.7879C28.6743 12.9077 29.027 13.0271 29.2988 13.1461C29.5706 13.2578 29.8016 13.4282 29.9918 13.6572C30.1895 13.8863 30.2911 14.1848 30.2967 14.5528C30.2951 14.884 30.2017 15.1816 30.0165 15.4457C29.8313 15.7098 29.569 15.9183 29.2298 16.0712C28.8979 16.2168 28.5149 16.2886 28.0807 16.2866ZM32.2591 9.17493C32.0677 9.17403 31.9061 9.10703 31.7743 8.97393C31.6425 8.84084 31.577 8.67862 31.5779 8.48728C31.5788 8.29593 31.6458 8.13434 31.7789 8.0025C31.912 7.87065 32.0742 7.80519 32.2655 7.80609C32.4495 7.80696 32.6038 7.87392 32.7283 8.00698C32.8601 8.14008 32.9256 8.3023 32.9247 8.49364C32.9238 8.68498 32.8568 8.84658 32.7237 8.97842C32.5979 9.1103 32.4431 9.1758 32.2591 9.17493ZM32.7402 10.1597L32.7116 16.2091L31.707 16.2044L31.7356 10.155L32.7402 10.1597ZM36.9475 10.0802C37.4701 10.0827 37.9258 10.1989 38.3148 10.4289C38.7111 10.6589 39.0041 10.9473 39.1938 11.2941L39.199 10.1902L40.2146 10.195L40.1854 16.3769C40.1828 16.9288 40.0628 17.4177 39.8252 17.8434C39.5877 18.2765 39.2476 18.6134 38.8049 18.8542C38.3695 19.095 37.8611 19.214 37.2797 19.2113C36.4849 19.2075 35.8235 19.0167 35.2954 18.6389C34.7673 18.2611 34.4569 17.7481 34.3643 17.1001L35.3578 17.1047C35.4665 17.4732 35.6932 17.7687 36.0381 17.9911C36.3829 18.2209 36.7981 18.3369 37.2839 18.3392C37.8358 18.3418 38.2856 18.171 38.6331 17.8267C38.988 17.4825 39.1669 16.9976 39.1698 16.3721L39.1758 15.1026C38.9755 15.4549 38.6797 15.7479 38.2885 15.9815C37.8974 16.2152 37.4405 16.3308 36.918 16.3283C36.3808 16.3258 35.892 16.191 35.4517 15.924C35.0188 15.657 34.6783 15.2837 34.4303 14.8042C34.1824 14.3246 34.0598 13.7795 34.0627 13.1686C34.0657 12.5505 34.1933 12.0101 34.4457 11.5477C34.6982 11.0779 35.0421 10.7152 35.4775 10.4597C35.9203 10.2042 36.4103 10.0777 36.9475 10.0802ZM39.1848 13.2039C39.187 12.7476 39.0968 12.3498 38.9145 12.0104C38.7321 11.671 38.4831 11.4122 38.1675 11.2341C37.8592 11.0486 37.5175 10.955 37.1421 10.9532C36.7668 10.9515 36.4242 11.0382 36.1142 11.2133C35.8043 11.3885 35.5566 11.6449 35.371 11.9826C35.1854 12.3202 35.0915 12.7172 35.0894 13.1735C35.0872 13.6371 35.1773 14.0423 35.3596 14.3891C35.542 14.7285 35.7873 14.9909 36.0955 15.1764C36.4038 15.3544 36.7456 15.4444 37.1209 15.4461C37.4962 15.4479 37.8389 15.3612 38.1488 15.1861C38.4661 15.0036 38.7176 14.7435 38.9031 14.4058C39.0888 14.0608 39.1826 13.6602 39.1848 13.2039ZM44.8602 10.1066C45.5961 10.11 46.1912 10.3373 46.6453 10.7884C47.0995 11.2321 47.3246 11.8735 47.3207 12.7124L47.3038 16.278L46.3103 16.2733L46.3265 12.8512C46.3293 12.2478 46.1806 11.7871 45.8804 11.4692C45.5802 11.144 45.1688 10.9801 44.6463 10.9777C44.1164 10.9752 43.6925 11.1387 43.3745 11.4684C43.0638 11.7981 42.907 12.2794 42.904 12.9123L42.8882 16.2572L41.8837 16.2524L41.9122 10.203L42.9168 10.2078L42.9127 11.0688C43.1129 10.7607 43.3826 10.5228 43.722 10.3551C44.0686 10.1875 44.4481 10.1046 44.8602 10.1066ZM54.4797 13.0553C54.4788 13.2467 54.4668 13.449 54.4437 13.6623L49.6086 13.6395C49.6426 14.2358 49.8427 14.704 50.2091 15.0443C50.5829 15.3773 51.0347 15.545 51.5646 15.5475C51.9988 15.5495 52.3598 15.4519 52.6478 15.2545C52.9431 15.0499 53.1505 14.7786 53.2698 14.4406L54.3517 14.4457C54.187 15.0263 53.861 15.4995 53.3735 15.8651C52.8861 16.2234 52.2818 16.4009 51.5605 16.3975C50.9865 16.3948 50.472 16.2636 50.0169 16.0038C49.5692 15.7441 49.2177 15.3782 48.9623 14.906C48.707 14.4264 48.5808 13.8738 48.5838 13.2483C48.5867 12.6227 48.7144 12.075 48.9669 11.6052C49.2193 11.1354 49.5706 10.7765 50.0207 10.5284C50.4782 10.2729 51.0013 10.1466 51.5901 10.1494C52.1641 10.1521 52.6713 10.2796 53.1117 10.5319C53.5521 10.7842 53.889 11.1317 54.1224 11.5744C54.3632 12.0097 54.4823 12.5034 54.4797 13.0553ZM53.443 12.8407C53.4448 12.458 53.3617 12.1301 53.1937 11.857C53.0258 11.5766 52.795 11.3657 52.5012 11.2245C52.2149 11.076 51.8951 11.0009 51.5419 10.9992C51.0341 10.9968 50.5991 11.1566 50.237 11.4788C49.8822 11.8009 49.6777 12.2489 49.6235 12.8227L53.443 12.8407ZM56.8188 11.2559C56.997 10.9109 57.2485 10.6435 57.5732 10.4536C57.9053 10.2639 58.3068 10.1701 58.7778 10.1723L58.7729 11.21L58.508 11.2087C57.382 11.2034 56.8161 11.8116 56.8104 13.0332L56.7948 16.3229L55.7903 16.3181L55.8188 10.2687L56.8234 10.2735L56.8188 11.2559Z" fill="black"/>
<rect x="81.7669" y="0.384176" width="50.1781" height="25.089" rx="6" transform="rotate(0.270663 81.7669 0.384176)" fill="#E9AAAA"/>
<path d="M93.5954 8.8025L93.5724 13.6707C93.5692 14.3551 93.7323 14.8637 94.062 15.1965C94.3989 15.5292 94.8655 15.697 95.4616 15.6998C96.0503 15.7026 96.5111 15.5392 96.8438 15.2096C97.1839 14.88 97.3556 14.373 97.3588 13.6886L97.3818 8.82039L98.3863 8.82513L98.3634 13.6823C98.3604 14.3226 98.229 14.8629 97.9694 15.3032C97.7097 15.7362 97.3586 16.0584 96.9161 16.2697C96.4808 16.4811 95.9909 16.5855 95.4464 16.5829C94.9018 16.5803 94.4092 16.4713 93.9686 16.2558C93.5354 16.0403 93.1911 15.7149 92.9356 15.2794C92.6874 14.8367 92.5649 14.2952 92.5679 13.6549L92.5908 8.79775L93.5954 8.8025ZM103.19 12.7005L105.534 16.5533L104.397 16.5479L102.568 13.5366L100.799 16.5309L99.6836 16.5256L102.053 12.6952L99.7089 8.83138L100.835 8.8367L102.675 11.8591L104.456 8.8538L105.582 8.85912L103.19 12.7005ZM110.684 6.1786L107.602 18.4397L106.608 18.435L109.68 6.17386L110.684 6.1786ZM113.151 8.89488L113.128 13.7631C113.125 14.4475 113.288 14.9561 113.617 15.2888C113.954 15.6216 114.421 15.7894 115.017 15.7922C115.606 15.795 116.067 15.6316 116.399 15.302C116.739 14.9724 116.911 14.4654 116.914 13.781L116.937 8.91277L117.942 8.91751L117.919 13.7747C117.916 14.415 117.785 14.9553 117.525 15.3956C117.265 15.8286 116.914 16.1508 116.472 16.3621C116.036 16.5735 115.546 16.6779 115.002 16.6753C114.457 16.6727 113.965 16.5637 113.524 16.3482C113.091 16.1327 112.747 15.8072 112.491 15.3718C112.243 14.9291 112.12 14.3876 112.123 13.7473L112.146 8.89013L113.151 8.89488ZM120.622 8.93017L120.586 16.6244L119.581 16.6196L119.618 8.92543L120.622 8.93017Z" fill="black"/>
<rect x="143.987" y="0.678188" width="131.466" height="25.089" rx="6" transform="rotate(0.270663 143.987 0.678188)" fill="#E9DBAA"/>
<path d="M155.838 9.09662L155.801 16.7908L154.797 16.7861L154.833 9.09187L155.838 9.09662ZM160.49 10.6531C161.226 10.6565 161.821 10.8838 162.275 11.3349C162.729 11.7786 162.954 12.4199 162.95 13.2589L162.933 16.8245L161.94 16.8198L161.956 13.3977C161.959 12.7943 161.81 12.3336 161.51 12.0157C161.21 11.6905 160.798 11.5266 160.276 11.5241C159.746 11.5216 159.322 11.6852 159.004 12.0149C158.693 12.3446 158.537 12.8259 158.534 13.4588L158.518 16.8037L157.513 16.7989L157.542 10.7495L158.546 10.7543L158.542 11.6153C158.742 11.3072 159.012 11.0692 159.352 10.9016C159.698 10.734 160.078 10.6511 160.49 10.6531ZM165.824 11.6166L165.808 15.1822C165.806 15.4766 165.868 15.6866 165.992 15.8123C166.117 15.9307 166.334 15.9906 166.643 15.992L167.382 15.9955L167.378 16.8455L166.473 16.8412C165.914 16.8386 165.495 16.7078 165.216 16.4489C164.938 16.19 164.8 15.7662 164.803 15.1775L164.82 11.6119L164.036 11.6081L164.04 10.7802L164.824 10.7839L164.831 9.26053L165.835 9.26528L165.828 10.7887L167.407 10.7961L167.403 11.6241L165.824 11.6166ZM174.13 13.6208C174.129 13.8122 174.117 14.0145 174.094 14.2278L169.259 14.205C169.293 14.8013 169.493 15.2695 169.86 15.6098C170.234 15.9428 170.685 16.1105 171.215 16.113C171.649 16.115 172.011 16.0174 172.298 15.82C172.594 15.6154 172.801 15.344 172.921 15.0061L174.002 15.0112C173.838 15.5918 173.512 16.0649 173.024 16.4306C172.537 16.7889 171.932 16.9664 171.211 16.963C170.637 16.9603 170.123 16.829 169.668 16.5693C169.22 16.3096 168.868 15.9437 168.613 15.4714C168.358 14.9919 168.231 14.4393 168.234 13.8138C168.237 13.1882 168.365 12.6405 168.618 12.1707C168.87 11.7009 169.221 11.3419 169.671 11.0938C170.129 10.8384 170.652 10.7121 171.241 10.7149C171.815 10.7176 172.322 10.8451 172.762 11.0974C173.203 11.3497 173.54 11.6972 173.773 12.1399C174.014 12.5752 174.133 13.0689 174.13 13.6208ZM173.094 13.4062C173.095 13.0235 173.012 12.6956 172.844 12.4225C172.676 12.1421 172.446 11.9312 172.152 11.79C171.866 11.6415 171.546 11.5663 171.193 11.5647C170.685 11.5623 170.25 11.7221 169.888 12.0442C169.533 12.3664 169.328 12.8144 169.274 13.3881L173.094 13.4062ZM176.469 11.8214C176.648 11.4764 176.899 11.2089 177.224 11.0191C177.556 10.8294 177.957 10.7356 178.428 10.7378L178.424 11.7755L178.159 11.7742C177.033 11.7689 176.467 12.3771 176.461 13.5987L176.445 16.8884L175.441 16.8836L175.47 10.8342L176.474 10.839L176.469 11.8214ZM179.198 13.8545C179.201 13.2363 179.329 12.696 179.581 12.2335C179.834 11.7637 180.177 11.4011 180.613 11.1455C181.056 10.89 181.546 10.7636 182.083 10.7661C182.613 10.7686 183.072 10.8848 183.461 11.1148C183.85 11.3448 184.139 11.6332 184.329 11.98L184.334 10.8761L185.35 10.8809L185.321 16.9303L184.306 16.9255L184.311 15.7995C184.111 16.1518 183.811 16.4448 183.413 16.6784C183.022 16.9047 182.565 17.0166 182.042 17.0142C181.505 17.0116 181.02 16.8768 180.587 16.6099C180.154 16.3429 179.814 15.9696 179.566 15.4901C179.318 15.0105 179.195 14.4653 179.198 13.8545ZM184.32 13.8898C184.322 13.4335 184.232 13.0356 184.05 12.6962C183.867 12.3568 183.618 12.0981 183.303 11.92C182.995 11.7345 182.653 11.6409 182.277 11.6391C181.902 11.6374 181.56 11.724 181.25 11.8992C180.94 12.0744 180.692 12.3308 180.506 12.6685C180.321 13.0061 180.227 13.4031 180.225 13.8594C180.223 14.323 180.313 14.7282 180.495 15.075C180.677 15.4144 180.923 15.6768 181.231 15.8622C181.539 16.0403 181.881 16.1302 182.256 16.132C182.632 16.1338 182.974 16.0471 183.284 15.8719C183.601 15.6894 183.853 15.4294 184.038 15.0917C184.224 14.7467 184.318 14.346 184.32 13.8898ZM186.658 13.9008C186.661 13.2752 186.789 12.7312 187.041 12.2688C187.293 11.799 187.641 11.4363 188.084 11.1808C188.534 10.9254 189.046 10.799 189.62 10.8017C190.363 10.8052 190.973 10.9884 191.45 11.3513C191.934 11.7142 192.252 12.2161 192.403 12.8571L191.322 12.852C191.22 12.4836 191.019 12.1919 190.719 11.9771C190.425 11.7622 190.058 11.6538 189.616 11.6517C189.042 11.649 188.578 11.8455 188.222 12.2413C187.867 12.6296 187.688 13.1844 187.685 13.9056C187.681 14.6342 187.855 15.198 188.207 15.5971C188.558 15.9962 189.021 16.1971 189.595 16.1998C190.036 16.2019 190.405 16.1006 190.7 15.8959C190.995 15.6913 191.199 15.3978 191.311 15.0157L192.393 15.0208C192.228 15.6382 191.902 16.1334 191.415 16.5065C190.927 16.8721 190.319 17.0533 189.591 17.0498C189.017 17.0471 188.506 16.9159 188.058 16.6562C187.618 16.3965 187.274 16.0306 187.026 15.5584C186.778 15.0862 186.655 14.5337 186.658 13.9008ZM194.974 11.7543L194.958 15.3199C194.956 15.6143 195.018 15.8243 195.142 15.95C195.267 16.0684 195.484 16.1283 195.793 16.1297L196.532 16.1332L196.528 16.9832L195.623 16.979C195.064 16.9763 194.645 16.8455 194.366 16.5866C194.088 16.3277 193.95 15.9039 193.953 15.3152L193.97 11.7496L193.186 11.7459L193.19 10.9179L193.974 10.9216L193.981 9.39824L194.985 9.40298L194.978 10.9264L196.557 10.9338L196.553 11.7618L194.974 11.7543ZM198.297 9.95955C198.106 9.95865 197.945 9.89165 197.813 9.75856C197.681 9.62546 197.615 9.46324 197.616 9.2719C197.617 9.08056 197.684 8.91896 197.817 8.78712C197.95 8.65528 198.113 8.58981 198.304 8.59071C198.488 8.59158 198.642 8.65855 198.767 8.79161C198.898 8.9247 198.964 9.08692 198.963 9.27826C198.962 9.46961 198.895 9.6312 198.762 9.76304C198.636 9.89492 198.481 9.96042 198.297 9.95955ZM198.779 10.9443L198.75 16.9937L197.745 16.989L197.774 10.9396L198.779 10.9443ZM203.1 17.1136C202.533 17.1109 202.019 16.9797 201.556 16.72C201.101 16.4602 200.742 16.0942 200.48 15.622C200.224 15.1424 200.098 14.5898 200.101 13.9643C200.104 13.3461 200.239 12.8021 200.506 12.3324C200.781 11.8553 201.15 11.4928 201.615 11.2447C202.08 10.9894 202.6 10.863 203.174 10.8657C203.748 10.8684 204.266 10.9997 204.728 11.2595C205.191 11.5119 205.553 11.8742 205.816 12.3464C206.086 12.8187 206.22 13.3676 206.217 13.9932C206.214 14.6187 206.071 15.17 205.789 15.6471C205.515 16.1168 205.142 16.4793 204.669 16.7347C204.197 16.99 203.674 17.1163 203.1 17.1136ZM203.104 16.2305C203.465 16.2322 203.804 16.1492 204.121 15.9814C204.438 15.8136 204.693 15.5609 204.886 15.2233C205.086 14.8857 205.188 14.4741 205.19 13.9883C205.192 13.5026 205.099 13.09 204.909 12.7506C204.719 12.4112 204.47 12.1598 204.162 11.9964C203.853 11.8257 203.519 11.7395 203.158 11.7378C202.79 11.736 202.452 11.8191 202.142 11.9869C201.839 12.1473 201.595 12.3964 201.41 12.7341C201.224 13.0717 201.13 13.4834 201.128 13.9691C201.125 14.4622 201.212 14.8784 201.387 15.2178C201.569 15.5572 201.811 15.8123 202.112 15.9829C202.413 16.1463 202.743 16.2288 203.104 16.2305ZM210.5 10.8893C211.236 10.8928 211.831 11.1201 212.285 11.5711C212.739 12.0149 212.964 12.6562 212.96 13.4952L212.943 17.0608L211.95 17.0561L211.966 13.634C211.969 13.0305 211.82 12.5698 211.52 12.252C211.22 11.9267 210.808 11.7629 210.286 11.7604C209.756 11.7579 209.332 11.9215 209.014 12.2512C208.703 12.5809 208.547 13.0622 208.544 13.6951L208.528 17.0399L207.523 17.0352L207.552 10.9858L208.556 10.9905L208.552 11.8516C208.752 11.5434 209.022 11.3055 209.361 11.1378C209.708 10.9702 210.088 10.8874 210.5 10.8893ZM217.166 14.0339C217.169 13.4157 217.297 12.8754 217.549 12.4129C217.802 11.9431 218.146 11.5804 218.581 11.3249C219.024 11.0694 219.518 10.9429 220.062 10.9455C220.533 10.9477 220.971 11.0602 221.374 11.2829C221.778 11.4982 222.086 11.783 222.298 12.1373L222.313 8.93596L223.328 8.94075L223.29 17.1096L222.274 17.1049L222.279 15.9678C222.079 16.3275 221.783 16.6242 221.392 16.8578C221.001 17.0841 220.544 17.196 220.022 17.1936C219.484 17.191 218.996 17.0562 218.555 16.7892C218.122 16.5222 217.782 16.149 217.534 15.6694C217.286 15.1899 217.163 14.6447 217.166 14.0339ZM222.288 14.0691C222.291 13.6128 222.2 13.215 222.018 12.8756C221.836 12.5362 221.587 12.2774 221.271 12.0993C220.963 11.9139 220.621 11.8203 220.246 11.8185C219.87 11.8167 219.528 11.9034 219.218 12.0786C218.908 12.2537 218.66 12.5102 218.475 12.8478C218.289 13.1855 218.195 13.5824 218.193 14.0387C218.191 14.5024 218.281 14.9076 218.463 15.2543C218.646 15.5937 218.891 15.8561 219.199 16.0416C219.507 16.2197 219.849 16.3096 220.225 16.3114C220.6 16.3132 220.942 16.2265 221.252 16.0513C221.57 15.8688 221.821 15.6087 222.007 15.2711C222.192 14.926 222.286 14.5254 222.288 14.0691ZM230.522 13.8872C230.521 14.0786 230.509 14.2809 230.486 14.4942L225.651 14.4714C225.685 15.0677 225.885 15.5359 226.252 15.8762C226.625 16.2091 227.077 16.3769 227.607 16.3794C228.041 16.3814 228.402 16.2838 228.69 16.0864C228.986 15.8818 229.193 15.6104 229.312 15.2725L230.394 15.2776C230.23 15.8582 229.903 16.3313 229.416 16.697C228.929 17.0553 228.324 17.2328 227.603 17.2294C227.029 17.2267 226.514 17.0954 226.059 16.8357C225.612 16.576 225.26 16.2101 225.005 15.7378C224.75 15.2583 224.623 14.7057 224.626 14.0802C224.629 13.4546 224.757 12.9069 225.009 12.4371C225.262 11.9673 225.613 11.6083 226.063 11.3602C226.521 11.1048 227.044 10.9785 227.633 10.9813C228.207 10.984 228.714 11.1115 229.154 11.3638C229.595 11.6161 229.931 11.9636 230.165 12.4063C230.406 12.8416 230.525 13.3353 230.522 13.8872ZM229.486 13.6726C229.487 13.2899 229.404 12.962 229.236 12.6889C229.068 12.4084 228.837 12.1976 228.544 12.0564C228.257 11.9079 227.938 11.8327 227.584 11.8311C227.077 11.8287 226.642 11.9885 226.28 12.3106C225.925 12.6328 225.72 13.0807 225.666 13.6545L229.486 13.6726ZM233.974 17.2595C233.51 17.2573 233.095 17.178 232.728 17.0218C232.36 16.8581 232.071 16.636 231.859 16.3553C231.647 16.0673 231.53 15.7392 231.51 15.3712L232.548 15.3761C232.576 15.6779 232.714 15.9251 232.964 16.1177C233.22 16.3102 233.555 16.4075 233.967 16.4094C234.35 16.4112 234.652 16.328 234.873 16.1598C235.095 15.9916 235.206 15.7787 235.207 15.5211C235.209 15.2562 235.092 15.0606 234.857 14.9344C234.622 14.8008 234.258 14.6703 233.766 14.5428C233.318 14.423 232.95 14.3035 232.664 14.1844C232.385 14.0579 232.143 13.8765 231.938 13.64C231.74 13.3962 231.642 13.0793 231.644 12.6892C231.646 12.3801 231.739 12.0972 231.924 11.8405C232.109 11.5838 232.372 11.3827 232.711 11.2371C233.05 11.0841 233.437 11.0087 233.871 11.0107C234.541 11.0139 235.081 11.1857 235.491 11.5262C235.902 11.8667 236.12 12.3314 236.147 12.9203L235.143 12.9155C235.122 12.599 234.994 12.3444 234.76 12.152C234.532 11.9596 234.224 11.8624 233.834 11.8606C233.473 11.8589 233.186 11.9348 232.972 12.0884C232.758 12.2419 232.65 12.4438 232.649 12.694C232.648 12.8927 232.71 13.0586 232.834 13.1916C232.966 13.3174 233.127 13.4212 233.318 13.503C233.517 13.5775 233.788 13.6635 234.134 13.7608C234.568 13.8806 234.92 14 235.192 14.119C235.464 14.2307 235.695 14.4011 235.885 14.6301C236.083 14.8592 236.184 15.1577 236.19 15.5257C236.188 15.8569 236.095 16.1545 235.91 16.4186C235.725 16.6827 235.462 16.8912 235.123 17.0441C234.791 17.1897 234.408 17.2615 233.974 17.2595ZM238.152 10.1478C237.961 10.1469 237.799 10.0799 237.668 9.94683C237.536 9.81374 237.47 9.65152 237.471 9.46017C237.472 9.26883 237.539 9.10724 237.672 8.9754C237.805 8.84355 237.967 8.77808 238.159 8.77899C238.343 8.77986 238.497 8.84682 238.621 8.97988C238.753 9.11297 238.819 9.27519 238.818 9.46654C238.817 9.65788 238.75 9.81947 238.617 9.95132C238.491 10.0832 238.336 10.1487 238.152 10.1478ZM238.633 11.1326L238.605 17.182L237.6 17.1773L237.629 11.1279L238.633 11.1326ZM242.841 11.0531C243.363 11.0556 243.819 11.1718 244.208 11.4018C244.604 11.6318 244.897 11.9202 245.087 12.267L245.092 11.1631L246.108 11.1679L246.079 17.3498C246.076 17.9017 245.956 18.3906 245.718 18.8163C245.481 19.2494 245.141 19.5863 244.698 19.8271C244.263 20.0679 243.754 20.1869 243.173 20.1842C242.378 20.1804 241.717 19.9896 241.189 19.6118C240.661 19.234 240.35 18.721 240.258 18.0729L241.251 18.0776C241.36 18.4461 241.586 18.7416 241.931 18.964C242.276 19.1938 242.691 19.3098 243.177 19.3121C243.729 19.3147 244.179 19.1439 244.526 18.7996C244.881 18.4554 245.06 17.9705 245.063 17.345L245.069 16.0755C244.869 16.4278 244.573 16.7208 244.182 16.9544C243.791 17.1881 243.334 17.3037 242.811 17.3012C242.274 17.2987 241.785 17.1639 241.345 16.8969C240.912 16.6299 240.572 16.2566 240.324 15.7771C240.076 15.2975 239.953 14.7524 239.956 14.1415C239.959 13.5233 240.087 12.983 240.339 12.5206C240.591 12.0508 240.935 11.6881 241.371 11.4326C241.814 11.1771 242.304 11.0506 242.841 11.0531ZM245.078 14.1768C245.08 13.7205 244.99 13.3227 244.808 12.9833C244.625 12.6439 244.376 12.3851 244.061 12.207C243.752 12.0215 243.411 11.9279 243.035 11.9261C242.66 11.9244 242.317 12.0111 242.007 12.1862C241.698 12.3614 241.45 12.6178 241.264 12.9555C241.079 13.2931 240.985 13.6901 240.983 14.1464C240.98 14.61 241.07 15.0152 241.253 15.362C241.435 15.7014 241.681 15.9638 241.989 16.1493C242.297 16.3273 242.639 16.4173 243.014 16.419C243.389 16.4208 243.732 16.3341 244.042 16.159C244.359 15.9765 244.611 15.7164 244.796 15.3787C244.982 15.0337 245.076 14.6331 245.078 14.1768ZM250.753 11.0795C251.489 11.0829 252.084 11.3102 252.539 11.7613C252.993 12.205 253.218 12.8464 253.214 13.6853L253.197 17.2509L252.204 17.2462L252.22 13.8241C252.223 13.2207 252.074 12.76 251.774 12.4421C251.473 12.1169 251.062 11.953 250.54 11.9506C250.01 11.9481 249.586 12.1116 249.268 12.4413C248.957 12.771 248.8 13.2523 248.797 13.8852L248.781 17.2301L247.777 17.2253L247.805 11.1759L248.81 11.1807L248.806 12.0417C249.006 11.7336 249.276 11.4957 249.615 11.328C249.962 11.1604 250.341 11.0775 250.753 11.0795ZM260.373 14.0282C260.372 14.2196 260.36 14.4219 260.337 14.6352L255.502 14.6124C255.536 15.2087 255.736 15.6769 256.102 16.0172C256.476 16.3502 256.928 16.5179 257.458 16.5204C257.892 16.5224 258.253 16.4248 258.541 16.2274C258.836 16.0228 259.044 15.7514 259.163 15.4135L260.245 15.4186C260.08 15.9992 259.754 16.4724 259.267 16.838C258.779 17.1963 258.175 17.3738 257.454 17.3704C256.88 17.3677 256.365 17.2365 255.91 16.9767C255.462 16.717 255.111 16.3511 254.856 15.8789C254.6 15.3993 254.474 14.8467 254.477 14.2212C254.48 13.5956 254.608 13.0479 254.86 12.5781C255.113 12.1083 255.464 11.7494 255.914 11.5013C256.371 11.2458 256.895 11.1195 257.483 11.1223C258.057 11.125 258.565 11.2525 259.005 11.5048C259.445 11.7571 259.782 12.1046 260.016 12.5473C260.256 12.9826 260.376 13.4763 260.373 14.0282ZM259.336 13.8136C259.338 13.4309 259.255 13.103 259.087 12.8299C258.919 12.5495 258.688 12.3386 258.394 12.1974C258.108 12.0489 257.788 11.9738 257.435 11.9721C256.927 11.9697 256.492 12.1295 256.13 12.4517C255.775 12.7738 255.571 13.2218 255.517 13.7956L259.336 13.8136ZM262.712 12.2288C262.89 11.8838 263.142 11.6164 263.466 11.4265C263.799 11.2368 264.2 11.143 264.671 11.1452L264.666 12.1829L264.401 12.1816C263.275 12.1763 262.709 12.7845 262.704 14.0061L262.688 17.2958L261.683 17.291L261.712 11.2416L262.717 11.2464L262.712 12.2288Z" fill="black"/>
<rect x="0.313613" y="35.1246" width="108.385" height="25.089" rx="6" transform="rotate(0.270663 0.313613 35.1246)" fill="#AAE9E5"/>
<path d="M12.1421 43.543L12.1191 48.4112C12.1158 49.0956 12.279 49.6042 12.6086 49.9369C12.9456 50.2697 13.4121 50.4375 14.0082 50.4403C14.597 50.4431 15.0577 50.2797 15.3905 49.9501C15.7306 49.6205 15.9022 49.1135 15.9054 48.4291L15.9284 43.5608L16.933 43.5656L16.9101 48.4228C16.907 49.063 16.7757 49.6033 16.516 50.0437C16.2564 50.4767 15.9053 50.7988 15.4627 51.0102C15.0275 51.2215 14.5376 51.3259 13.993 51.3234C13.4484 51.3208 12.9559 51.2118 12.5153 50.9962C12.0821 50.7808 11.7377 50.4553 11.4822 50.0199C11.2341 49.5772 11.1115 49.0357 11.1146 48.3954L11.1375 43.5382L12.1421 43.543ZM20.7135 51.3772C20.2499 51.375 19.8345 51.2958 19.4672 51.1395C19.1 50.9758 18.8104 50.7537 18.5983 50.473C18.3862 50.185 18.27 49.8569 18.2497 49.4889L19.2873 49.4938C19.3153 49.7957 19.454 50.0428 19.7033 50.2354C19.96 50.4279 20.2944 50.5252 20.7065 50.5271C21.0892 50.5289 21.3913 50.4457 21.6129 50.2775C21.8345 50.1093 21.9459 49.8964 21.9471 49.6388C21.9484 49.3739 21.8315 49.1783 21.5966 49.0521C21.3618 48.9185 20.9981 48.788 20.5056 48.6605C20.0572 48.5407 19.6898 48.4212 19.4033 48.3021C19.1243 48.1757 18.8823 47.9942 18.6773 47.7577C18.4798 47.5139 18.3819 47.197 18.3838 46.807C18.3852 46.4979 18.4785 46.215 18.6637 45.9583C18.849 45.7015 19.1112 45.5004 19.4504 45.3548C19.7897 45.2019 20.1764 45.1264 20.6106 45.1285C21.2803 45.1316 21.8204 45.3035 22.2309 45.6439C22.6415 45.9844 22.86 46.4491 22.8867 47.038L21.8821 47.0332C21.8616 46.7167 21.734 46.4622 21.4994 46.2697C21.2721 46.0773 20.9635 45.9802 20.5735 45.9783C20.2128 45.9766 19.9255 46.0525 19.7113 46.2061C19.4972 46.3596 19.3895 46.5615 19.3883 46.8117C19.3874 47.0104 19.4491 47.1763 19.5736 47.3093C19.7055 47.4351 19.8669 47.5389 20.0579 47.6207C20.2562 47.6953 20.5281 47.7812 20.8736 47.8785C21.3072 47.9983 21.6599 48.1177 21.9317 48.2368C22.2034 48.3484 22.4345 48.5188 22.6247 48.7478C22.8223 48.9769 22.924 49.2755 22.9296 49.6435C22.928 49.9746 22.8346 50.2722 22.6494 50.5363C22.4642 50.8004 22.2019 51.0089 21.8626 51.1618C21.5308 51.3075 21.1477 51.3792 20.7135 51.3772ZM29.8748 48.0645C29.8739 48.2559 29.8619 48.4582 29.8388 48.6715L25.0037 48.6487C25.0377 49.245 25.2379 49.7132 25.6042 50.0535C25.978 50.3864 26.4298 50.5542 26.9597 50.5567C27.3939 50.5587 27.755 50.4611 28.0429 50.2637C28.3383 50.0591 28.5456 49.7877 28.665 49.4498L29.7468 49.4549C29.5822 50.0355 29.2561 50.5086 28.7686 50.8743C28.2812 51.2326 27.6769 51.4101 26.9557 51.4067C26.3817 51.404 25.8671 51.2727 25.412 51.013C24.9643 50.7533 24.6128 50.3874 24.3575 49.9151C24.1021 49.4356 23.976 48.883 23.9789 48.2575C23.9819 47.6319 24.1096 47.0842 24.362 46.6144C24.6145 46.1446 24.9657 45.7856 25.4158 45.5375C25.8733 45.2821 26.3965 45.1558 26.9852 45.1586C27.5592 45.1613 28.0664 45.2888 28.5068 45.5411C28.9472 45.7934 29.2841 46.1409 29.5175 46.5836C29.7583 47.0189 29.8774 47.5126 29.8748 48.0645ZM28.8381 47.8499C28.8399 47.4672 28.7569 47.1393 28.5889 46.8662C28.4209 46.5858 28.1901 46.3749 27.8964 46.2337C27.6101 46.0852 27.2903 46.01 26.937 46.0084C26.4292 46.006 25.9943 46.1658 25.6321 46.4879C25.2774 46.8101 25.0728 47.2581 25.0186 47.8318L28.8381 47.8499ZM32.2139 46.2651C32.3922 45.9201 32.6436 45.6526 32.9684 45.4628C33.3004 45.273 33.702 45.1793 34.173 45.1815L34.1681 46.2192L33.9031 46.2179C32.7771 46.2126 32.2113 46.8208 32.2055 48.0424L32.19 51.3321L31.1854 51.3273L31.214 45.2779L32.2185 45.2827L32.2139 46.2651ZM43.7814 48.1302C43.7805 48.3216 43.7685 48.5239 43.7454 48.7372L38.9103 48.7144C38.9443 49.3107 39.1445 49.7789 39.5109 50.1192C39.8846 50.4521 40.3364 50.6199 40.8663 50.6224C41.3005 50.6244 41.6616 50.5268 41.9496 50.3294C42.2449 50.1248 42.4522 49.8534 42.5716 49.5155L43.6534 49.5206C43.4888 50.1012 43.1627 50.5743 42.6753 50.94C42.1878 51.2983 41.5835 51.4758 40.8623 51.4724C40.2883 51.4697 39.7737 51.3384 39.3187 51.0787C38.871 50.819 38.5194 50.4531 38.2641 49.9808C38.0088 49.5013 37.8826 48.9487 37.8855 48.3232C37.8885 47.6976 38.0162 47.1499 38.2686 46.6801C38.5211 46.2103 38.8723 45.8513 39.3224 45.6032C39.7799 45.3478 40.3031 45.2215 40.8918 45.2243C41.4658 45.227 41.9731 45.3545 42.4134 45.6068C42.8538 45.8591 43.1907 46.2066 43.4241 46.6493C43.6649 47.0846 43.784 47.5783 43.7814 48.1302ZM42.7447 47.9156C42.7466 47.5329 42.6635 47.205 42.4955 46.9319C42.3275 46.6514 42.0967 46.4406 41.803 46.2994C41.5167 46.1508 41.1969 46.0757 40.8436 46.0741C40.3359 46.0717 39.9009 46.2315 39.5387 46.5536C39.184 46.8758 38.9795 47.3237 38.9252 47.8975L42.7447 47.9156ZM48.2492 51.4079L46.8248 49.1492L45.4342 51.3946L44.3855 51.3897L46.3536 48.3963L44.4141 45.3403L45.5511 45.3456L46.9756 47.5933L48.355 45.3589L49.4037 45.3638L47.4467 48.3462L49.3862 51.4133L48.2492 51.4079ZM51.4022 46.4882C51.6026 46.1433 51.8983 45.8577 52.2894 45.6314C52.688 45.3978 53.1485 45.2822 53.671 45.2846C54.2082 45.2872 54.6933 45.4183 55.1263 45.6779C55.5667 45.9376 55.9108 46.3035 56.1588 46.7757C56.4068 47.2405 56.5294 47.782 56.5265 48.4002C56.5236 49.011 56.3959 49.555 56.1434 50.0322C55.891 50.5094 55.5433 50.8794 55.1005 51.1422C54.665 51.4051 54.1787 51.5353 53.6415 51.5327C53.1263 51.5303 52.6706 51.4141 52.2742 51.1841C51.8853 50.9467 51.5886 50.6546 51.3842 50.3078L51.3654 54.2929L50.3608 54.2881L50.403 45.3686L51.4075 45.3733L51.4022 46.4882ZM55.4999 48.3953C55.502 47.939 55.4119 47.5412 55.2295 47.2018C55.0471 46.8624 54.7981 46.6036 54.4825 46.4255C54.1742 46.2474 53.8324 46.1575 53.4571 46.1557C53.0892 46.154 52.7465 46.2444 52.4292 46.4269C52.1193 46.602 51.8678 46.8621 51.6748 47.2071C51.4892 47.5448 51.3954 47.938 51.3933 48.387C51.3911 48.8432 51.4812 49.2448 51.6636 49.5915C51.8533 49.931 52.1023 50.1934 52.4105 50.3788C52.7261 50.557 53.0679 50.6469 53.4359 50.6486C53.8112 50.6504 54.1539 50.5637 54.4638 50.3885C54.7811 50.2061 55.0326 49.946 55.2181 49.6083C55.4038 49.2633 55.4977 48.859 55.4999 48.3953ZM63.3693 48.2228C63.3684 48.4141 63.3564 48.6164 63.3333 48.8297L58.4982 48.8069C58.5322 49.4032 58.7323 49.8715 59.0987 50.2117C59.4725 50.5447 59.9243 50.7124 60.4542 50.7149C60.8884 50.717 61.2494 50.6193 61.5374 50.422C61.8327 50.2173 62.0401 49.946 62.1594 49.608L63.2413 49.6131C63.0766 50.1937 62.7506 50.6669 62.2631 51.0325C61.7757 51.3909 61.1714 51.5683 60.4501 51.5649C59.8761 51.5622 59.3616 51.431 58.9065 51.1712C58.4588 50.9115 58.1073 50.5456 57.8519 50.0734C57.5966 49.5938 57.4704 49.0412 57.4734 48.4157C57.4763 47.7901 57.604 47.2425 57.8565 46.7726C58.1089 46.3028 58.4602 45.9439 58.9103 45.6958C59.3678 45.4403 59.8909 45.314 60.4797 45.3168C61.0537 45.3195 61.5609 45.447 62.0013 45.6993C62.4417 45.9516 62.7786 46.2991 63.012 46.7418C63.2528 47.1772 63.3719 47.6708 63.3693 48.2228ZM62.3326 48.0081C62.3344 47.6254 62.2513 47.2975 62.0833 47.0244C61.9154 46.744 61.6846 46.5331 61.3908 46.3919C61.1045 46.2434 60.7847 46.1683 60.4315 46.1666C59.9237 46.1642 59.4887 46.3241 59.1266 46.6462C58.7718 46.9683 58.5673 47.4163 58.5131 47.9901L62.3326 48.0081ZM65.7084 46.4234C65.8866 46.0783 66.1381 45.8109 66.4628 45.6211C66.7949 45.4313 67.1964 45.3375 67.6674 45.3397L67.6625 46.3774L67.3976 46.3761C66.2716 46.3708 65.7057 46.979 65.7 48.2006L65.6844 51.4903L64.6799 51.4855L64.7084 45.4361L65.713 45.4409L65.7084 46.4234ZM69.35 44.4756C69.1587 44.4747 68.9971 44.4077 68.8652 44.2746C68.7334 44.1415 68.6679 43.9793 68.6688 43.7879C68.6697 43.5966 68.7367 43.435 68.8698 43.3031C69.0029 43.1713 69.1651 43.1058 69.3565 43.1067C69.5405 43.1076 69.6947 43.1746 69.8192 43.3076C69.951 43.4407 70.0165 43.6029 70.0156 43.7943C70.0147 43.9856 69.9477 44.1472 69.8146 44.2791C69.6888 44.4109 69.534 44.4764 69.35 44.4756ZM69.8311 45.4603L69.8025 51.5097L68.7979 51.505L68.8265 45.4556L69.8311 45.4603ZM77.0495 48.2874C77.0486 48.4787 77.0366 48.6811 77.0135 48.8944L72.1784 48.8715C72.2124 49.4678 72.4126 49.9361 72.7789 50.2764C73.1527 50.6093 73.6045 50.777 74.1344 50.7795C74.5686 50.7816 74.9297 50.6839 75.2176 50.4866C75.513 50.2819 75.7203 50.0106 75.8397 49.6726L76.9215 49.6777C76.7568 50.2584 76.4308 50.7315 75.9433 51.0972C75.4559 51.4555 74.8516 51.6329 74.1304 51.6295C73.5563 51.6268 73.0418 51.4956 72.5867 51.2359C72.139 50.9762 71.7875 50.6102 71.5321 50.138C71.2768 49.6584 71.1506 49.1059 71.1536 48.4803C71.1566 47.8548 71.2843 47.3071 71.5367 46.8373C71.7891 46.3675 72.1404 46.0085 72.5905 45.7604C73.048 45.505 73.5711 45.3787 74.1599 45.3814C74.7339 45.3841 75.2411 45.5117 75.6815 45.764C76.1219 46.0163 76.4588 46.3638 76.6922 46.8064C76.933 47.2418 77.0521 47.7354 77.0495 48.2874ZM76.0128 48.0727C76.0146 47.69 75.9315 47.3622 75.7636 47.0891C75.5956 46.8086 75.3648 46.5978 75.0711 46.4566C74.7848 46.308 74.465 46.2329 74.1117 46.2312C73.6039 46.2288 73.169 46.3887 72.8068 46.7108C72.452 47.0329 72.2475 47.4809 72.1933 48.0547L76.0128 48.0727ZM81.3366 45.4043C82.0726 45.4078 82.6676 45.6351 83.1218 46.0861C83.576 46.5298 83.8011 47.1712 83.7971 48.0102L83.7803 51.5758L82.7867 51.5711L82.8029 48.149C82.8058 47.5455 82.6571 47.0848 82.3568 46.767C82.0566 46.4417 81.6453 46.2779 81.1228 46.2754C80.5929 46.2729 80.1689 46.4365 79.8509 46.7662C79.5403 47.0959 79.3834 47.5772 79.3804 48.2101L79.3646 51.5549L78.3601 51.5502L78.3887 45.5008L79.3932 45.5055L79.3892 46.3666C79.5893 46.0584 79.8591 45.8205 80.1984 45.6528C80.5451 45.4852 80.9245 45.4024 81.3366 45.4043ZM85.0602 48.546C85.0632 47.9205 85.1909 47.3765 85.4433 46.914C85.6957 46.4442 86.0433 46.0815 86.4861 45.826C86.9362 45.5706 87.4483 45.4442 88.0223 45.4469C88.7656 45.4504 89.3756 45.6336 89.8523 45.9965C90.3363 46.3594 90.6541 46.8613 90.8056 47.5023L89.7238 47.4972C89.6225 47.1288 89.4214 46.8371 89.1207 46.6223C88.8274 46.4075 88.4599 46.299 88.0183 46.2969C87.4443 46.2942 86.9797 46.4907 86.6246 46.8865C86.2695 47.2748 86.0903 47.8296 86.0868 48.5509C86.0834 49.2794 86.2574 49.8433 86.6087 50.2423C86.9601 50.6414 87.4228 50.8423 87.9968 50.845C88.4384 50.8471 88.8069 50.7458 89.1022 50.5411C89.3976 50.3365 89.6013 50.043 89.7135 49.6609L90.7954 49.666C90.6305 50.2834 90.3044 50.7786 89.8169 51.1517C89.3294 51.5173 88.7214 51.6985 87.9928 51.695C87.4188 51.6923 86.9079 51.5611 86.4602 51.3014C86.0199 51.0417 85.6757 50.6758 85.4277 50.2036C85.1797 49.7315 85.0572 49.1789 85.0602 48.546ZM97.6615 48.3848C97.6606 48.5761 97.6486 48.7784 97.6255 48.9917L92.7904 48.9689C92.8244 49.5652 93.0245 50.0335 93.3909 50.3737C93.7647 50.7067 94.2165 50.8744 94.7464 50.8769C95.1806 50.879 95.5416 50.7813 95.8296 50.584C96.1249 50.3793 96.3323 50.108 96.4516 49.77L97.5335 49.7751C97.3688 50.3557 97.0428 50.8289 96.5553 51.1945C96.0679 51.5529 95.4636 51.7303 94.7423 51.7269C94.1683 51.7242 93.6538 51.593 93.1987 51.3332C92.751 51.0735 92.3995 50.7076 92.1441 50.2354C91.8888 49.7558 91.7626 49.2032 91.7656 48.5777C91.7685 47.9521 91.8962 47.4045 92.1487 46.9346C92.4011 46.4648 92.7524 46.1059 93.2025 45.8578C93.66 45.6023 94.1831 45.476 94.7719 45.4788C95.3459 45.4815 95.8531 45.609 96.2935 45.8613C96.7339 46.1136 97.0708 46.4611 97.3042 46.9038C97.545 47.3391 97.6641 47.8328 97.6615 48.3848ZM96.6248 48.1701C96.6266 47.7874 96.5435 47.4595 96.3755 47.1864C96.2076 46.906 95.9768 46.6951 95.683 46.5539C95.3967 46.4054 95.0769 46.3303 94.7237 46.3286C94.2159 46.3262 93.7809 46.4861 93.4188 46.8082C93.064 47.1303 92.8595 47.5783 92.8053 48.1521L96.6248 48.1701Z" fill="black"/>
<rect x="120.739" y="35.6931" width="97.3454" height="25.089" rx="6" transform="rotate(0.270663 120.739 35.6931)" fill="#B2AAE9"/>
<path d="M132.568 44.1114L132.545 48.9796C132.542 49.664 132.705 50.1726 133.034 50.5053C133.371 50.8381 133.838 51.0059 134.434 51.0087C135.023 51.0115 135.484 50.8481 135.816 50.5185C136.156 50.1889 136.328 49.6819 136.331 48.9975L136.354 44.1293L137.359 44.134L137.336 48.9912C137.333 49.6315 137.202 50.1718 136.942 50.6121C136.682 51.0451 136.331 51.3673 135.889 51.5786C135.453 51.79 134.963 51.8944 134.419 51.8918C133.874 51.8892 133.382 51.7802 132.941 51.5647C132.508 51.3492 132.164 51.0238 131.908 50.5883C131.66 50.1456 131.537 49.6041 131.54 48.9638L131.563 44.1066L132.568 44.1114ZM141.139 51.9456C140.676 51.9434 140.26 51.8642 139.893 51.7079C139.526 51.5443 139.236 51.3221 139.024 51.0414C138.812 50.7534 138.696 50.4254 138.676 50.0573L139.713 50.0622C139.741 50.3641 139.88 50.6113 140.129 50.8038C140.386 50.9964 140.72 51.0936 141.132 51.0956C141.515 51.0974 141.817 51.0142 142.039 50.8459C142.26 50.6777 142.372 50.4648 142.373 50.2072C142.374 49.9423 142.257 49.7467 142.022 49.6205C141.788 49.4869 141.424 49.3564 140.931 49.229C140.483 49.1091 140.116 48.9896 139.829 48.8705C139.55 48.7441 139.308 48.5626 139.103 48.3261C138.906 48.0824 138.808 47.7654 138.81 47.3754C138.811 47.0663 138.904 46.7834 139.09 46.5267C139.275 46.27 139.537 46.0688 139.876 45.9232C140.216 45.7703 140.602 45.6948 141.036 45.6969C141.706 45.7001 142.246 45.8719 142.657 46.2124C143.067 46.5528 143.286 47.0175 143.313 47.6064L142.308 47.6017C142.287 47.2851 142.16 47.0306 141.925 46.8381C141.698 46.6457 141.389 46.5486 140.999 46.5467C140.639 46.545 140.351 46.621 140.137 46.7745C139.923 46.928 139.815 47.1299 139.814 47.3801C139.813 47.5788 139.875 47.7447 139.999 47.8778C140.131 48.0035 140.293 48.1073 140.484 48.1892C140.682 48.2637 140.954 48.3496 141.299 48.4469C141.733 48.5667 142.086 48.6861 142.358 48.8052C142.629 48.9169 142.86 49.0872 143.051 49.3163C143.248 49.5453 143.35 49.8439 143.355 50.2119C143.354 50.543 143.26 50.8407 143.075 51.1047C142.89 51.3688 142.628 51.5773 142.288 51.7303C141.957 51.8759 141.574 51.9477 141.139 51.9456ZM150.301 48.633C150.3 48.8243 150.288 49.0266 150.265 49.2399L145.43 49.2171C145.464 49.8134 145.664 50.2817 146.03 50.6219C146.404 50.9549 146.856 51.1226 147.386 51.1251C147.82 51.1272 148.181 51.0295 148.469 50.8322C148.764 50.6275 148.971 50.3562 149.091 50.0182L150.173 50.0233C150.008 50.6039 149.682 51.0771 149.195 51.4427C148.707 51.8011 148.103 51.9785 147.382 51.9751C146.808 51.9724 146.293 51.8412 145.838 51.5814C145.39 51.3217 145.039 50.9558 144.783 50.4836C144.528 50.004 144.402 49.4514 144.405 48.8259C144.408 48.2003 144.535 47.6527 144.788 47.1828C145.04 46.713 145.392 46.3541 145.842 46.106C146.299 45.8505 146.822 45.7242 147.411 45.727C147.985 45.7297 148.492 45.8572 148.933 46.1095C149.373 46.3618 149.71 46.7093 149.943 47.152C150.184 47.5873 150.303 48.081 150.301 48.633ZM149.264 48.4183C149.266 48.0356 149.183 47.7077 149.015 47.4346C148.847 47.1542 148.616 46.9433 148.322 46.8021C148.036 46.6536 147.716 46.5785 147.363 46.5768C146.855 46.5744 146.42 46.7343 146.058 47.0564C145.703 47.3785 145.499 47.8265 145.444 48.4003L149.264 48.4183ZM152.64 46.8336C152.818 46.4885 153.069 46.2211 153.394 46.0313C153.726 45.8415 154.128 45.7477 154.599 45.7499L154.594 46.7876L154.329 46.7863C153.203 46.781 152.637 47.3892 152.631 48.6108L152.616 51.9005L151.611 51.8957L151.64 45.8463L152.644 45.8511L152.64 46.8336ZM159.224 44.8997C159.033 44.8988 158.871 44.8318 158.74 44.6987C158.608 44.5656 158.542 44.4034 158.543 44.212C158.544 44.0207 158.611 43.8591 158.744 43.7272C158.877 43.5954 159.04 43.5299 159.231 43.5308C159.415 43.5317 159.569 43.5987 159.694 43.7317C159.825 43.8648 159.891 44.027 159.89 44.2184C159.889 44.4097 159.822 44.5713 159.689 44.7032C159.563 44.835 159.408 44.9005 159.224 44.8997ZM159.706 45.8844L159.677 51.9338L158.672 51.9291L158.701 45.8797L159.706 45.8844ZM164.366 45.7961C165.101 45.7995 165.697 46.0268 166.151 46.4779C166.605 46.9216 166.83 47.5629 166.826 48.4019L166.809 51.9675L165.816 51.9628L165.832 48.5407C165.835 47.9373 165.686 47.4766 165.386 47.1587C165.086 46.8335 164.674 46.6696 164.152 46.6672C163.622 46.6646 163.198 46.8282 162.88 47.1579C162.569 47.4876 162.412 47.9689 162.409 48.6018L162.394 51.9467L161.389 51.9419L161.418 45.8925L162.422 45.8973L162.418 46.7583C162.618 46.4502 162.888 46.2123 163.227 46.0446C163.574 45.877 163.953 45.7941 164.366 45.7961ZM169.7 46.7596L169.683 50.3252C169.682 50.6196 169.743 50.8296 169.868 50.9553C169.993 51.0737 170.209 51.1336 170.518 51.135L171.258 51.1385L171.254 51.9885L170.349 51.9843C169.79 51.9816 169.371 51.8508 169.092 51.5919C168.814 51.333 168.676 50.9092 168.679 50.3205L168.696 46.7549L167.912 46.7512L167.916 45.9232L168.699 45.9269L168.707 44.4035L169.711 44.4083L169.704 45.9317L171.283 45.9391L171.279 46.7671L169.7 46.7596ZM178.006 48.7638C178.005 48.9552 177.993 49.1575 177.97 49.3708L173.135 49.348C173.169 49.9443 173.369 50.4125 173.736 50.7528C174.109 51.0858 174.561 51.2535 175.091 51.256C175.525 51.258 175.886 51.1604 176.174 50.963C176.47 50.7584 176.677 50.487 176.796 50.1491L177.878 50.1542C177.713 50.7348 177.387 51.208 176.9 51.5736C176.413 51.9319 175.808 52.1094 175.087 52.106C174.513 52.1033 173.998 51.9721 173.543 51.7123C173.096 51.4526 172.744 51.0867 172.489 50.6144C172.233 50.1349 172.107 49.5823 172.11 48.9568C172.113 48.3312 172.241 47.7835 172.493 47.3137C172.746 46.8439 173.097 46.4849 173.547 46.2368C174.005 45.9814 174.528 45.8551 175.116 45.8579C175.691 45.8606 176.198 45.9881 176.638 46.2404C177.078 46.4927 177.415 46.8402 177.649 47.2829C177.89 47.7182 178.009 48.2119 178.006 48.7638ZM176.969 48.5492C176.971 48.1665 176.888 47.8386 176.72 47.5655C176.552 47.2851 176.321 47.0742 176.028 46.933C175.741 46.7845 175.422 46.7094 175.068 46.7077C174.561 46.7053 174.126 46.8651 173.763 47.1872C173.409 47.5094 173.204 47.9574 173.15 48.5311L176.969 48.5492ZM180.345 46.9644C180.523 46.6194 180.775 46.3519 181.1 46.1621C181.432 45.9724 181.833 45.8786 182.304 45.8808L182.299 46.9185L182.034 46.9172C180.908 46.9119 180.343 47.5201 180.337 48.7417L180.321 52.0314L179.317 52.0266L179.345 45.9772L180.35 45.982L180.345 46.9644ZM185.921 46.8362L184.652 46.8302L184.627 52.0517L183.622 52.047L183.647 46.8255L182.863 46.8218L182.867 45.9939L183.651 45.9976L183.653 45.567C183.656 44.89 183.832 44.3977 184.179 44.0903C184.534 43.7755 185.097 43.6199 185.87 43.6236L185.866 44.4625C185.425 44.4604 185.111 44.5473 184.927 44.723C184.749 44.8915 184.659 45.1744 184.658 45.5718L184.656 46.0023L185.925 46.0083L185.921 46.8362ZM186.707 49.0147C186.71 48.3965 186.837 47.8562 187.09 47.3937C187.342 46.9239 187.686 46.5612 188.122 46.3057C188.564 46.0502 189.054 45.9237 189.592 45.9263C190.121 45.9288 190.581 46.045 190.97 46.275C191.359 46.505 191.648 46.7934 191.838 47.1402L191.843 46.0363L192.859 46.0411L192.83 52.0905L191.815 52.0857L191.82 50.9597C191.619 51.312 191.32 51.6049 190.922 51.8386C190.53 52.0649 190.074 52.1768 189.551 52.1743C189.014 52.1718 188.529 52.037 188.096 51.77C187.663 51.503 187.322 51.1298 187.074 50.6502C186.826 50.1707 186.704 49.6255 186.707 49.0147ZM191.829 49.0499C191.831 48.5936 191.741 48.1958 191.559 47.8564C191.376 47.517 191.127 47.2582 190.812 47.0801C190.503 46.8947 190.162 46.8011 189.786 46.7993C189.411 46.7975 189.068 46.8842 188.758 47.0594C188.448 47.2345 188.201 47.491 188.015 47.8286C187.829 48.1663 187.736 48.5632 187.733 49.0195C187.731 49.4832 187.821 49.8884 188.004 50.2351C188.186 50.5745 188.431 50.837 188.74 51.0224C189.048 51.2005 189.39 51.2904 189.765 51.2922C190.14 51.294 190.483 51.2073 190.793 51.0321C191.11 50.8496 191.362 50.5895 191.547 50.2519C191.733 49.9068 191.827 49.5062 191.829 49.0499ZM194.167 49.061C194.17 48.4354 194.297 47.8914 194.55 47.429C194.802 46.9591 195.15 46.5965 195.593 46.341C196.043 46.0855 196.555 45.9592 197.129 45.9619C197.872 45.9654 198.482 46.1486 198.959 46.5114C199.443 46.8743 199.761 47.3763 199.912 48.0173L198.83 48.0122C198.729 47.6437 198.528 47.3521 198.227 47.1372C197.934 46.9224 197.566 46.814 197.125 46.8119C196.551 46.8092 196.086 47.0057 195.731 47.4014C195.376 47.7898 195.197 48.3446 195.193 49.0658C195.19 49.7944 195.364 50.3582 195.715 50.7573C196.067 51.1564 196.529 51.3573 197.103 51.36C197.545 51.3621 197.913 51.2608 198.209 51.0561C198.504 50.8514 198.708 50.558 198.82 50.1758L199.902 50.1809C199.737 50.7984 199.411 51.2936 198.923 51.6666C198.436 52.0323 197.828 52.2134 197.099 52.21C196.525 52.2073 196.014 52.0761 195.567 51.8164C195.126 51.5567 194.782 51.1908 194.534 50.7186C194.286 50.2464 194.164 49.6939 194.167 49.061ZM206.768 48.8997C206.767 49.091 206.755 49.2934 206.732 49.5067L201.897 49.4839C201.931 50.0801 202.131 50.5484 202.497 50.8887C202.871 51.2216 203.323 51.3893 203.853 51.3919C204.287 51.3939 204.648 51.2963 204.936 51.0989C205.231 50.8942 205.439 50.6229 205.558 50.2849L206.64 50.29C206.475 50.8707 206.149 51.3438 205.662 51.7095C205.174 52.0678 204.57 52.2453 203.849 52.2419C203.275 52.2391 202.76 52.1079 202.305 51.8482C201.858 51.5885 201.506 51.2225 201.251 50.7503C200.995 50.2707 200.869 49.7182 200.872 49.0926C200.875 48.4671 201.003 47.9194 201.255 47.4496C201.508 46.9798 201.859 46.6208 202.309 46.3727C202.767 46.1173 203.29 45.991 203.878 45.9938C204.452 45.9965 204.96 46.124 205.4 46.3763C205.84 46.6286 206.177 46.9761 206.411 47.4187C206.651 47.8541 206.771 48.3477 206.768 48.8997ZM205.731 48.6851C205.733 48.3024 205.65 47.9745 205.482 47.7014C205.314 47.4209 205.083 47.2101 204.79 47.0689C204.503 46.9203 204.183 46.8452 203.83 46.8436C203.322 46.8412 202.887 47.001 202.525 47.3231C202.171 47.6453 201.966 48.0932 201.912 48.667L205.731 48.6851Z" fill="black"/>
</svg>
