<svg width="547" height="571" viewBox="0 0 547 571" fill="none" xmlns="http://www.w3.org/2000/svg">
<path d="M262.859 558.596C408.033 558.596 525.719 434.733 525.719 281.94C525.719 129.148 408.033 5.28516 262.859 5.28516C117.686 5.28516 0 129.148 0 281.94C0 434.733 117.686 558.596 262.859 558.596Z" fill="url(#paint0_linear_849_12235)"/>
<g style="mix-blend-mode:overlay">
<path d="M90.8009 523.644L251.986 569.103C260.941 571.632 270.375 571.632 279.33 569.103L440.515 523.644C440.8 523.562 441.064 523.448 441.319 523.324C441.731 523.118 442.074 522.85 442.378 522.55C441.898 522.065 441.28 521.673 440.515 521.466L279.33 476.008C270.375 473.479 260.941 473.479 251.986 476.008L90.8009 521.466C90.036 521.683 89.4279 522.065 88.9375 522.55C89.2415 522.85 89.5848 523.118 89.9967 523.324C90.2419 523.448 90.5067 523.562 90.8009 523.644Z" fill="black"/>
</g>
<path d="M90.7997 521.456L251.985 475.997C260.939 473.468 270.374 473.468 279.328 475.997L440.514 521.456C441.279 521.673 441.887 522.055 442.377 522.54C444.545 520.341 443.927 516.006 440.514 515.046L279.328 469.587C270.374 467.058 260.939 467.058 251.985 469.587L90.7997 515.046C87.3867 516.006 86.7688 520.352 88.9363 522.55C89.4168 522.065 90.0347 521.673 90.7997 521.466V521.456Z" fill="url(#paint1_linear_849_12235)"/>
<path d="M285.894 482.389L136.188 524.726L136.462 525.802L286.169 483.465L285.894 482.389Z" fill="url(#paint2_linear_849_12235)"/>
<path d="M322.207 492.64L172.5 534.977L172.775 536.053L322.481 493.716L322.207 492.64Z" fill="url(#paint3_linear_849_12235)"/>
<path d="M358.535 502.877L208.828 545.214L209.103 546.291L358.81 503.954L358.535 502.877Z" fill="url(#paint4_linear_849_12235)"/>
<path d="M394.863 513.125L245.156 555.462L245.431 556.539L395.138 514.202L394.863 513.125Z" fill="url(#paint5_linear_849_12235)"/>
<path d="M245.415 482.459L245.141 483.536L394.875 525.763L395.149 524.686L245.415 482.459Z" fill="url(#paint6_linear_849_12235)"/>
<path d="M209.087 492.704L208.812 493.781L358.547 536.008L358.821 534.931L209.087 492.704Z" fill="url(#paint7_linear_849_12235)"/>
<path d="M172.766 502.932L172.492 504.009L322.227 546.236L322.501 545.159L172.766 502.932Z" fill="url(#paint8_linear_849_12235)"/>
<path d="M136.446 513.188L136.172 514.265L285.906 556.492L286.181 555.415L136.446 513.188Z" fill="url(#paint9_linear_849_12235)"/>
<path d="M219.495 503.64L196.418 510.143C195.133 510.504 193.789 510.504 192.505 510.143L169.428 503.64C169.134 503.557 168.977 503.289 168.977 503.021V522.664C168.977 522.932 169.124 523.19 169.428 523.283L192.505 529.786C193.789 530.147 195.133 530.147 196.418 529.786L219.495 523.283C219.789 523.2 219.946 522.932 219.946 522.664V503.021C219.946 503.289 219.799 503.547 219.495 503.64Z" fill="url(#paint10_linear_849_12235)"/>
<path d="M192.502 510.143L169.425 503.64C168.827 503.475 168.827 502.577 169.425 502.412L192.502 495.909C193.787 495.547 195.131 495.547 196.415 495.909L219.492 502.412C220.091 502.577 220.091 503.475 219.492 503.64L196.415 510.143C195.131 510.504 193.787 510.504 192.502 510.143Z" fill="url(#paint11_linear_849_12235)"/>
<path d="M287.893 461.546L264.816 468.049C263.532 468.41 262.188 468.41 260.903 468.049L237.826 461.546C237.532 461.463 237.375 461.195 237.375 460.927V480.57C237.375 480.838 237.522 481.096 237.826 481.189L260.903 487.692C262.188 488.053 263.532 488.053 264.816 487.692L287.893 481.189C288.187 481.107 288.344 480.838 288.344 480.57V460.927C288.344 461.195 288.197 461.453 287.893 461.546Z" fill="#CBDD64"/>
<path d="M287.893 472.632L264.816 479.135C263.532 479.496 262.188 479.496 260.903 479.135L237.826 472.632C237.532 472.549 237.375 472.281 237.375 472.013V491.656C237.375 491.924 237.522 492.182 237.826 492.275L260.903 498.778C262.188 499.139 263.532 499.139 264.816 498.778L287.893 492.275C288.187 492.193 288.344 491.924 288.344 491.656V472.013C288.344 472.281 288.197 472.539 287.893 472.632Z" fill="url(#paint12_linear_849_12235)"/>
<path d="M287.893 488.167L264.816 494.67C263.532 495.031 262.188 495.031 260.903 494.67L237.826 488.167C237.532 488.085 237.375 487.816 237.375 487.548V521.012C237.375 521.281 237.522 521.539 237.826 521.632L260.903 528.135C262.188 528.496 263.532 528.496 264.816 528.135L287.893 521.632C288.187 521.549 288.344 521.281 288.344 521.012V487.548C288.344 487.816 288.197 488.074 287.893 488.167Z" fill="#CBDD64"/>
<path d="M260.916 468.049L237.839 461.546C237.241 461.381 237.241 460.483 237.839 460.318L260.916 453.815C262.201 453.454 263.545 453.454 264.829 453.815L287.906 460.318C288.505 460.483 288.505 461.381 287.906 461.546L264.829 468.049C263.545 468.41 262.201 468.41 260.916 468.049Z" fill="#E6E875"/>
<path d="M373.94 508.873L350.863 515.376C349.578 515.738 348.235 515.738 346.95 515.376L323.873 508.873C323.579 508.791 323.422 508.522 323.422 508.254V527.897C323.422 528.165 323.569 528.423 323.873 528.516L346.95 535.019C348.235 535.381 349.578 535.381 350.863 535.019L373.94 528.516C374.234 528.434 374.391 528.165 374.391 527.897V508.254C374.391 508.522 374.244 508.78 373.94 508.873Z" fill="url(#paint13_linear_849_12235)"/>
<path d="M346.948 515.376L323.871 508.873C323.272 508.708 323.272 507.81 323.871 507.645L346.948 501.142C348.232 500.781 349.576 500.781 350.861 501.142L373.938 507.645C374.536 507.81 374.536 508.708 373.938 508.873L350.861 515.376C349.576 515.738 348.232 515.738 346.948 515.376Z" fill="white" stroke="#231F20" stroke-width="1.22377" stroke-miterlimit="10"/>
<path d="M373.94 493.813L350.863 500.316C349.578 500.677 348.235 500.677 346.95 500.316L323.873 493.813C323.579 493.731 323.422 493.462 323.422 493.194V512.837C323.422 513.105 323.569 513.363 323.873 513.456L346.95 519.959C348.235 520.321 349.578 520.321 350.863 519.959L373.94 513.456C374.234 513.374 374.391 513.105 374.391 512.837V493.194C374.391 493.462 374.244 493.72 373.94 493.813Z" fill="#CBDD64"/>
<path d="M346.948 500.327L323.871 493.824C323.272 493.658 323.272 492.76 323.871 492.595L346.948 486.092C348.232 485.731 349.576 485.731 350.861 486.092L373.938 492.595C374.536 492.76 374.536 493.658 373.938 493.824L350.861 500.327C349.576 500.688 348.232 500.688 346.948 500.327Z" fill="#E6E875"/>
<g style="mix-blend-mode:overlay">
<path d="M266.734 467.502V527.598L276.875 524.677V464.581L266.734 467.502Z" fill="black"/>
</g>
<g style="mix-blend-mode:overlay">
<path d="M196.422 510.143V529.838L203.542 527.773L203.483 508.151L196.422 510.143Z" fill="black"/>
</g>
<path d="M156.211 45.6651C154.769 31.1212 143.991 20.9022 129.839 18.7758C125.072 18.0532 119.913 18.2597 114.608 19.519C93.551 24.5253 78.0356 44.3542 79.9579 63.8115C81.8801 83.2688 100.504 94.9742 121.571 89.9679C142.627 84.9616 158.143 65.1327 156.221 45.6754L156.211 45.6651Z" fill="#28343D"/>
<path d="M129.837 18.7764L118.078 54.7389L151.531 46.7805L151.61 39.4311L156.2 45.6657C154.758 31.1217 143.98 20.9027 129.827 18.7764H129.837Z" fill="url(#paint14_linear_849_12235)"/>
<path d="M214.519 379.113C242.765 387.082 288.556 387.082 316.811 379.113C327.697 376.048 334.376 372.239 336.867 368.265C340.839 374.602 334.17 381.363 316.811 386.256C288.566 394.225 242.775 394.225 214.519 386.256C197.16 381.363 190.491 374.602 194.463 368.265C196.954 372.239 203.633 376.048 214.519 379.113Z" fill="#231F20"/>
<path d="M214.517 357.406C242.763 349.437 288.554 349.437 316.809 357.406C327.695 360.471 334.374 364.28 336.865 368.254C334.374 372.228 327.695 376.037 316.809 379.103C288.563 387.072 242.772 387.072 214.517 379.103C203.631 376.037 196.952 372.228 194.461 368.254C196.952 364.28 203.631 360.471 214.517 357.406Z" fill="#CBDD64"/>
<path d="M410.147 460.442L410.117 460.411L375.085 416.345L375.065 416.314L373.673 414.57L336.865 368.275C340.837 374.613 334.168 381.374 316.809 386.266C313.347 387.247 309.61 388.104 305.688 388.837L306.776 393.11L316.603 431.808L321.124 449.603L336.149 508.729C348.86 506.83 360.786 504.363 371.496 501.338C410.765 490.262 423.642 474.573 410.147 460.462V460.442Z" fill="url(#paint15_linear_849_12235)"/>
<path d="M265.654 513.683C348.31 513.683 415.316 494.786 415.316 471.476C415.316 448.165 348.31 429.269 265.654 429.269C182.998 429.269 115.992 448.165 115.992 471.476C115.992 494.786 182.998 513.683 265.654 513.683Z" fill="url(#paint16_radial_849_12235)"/>
<path d="M265.653 453.742C327.201 453.742 377.095 439.67 377.095 422.311C377.095 404.953 327.201 390.88 265.653 390.88C204.105 390.88 154.211 404.953 154.211 422.311C154.211 439.67 204.105 453.742 265.653 453.742Z" fill="url(#paint17_radial_849_12235)"/>
<path d="M265.654 513.683C348.31 513.683 415.316 494.786 415.316 471.476C415.316 448.165 348.31 429.269 265.654 429.269C182.998 429.269 115.992 448.165 115.992 471.476C115.992 494.786 182.998 513.683 265.654 513.683Z" stroke="#E4E666" stroke-width="1.22377" stroke-miterlimit="10"/>
<path d="M265.562 429.269V351.439" stroke="#E4E666" stroke-width="1.22377" stroke-miterlimit="10"/>
<path d="M118.391 463.941L194.457 368.265" stroke="#E4E666" stroke-width="1.22377" stroke-miterlimit="10"/>
<path d="M412.926 463.941L336.859 368.265" stroke="#E4E666" stroke-width="1.22377" stroke-miterlimit="10"/>
<path d="M220.37 387.743L189.859 507.883" stroke="#E4E666" stroke-width="1.22377" stroke-miterlimit="10"/>
<path d="M305.406 387.743L335.927 507.883" stroke="#E4E666" stroke-width="1.22377" stroke-miterlimit="10"/>
<path d="M265.653 453.742C327.201 453.742 377.095 439.67 377.095 422.311C377.095 404.953 327.201 390.88 265.653 390.88C204.105 390.88 154.211 404.953 154.211 422.311C154.211 439.67 204.105 453.742 265.653 453.742Z" stroke="#E4E666" stroke-width="1.22377" stroke-miterlimit="10"/>
<path d="M265.56 429.279V351.439C252.015 351.439 241.178 352.296 229.35 354.433L209 432.469C227.379 430.311 245.945 429.279 265.55 429.279H265.56Z" fill="url(#paint18_linear_849_12235)"/>
<path d="M440.523 231.093L307.847 268.511L288.929 273.847L286.183 274.621L279.337 276.552C270.383 279.081 260.948 279.081 251.994 276.552L242.932 273.992L90.8083 231.093C88.7193 230.504 87.6797 228.646 87.6797 226.799V364.001C87.6797 365.859 88.7193 367.707 90.8083 368.295L242.932 411.194L251.994 413.754C260.948 416.283 270.383 416.283 279.337 413.754L286.183 411.824L288.929 411.05L307.847 405.713L440.523 368.295C442.612 367.707 443.651 365.849 443.651 364.001V226.799C443.651 228.657 442.612 230.504 440.523 231.093Z" fill="url(#paint19_linear_849_12235)"/>
<g style="mix-blend-mode:overlay" opacity="0.3">
<path d="M279.327 276.552C270.373 279.081 260.938 279.081 251.984 276.552L242.922 273.992V411.195L251.984 413.755C260.938 416.284 270.373 416.284 279.327 413.755L286.173 411.824V274.622L279.327 276.552Z" fill="black"/>
</g>
<g style="mix-blend-mode:overlay" opacity="0.3">
<path d="M298.383 271.185V408.377L307.847 405.714V268.511L298.383 271.185Z" fill="black"/>
</g>
<path d="M251.983 276.552L90.7975 231.093C86.6196 229.916 86.6196 223.682 90.7975 222.505L251.983 177.046C260.937 174.517 270.372 174.517 279.326 177.046L440.512 222.505C444.69 223.682 444.69 229.916 440.512 231.093L279.326 276.552C270.372 279.081 260.937 279.081 251.983 276.552Z" fill="url(#paint20_linear_849_12235)"/>
<path d="M120.047 230.308C124.629 230.308 128.344 229.259 128.344 227.965C128.344 226.671 124.629 225.622 120.047 225.622C115.465 225.622 111.75 226.671 111.75 227.965C111.75 229.259 115.465 230.308 120.047 230.308Z" fill="#CBDD64"/>
<path d="M265.657 273.228C270.239 273.228 273.954 272.179 273.954 270.885C273.954 269.591 270.239 268.542 265.657 268.542C261.074 268.542 257.359 269.591 257.359 270.885C257.359 272.179 261.074 273.228 265.657 273.228Z" fill="#CBDD64"/>
<path d="M265.657 185.118C270.239 185.118 273.954 184.069 273.954 182.775C273.954 181.481 270.239 180.432 265.657 180.432C261.074 180.432 257.359 181.481 257.359 182.775C257.359 184.069 261.074 185.118 265.657 185.118Z" fill="#CBDD64"/>
<path d="M423.61 230.308C428.192 230.308 431.907 229.259 431.907 227.965C431.907 226.671 428.192 225.622 423.61 225.622C419.027 225.622 415.312 226.671 415.312 227.965C415.312 229.259 419.027 230.308 423.61 230.308Z" fill="#CBDD64"/>
<g style="mix-blend-mode:overlay" opacity="0.42">
<path d="M255.477 263.856L135.433 229.999C132.324 229.122 132.324 224.477 135.433 223.599L255.477 189.742C262.146 187.864 269.168 187.864 275.837 189.742L395.88 223.599C398.989 224.477 398.989 229.122 395.88 229.999L275.837 263.856C269.168 265.734 262.146 265.734 255.477 263.856Z" stroke="#231F20" stroke-width="0.906498" stroke-miterlimit="10"/>
</g>
<path d="M421.358 270.844L422.741 269.781L417.357 268.036C416.572 267.902 415.729 267.943 414.856 268.191C412.865 268.748 411.041 270.276 409.609 272.341C408.569 273.848 407.736 275.654 407.206 277.595C407.108 277.946 407.029 278.307 406.951 278.668C406.794 279.401 406.686 280.144 406.617 280.898C406.568 281.424 406.539 281.94 406.539 282.467C406.539 287.308 408.55 290.89 411.433 291.953L415.866 293.398L416.347 291.426C418.014 290.528 419.505 288.959 420.662 287.008C421.025 286.399 421.358 285.749 421.652 285.068C421.799 284.738 421.927 284.407 422.054 284.056C422.712 282.24 423.104 280.258 423.163 278.235C423.163 278.08 423.182 277.915 423.182 277.76C423.182 274.942 422.496 272.557 421.358 270.834V270.844Z" fill="url(#paint21_linear_849_12235)"/>
<g style="mix-blend-mode:overlay" opacity="0.5">
<path d="M423.175 278.245L409.622 272.33C408.582 273.837 407.748 275.643 407.219 277.584L422.067 284.056C422.724 282.239 423.117 280.257 423.175 278.234V278.245Z" fill="black"/>
</g>
<g style="mix-blend-mode:overlay" opacity="0.5">
<path d="M406.619 280.887L420.664 287.008C421.026 286.399 421.36 285.749 421.654 285.068L406.943 278.658C406.786 279.391 406.678 280.134 406.609 280.887H406.619Z" fill="black"/>
</g>
<path d="M427.494 283.929C429.176 277.321 427.075 270.987 422.8 269.782C418.526 268.576 413.697 272.956 412.015 279.564C410.333 286.172 412.434 292.506 416.708 293.711C420.983 294.916 425.812 290.537 427.494 283.929Z" fill="url(#paint22_linear_849_12235)"/>
<path d="M427.881 278.951L422.055 281.296L422.433 282.337L428.259 279.992L427.881 278.951Z" fill="#CBDD64"/>
<path d="M421.866 299.983L423.249 298.92L417.864 297.175C417.08 297.041 416.236 297.082 415.364 297.33C413.373 297.888 411.549 299.415 410.117 301.48C409.077 302.987 408.243 304.793 407.714 306.734C407.616 307.085 407.537 307.446 407.459 307.807C407.302 308.54 407.194 309.283 407.125 310.037C407.076 310.563 407.047 311.079 407.047 311.606C407.047 316.447 409.057 320.029 411.941 321.092L416.374 322.537L416.854 320.565C418.522 319.667 420.012 318.098 421.17 316.148C421.532 315.539 421.866 314.888 422.16 314.207C422.307 313.877 422.435 313.546 422.562 313.195C423.219 311.379 423.612 309.397 423.67 307.374C423.67 307.219 423.69 307.054 423.69 306.899C423.69 304.081 423.004 301.696 421.866 299.973V299.983Z" fill="url(#paint23_linear_849_12235)"/>
<g style="mix-blend-mode:overlay" opacity="0.5">
<path d="M423.675 307.384L410.122 301.47C409.082 302.977 408.248 304.783 407.719 306.724L422.567 313.196C423.224 311.379 423.617 309.397 423.675 307.374V307.384Z" fill="black"/>
</g>
<g style="mix-blend-mode:overlay" opacity="0.5">
<path d="M407.119 310.027L421.163 316.148C421.526 315.539 421.86 314.888 422.154 314.207L407.443 307.797C407.286 308.53 407.178 309.273 407.109 310.027H407.119Z" fill="black"/>
</g>
<path d="M427.986 313.073C429.669 306.465 427.567 300.131 423.293 298.925C419.018 297.72 414.189 302.099 412.507 308.707C410.825 315.315 412.926 321.649 417.201 322.855C421.475 324.06 426.304 319.681 427.986 313.073Z" fill="url(#paint24_linear_849_12235)"/>
<path d="M428.576 308.541L422.75 310.884" stroke="#231F20" stroke-width="1.22377" stroke-miterlimit="10"/>
<path d="M394.065 263.432L393.957 263.463C394.016 263.742 394.055 264.041 394.055 264.341V352.038C394.055 353.875 392.888 355.475 391.201 355.95L295.078 383.056C295.539 385.245 297.657 386.7 299.825 386.091L396.056 358.954C397.733 358.479 398.91 356.879 398.91 355.042V267.345C398.91 264.681 396.507 262.741 394.065 263.432Z" fill="#231F20"/>
<path d="M394.059 352.038V264.341C394.059 264.041 394.02 263.742 393.961 263.463L297.838 290.569C296.161 291.044 294.984 292.644 294.984 294.482V382.179C294.984 382.478 295.024 382.778 295.082 383.056L391.205 355.95C392.882 355.475 394.059 353.875 394.059 352.038Z" fill="url(#paint25_linear_849_12235)"/>
<path d="M306.297 301.49V294.275L307.219 294.017V300.076L309.376 299.467V300.634L306.297 301.501V301.49Z" fill="#1E3659"/>
<path d="M311.627 300.107C311.245 300.211 310.921 300.18 310.637 300.015C310.352 299.849 310.136 299.581 309.97 299.199C309.803 298.817 309.734 298.384 309.734 297.868C309.734 297.351 309.813 296.846 309.97 296.391C310.127 295.937 310.352 295.545 310.627 295.235C310.901 294.915 311.215 294.709 311.559 294.616C311.843 294.533 312.098 294.533 312.324 294.606C312.539 294.678 312.726 294.812 312.883 295.008C313.04 295.204 313.157 295.442 313.236 295.731C313.314 296.02 313.353 296.34 313.353 296.691C313.353 296.784 313.353 296.877 313.344 296.969C313.344 297.073 313.324 297.155 313.304 297.228L310.47 298.033V297.062L312.804 296.402L312.382 296.98C312.422 296.67 312.412 296.412 312.353 296.195C312.294 295.979 312.196 295.824 312.059 295.731C311.921 295.638 311.755 295.617 311.559 295.669C311.362 295.72 311.205 295.834 311.068 296.01C310.931 296.185 310.813 296.402 310.745 296.68C310.666 296.959 310.646 297.269 310.656 297.63C310.637 297.96 310.666 298.239 310.745 298.466C310.823 298.693 310.941 298.848 311.098 298.941C311.255 299.034 311.431 299.055 311.637 298.993C311.843 298.931 312.01 298.827 312.157 298.662C312.304 298.497 312.412 298.301 312.49 298.074L313.206 298.373C313.138 298.642 313.02 298.9 312.873 299.137C312.716 299.375 312.539 299.581 312.333 299.746C312.127 299.911 311.892 300.035 311.637 300.107H311.627Z" fill="#1E3659"/>
<path d="M315.132 299.116C314.877 299.189 314.652 299.189 314.465 299.116C314.279 299.044 314.132 298.91 314.024 298.714C313.916 298.518 313.867 298.26 313.867 297.96C313.867 297.661 313.916 297.393 314.004 297.145C314.093 296.897 314.23 296.66 314.426 296.453C314.613 296.247 314.858 296.071 315.142 295.927L316.348 295.308V296.278L315.319 296.825C315.142 296.918 315.015 297.031 314.926 297.176C314.838 297.32 314.799 297.475 314.799 297.671C314.799 297.867 314.848 297.981 314.946 298.064C315.044 298.146 315.162 298.167 315.309 298.125C315.495 298.074 315.662 297.971 315.799 297.816C315.937 297.661 316.054 297.475 316.133 297.248C316.211 297.021 316.25 296.794 316.25 296.556V295.204C316.25 294.977 316.192 294.812 316.064 294.688C315.937 294.564 315.78 294.544 315.574 294.595C315.387 294.647 315.221 294.771 315.073 294.957C314.926 295.142 314.818 295.369 314.75 295.627L314.024 295.328C314.093 295.029 314.21 294.76 314.367 294.513C314.524 294.265 314.711 294.048 314.917 293.873C315.122 293.697 315.358 293.573 315.603 293.501C315.907 293.419 316.172 293.419 316.397 293.511C316.623 293.604 316.809 293.77 316.937 294.017C317.064 294.265 317.133 294.575 317.133 294.946V298.456L316.299 298.693V297.795L316.486 297.723C316.388 297.981 316.28 298.198 316.152 298.383C316.025 298.569 315.878 298.734 315.711 298.858C315.544 298.982 315.358 299.075 315.162 299.137L315.132 299.116Z" fill="#1E3659"/>
<path d="M317.938 298.208V292.933L318.771 292.696V293.873L318.703 293.718C318.791 293.305 318.918 292.985 319.105 292.779C319.291 292.572 319.507 292.438 319.762 292.366L319.977 292.304V293.429L319.664 293.522C319.409 293.594 319.212 293.759 319.056 294.028C318.899 294.296 318.83 294.626 318.83 295.029V297.96L317.947 298.208H317.938Z" fill="#1E3659"/>
<path d="M320.453 297.496V292.221L321.287 291.984V293.016L321.218 292.851C321.306 292.51 321.444 292.231 321.64 292.015C321.836 291.798 322.062 291.643 322.326 291.571C322.591 291.498 322.836 291.509 323.042 291.622C323.248 291.736 323.415 291.922 323.533 292.19C323.65 292.458 323.709 292.789 323.709 293.181V296.577L322.827 296.825V293.738C322.827 293.501 322.797 293.315 322.728 293.16C322.67 293.016 322.581 292.902 322.474 292.84C322.366 292.778 322.238 292.768 322.081 292.809C321.924 292.851 321.807 292.933 321.699 293.057C321.591 293.181 321.503 293.336 321.434 293.522C321.375 293.707 321.336 293.914 321.336 294.151V297.238L320.453 297.485V297.496Z" fill="#1E3659"/>
<path d="M324.469 290.508V289.155L325.351 288.908V290.26L324.469 290.508ZM324.469 296.371V291.096L325.351 290.848V296.123L324.469 296.371Z" fill="#1E3659"/>
<path d="M326.172 295.885V290.611L327.006 290.373V291.405L326.937 291.24C327.025 290.9 327.163 290.621 327.359 290.404C327.555 290.187 327.78 290.033 328.045 289.96C328.31 289.888 328.555 289.898 328.761 290.012C328.967 290.126 329.134 290.311 329.251 290.58C329.369 290.848 329.428 291.178 329.428 291.571V294.967L328.545 295.214V292.128C328.545 291.891 328.516 291.705 328.447 291.55C328.388 291.405 328.3 291.292 328.192 291.23C328.084 291.168 327.957 291.158 327.8 291.199C327.643 291.24 327.525 291.323 327.417 291.447C327.31 291.571 327.221 291.725 327.153 291.911C327.094 292.097 327.055 292.304 327.055 292.541V295.627L326.172 295.875V295.885Z" fill="#1E3659"/>
<path d="M331.957 296.391C331.683 296.474 331.428 296.474 331.192 296.412C330.957 296.35 330.761 296.226 330.584 296.04C330.418 295.854 330.29 295.627 330.212 295.338L331.036 294.657C331.085 294.884 331.193 295.06 331.359 295.163C331.526 295.266 331.712 295.287 331.948 295.225C332.124 295.173 332.291 295.08 332.428 294.946C332.566 294.812 332.673 294.636 332.752 294.43C332.83 294.224 332.87 293.996 332.87 293.738V292.541L333.036 292.789C332.909 293.14 332.742 293.429 332.526 293.645C332.311 293.873 332.075 294.017 331.801 294.089C331.457 294.182 331.153 294.162 330.879 294.007C330.604 293.862 330.398 293.604 330.241 293.253C330.084 292.902 330.016 292.479 330.016 291.994C330.016 291.509 330.094 291.034 330.241 290.6C330.388 290.167 330.604 289.806 330.869 289.506C331.134 289.207 331.438 289.011 331.771 288.918C332.046 288.835 332.291 288.856 332.497 288.959C332.703 289.062 332.879 289.248 333.017 289.527L332.899 289.878V288.712L333.733 288.474V293.48C333.733 293.935 333.654 294.368 333.497 294.781C333.34 295.194 333.134 295.534 332.86 295.813C332.595 296.092 332.281 296.288 331.928 296.381L331.957 296.391ZM331.918 292.882C332.105 292.83 332.271 292.716 332.418 292.562C332.556 292.407 332.673 292.2 332.752 291.973C332.83 291.736 332.87 291.478 332.87 291.199C332.87 290.92 332.83 290.693 332.742 290.497C332.664 290.301 332.546 290.167 332.409 290.084C332.261 290.002 332.105 289.991 331.918 290.043C331.732 290.095 331.565 290.208 331.418 290.363C331.271 290.518 331.153 290.735 331.065 290.972C330.987 291.209 330.937 291.468 330.937 291.736C330.937 292.004 330.977 292.242 331.065 292.427C331.153 292.613 331.261 292.747 331.408 292.83C331.555 292.913 331.722 292.923 331.909 292.871L331.918 292.882Z" fill="#1E3659"/>
<path d="M305.883 313.237L307.619 305.526L308.805 305.196L310.541 311.926L309.541 312.205L309.178 310.759L307.236 311.307L306.873 312.958L305.883 313.237ZM307.501 310.068L308.923 309.665L308.089 306.311L308.344 306.238L307.511 310.068H307.501Z" fill="#1E3659"/>
<path d="M311.031 311.792V304.453L311.914 304.205V311.544L311.031 311.792Z" fill="#1E3659"/>
<path d="M314.52 312.938C314.245 313.02 313.99 313.02 313.755 312.958C313.52 312.896 313.324 312.772 313.147 312.587C312.98 312.401 312.853 312.174 312.774 311.885L313.598 311.203C313.647 311.431 313.755 311.606 313.922 311.709C314.089 311.812 314.275 311.833 314.51 311.771C314.687 311.72 314.853 311.627 314.991 311.493C315.128 311.358 315.236 311.183 315.314 310.976C315.393 310.77 315.432 310.543 315.432 310.285V309.087L315.599 309.335C315.471 309.686 315.305 309.975 315.089 310.192C314.873 310.419 314.638 310.564 314.363 310.636C314.02 310.729 313.716 310.708 313.441 310.553C313.167 310.409 312.961 310.151 312.804 309.8C312.647 309.449 312.578 309.026 312.578 308.54C312.578 308.055 312.657 307.58 312.804 307.147C312.951 306.713 313.167 306.352 313.431 306.053C313.696 305.753 314 305.557 314.334 305.464C314.608 305.382 314.853 305.402 315.059 305.506C315.265 305.609 315.442 305.795 315.579 306.073L315.462 306.424V305.258L316.295 305.021V310.027C316.295 310.481 316.217 310.914 316.06 311.327C315.903 311.74 315.697 312.081 315.422 312.36C315.158 312.638 314.844 312.834 314.491 312.927L314.52 312.938ZM314.481 309.428C314.667 309.376 314.834 309.263 314.981 309.108C315.118 308.953 315.236 308.747 315.314 308.52C315.393 308.282 315.432 308.024 315.432 307.746C315.432 307.467 315.393 307.24 315.305 307.044C315.226 306.848 315.108 306.713 314.971 306.631C314.824 306.548 314.667 306.538 314.481 306.59C314.294 306.641 314.128 306.755 313.981 306.909C313.834 307.064 313.716 307.281 313.628 307.518C313.549 307.756 313.5 308.014 313.5 308.282C313.5 308.551 313.539 308.788 313.628 308.974C313.716 309.16 313.824 309.294 313.971 309.377C314.118 309.459 314.285 309.469 314.471 309.418L314.481 309.428Z" fill="#1E3659"/>
<path d="M318.936 309.676C318.573 309.779 318.25 309.748 317.955 309.593C317.661 309.438 317.426 309.18 317.249 308.809C317.073 308.447 316.984 307.993 316.984 307.467C316.984 306.94 317.073 306.445 317.249 305.98C317.426 305.516 317.651 305.124 317.945 304.804C318.24 304.484 318.563 304.267 318.936 304.164C319.309 304.06 319.623 304.091 319.917 304.246C320.211 304.401 320.446 304.659 320.613 305.02C320.79 305.382 320.878 305.826 320.878 306.362C320.878 306.899 320.79 307.384 320.613 307.849C320.437 308.313 320.201 308.705 319.907 309.025C319.613 309.345 319.289 309.562 318.936 309.655V309.676ZM318.936 308.509C319.132 308.458 319.309 308.334 319.456 308.158C319.603 307.983 319.73 307.756 319.819 307.487C319.907 307.219 319.946 306.94 319.946 306.631C319.946 306.321 319.907 306.063 319.819 305.846C319.73 305.64 319.613 305.485 319.456 305.382C319.309 305.289 319.132 305.268 318.936 305.32C318.74 305.371 318.554 305.495 318.406 305.681C318.259 305.867 318.132 306.084 318.044 306.342C317.955 306.6 317.916 306.889 317.916 307.198C317.916 307.508 317.955 307.766 318.044 307.983C318.132 308.2 318.249 308.354 318.406 308.447C318.563 308.54 318.74 308.561 318.936 308.499V308.509Z" fill="#1E3659"/>
<path d="M321.547 308.819V303.545L322.38 303.307V304.484L322.312 304.329C322.4 303.916 322.528 303.596 322.714 303.39C322.9 303.183 323.116 303.049 323.371 302.977L323.587 302.915V304.04L323.273 304.133C323.018 304.205 322.822 304.37 322.665 304.639C322.508 304.907 322.439 305.238 322.439 305.64V308.572L321.557 308.819H321.547Z" fill="#1E3659"/>
<path d="M324.078 302.244V300.892L324.961 300.644V301.996L324.078 302.244ZM324.078 308.107V302.832L324.961 302.585V307.859L324.078 308.107Z" fill="#1E3659"/>
<path d="M327.457 307.219C327.046 307.333 326.722 307.26 326.496 307.002C326.271 306.744 326.153 306.311 326.153 305.712V303.39L325.516 303.565V302.43L325.584 302.409C325.761 302.357 325.908 302.254 326.006 302.089C326.104 301.924 326.153 301.717 326.153 301.459V301.047L327.036 300.799V301.996L327.879 301.759V302.894L327.036 303.132V305.392C327.036 305.568 327.055 305.712 327.104 305.815C327.144 305.929 327.212 306.001 327.31 306.042C327.399 306.084 327.516 306.084 327.663 306.042C327.693 306.042 327.732 306.022 327.771 306.001C327.81 305.981 327.86 305.96 327.899 305.95V307.033C327.84 307.064 327.761 307.095 327.683 307.137C327.605 307.168 327.526 307.199 327.457 307.219Z" fill="#1E3659"/>
<path d="M328.562 306.837V299.498L329.445 299.25V302.347L329.328 302.192C329.416 301.852 329.553 301.573 329.749 301.356C329.945 301.139 330.171 300.985 330.436 300.912C330.701 300.84 330.946 300.85 331.152 300.964C331.358 301.077 331.524 301.263 331.642 301.532C331.76 301.8 331.819 302.13 331.819 302.523V305.919L330.936 306.166V303.08C330.936 302.843 330.906 302.657 330.838 302.502C330.779 302.357 330.691 302.244 330.583 302.182C330.475 302.12 330.347 302.11 330.191 302.151C330.034 302.192 329.916 302.275 329.808 302.399C329.7 302.523 329.612 302.677 329.543 302.863C329.484 303.049 329.445 303.255 329.445 303.493V306.579L328.562 306.827V306.837Z" fill="#1E3659"/>
<path d="M332.578 305.712V300.438L333.412 300.2V301.418L333.314 301.243C333.382 300.84 333.52 300.52 333.716 300.272C333.922 300.025 334.157 299.87 334.432 299.787C334.736 299.705 335.001 299.736 335.226 299.901C335.452 300.066 335.609 300.314 335.667 300.665L335.422 300.768C335.53 300.314 335.707 299.952 335.932 299.684C336.158 299.416 336.413 299.23 336.707 299.147C336.972 299.075 337.197 299.096 337.403 299.199C337.609 299.312 337.766 299.498 337.884 299.767C338.002 300.035 338.06 300.365 338.06 300.758V304.154L337.178 304.401V301.315C337.178 301.078 337.148 300.892 337.09 300.737C337.031 300.582 336.952 300.479 336.844 300.417C336.736 300.355 336.619 300.345 336.462 300.386C336.325 300.427 336.197 300.51 336.089 300.634C335.981 300.758 335.893 300.912 335.844 301.098C335.795 301.284 335.756 301.49 335.756 301.728V304.814L334.873 305.062V301.976C334.873 301.738 334.844 301.552 334.785 301.398C334.726 301.243 334.647 301.139 334.54 301.078C334.432 301.016 334.304 301.005 334.167 301.047C334.03 301.088 333.902 301.17 333.794 301.294C333.686 301.418 333.598 301.573 333.549 301.759C333.5 301.945 333.461 302.151 333.461 302.388V305.475L332.578 305.722V305.712Z" fill="#1E3659"/>
<path d="M340.22 303.679C339.828 303.792 339.484 303.751 339.2 303.565C338.906 303.379 338.709 303.07 338.602 302.646L339.269 302.006C339.367 302.275 339.494 302.471 339.661 302.595C339.827 302.719 340.014 302.75 340.23 302.688C340.396 302.646 340.524 302.554 340.612 302.43C340.71 302.295 340.759 302.151 340.759 301.986C340.759 301.883 340.74 301.8 340.7 301.748C340.661 301.686 340.612 301.645 340.543 301.614C340.475 301.583 340.406 301.563 340.328 301.552L339.729 301.48C339.416 301.439 339.18 301.305 339.023 301.088C338.866 300.871 338.788 300.582 338.788 300.221C338.788 299.901 338.847 299.601 338.964 299.323C339.082 299.044 339.239 298.817 339.445 298.621C339.651 298.425 339.886 298.29 340.151 298.218C340.494 298.125 340.808 298.156 341.073 298.321C341.338 298.487 341.524 298.765 341.642 299.168L340.965 299.818C340.906 299.601 340.798 299.436 340.651 299.333C340.504 299.23 340.337 299.209 340.151 299.261C340.004 299.302 339.886 299.385 339.798 299.509C339.71 299.632 339.671 299.767 339.671 299.921C339.671 300.014 339.69 300.097 339.729 300.159C339.769 300.221 339.818 300.262 339.886 300.293C339.955 300.324 340.024 300.345 340.112 300.355L340.7 300.437C341.004 300.479 341.24 300.613 341.397 300.819C341.563 301.036 341.642 301.325 341.642 301.697C341.642 302.017 341.583 302.306 341.465 302.584C341.348 302.863 341.191 303.09 340.975 303.286C340.769 303.483 340.524 303.617 340.249 303.699L340.22 303.679Z" fill="#1E3659"/>
<path d="M348.554 323.384L341.463 341.943L320.583 347.837L319.073 343.347L306.451 346.918V345.06V334.139L306.078 347.022L306.392 346.929L306.078 357.932L306.451 357.829V363.403V368.75L385.175 346.547V341.2V323.972V313.051L348.554 323.384Z" fill="url(#paint26_linear_849_12235)"/>
<path d="M306.445 345.06L322.765 340.457L326.08 349.612L350.971 342.593L352.756 347.373L385.17 338.227V346.547L306.445 368.75V345.06Z" fill="url(#paint27_linear_849_12235)"/>
<path d="M378.983 312.783L377.119 301.253L376.188 301.418L378.11 313.299C377.58 313.856 377.208 314.754 377.208 315.683C377.208 317.015 377.963 317.892 378.894 317.624C379.826 317.366 380.581 316.065 380.581 314.734C380.581 313.402 379.865 312.587 378.983 312.783Z" fill="#CBDD64"/>
<path d="M378.387 306.486L355.016 313.082V305.248L378.387 298.662V306.486Z" fill="#E6E875"/>
<path d="M305.984 369.4V326.821H306.926V368.11L386.788 345.587L387.033 346.536L305.984 369.4Z" fill="#1E3659"/>
<path d="M214.519 218.345C242.765 210.376 288.556 210.376 316.811 218.345C327.697 221.411 334.376 225.22 336.867 229.194C340.839 222.856 334.17 216.095 316.811 211.202C288.566 203.233 242.775 203.233 214.519 211.202C197.16 216.095 190.491 222.856 194.463 229.194C196.954 225.22 203.633 221.411 214.519 218.345Z" fill="#231F20"/>
<path d="M214.517 240.053C242.763 248.021 288.554 248.021 316.809 240.053C327.695 236.987 334.374 233.178 336.865 229.204C334.374 225.23 327.695 221.421 316.809 218.355C288.563 210.387 242.772 210.387 214.517 218.355C203.631 221.421 196.952 225.23 194.461 229.204C196.952 233.178 203.631 236.987 214.517 240.053Z" fill="#CBDD64"/>
<path d="M410.147 137.017L410.117 137.048L375.085 181.113L375.065 181.144L373.673 182.888L336.865 229.183C340.837 222.846 334.168 216.085 316.809 211.192C313.347 210.211 309.61 209.355 305.688 208.622L306.776 204.348L316.603 165.65L321.124 147.855L336.149 88.7295C348.86 90.6288 360.786 93.0957 371.496 96.1201C410.765 107.196 423.642 122.886 410.147 136.996V137.017Z" fill="url(#paint28_linear_849_12235)"/>
<path d="M265.654 168.2C348.31 168.2 415.316 149.303 415.316 125.993C415.316 102.682 348.31 83.7852 265.654 83.7852C182.998 83.7852 115.992 102.682 115.992 125.993C115.992 149.303 182.998 168.2 265.654 168.2Z" fill="url(#paint29_linear_849_12235)"/>
<path d="M265.653 206.588C327.201 206.588 377.095 192.516 377.095 175.157C377.095 157.798 327.201 143.726 265.653 143.726C204.105 143.726 154.211 157.798 154.211 175.157C154.211 192.516 204.105 206.588 265.653 206.588Z" fill="url(#paint30_radial_849_12235)"/>
<path d="M265.654 168.2C348.31 168.2 415.316 149.303 415.316 125.993C415.316 102.682 348.31 83.7852 265.654 83.7852C182.998 83.7852 115.992 102.682 115.992 125.993C115.992 149.303 182.998 168.2 265.654 168.2Z" stroke="#E4E666" stroke-width="1.22377" stroke-miterlimit="10"/>
<path d="M265.562 168.189V246.029" stroke="#E4E666" stroke-width="1.22377" stroke-miterlimit="10"/>
<path d="M118.391 133.518L194.457 229.204" stroke="#E4E666" stroke-width="1.22377" stroke-miterlimit="10"/>
<path d="M412.926 133.518L336.859 229.204" stroke="#E4E666" stroke-width="1.22377" stroke-miterlimit="10"/>
<path d="M220.37 209.726L189.859 89.5864" stroke="#E4E666" stroke-width="1.22377" stroke-miterlimit="10"/>
<path d="M305.406 209.726L335.927 89.5859" stroke="#E4E666" stroke-width="1.22377" stroke-miterlimit="10"/>
<path d="M265.653 206.588C327.201 206.588 377.095 192.516 377.095 175.157C377.095 157.798 327.201 143.726 265.653 143.726C204.105 143.726 154.211 157.798 154.211 175.157C154.211 192.516 204.105 206.588 265.653 206.588Z" stroke="#E4E666" stroke-width="1.22377" stroke-miterlimit="10"/>
<path d="M265.567 168.19V246.029C252.023 246.029 241.186 245.172 229.358 243.036L209.008 165C227.387 167.157 245.953 168.19 265.558 168.19H265.567Z" fill="url(#paint31_linear_849_12235)"/>
<path style="mix-blend-mode:overlay" opacity="0.5" d="M121.984 377.09L158.066 387.268L247.951 275.417L211.752 265.208L121.984 377.09Z" fill="url(#paint32_linear_849_12235)"/>
<path style="mix-blend-mode:overlay" opacity="0.5" d="M95.3281 369.576L109.5 373.57L198.277 261.409L182.752 257.033L95.3281 369.576Z" fill="url(#paint33_linear_849_12235)"/>
<path d="M72.5896 468.802L25.4844 482.087V397.301L72.5896 384.016V468.802Z" fill="#30404A"/>
<path d="M81.8318 471.558L34.7266 484.833V400.046L81.8318 386.762V471.558Z" fill="#394B57"/>
<path d="M91.9626 474.15L44.8672 487.434V402.648L91.9626 389.363V474.15Z" fill="url(#paint34_linear_849_12235)"/>
<path d="M87.4368 433.46L51.1786 443.689C49.9233 444.04 48.6875 443.049 48.6875 441.676V408.057C48.6875 407.118 49.2858 406.292 50.1586 406.044L86.4168 395.815C87.6722 395.464 88.9079 396.455 88.9079 397.828V431.447C88.9079 432.386 88.3096 433.212 87.4368 433.46Z" fill="#303C4D"/>
<path d="M63.3697 423.922L62.7812 423.633L65.9784 414.941L66.5669 415.23L63.3697 423.922Z" fill="#97CAE1"/>
<path d="M72.2592 429.01L63.2266 428.783L63.2462 428.112L72.2886 428.339L72.2592 429.01Z" fill="#97CAE1"/>
<path d="M73.3732 426.574L69.2344 415.106L69.813 414.817L73.9616 426.285L73.3732 426.574Z" fill="#97CAE1"/>
<path d="M71.0477 412.83C71.6547 410.446 70.8956 408.16 69.3522 407.725C67.8088 407.289 66.0655 408.869 65.4585 411.254C64.8515 413.638 65.6106 415.924 67.154 416.359C68.6974 416.794 70.4407 415.214 71.0477 412.83Z" fill="url(#paint35_linear_849_12235)"/>
<path d="M64.079 428.525C64.686 426.14 63.9269 423.855 62.3835 423.419C60.8401 422.984 59.0968 424.564 58.4897 426.948C57.8827 429.333 58.6418 431.618 60.1853 432.054C61.7287 432.489 63.472 430.909 64.079 428.525Z" fill="url(#paint36_linear_849_12235)"/>
<path d="M77.0399 429.889C77.6469 427.505 76.8878 425.219 75.3444 424.784C73.801 424.349 72.0577 425.929 71.4507 428.313C70.8436 430.698 71.6028 432.983 73.1462 433.418C74.6896 433.854 76.4329 432.274 77.0399 429.889Z" fill="#CBDD64"/>
<path d="M49.7812 466.181V466.254V466.976L65.4045 462.569V461.846V461.774V461.062L49.7812 465.469V466.181Z" fill="#303C4D"/>
<path d="M49.7812 461.547V461.619V462.331L65.4045 457.924V457.211V457.139V456.417L49.7812 460.824V461.547Z" fill="#303C4D"/>
<path d="M49.7812 475.347V475.42V476.142L65.4045 471.735V471.012V470.94V470.228L49.7812 474.635V475.347Z" fill="#303C4D"/>
<path d="M49.7812 470.713V470.785V471.497L65.4045 467.09V466.377V466.305V465.583L49.7812 469.99V470.713Z" fill="#303C4D"/>
<path d="M49.7109 447.704V448.427V448.499V448.695V449.211V449.408V449.48V450.202L65.3342 445.795V445.083V445.01V444.804V444.288V444.092V444.019V443.297L49.7109 447.704Z" fill="#303C4D"/>
<path d="M49.5312 453.237V455.725L76.0604 448.262V445.774L49.5312 453.237Z" fill="#303C4D"/>
<path d="M72.1953 459.575V459.647V460.37L87.8186 455.962V455.24V455.167V454.455L72.1953 458.863V459.575Z" fill="#303C4D"/>
<path d="M72.1953 454.218V454.94V455.012V455.725L87.8186 451.317V450.605V450.533V449.81L72.1953 454.218Z" fill="#303C4D"/>
<path d="M72.1953 468.741V468.813V469.536L87.8186 465.128V464.406V464.333V463.621L72.1953 468.029V468.741Z" fill="#303C4D"/>
<path d="M72.1953 463.384V464.106V464.178V464.891L87.8186 460.483V459.771V459.699V458.976L72.1953 463.384Z" fill="#303C4D"/>
<path d="M125.253 12.5312C120.486 11.8086 115.328 12.0151 110.022 13.2744C88.9651 18.2806 73.4497 38.1095 75.3719 57.5669C77.2942 77.0242 95.9185 88.7295 116.985 83.7233C138.042 78.717 153.557 58.8881 151.635 39.4308L113.503 48.504L125.262 12.5415L125.253 12.5312Z" fill="#4C6478"/>
<path d="M125.251 12.5312L113.492 48.4937L151.624 39.4205C150.182 24.8766 139.403 14.6576 125.251 12.5312Z" fill="url(#paint37_linear_849_12235)"/>
<path d="M460.001 16.3605L369.557 2.9417C364.496 2.18818 359.622 4.7584 358.651 8.68083L343.184 71.2539C342.92 72.3171 342.988 73.3699 343.302 74.3609L343.184 74.8357C342.214 78.7581 345.528 82.536 350.589 83.2896L441.033 96.7084C446.094 97.4619 450.968 94.8917 451.939 90.9693L467.396 28.3962C467.661 27.333 470.162 17.8985 459.991 16.3605H460.001Z" fill="#28343D"/>
<path d="M439.471 91.6916L350.714 78.5205C345.751 77.7876 342.495 74.0716 343.446 70.2215L358.619 8.8148C359.57 4.97495 364.366 2.446 369.318 3.1892L458.076 16.3603C463.038 17.0932 466.295 20.8092 465.343 24.6594L450.171 86.066C449.22 89.9059 444.424 92.4348 439.471 91.6916Z" fill="#4C6478"/>
<path d="M363.565 30.2544L354.209 68.1368C353.817 69.7471 354.837 71.3573 356.396 71.5844L443.722 84.5388" stroke="#406EB5" stroke-width="1.22377" stroke-miterlimit="10"/>
<path d="M378.76 58.6301L367.276 56.9269C366.589 56.8237 365.932 57.2882 365.756 57.9901L365.216 60.1784C365.01 61.0145 365.54 61.8506 366.354 61.9745L377.839 63.6776C378.525 63.7808 379.182 63.3163 379.359 62.6144L379.898 60.4261C380.104 59.59 379.575 58.754 378.76 58.6301Z" fill="url(#paint38_linear_849_12235)"/>
<path d="M402.011 42.9709L390.526 41.2678C389.839 41.1645 389.182 41.629 389.006 42.3309L388.466 44.5192C388.26 45.3553 388.79 46.1914 389.604 46.3153L401.089 48.0185C401.775 48.1217 402.432 47.6572 402.609 46.9553L403.148 44.767C403.354 43.9309 402.825 43.0948 402.011 42.9709Z" fill="url(#paint39_linear_849_12235)"/>
<path d="M422.753 37.0153L411.268 35.3122C410.582 35.209 409.925 35.6735 409.748 36.3754L409.209 38.5637C409.003 39.3998 409.532 40.2359 410.346 40.3597L421.831 42.0629C422.517 42.1661 423.174 41.7016 423.351 40.9997L423.89 38.8114C424.096 37.9753 423.567 37.1392 422.753 37.0153Z" fill="url(#paint40_linear_849_12235)"/>
<path d="M380.728 52.3542L368.625 50.5581C368.096 50.4755 367.586 50.8368 367.449 51.3839L366.752 54.2122C366.595 54.8625 367.007 55.5025 367.635 55.5954L379.737 57.3914C380.267 57.474 380.777 57.1127 380.914 56.5656L381.611 53.7373C381.767 53.087 381.356 52.4471 380.728 52.3542Z" fill="#E6E875"/>
<path d="M377.134 65.0402L365.728 63.3473C365.022 63.2441 364.345 63.7086 364.168 64.4415L363.649 66.5575C363.433 67.4143 363.982 68.271 364.816 68.3949L376.222 70.0877C376.928 70.191 377.605 69.7264 377.781 68.9936L378.301 66.8775C378.517 66.0208 377.968 65.164 377.134 65.0402Z" fill="#E6E875"/>
<path d="M394.969 73.7724L383.288 72.0383C382.533 71.9248 382.043 71.1506 382.239 70.3765L387.574 48.7928C387.741 48.1321 388.339 47.7089 388.986 47.8018L400.667 49.536C401.422 49.6495 401.912 50.4237 401.716 51.1978L396.381 72.7815C396.214 73.4421 395.616 73.8653 394.969 73.7724Z" fill="#E6E875"/>
<path d="M413.775 76.2086L402.516 74.5364C401.633 74.4022 401.064 73.4938 401.28 72.5958L408.636 42.8163C408.822 42.0421 409.538 41.5467 410.283 41.6602L421.542 43.3324C422.425 43.4666 422.994 44.3749 422.778 45.273L415.422 75.0525C415.236 75.8266 414.52 76.3221 413.775 76.2086Z" fill="#E6E875"/>
<path d="M442.534 39.4099L431.049 37.7067C430.363 37.6035 429.706 38.068 429.529 38.7699L428.99 40.9582C428.784 41.7943 429.313 42.6304 430.127 42.7543L441.612 44.4574C442.299 44.5607 442.956 44.0962 443.132 43.3943L443.672 41.206C443.878 40.3699 443.348 39.5338 442.534 39.4099Z" fill="url(#paint41_linear_849_12235)"/>
<path d="M433.556 78.6133L422.297 76.9411C421.415 76.807 420.846 75.8986 421.061 75.0006L428.417 45.2211C428.603 44.4469 429.319 43.9514 430.065 44.065L441.324 45.7372C442.206 45.8714 442.775 46.7797 442.559 47.6777L435.204 77.4573C435.017 78.2314 434.301 78.7269 433.556 78.6133Z" fill="#E6E875"/>
<path d="M396.208 26.6828L365.188 22.0791L365.933 19.0547L396.954 23.6584L396.208 26.6828Z" fill="#E6E875"/>
<path d="M414.841 22.4816L366.844 15.3593L367.589 12.3452L415.587 19.4572L414.841 22.4816Z" fill="#E6E875"/>
<path d="M196.801 47.1312L188.906 44.9016V33.5781L196.801 35.8077V47.1312Z" fill="white"/>
<path d="M188.911 33.5781L181.016 31.3485V10.1055L188.911 12.3351V33.5781Z" fill="white"/>
<path d="M366.715 130.493L358.82 128.263V116.94L366.715 119.17V130.493Z" fill="white"/>
<path d="M358.825 116.94L350.93 114.721V93.4673L358.825 95.6969V116.94Z" fill="white"/>
<path d="M406.453 431.189V419.865L414.348 422.095V433.418L406.453 431.189Z" fill="white"/>
<path d="M414.344 422.095V410.771L429.163 414.952V426.275L414.344 422.095Z" fill="white"/>
<path d="M111.75 445.382V434.058L119.645 436.288V447.611L111.75 445.382Z" fill="white"/>
<path d="M119.641 419.215V407.902L134.45 412.072V423.395L119.641 419.215Z" fill="white"/>
<path d="M458.434 423.168C465.633 418.523 475.332 414.136 486.336 410.895C496.409 407.923 506.02 406.354 514.052 406.116C513.631 403.288 513.415 399.892 513.66 395.846C514.494 381.828 520.77 360.967 520.28 351.274C519.907 343.739 514.445 328.246 512.022 321.691C511.306 319.75 509.933 318.161 508.178 317.201L500.724 313.175L498.066 307.25C497.242 305.413 495.859 303.916 494.133 302.998L485.111 298.167L473.802 277.068L448.862 257.683L431.601 253.699C431.601 253.699 421.391 253.616 419.332 255.485C417.155 257.456 416.655 263.495 421.392 267.407C426.129 271.319 439.212 273.631 439.212 273.631L455.806 290.859L457.699 331.683L448.999 338.114L425.952 325.521C425.952 325.521 423.922 319.864 425.04 312.525C427.864 293.955 412.172 290.776 410.387 298.559C409.799 301.129 406.896 314.135 405.984 319.637C405.072 325.139 403.218 332.674 405.307 338.103C407.396 343.533 424.481 358.149 429.061 375.243C434.877 396.95 454.138 404.743 454.138 404.743L458.444 423.148L458.434 423.168Z" fill="url(#paint42_linear_849_12235)"/>
<path d="M485.603 298.054L484.641 298.521L489.014 308.515L489.976 308.048L485.603 298.054Z" fill="#BED0E2"/>
<path d="M500.962 312.379L500 312.845L502.479 318.508L503.441 318.041L500.962 312.379Z" fill="#BED0E2"/>
<path d="M455.89 292.789L446.926 293.181C443.513 293.326 440.433 295.349 438.795 298.508L432.656 310.357C431.891 311.844 431.479 313.495 431.469 315.188L431.391 328.535L446.229 336.638L445.906 324.396L451.457 314.548L456.812 312.618L455.89 292.799V292.789Z" fill="url(#paint43_linear_849_12235)"/>
<path d="M443.697 325.314C441.264 325.314 437.773 324.653 436.047 322.661L436.832 321.918C439.068 324.509 444.883 324.395 445.55 323.993C445.55 323.993 445.511 324.024 445.462 324.086L446.345 324.695C446.198 324.932 445.884 325.18 444.648 325.283C444.354 325.304 444.04 325.324 443.697 325.324V325.314Z" fill="#BED0E2"/>
<path d="M451.321 315.312C451.046 315.312 450.634 315.178 449.869 314.703C447.829 313.402 444.671 310.368 444.328 307.312L445.378 307.178C445.77 310.646 450.566 314.125 451.331 314.197C451.331 314.197 451.282 314.197 451.213 314.218L451.595 315.26C451.527 315.291 451.439 315.312 451.331 315.312H451.321Z" fill="#BED0E2"/>
<path d="M497.466 441.872C521.495 434.771 542.914 435.669 546.484 443.72L535.676 413.621C533.313 404.764 511.226 403.536 486.345 410.885C461.463 418.235 443.202 431.385 445.565 440.241C445.644 440.541 445.752 440.84 445.879 441.129L456.687 471.229C454.323 462.372 472.575 449.222 497.466 441.872Z" fill="url(#paint44_linear_849_12235)"/>
<path d="M499.808 450.677C519.54 444.845 537.684 445.114 545.716 450.584C546.874 448.468 547.276 446.445 546.786 444.618C544.422 435.762 522.335 434.533 497.454 441.883C472.572 449.232 454.311 462.383 456.675 471.239C457.165 473.076 458.509 474.573 460.549 475.75C464.707 466.687 480.075 456.509 499.798 450.687L499.808 450.677Z" fill="#0B122E"/>
<path d="M506.02 473.964C525.753 468.132 541.297 458.666 545.721 450.574C537.678 445.113 519.535 444.845 499.812 450.667C480.079 456.499 464.721 466.666 460.562 475.729C468.34 480.209 486.297 479.775 506.03 473.954L506.02 473.964Z" fill="black"/>
<path d="M445.689 336.41L445.375 324.241L451.103 314.073L456.634 312.081L456.977 313.134L451.809 314.992L446.434 324.53L446.719 336.896L445.689 336.41Z" fill="#BED0E2"/>
<path d="M431.948 328.834L430.859 328.235L430.938 315.167C430.948 313.392 431.379 311.627 432.193 310.079L438.333 298.239C440.049 294.936 443.325 292.789 446.904 292.624L455.868 292.231L455.908 293.346L446.944 293.739C443.737 293.873 440.794 295.803 439.255 298.765L433.115 310.605C432.389 311.998 432.007 313.578 431.997 315.167L431.948 328.824V328.834Z" fill="#BED0E2"/>
<path d="M418.812 331.9L418.547 330.826C422.097 329.866 424.833 327.306 425.432 325.376L426.432 325.727C425.638 328.287 422.352 330.94 418.802 331.9H418.812Z" fill="#BED0E2"/>
<path d="M184.972 76.0949C191.45 76.0949 196.702 70.5678 196.702 63.7496C196.702 56.9315 191.45 51.4043 184.972 51.4043C178.494 51.4043 173.242 56.9315 173.242 63.7496C173.242 70.5678 178.494 76.0949 184.972 76.0949Z" fill="white"/>
<path d="M192.755 66.8462C190.244 67.3623 188.949 71.8731 179.24 69.8499C177.141 69.4164 181.103 74.2472 187.086 73.1427C191.695 72.286 193.951 66.5984 192.755 66.8358V66.8462Z" fill="#EEE0EE"/>
<path d="M375.065 181.154C374.662 181.743 374.201 182.321 373.672 182.899L375.065 181.154Z" stroke="#231F20" stroke-width="1.00848" stroke-miterlimit="10"/>
<path d="M412.932 133.518L410.156 137.017" stroke="#231F20" stroke-width="0.985817" stroke-miterlimit="10"/>
<path d="M336.141 88.7495V88.7397" stroke="#231F20" stroke-width="0.985817" stroke-miterlimit="10"/>
<path d="M305.681 208.642L305.406 209.726" stroke="#231F20" stroke-width="0.985817" stroke-miterlimit="10"/>
<path d="M326.105 24.6907C332.583 24.6907 337.834 19.1635 337.834 12.3454C337.834 5.52722 332.583 0 326.105 0C319.627 0 314.375 5.52722 314.375 12.3454C314.375 19.1635 319.627 24.6907 326.105 24.6907Z" fill="white"/>
<path d="M333.88 15.4419C331.369 15.958 330.074 20.4687 320.365 18.4456C318.266 18.0121 322.228 22.8429 328.211 21.7384C332.82 20.8816 335.076 15.1941 333.88 15.4315V15.4419Z" fill="#EEE0EE"/>
<g style="mix-blend-mode:overlay">
<path d="M353.156 499.676V534.369L362.454 531.748V496.993L353.156 499.676Z" fill="black"/>
</g>
<path d="M203.61 341.623L132.682 321.619C124.052 319.183 117.059 307.178 117.059 294.802C117.059 290.25 118.011 286.296 119.639 283.22C115.009 285.801 111.891 292.118 111.891 300.365C111.891 312.742 118.883 324.746 127.514 327.182L198.441 347.187C203.894 348.725 208.7 346.062 211.495 340.766C209.181 342.057 206.493 342.439 203.62 341.623H203.61Z" fill="#231F20"/>
<path d="M198.429 302.378L127.502 282.374C124.628 281.559 121.941 281.94 119.626 283.231C117.998 286.307 117.047 290.26 117.047 294.812C117.047 307.189 124.04 319.193 132.67 321.629L203.598 341.634C206.471 342.449 209.159 342.067 211.473 340.777C213.101 337.701 214.052 333.747 214.052 329.195C214.052 316.819 207.06 304.814 198.429 302.378Z" fill="url(#paint45_linear_849_12235)"/>
<path d="M143.077 294.182C143.734 294.915 144.254 295.813 144.626 296.856C144.999 297.909 145.185 299.013 145.185 300.19V320.091L141.38 319.018V300.758C141.38 299.891 141.272 299.158 141.057 298.559C140.841 297.96 140.429 297.578 139.821 297.403L138.781 297.114V292.149L140.86 292.737C141.674 292.964 142.41 293.449 143.077 294.182Z" fill="#1E3659"/>
<path d="M162.348 299.921C163.064 300.871 163.417 302.233 163.417 304.03V320.308C163.417 322.104 163.064 323.27 162.348 323.817C161.632 324.364 160.779 324.498 159.768 324.209L150.893 321.701C150.265 321.526 149.647 321.154 149.029 320.576C148.411 320.008 147.901 319.275 147.48 318.398C147.058 317.521 146.823 316.571 146.754 315.559L158.415 318.852C158.758 318.945 159.023 318.976 159.18 318.935C159.347 318.893 159.474 318.728 159.582 318.45C159.69 318.171 159.749 317.686 159.768 316.984V305.258C159.749 304.556 159.69 304.04 159.582 303.699C159.474 303.359 159.347 303.121 159.18 302.987C159.013 302.853 158.758 302.739 158.415 302.636L151.775 300.768C151.393 300.706 151.109 300.788 150.912 301.015C150.716 301.243 150.608 301.728 150.569 302.491L150.54 313.877V314.135L146.734 313.061V299.653C146.754 298.61 146.97 297.743 147.382 297.052C147.794 296.36 148.323 295.896 148.941 295.648C149.569 295.4 150.206 295.369 150.863 295.555L159.739 298.063C160.749 298.352 161.602 298.961 162.318 299.911L162.348 299.921Z" fill="#1E3659"/>
<path d="M180.582 305.062C181.298 306.012 181.651 307.374 181.651 309.17V325.448C181.651 327.244 181.298 328.411 180.582 328.958C179.866 329.505 179.013 329.639 178.003 329.35L169.127 326.842C168.499 326.666 167.882 326.295 167.264 325.717C166.646 325.139 166.136 324.416 165.714 323.539C165.292 322.661 165.057 321.712 164.988 320.7L176.649 323.993C176.993 324.086 177.257 324.117 177.414 324.075C177.581 324.034 177.709 323.869 177.817 323.59C177.924 323.312 177.983 322.826 178.003 322.124V310.398C177.983 309.697 177.924 309.18 177.817 308.84C177.709 308.499 177.581 308.262 177.414 308.128C177.248 307.993 176.993 307.88 176.649 307.777L170.01 305.908C169.627 305.846 169.343 305.929 169.147 306.156C168.951 306.383 168.843 306.868 168.803 307.632L168.774 319.017V319.276L164.969 318.202V304.794C164.988 303.751 165.204 302.884 165.616 302.192C166.028 301.501 166.558 301.036 167.175 300.789C167.803 300.541 168.441 300.51 169.098 300.696L177.973 303.204C178.984 303.493 179.837 304.102 180.553 305.052L180.582 305.062Z" fill="#1E3659"/>
<path d="M188.75 332.385L185.622 331.508L192.683 309.862L190.153 309.748C190.359 310.43 190.466 311.152 190.466 311.926C190.466 312.876 190.3 313.702 189.976 314.424C189.643 315.137 189.201 315.653 188.652 315.952C188.093 316.251 187.495 316.313 186.857 316.138C186.22 315.962 185.582 315.549 185.023 314.93C184.464 314.311 184.013 313.547 183.699 312.649C183.376 311.751 183.219 310.822 183.219 309.883C183.219 308.943 183.376 308.107 183.699 307.405C184.023 306.703 184.464 306.198 185.023 305.898C185.582 305.599 186.2 305.537 186.857 305.723L196.567 308.458L188.76 332.395L188.75 332.385ZM187.446 313.144C187.603 312.628 187.681 311.957 187.681 311.142C187.681 310.326 187.603 309.645 187.436 309.036C187.269 308.427 187.073 308.097 186.848 308.035C186.602 307.963 186.396 308.19 186.239 308.706C186.073 309.222 185.994 309.872 185.994 310.667C185.994 311.462 186.073 312.205 186.239 312.814C186.406 313.423 186.612 313.753 186.848 313.826C187.083 313.898 187.289 313.671 187.446 313.155V313.144ZM197.341 325.005C197.9 325.624 198.342 326.377 198.665 327.265C198.999 328.153 199.156 329.072 199.156 330.021C199.156 330.971 198.989 331.797 198.665 332.519C198.332 333.231 197.891 333.747 197.341 334.047C196.782 334.346 196.184 334.408 195.547 334.233C194.909 334.057 194.272 333.644 193.713 333.025C193.144 332.406 192.703 331.642 192.389 330.744C192.075 329.846 191.908 328.917 191.908 327.977C191.908 327.038 192.065 326.202 192.389 325.5C192.712 324.798 193.154 324.292 193.713 323.993C194.272 323.694 194.89 323.632 195.547 323.818C196.204 324.003 196.782 324.396 197.341 325.015V325.005ZM196.145 331.239C196.302 330.723 196.38 330.052 196.38 329.237C196.38 328.442 196.302 327.74 196.135 327.131C195.968 326.522 195.772 326.192 195.547 326.13C195.302 326.057 195.096 326.285 194.939 326.801C194.772 327.317 194.693 327.967 194.693 328.762C194.693 329.557 194.772 330.3 194.939 330.909C195.105 331.518 195.311 331.848 195.547 331.92C195.782 331.993 195.988 331.766 196.145 331.25V331.239Z" fill="#1E3659"/>
<path d="M262.857 142.808C297.469 142.808 325.527 113.277 325.527 76.8489C325.527 40.4209 297.469 10.8901 262.857 10.8901C228.246 10.8901 200.188 40.4209 200.188 76.8489C200.188 113.277 228.246 142.808 262.857 142.808Z" fill="url(#paint46_linear_849_12235)"/>
<path d="M262.857 142.808C297.469 142.808 325.527 113.277 325.527 76.8489C325.527 40.4209 297.469 10.8901 262.857 10.8901C228.246 10.8901 200.188 40.4209 200.188 76.8489C200.188 113.277 228.246 142.808 262.857 142.808Z" fill="url(#paint47_linear_849_12235)"/>
<path d="M262.857 142.808C297.469 142.808 325.527 113.277 325.527 76.8489C325.527 40.4209 297.469 10.8901 262.857 10.8901C228.246 10.8901 200.188 40.4209 200.188 76.8489C200.188 113.277 228.246 142.808 262.857 142.808Z" fill="url(#paint48_linear_849_12235)"/>
<path d="M262.857 142.808C297.469 142.808 325.527 113.277 325.527 76.8489C325.527 40.4209 297.469 10.8901 262.857 10.8901C228.246 10.8901 200.188 40.4209 200.188 76.8489C200.188 113.277 228.246 142.808 262.857 142.808Z" fill="url(#paint49_linear_849_12235)"/>
<g opacity="0.47">
<path d="M281.304 30.017C276.253 17.4136 269.506 10.4668 262.317 10.4668C262.287 10.4668 262.258 10.4668 262.219 10.4668V11.5816C262.219 11.5816 262.278 11.5816 262.317 11.5816C269.231 11.5816 275.753 18.3323 280.667 30.5951C290.896 56.1012 290.896 97.5964 280.667 123.102C275.753 135.365 269.231 142.116 262.317 142.116C262.287 142.116 262.258 142.116 262.219 142.116V143.231C262.219 143.231 262.278 143.231 262.317 143.231C269.506 143.231 276.243 136.284 281.304 123.681C291.661 97.8647 291.661 55.8431 281.304 30.0273V30.017Z" fill="url(#paint50_linear_849_12235)"/>
<path d="M243.968 123.103C233.738 97.5968 233.738 56.1016 243.968 30.5955C248.861 18.3946 255.344 11.6543 262.219 11.5923V10.4775C255.07 10.5395 248.361 17.4657 243.33 30.0174C232.973 55.8435 232.973 97.8548 243.33 123.671C248.361 136.222 255.07 143.149 262.219 143.211V142.096C255.334 142.034 248.861 135.293 243.968 123.093V123.103Z" fill="url(#paint51_linear_849_12235)"/>
</g>
<g opacity="0.4">
<path opacity="0.5" d="M220.816 126.044C220.639 126.044 220.463 125.951 220.365 125.786C220.188 125.476 220.041 125.167 219.933 124.857C219.561 123.763 219.639 122.659 220.179 121.575C221.542 118.829 225.828 116.372 232.575 114.473C249.267 109.766 276.424 109.766 293.117 114.473C300.217 116.476 304.572 119.077 305.699 121.988C306.18 123.226 306.072 124.475 305.386 125.693C305.239 125.962 304.915 126.044 304.66 125.889C304.415 125.735 304.326 125.394 304.474 125.126C304.993 124.207 305.072 123.319 304.719 122.411C303.738 119.872 299.521 117.436 292.842 115.547C276.307 110.881 249.385 110.881 232.85 115.547C226.485 117.343 222.317 119.665 221.11 122.091C220.708 122.896 220.649 123.68 220.924 124.486C221.002 124.723 221.12 124.96 221.257 125.208C221.414 125.466 221.336 125.807 221.091 125.972C221.002 126.034 220.904 126.055 220.816 126.055V126.044Z" fill="#76BF43"/>
</g>
<g opacity="0.4">
<path opacity="0.5" d="M325.525 76.209C325.231 76.209 324.996 75.9612 324.996 75.6516C324.996 72.2556 318.464 68.8493 307.058 66.2997C282.686 60.8599 243.025 60.8599 218.653 66.2997C207.257 68.8493 200.715 72.2556 200.715 75.6516C200.715 75.9612 200.48 76.209 200.186 76.209C199.892 76.209 199.656 75.9612 199.656 75.6516C199.656 71.564 206.149 67.9512 218.428 65.2159C242.927 59.7451 282.774 59.7451 307.273 65.2159C319.552 67.9616 326.045 71.5743 326.045 75.6516C326.045 75.9612 325.81 76.209 325.515 76.209H325.525Z" fill="#76BF43"/>
</g>
<g opacity="0.55">
<path d="M222.252 27.075C222.105 27.075 221.958 27.0131 221.85 26.8789C221.663 26.6415 221.693 26.2905 221.909 26.0944C224.037 24.1951 227.646 22.5126 232.618 21.1088C249.311 16.4019 276.467 16.4019 293.16 21.1088C297.848 22.43 301.329 23.999 303.507 25.7744C303.732 25.9602 303.781 26.3112 303.595 26.5589C303.418 26.7963 303.085 26.8479 302.85 26.6518C300.819 24.9899 297.377 23.4416 292.885 22.172C276.35 17.5064 249.428 17.5064 232.893 22.172C228.136 23.5139 224.576 25.1551 222.595 26.9305C222.497 27.0234 222.379 27.0647 222.252 27.0647V27.075Z" fill="url(#paint52_linear_849_12235)"/>
</g>
<path d="M289.964 30.017C282.746 17.4136 273.124 10.4668 262.856 10.4668C262.807 10.4668 262.768 10.4668 262.719 10.4668V11.5816C262.719 11.5816 262.807 11.5816 262.856 11.5816C272.732 11.5816 282.039 18.3323 289.052 30.5951C303.655 56.1012 303.655 97.5964 289.052 123.102C282.03 135.365 272.732 142.116 262.856 142.116C262.807 142.116 262.768 142.116 262.719 142.116V143.231C262.719 143.231 262.807 143.231 262.856 143.231C273.115 143.231 282.746 136.284 289.964 123.681C304.753 97.8647 304.753 55.8431 289.964 30.0273V30.017Z" fill="url(#paint53_linear_849_12235)"/>
<path d="M236.666 123.102C222.063 97.5963 222.063 56.1011 236.666 30.595C243.659 18.3942 252.908 11.6538 262.735 11.5918V10.4771C252.525 10.539 242.953 17.4652 235.764 30.0169C220.974 55.843 220.974 97.8543 235.764 123.67C242.953 136.222 252.525 143.148 262.735 143.21V142.095C252.908 142.033 243.659 135.293 236.666 123.092V123.102Z" fill="url(#paint54_linear_849_12235)"/>
<path d="M262.9 42.7132C251.935 42.7132 240.97 41.5365 232.624 39.183C225.229 37.0979 220.835 34.3832 219.923 31.3278C219.502 29.924 219.855 28.4686 220.924 27.1267C221.12 26.8893 221.444 26.8583 221.669 27.0648C221.895 27.2712 221.914 27.6118 221.728 27.8492C220.885 28.9021 220.61 29.9653 220.924 30.9975C221.708 33.6297 225.955 36.1586 232.889 38.1095C249.424 42.7751 276.346 42.7751 292.881 38.1095C299.815 36.1586 304.062 33.6297 304.846 30.9975C305.16 29.955 304.885 28.8918 304.042 27.8389C303.856 27.6015 303.885 27.2506 304.101 27.0544C304.326 26.8583 304.66 26.8893 304.846 27.1164C305.925 28.4583 306.278 29.9137 305.856 31.3175C304.944 34.3729 300.56 37.0876 293.156 39.1727C284.809 41.5261 273.845 42.7029 262.88 42.7029L262.9 42.7132Z" fill="url(#paint55_linear_849_12235)"/>
<path d="M262.855 90.2056C246.761 90.2056 230.686 88.843 218.437 86.0973C210.611 84.3529 201.019 81.2872 199.793 76.6319C199.714 76.3326 199.881 76.0332 200.156 75.9506C200.43 75.8681 200.725 76.0435 200.803 76.3326C201.637 79.5015 208.139 82.66 218.653 85.0032C243.024 90.443 282.685 90.443 307.057 85.0032C317.826 82.5981 324.348 79.3673 324.946 76.1261C325.005 75.8268 325.26 75.6307 325.564 75.6926C325.848 75.7545 326.034 76.0435 325.985 76.3429C325.083 81.1427 315.315 84.291 307.273 86.087C295.023 88.8224 278.939 90.1952 262.855 90.1952V90.2056Z" fill="url(#paint56_linear_849_12235)"/>
<path d="M262.846 136.129C251.881 136.129 240.907 134.953 232.56 132.599C226.911 131.009 222.91 128.986 220.997 126.767C220.782 126.509 220.792 126.117 221.037 125.89C221.282 125.663 221.655 125.683 221.87 125.931C223.636 127.975 227.431 129.874 232.865 131.402C249.4 136.067 276.292 136.067 292.827 131.402C298.241 129.874 302.037 127.985 303.802 125.952C304.027 125.694 304.4 125.683 304.635 125.91C304.881 126.137 304.89 126.54 304.675 126.788C302.752 129.007 298.761 131.02 293.131 132.609C284.785 134.963 273.811 136.14 262.846 136.14V136.129Z" fill="url(#paint57_linear_849_12235)"/>
<path style="mix-blend-mode:overlay" opacity="0.34" d="M267.156 20.6237C268.666 20.2728 268.588 17.9399 267.068 17.6199C258.888 15.8858 242.451 15.2871 223.905 30.7291C209.361 42.8371 206.889 60.9628 206.781 71.3159C206.762 73.6694 210.253 74.7842 210.851 72.5236C215.5 54.8624 234.429 28.2415 267.156 20.6134V20.6237Z" fill="url(#paint58_radial_849_12235)"/>
<path style="mix-blend-mode:lighten" opacity="0.34" d="M231.063 126.323C229.416 125.9 228.425 128.232 229.769 129.316C237.006 135.19 252.885 144.16 278.217 138.441C298.078 133.961 308.856 117.415 313.73 107.289C314.838 104.987 311.916 102.107 310.288 104.027C297.587 119.015 266.733 135.52 231.063 126.323Z" fill="url(#paint59_radial_849_12235)"/>
<defs>
<linearGradient id="paint0_linear_849_12235" x1="255.729" y1="-307.467" x2="266.148" y2="469.502" gradientUnits="userSpaceOnUse">
<stop stop-color="#97BFBC"/>
<stop offset="0.89" stop-color="#A7C0BE" stop-opacity="0"/>
</linearGradient>
<linearGradient id="paint1_linear_849_12235" x1="-65.4919" y1="501.978" x2="553.638" y2="492.837" gradientUnits="userSpaceOnUse">
<stop stop-color="#38475C"/>
<stop offset="0.42" stop-color="#2F3B53"/>
<stop offset="1" stop-color="#28304C"/>
</linearGradient>
<linearGradient id="paint2_linear_849_12235" x1="211.606" y1="345.636" x2="210.986" y2="551.216" gradientUnits="userSpaceOnUse">
<stop stop-color="#38475C"/>
<stop offset="0.42" stop-color="#2F3B53"/>
<stop offset="1" stop-color="#28304C"/>
</linearGradient>
<linearGradient id="paint3_linear_849_12235" x1="247.953" y1="345.751" x2="247.322" y2="551.32" gradientUnits="userSpaceOnUse">
<stop stop-color="#38475C"/>
<stop offset="0.42" stop-color="#2F3B53"/>
<stop offset="1" stop-color="#28304C"/>
</linearGradient>
<linearGradient id="paint4_linear_849_12235" x1="284.298" y1="345.865" x2="283.678" y2="551.434" gradientUnits="userSpaceOnUse">
<stop stop-color="#38475C"/>
<stop offset="0.42" stop-color="#2F3B53"/>
<stop offset="1" stop-color="#28304C"/>
</linearGradient>
<linearGradient id="paint5_linear_849_12235" x1="320.66" y1="345.966" x2="320.029" y2="551.546" gradientUnits="userSpaceOnUse">
<stop stop-color="#38475C"/>
<stop offset="0.42" stop-color="#2F3B53"/>
<stop offset="1" stop-color="#28304C"/>
</linearGradient>
<linearGradient id="paint6_linear_849_12235" x1="320.572" y1="345.982" x2="319.95" y2="551.551" gradientUnits="userSpaceOnUse">
<stop stop-color="#38475C"/>
<stop offset="0.42" stop-color="#2F3B53"/>
<stop offset="1" stop-color="#28304C"/>
</linearGradient>
<linearGradient id="paint7_linear_849_12235" x1="284.287" y1="345.867" x2="283.669" y2="551.436" gradientUnits="userSpaceOnUse">
<stop stop-color="#38475C"/>
<stop offset="0.42" stop-color="#2F3B53"/>
<stop offset="1" stop-color="#28304C"/>
</linearGradient>
<linearGradient id="paint8_linear_849_12235" x1="247.982" y1="345.754" x2="247.35" y2="551.312" gradientUnits="userSpaceOnUse">
<stop stop-color="#38475C"/>
<stop offset="0.42" stop-color="#2F3B53"/>
<stop offset="1" stop-color="#28304C"/>
</linearGradient>
<linearGradient id="paint9_linear_849_12235" x1="211.706" y1="345.638" x2="211.076" y2="551.218" gradientUnits="userSpaceOnUse">
<stop stop-color="#38475C"/>
<stop offset="0.42" stop-color="#2F3B53"/>
<stop offset="1" stop-color="#28304C"/>
</linearGradient>
<linearGradient id="paint10_linear_849_12235" x1="168.986" y1="516.543" x2="219.946" y2="516.543" gradientUnits="userSpaceOnUse">
<stop stop-color="#F4D0E3"/>
<stop offset="0.48" stop-color="#F290BB"/>
<stop offset="1" stop-color="#AA62A7"/>
</linearGradient>
<linearGradient id="paint11_linear_849_12235" x1="170.612" y1="487.063" x2="230.94" y2="523.512" gradientUnits="userSpaceOnUse">
<stop stop-color="#F4D0E3"/>
<stop offset="1" stop-color="#F290BB"/>
</linearGradient>
<linearGradient id="paint12_linear_849_12235" x1="237.385" y1="485.535" x2="288.344" y2="485.535" gradientUnits="userSpaceOnUse">
<stop stop-color="#F4D0E3"/>
<stop offset="0.48" stop-color="#F290BB"/>
<stop offset="1" stop-color="#AA62A7"/>
</linearGradient>
<linearGradient id="paint13_linear_849_12235" x1="323.432" y1="521.776" x2="374.381" y2="521.776" gradientUnits="userSpaceOnUse">
<stop stop-color="#F4D0E3"/>
<stop offset="0.48" stop-color="#F290BB"/>
<stop offset="1" stop-color="#AA62A7"/>
</linearGradient>
<linearGradient id="paint14_linear_849_12235" x1="135.702" y1="15.2875" x2="136.571" y2="34.1216" gradientUnits="userSpaceOnUse">
<stop stop-color="#F4D0E3"/>
<stop offset="0.48" stop-color="#F290BB"/>
<stop offset="1" stop-color="#AA62A7"/>
</linearGradient>
<linearGradient id="paint15_linear_849_12235" x1="339.719" y1="376.285" x2="375.548" y2="477.646" gradientUnits="userSpaceOnUse">
<stop offset="0.04" stop-color="#CBDD64"/>
<stop offset="1" stop-color="#CBDD64" stop-opacity="0"/>
</linearGradient>
<radialGradient id="paint16_radial_849_12235" cx="0" cy="0" r="1" gradientUnits="userSpaceOnUse" gradientTransform="translate(265.654 471.476) scale(109.559 115.309)">
<stop stop-color="#CBDD64" stop-opacity="0"/>
<stop offset="0.1" stop-color="#CBDD64" stop-opacity="0.03"/>
<stop offset="0.24" stop-color="#CBDD64" stop-opacity="0.1"/>
<stop offset="0.39" stop-color="#CBDD64" stop-opacity="0.23"/>
<stop offset="0.56" stop-color="#CBDD64" stop-opacity="0.4"/>
<stop offset="0.75" stop-color="#CBDD64" stop-opacity="0.63"/>
<stop offset="0.93" stop-color="#CBDD64" stop-opacity="0.9"/>
<stop offset="1" stop-color="#CBDD64"/>
</radialGradient>
<radialGradient id="paint17_radial_849_12235" cx="0" cy="0" r="1" gradientUnits="userSpaceOnUse" gradientTransform="translate(265.653 419.013) scale(111.628 30.5467)">
<stop stop-color="#CBDD64" stop-opacity="0"/>
<stop offset="0.1" stop-color="#CBDD64" stop-opacity="0.03"/>
<stop offset="0.24" stop-color="#CBDD64" stop-opacity="0.1"/>
<stop offset="0.39" stop-color="#CBDD64" stop-opacity="0.23"/>
<stop offset="0.56" stop-color="#CBDD64" stop-opacity="0.4"/>
<stop offset="0.75" stop-color="#CBDD64" stop-opacity="0.63"/>
<stop offset="0.93" stop-color="#CBDD64" stop-opacity="0.9"/>
<stop offset="1" stop-color="#CBDD64"/>
</radialGradient>
<linearGradient id="paint18_linear_849_12235" x1="249.74" y1="318.109" x2="236.267" y2="428.233" gradientUnits="userSpaceOnUse">
<stop offset="0.04" stop-color="#CBDD64"/>
<stop offset="1" stop-color="#CBDD64" stop-opacity="0"/>
</linearGradient>
<linearGradient id="paint19_linear_849_12235" x1="49.921" y1="278.544" x2="467.747" y2="331.685" gradientUnits="userSpaceOnUse">
<stop stop-color="#526785"/>
<stop offset="0.48" stop-color="#3A4766"/>
<stop offset="0.73" stop-color="#2F3A57"/>
<stop offset="1" stop-color="#28304C"/>
</linearGradient>
<linearGradient id="paint20_linear_849_12235" x1="106.843" y1="186.088" x2="427.951" y2="260.397" gradientUnits="userSpaceOnUse">
<stop offset="0.19" stop-color="#5F7799"/>
<stop offset="0.3" stop-color="#597091"/>
<stop offset="1" stop-color="#3A4766"/>
</linearGradient>
<linearGradient id="paint21_linear_849_12235" x1="417.72" y1="266.395" x2="412.606" y2="288.582" gradientUnits="userSpaceOnUse">
<stop stop-color="#38475C"/>
<stop offset="1" stop-color="#222840"/>
</linearGradient>
<linearGradient id="paint22_linear_849_12235" x1="420.002" y1="274.899" x2="419.133" y2="296.975" gradientUnits="userSpaceOnUse">
<stop stop-color="#3D5060"/>
<stop offset="0.92" stop-color="#3A475B"/>
</linearGradient>
<linearGradient id="paint23_linear_849_12235" x1="418.218" y1="295.534" x2="413.104" y2="317.721" gradientUnits="userSpaceOnUse">
<stop stop-color="#38475C"/>
<stop offset="1" stop-color="#222840"/>
</linearGradient>
<linearGradient id="paint24_linear_849_12235" x1="420.492" y1="304.049" x2="419.623" y2="326.124" gradientUnits="userSpaceOnUse">
<stop stop-color="#3D5060"/>
<stop offset="0.92" stop-color="#3A475B"/>
</linearGradient>
<linearGradient id="paint25_linear_849_12235" x1="343.659" y1="258.798" x2="345.832" y2="405.958" gradientUnits="userSpaceOnUse">
<stop stop-color="#5CC5F0"/>
<stop offset="1" stop-color="#CBDD64"/>
</linearGradient>
<linearGradient id="paint26_linear_849_12235" x1="351.094" y1="383.325" x2="345.141" y2="340.195" gradientUnits="userSpaceOnUse">
<stop stop-color="#CBDD64" stop-opacity="0"/>
<stop offset="0.1" stop-color="#CBDD64" stop-opacity="0.03"/>
<stop offset="0.24" stop-color="#CBDD64" stop-opacity="0.1"/>
<stop offset="0.39" stop-color="#CBDD64" stop-opacity="0.23"/>
<stop offset="0.56" stop-color="#CBDD64" stop-opacity="0.4"/>
<stop offset="0.75" stop-color="#CBDD64" stop-opacity="0.63"/>
<stop offset="0.93" stop-color="#CBDD64" stop-opacity="0.9"/>
<stop offset="1" stop-color="#CBDD64"/>
</linearGradient>
<linearGradient id="paint27_linear_849_12235" x1="346.136" y1="341.117" x2="343.617" y2="373.283" gradientUnits="userSpaceOnUse">
<stop stop-color="#EC3392"/>
<stop offset="1" stop-color="#F290BB" stop-opacity="0"/>
</linearGradient>
<linearGradient id="paint28_linear_849_12235" x1="339.719" y1="221.184" x2="375.548" y2="119.822" gradientUnits="userSpaceOnUse">
<stop offset="0.04" stop-color="#CBDD64"/>
<stop offset="1" stop-color="#CBDD64" stop-opacity="0"/>
</linearGradient>
<linearGradient id="paint29_linear_849_12235" x1="424.334" y1="126.165" x2="116.207" y2="126.165" gradientUnits="userSpaceOnUse">
<stop stop-color="#CBDD64"/>
<stop offset="0.5" stop-color="#CBDD64" stop-opacity="0"/>
<stop offset="1" stop-color="#CBDD64"/>
</linearGradient>
<radialGradient id="paint30_radial_849_12235" cx="0" cy="0" r="1" gradientUnits="userSpaceOnUse" gradientTransform="translate(265.653 174.762) scale(111.628 30.5466)">
<stop stop-color="#CBDD64" stop-opacity="0"/>
<stop offset="0.1" stop-color="#CBDD64" stop-opacity="0.03"/>
<stop offset="0.24" stop-color="#CBDD64" stop-opacity="0.1"/>
<stop offset="0.39" stop-color="#CBDD64" stop-opacity="0.23"/>
<stop offset="0.56" stop-color="#CBDD64" stop-opacity="0.4"/>
<stop offset="0.75" stop-color="#CBDD64" stop-opacity="0.63"/>
<stop offset="0.93" stop-color="#CBDD64" stop-opacity="0.9"/>
<stop offset="1" stop-color="#CBDD64"/>
</radialGradient>
<linearGradient id="paint31_linear_849_12235" x1="249.748" y1="279.349" x2="236.274" y2="169.235" gradientUnits="userSpaceOnUse">
<stop offset="0.04" stop-color="#CBDD64"/>
<stop offset="1" stop-color="#CBDD64" stop-opacity="0"/>
</linearGradient>
<linearGradient id="paint32_linear_849_12235" x1="126.77" y1="388.63" x2="212.49" y2="305.587" gradientUnits="userSpaceOnUse">
<stop offset="0.08" stop-color="white"/>
<stop offset="1" stop-color="white" stop-opacity="0"/>
</linearGradient>
<linearGradient id="paint33_linear_849_12235" x1="95.3281" y1="315.301" x2="198.277" y2="315.301" gradientUnits="userSpaceOnUse">
<stop offset="0.08" stop-color="white"/>
<stop offset="1" stop-color="white" stop-opacity="0"/>
</linearGradient>
<linearGradient id="paint34_linear_849_12235" x1="69.2976" y1="384.708" x2="67.3747" y2="490.063" gradientUnits="userSpaceOnUse">
<stop stop-color="#5F7D96"/>
<stop offset="0.92" stop-color="#3A475B"/>
</linearGradient>
<linearGradient id="paint35_linear_849_12235" x1="66.9122" y1="408.518" x2="76.2575" y2="430.722" gradientUnits="userSpaceOnUse">
<stop stop-color="#4489BF"/>
<stop offset="0.92" stop-color="#406EB5"/>
</linearGradient>
<linearGradient id="paint36_linear_849_12235" x1="58.2848" y1="427.742" x2="64.287" y2="427.742" gradientUnits="userSpaceOnUse">
<stop stop-color="#F4D0E3"/>
<stop offset="0.48" stop-color="#F290BB"/>
<stop offset="1" stop-color="#AA62A7"/>
</linearGradient>
<linearGradient id="paint37_linear_849_12235" x1="110.903" y1="40.9895" x2="161.911" y2="15.8915" gradientUnits="userSpaceOnUse">
<stop offset="0.25" stop-color="#F290BB"/>
<stop offset="0.99" stop-color="#EC3392"/>
</linearGradient>
<linearGradient id="paint38_linear_849_12235" x1="382.988" y1="14.9364" x2="343.159" y2="171.366" gradientUnits="userSpaceOnUse">
<stop stop-color="#F290BB"/>
<stop offset="0.99" stop-color="#EC3392"/>
</linearGradient>
<linearGradient id="paint39_linear_849_12235" x1="401.55" y1="19.6634" x2="361.731" y2="176.094" gradientUnits="userSpaceOnUse">
<stop stop-color="#F290BB"/>
<stop offset="0.99" stop-color="#EC3392"/>
</linearGradient>
<linearGradient id="paint40_linear_849_12235" x1="419.85" y1="24.3191" x2="380.032" y2="180.749" gradientUnits="userSpaceOnUse">
<stop stop-color="#F290BB"/>
<stop offset="0.99" stop-color="#EC3392"/>
</linearGradient>
<linearGradient id="paint41_linear_849_12235" x1="439.052" y1="29.2115" x2="399.234" y2="185.642" gradientUnits="userSpaceOnUse">
<stop stop-color="#F290BB"/>
<stop offset="0.99" stop-color="#EC3392"/>
</linearGradient>
<linearGradient id="paint42_linear_849_12235" x1="487.866" y1="419.287" x2="461.956" y2="347.443" gradientUnits="userSpaceOnUse">
<stop stop-color="#C7D9EA"/>
<stop offset="1" stop-color="white"/>
</linearGradient>
<linearGradient id="paint43_linear_849_12235" x1="437.187" y1="326.79" x2="455.684" y2="297.819" gradientUnits="userSpaceOnUse">
<stop stop-color="#C7D9EA"/>
<stop offset="1" stop-color="white"/>
</linearGradient>
<linearGradient id="paint44_linear_849_12235" x1="526.104" y1="416.067" x2="473.528" y2="450.798" gradientUnits="userSpaceOnUse">
<stop stop-color="#545D6B"/>
<stop offset="0.05" stop-color="#515A68"/>
<stop offset="0.66" stop-color="#333B53"/>
<stop offset="1" stop-color="#28304C"/>
</linearGradient>
<linearGradient id="paint45_linear_849_12235" x1="165.917" y1="289.259" x2="164.288" y2="381.299" gradientUnits="userSpaceOnUse">
<stop stop-color="#5CC5F0"/>
<stop offset="1" stop-color="#CBDD64"/>
</linearGradient>
<linearGradient id="paint46_linear_849_12235" x1="317.161" y1="77.2927" x2="204.865" y2="76.4634" gradientUnits="userSpaceOnUse">
<stop offset="0.2" stop-color="#5CC5F0" stop-opacity="0"/>
<stop offset="1" stop-color="#B6E3F8"/>
</linearGradient>
<linearGradient id="paint47_linear_849_12235" x1="262.857" y1="131.36" x2="262.857" y2="12.0772" gradientUnits="userSpaceOnUse">
<stop stop-color="#C7DA4E"/>
<stop offset="1" stop-color="#E3EBAF"/>
</linearGradient>
<linearGradient id="paint48_linear_849_12235" x1="262.857" y1="121.627" x2="262.857" y2="2.33305" gradientUnits="userSpaceOnUse">
<stop offset="0.42" stop-color="#F290BB" stop-opacity="0"/>
<stop offset="0.99" stop-color="#EC3392"/>
</linearGradient>
<linearGradient id="paint49_linear_849_12235" x1="208.553" y1="77.2927" x2="320.849" y2="76.4634" gradientUnits="userSpaceOnUse">
<stop offset="0.2" stop-color="#5CC5F0" stop-opacity="0"/>
<stop offset="1" stop-color="#B6E3F8"/>
</linearGradient>
<linearGradient id="paint50_linear_849_12235" x1="275.488" y1="19.4368" x2="275.727" y2="141.517" gradientUnits="userSpaceOnUse">
<stop stop-color="#3BA649" stop-opacity="0"/>
<stop offset="0.48" stop-color="#76BF43"/>
<stop offset="0.91" stop-color="#3BA649" stop-opacity="0"/>
</linearGradient>
<linearGradient id="paint51_linear_849_12235" x1="252.402" y1="29.491" x2="247.438" y2="130.191" gradientUnits="userSpaceOnUse">
<stop stop-color="#3BA649" stop-opacity="0"/>
<stop offset="0.48" stop-color="#76BF43"/>
<stop offset="0.91" stop-color="#3BA649" stop-opacity="0"/>
</linearGradient>
<linearGradient id="paint52_linear_849_12235" x1="232.138" y1="22.3371" x2="301.565" y2="22.3371" gradientUnits="userSpaceOnUse">
<stop stop-color="#3BA649" stop-opacity="0"/>
<stop offset="0.48" stop-color="#76BF43"/>
<stop offset="0.91" stop-color="#3BA649" stop-opacity="0"/>
</linearGradient>
<linearGradient id="paint53_linear_849_12235" x1="282.275" y1="27.4571" x2="279.244" y2="147.28" gradientUnits="userSpaceOnUse">
<stop stop-color="#28343D" stop-opacity="0"/>
<stop offset="0.5" stop-color="#28343D"/>
<stop offset="1" stop-color="#28343D" stop-opacity="0.03"/>
</linearGradient>
<linearGradient id="paint54_linear_849_12235" x1="243.698" y1="12.0047" x2="243.698" y2="143.066" gradientUnits="userSpaceOnUse">
<stop stop-color="#28343D" stop-opacity="0"/>
<stop offset="0.5" stop-color="#28343D"/>
<stop offset="1" stop-color="#28343D" stop-opacity="0.03"/>
</linearGradient>
<linearGradient id="paint55_linear_849_12235" x1="219.757" y1="34.827" x2="306.043" y2="34.827" gradientUnits="userSpaceOnUse">
<stop stop-color="#28343D" stop-opacity="0"/>
<stop offset="0.5" stop-color="#28343D"/>
<stop offset="1" stop-color="#28343D" stop-opacity="0.03"/>
</linearGradient>
<linearGradient id="paint56_linear_849_12235" x1="199.773" y1="82.9491" x2="325.995" y2="82.9491" gradientUnits="userSpaceOnUse">
<stop stop-color="#28343D" stop-opacity="0"/>
<stop offset="0.5" stop-color="#28343D"/>
<stop offset="1" stop-color="#28343D" stop-opacity="0.03"/>
</linearGradient>
<linearGradient id="paint57_linear_849_12235" x1="220.85" y1="130.927" x2="304.841" y2="130.927" gradientUnits="userSpaceOnUse">
<stop stop-color="#28343D" stop-opacity="0"/>
<stop offset="0.5" stop-color="#28343D"/>
<stop offset="1" stop-color="#28343D" stop-opacity="0.03"/>
</linearGradient>
<radialGradient id="paint58_radial_849_12235" cx="0" cy="0" r="1" gradientUnits="userSpaceOnUse" gradientTransform="translate(237.518 45.2628) scale(28.9614 30.4814)">
<stop offset="0.53" stop-color="white"/>
<stop offset="0.87" stop-color="white" stop-opacity="0"/>
</radialGradient>
<radialGradient id="paint59_radial_849_12235" cx="0" cy="0" r="1" gradientUnits="userSpaceOnUse" gradientTransform="translate(271.266 130.142) rotate(-24.4144) scale(43.6839 31.1968)">
<stop offset="0.36" stop-color="#FDFF78"/>
<stop offset="0.93" stop-color="#FDFF78" stop-opacity="0"/>
</radialGradient>
</defs>
</svg>
