<svg width="11" height="8" viewBox="0 0 11 8" fill="none" xmlns="http://www.w3.org/2000/svg">
<path d="M8.33172 2.20287e-08C8.94391 -8.4042e-05 9.53162 0.240434 9.96811 0.66969C10.4046 1.09895 10.6549 1.68255 10.665 2.29467C10.725 2.87133 10.7164 3.722 10.3264 4.704C9.92772 5.708 9.15038 6.80267 7.73172 7.86667C7.66168 7.9192 7.58198 7.95742 7.49717 7.97914C7.41236 8.00087 7.3241 8.00568 7.23743 7.9933C7.0624 7.9683 6.90447 7.87478 6.79838 7.73333C6.6923 7.59189 6.64674 7.41409 6.67175 7.23905C6.69675 7.06402 6.79027 6.90609 6.93172 6.8C7.97438 6.018 8.57172 5.258 8.91372 4.59333C8.59307 4.67568 8.25858 4.68885 7.93246 4.63197C7.60634 4.5751 7.29605 4.44948 7.02221 4.26346C6.74837 4.07744 6.51725 3.83528 6.34419 3.55307C6.17114 3.27086 6.06012 2.95505 6.01851 2.62663C5.9769 2.29821 6.00564 1.9647 6.10284 1.64824C6.20004 1.33179 6.36346 1.03964 6.58225 0.791203C6.80105 0.542766 7.0702 0.343729 7.37183 0.207314C7.67346 0.0708994 8.00067 0.000229745 8.33172 2.20287e-08ZM2.33171 2.20287e-08C2.94391 -8.4042e-05 3.53162 0.240434 3.96811 0.66969C4.4046 1.09895 4.6549 1.68255 4.66505 2.29467C4.72505 2.87133 4.71638 3.722 4.32638 4.704C3.92838 5.708 3.15038 6.80267 1.73171 7.86667C1.66168 7.9192 1.58198 7.95742 1.49717 7.97914C1.41236 8.00087 1.3241 8.00568 1.23743 7.9933C1.0624 7.9683 0.904468 7.87478 0.798381 7.73333C0.692294 7.59189 0.646743 7.41409 0.671748 7.23905C0.696753 7.06402 0.790266 6.90609 0.931714 6.8C1.97438 6.018 2.57171 5.258 2.91371 4.59333C2.59307 4.67568 2.25858 4.68885 1.93246 4.63197C1.60634 4.5751 1.29605 4.44948 1.02221 4.26346C0.748367 4.07744 0.517245 3.83528 0.344192 3.55307C0.17114 3.27086 0.0601202 2.95505 0.0185077 2.62663C-0.0231049 2.29821 0.0056425 1.9647 0.10284 1.64824C0.200038 1.33179 0.363462 1.03964 0.582254 0.791203C0.801046 0.542766 1.0702 0.343729 1.37183 0.207314C1.67346 0.0708994 2.00067 0.000229745 2.33171 2.20287e-08Z" fill="white"/>
</svg>
