<svg width="19" height="20" viewBox="0 0 19 20" fill="none" xmlns="http://www.w3.org/2000/svg">
<path d="M2.15348 0C1.58234 0 1.0346 0.226727 0.63074 0.630303C0.226884 1.03388 0 1.58125 0 2.15199C0 2.72273 0.226884 3.2701 0.63074 3.67367C1.0346 4.07725 1.58234 4.30398 2.15348 4.30398C2.72462 4.30398 3.27237 4.07725 3.67622 3.67367C4.08008 3.2701 4.30696 2.72273 4.30696 2.15199C4.30696 1.58125 4.08008 1.03388 3.67622 0.630303C3.27237 0.226727 2.72462 0 2.15348 0ZM0.126675 6.0762C0.093079 6.0762 0.0608585 6.08954 0.0371023 6.11328C0.013346 6.13702 0 6.16922 0 6.20279V19.3679C0 19.4378 0.0567506 19.4945 0.126675 19.4945H4.18029C4.21388 19.4945 4.2461 19.4811 4.26986 19.4574C4.29362 19.4337 4.30696 19.4015 4.30696 19.3679V6.20279C4.30696 6.16922 4.29362 6.13702 4.26986 6.11328C4.2461 6.08954 4.21388 6.0762 4.18029 6.0762H0.126675ZM6.7138 6.0762C6.6802 6.0762 6.64798 6.08954 6.62422 6.11328C6.60047 6.13702 6.58712 6.16922 6.58712 6.20279V19.3679C6.58712 19.4378 6.64387 19.4945 6.7138 19.4945H10.7674C10.801 19.4945 10.8332 19.4811 10.857 19.4574C10.8807 19.4337 10.8941 19.4015 10.8941 19.3679V12.279C10.8941 11.7754 11.0943 11.2924 11.4506 10.9363C11.807 10.5802 12.2903 10.3802 12.7942 10.3802C13.2982 10.3802 13.7815 10.5802 14.1378 10.9363C14.4942 11.2924 14.6943 11.7754 14.6943 12.279V19.3679C14.6943 19.4378 14.7511 19.4945 14.821 19.4945H18.8746C18.9082 19.4945 18.9404 19.4811 18.9642 19.4574C18.988 19.4337 19.0013 19.4015 19.0013 19.3679V10.6384C19.0013 8.18059 16.863 6.25849 14.4157 6.48027C13.6584 6.54915 12.9167 6.73642 12.2176 7.03523L10.8941 7.60234V6.20279C10.8941 6.16922 10.8807 6.13702 10.857 6.11328C10.8332 6.08954 10.801 6.0762 10.7674 6.0762H6.7138Z" fill="#F8F8F8"/>
</svg>
