<svg width="18" height="20" viewBox="0 0 18 20" fill="none" xmlns="http://www.w3.org/2000/svg">
<path d="M1.56522 15.8713C1.56522 16.9904 2.26761 17.9061 3.13043 17.9061C3.31928 17.9017 3.5053 17.8574 3.67717 17.7759C3.84905 17.6944 4.00318 17.5774 4.13022 17.432C4.20027 17.3507 4.28532 17.285 4.3803 17.2386C4.47528 17.1922 4.57826 17.1662 4.68311 17.162C4.78797 17.1579 4.89255 17.1757 4.99065 17.2145C5.08874 17.2532 5.17835 17.312 5.25414 17.3875C5.32992 17.463 5.39034 17.5535 5.4318 17.6538C5.47326 17.754 5.49491 17.8619 5.49546 17.971C5.49602 18.0802 5.47547 18.1883 5.43504 18.289C5.39461 18.3897 5.33512 18.4809 5.26011 18.5572C4.98793 18.8625 4.6586 19.1066 4.29235 19.2745C3.92611 19.4425 3.5307 19.5308 3.13043 19.5339C1.4038 19.5339 0 17.8908 0 15.8713C0 13.8518 1.4038 12.2087 3.13043 12.2087C3.5307 12.2118 3.92611 12.3001 4.29235 12.4681C4.6586 12.636 4.98793 12.8802 5.26011 13.1854C5.33512 13.2617 5.39461 13.3529 5.43504 13.4536C5.47547 13.5543 5.49602 13.6624 5.49546 13.7716C5.49491 13.8807 5.47326 13.9886 5.4318 14.0888C5.39034 14.1891 5.32992 14.2796 5.25414 14.3551C5.17835 14.4306 5.08874 14.4894 4.99065 14.5282C4.89255 14.5669 4.78797 14.5847 4.68311 14.5806C4.57826 14.5764 4.47528 14.5504 4.3803 14.504C4.28532 14.4576 4.20027 14.3919 4.13022 14.3106C4.00318 14.1652 3.84905 14.0482 3.67717 13.9667C3.5053 13.8852 3.31928 13.8409 3.13043 13.8365C2.26761 13.8365 1.56522 14.7522 1.56522 15.8713ZM9.35217 14.9872C8.96087 14.8692 8.55587 14.7481 8.32989 14.5965C8.20663 14.5141 8.20957 14.4948 8.22033 14.4032C8.22179 14.3292 8.24033 14.2567 8.27438 14.1917C8.30843 14.1267 8.35699 14.0712 8.41598 14.0298C8.86598 13.7124 9.91663 13.8538 10.3559 13.9729C10.5567 14.0278 10.7702 13.9975 10.9496 13.8886C11.1289 13.7798 11.2593 13.6013 11.3121 13.3924C11.3649 13.1836 11.3358 12.9615 11.2311 12.775C11.1265 12.5885 10.9548 12.4528 10.754 12.3979C10.5466 12.342 8.69967 11.8669 7.54239 12.6787C7.29731 12.8495 7.09139 13.0744 6.93923 13.3372C6.78707 13.6001 6.69241 13.8945 6.66196 14.1997C6.4663 15.8153 7.9963 16.2762 8.91196 16.5509C10.0927 16.906 10.1964 17.0515 10.1622 17.3231C10.1318 17.5683 10.0389 17.6629 9.95283 17.723C9.50283 18.0343 8.4688 17.8817 8.04033 17.7596C7.84138 17.7047 7.62965 17.7335 7.451 17.8398C7.27235 17.9461 7.14115 18.1213 7.08583 18.3275C7.03051 18.5337 7.05552 18.7543 7.15544 18.9414C7.25536 19.1285 7.42214 19.2672 7.61967 19.3274C8.10454 19.4596 8.60344 19.5279 9.10467 19.5309C9.675 19.5309 10.3079 19.4291 10.8157 19.0771C11.0662 18.9039 11.2768 18.6752 11.4323 18.4072C11.5877 18.1393 11.6842 17.8389 11.7147 17.5276C11.9348 15.7696 10.3187 15.2782 9.35217 14.9872ZM15.613 14.9872C15.2217 14.8692 14.8167 14.7481 14.5908 14.5965C14.4685 14.5141 14.4704 14.4948 14.4812 14.4032C14.4827 14.3292 14.5012 14.2567 14.5353 14.1917C14.5693 14.1267 14.6179 14.0712 14.6768 14.0298C15.1268 13.7124 16.1775 13.8538 16.6158 13.9729C16.8166 14.0278 17.0301 13.9975 17.2095 13.8886C17.3888 13.7798 17.5192 13.6013 17.572 13.3924C17.6248 13.1836 17.5957 12.9615 17.491 12.775C17.3863 12.5885 17.2147 12.4528 17.0139 12.3979C16.8075 12.342 14.9596 11.8669 13.8023 12.6787C13.5583 12.8502 13.3534 13.0753 13.2021 13.3381C13.0508 13.6009 12.9568 13.895 12.9267 14.1997C12.7311 15.8153 14.2621 16.2762 15.1767 16.5509C16.3565 16.906 16.4602 17.0515 16.427 17.3231C16.3966 17.5683 16.3037 17.6629 16.2166 17.723C15.7666 18.0343 14.7336 17.8817 14.3051 17.7596C14.1048 17.7016 13.8906 17.7287 13.7095 17.835C13.5284 17.9412 13.3953 18.118 13.3396 18.3263C13.2838 18.5346 13.3099 18.7574 13.412 18.9457C13.5142 19.134 13.6842 19.2724 13.8845 19.3304C14.3697 19.4626 14.8689 19.5309 15.3704 19.5339C15.9398 19.5339 16.5737 19.4322 17.0814 19.0802C17.3319 18.9069 17.5423 18.6781 17.6976 18.4102C17.8529 18.1423 17.9491 17.8419 17.9795 17.5307C18.1957 15.7696 16.5796 15.2782 15.6121 14.9872H15.613ZM0.782609 8.95304V1.62783C0.782609 1.1961 0.947515 0.782056 1.24105 0.476779C1.53459 0.171503 1.9327 2.51661e-07 2.34783 2.51661e-07H11.7391C11.8419 -8.38215e-05 11.9437 0.0208979 12.0388 0.0617466C12.1338 0.102595 12.2201 0.162511 12.2928 0.23807L17.7711 5.93546C17.8437 6.0111 17.9014 6.10089 17.9406 6.1997C17.9799 6.2985 18.0001 6.40439 18 6.5113V8.95304C18 9.16891 17.9175 9.37593 17.7708 9.52857C17.624 9.6812 17.425 9.76696 17.2174 9.76696C17.0098 9.76696 16.8108 9.6812 16.664 9.52857C16.5172 9.37593 16.4348 9.16891 16.4348 8.95304V7.32522H11.7391C11.5316 7.32522 11.3325 7.23947 11.1857 7.08683C11.039 6.93419 10.9565 6.72717 10.9565 6.5113V1.62783H2.34783V8.95304C2.34783 9.16891 2.26537 9.37593 2.11861 9.52857C1.97184 9.6812 1.77278 9.76696 1.56522 9.76696C1.35766 9.76696 1.1586 9.6812 1.01183 9.52857C0.865062 9.37593 0.782609 9.16891 0.782609 8.95304ZM12.5217 5.69739H15.3274L12.5217 2.7785V5.69739Z" fill="#48537D"/>
</svg>
