<svg width="88" height="42" viewBox="0 0 88 42" fill="none" xmlns="http://www.w3.org/2000/svg">
<path fill-rule="evenodd" clip-rule="evenodd" d="M4.52101 24.7251C5.05262 24.2345 5.99608 24.3515 6.64554 24.9796C14.4066 32.2871 22.1896 36.4453 29.7639 37.3982C37.1391 38.3251 44.2444 36.1176 50.8787 30.8877C52.3561 29.7496 54.5616 27.2797 56.4104 24.2767C54.278 21.5106 52.7117 18.3452 51.7822 15.3621C50.4106 10.9566 50.6301 7.07615 51.8958 5.28733C52.5971 4.29685 53.5823 3.75375 54.7891 3.61891C56.3341 3.44848 58.5206 4.01054 61.2112 6.30276C64.9247 9.47834 66.19 13.5483 65.6529 17.8056C65.368 20.0433 64.5478 22.3316 63.4506 24.4952C65.1468 25.8723 67.1695 26.7888 69.511 26.8119C74.4711 26.8934 77.797 23.3787 79.9608 19.0424C81.8385 15.2916 83.9803 9.67795 82.7232 4.87706C82.297 3.24569 81.4142 1.78421 82.65 0.633117C84.5397 -1.15041 86.7068 1.17005 87.2954 3.41108C88.5574 8.22502 87.4253 13.7188 86.1695 17.8814C83.8673 25.5425 78.6847 32.0751 70.7245 32.1423C66.9908 32.1572 63.6748 30.8237 60.8776 28.7329C58.7705 31.7323 56.4073 34.1426 54.8107 35.305C46.8955 40.9215 38.5362 42.9954 30.0698 41.5599C21.6123 40.1301 13.0241 35.2358 4.73412 26.7594C4.08862 26.1238 3.98941 25.2158 4.52101 24.7251ZM59.1585 18.2991C59.5367 17.0254 59.7472 15.7554 59.7142 14.5211C59.6694 12.951 59.1889 11.4446 57.7855 10.2519C57.548 10.0525 57.2553 9.77855 57.0178 9.57915C56.914 10.1106 56.7489 11.1605 56.8432 12.0555C57.0633 14.0543 57.7987 16.4873 58.9937 18.812C59.0628 18.6367 59.1151 18.4707 59.1585 18.2991Z" fill="#4D2C5E"/>
<path fill-rule="evenodd" clip-rule="evenodd" d="M56.8797 9.21197C56.7412 9.27333 56.6055 9.30684 56.6046 9.19725C56.6066 9.0598 56.7068 9.09317 56.8797 9.21197Z" fill="#4D2C5E"/>
<path fill-rule="evenodd" clip-rule="evenodd" d="M8.95123 29.1308C9.7974 30.6758 10.6308 32.3118 11.2665 33.8531C12.248 36.2571 12.793 38.4158 12.3655 39.8926C12.2639 40.642 11.5055 41.0273 10.6853 40.7488C9.86125 40.4777 9.27642 39.643 9.38687 38.8991C9.38604 38.5216 9.20328 38.1089 9.0225 37.6478C8.60594 36.562 7.81174 35.3871 6.94874 34.1193C5.8459 32.502 4.55325 30.8643 3.43856 29.3585C2.42512 27.9959 1.56704 26.7411 1.00094 25.7595C0.10756 24.2146 -0.066987 22.9836 0.0198479 22.2844C0.0454918 22.1021 1.36346 19.4999 4.26423 20.9304C5.30162 21.445 7.88864 22.8663 8.01646 22.9369C9.58084 23.8827 12.4825 25.6015 15.1798 26.6359C16.0324 26.9647 16.8535 27.2637 17.5842 27.3768C17.6157 27.3172 17.6472 27.2577 17.6875 27.2038C18.2652 26.3574 19.5625 26.2916 20.6027 27.0461C21.174 27.4159 21.9703 28.3639 22.2149 28.905C22.6856 29.9554 22.3745 30.7217 21.4655 31.28C20.227 32.0375 18.3189 32.0756 16.1229 31.6545C13.8138 31.2019 11.1362 30.1302 8.95123 29.1308ZM6.01945 24.169C5.82386 23.8474 5.7443 23.6187 5.95773 23.5944C6.19673 23.5664 6.07757 23.9477 6.01945 24.169Z" fill="#4D2C5E"/>
</svg>
