<svg width="339" height="191" viewBox="0 0 339 191" fill="none" xmlns="http://www.w3.org/2000/svg">
<path d="M128.588 75.0817L130.061 74.7971L128.588 75.0817ZM227.84 89.3171L228.845 90.4314L227.84 89.3171ZM-8.21603e-05 38.6683L0.0337957 55.9945L15.0218 47.302L-8.21603e-05 38.6683ZM338.344 182.439C337.396 182.651 336.431 182.859 335.451 183.063L336.061 186.001C337.057 185.794 338.037 185.583 339 185.367L338.344 182.439ZM329.547 184.2C327.617 184.544 325.636 184.869 323.61 185.174L324.056 188.142C326.109 187.833 328.116 187.503 330.072 187.155L329.547 184.2ZM317.645 185.994C315.684 186.239 313.687 186.464 311.658 186.667L311.956 189.653C314.01 189.447 316.032 189.22 318.017 188.972L317.645 185.994ZM305.651 187.195C303.676 187.345 301.676 187.474 299.652 187.58L299.808 190.576C301.856 190.469 303.88 190.339 305.878 190.188L305.651 187.195ZM293.648 187.822C291.661 187.879 289.655 187.913 287.633 187.923L287.647 190.924C289.693 190.914 291.723 190.88 293.734 190.822L293.648 187.822ZM281.61 187.88C279.615 187.841 277.606 187.779 275.587 187.69L275.455 190.688C277.499 190.778 279.532 190.841 281.552 190.88L281.61 187.88ZM269.589 187.351C267.599 187.213 265.601 187.05 263.598 186.859L263.313 189.846C265.343 190.04 267.367 190.205 269.382 190.345L269.589 187.351ZM257.618 186.209C255.633 185.966 253.645 185.695 251.656 185.396L251.209 188.363C253.226 188.667 255.241 188.941 257.253 189.187L257.618 186.209ZM245.731 184.416C243.764 184.062 241.798 183.678 239.835 183.263L239.215 186.2C241.208 186.621 243.203 187.01 245.198 187.37L245.731 184.416ZM233.977 181.931C232.034 181.456 230.097 180.951 228.166 180.412L227.36 183.303C229.323 183.85 231.292 184.364 233.266 184.846L233.977 181.931ZM222.416 178.703C220.51 178.101 218.614 177.465 216.728 176.795L215.723 179.622C217.642 180.305 219.573 180.952 221.511 181.564L222.416 178.703ZM211.115 174.682C209.259 173.943 207.417 173.169 205.589 172.358L204.372 175.101C206.236 175.928 208.114 176.717 210.005 177.47L211.115 174.682ZM200.164 169.819C198.375 168.937 196.602 168.018 194.849 167.06L193.41 169.693C195.201 170.672 197.011 171.611 198.837 172.511L200.164 169.819ZM189.657 164.074C187.953 163.044 186.27 161.974 184.609 160.865L182.942 163.36C184.641 164.495 186.362 165.589 188.104 166.642L189.657 164.074ZM179.716 157.429C178.116 156.248 176.539 155.027 174.988 153.764L173.093 156.091C174.682 157.385 176.296 158.635 177.934 159.844L179.716 157.429ZM170.442 149.874C168.969 148.55 167.523 147.185 166.104 145.776L163.99 147.906C165.444 149.35 166.927 150.749 168.436 152.106L170.442 149.874ZM161.969 141.462C160.631 139.995 159.322 138.486 158.043 136.933L155.727 138.841C157.038 140.433 158.38 141.98 159.751 143.484L161.969 141.462ZM154.372 132.243C153.193 130.658 152.044 129.031 150.926 127.362L148.433 129.032C149.578 130.742 150.756 132.409 151.964 134.034L154.372 132.243ZM147.707 122.292C146.695 120.61 145.713 118.887 144.762 117.124L142.121 118.548C143.093 120.353 144.099 122.116 145.135 123.839L147.707 122.292ZM142.044 111.79C141.187 110.008 140.36 108.188 139.565 106.328L136.805 107.507C137.618 109.408 138.463 111.269 139.339 113.091L142.044 111.79ZM137.341 100.8C136.639 98.9424 135.967 97.0481 135.327 95.116L132.478 96.0602C133.132 98.0311 133.817 99.9643 134.534 101.861L137.341 100.8ZM133.566 89.4311C133.017 87.5301 132.497 85.5946 132.007 83.624L129.094 84.3481C129.593 86.3546 130.123 88.3263 130.682 90.2637L133.566 89.4311ZM130.666 77.7896C130.457 76.8005 130.256 75.803 130.061 74.7971L127.115 75.3664C127.312 76.3893 127.518 77.4038 127.73 78.41L130.666 77.7896ZM130.061 74.7971C129.862 73.7642 129.672 72.7445 129.493 71.7376L126.538 72.2643C126.72 73.2857 126.913 74.3197 127.115 75.3664L130.061 74.7971ZM128.534 65.8507C128.243 63.8723 127.994 61.9484 127.785 60.0781L124.803 60.4117C125.016 62.3176 125.27 64.2757 125.565 66.2867L128.534 65.8507ZM127.238 54.1031C127.097 52.0975 127.007 50.1607 126.964 48.2911L123.964 48.3592C124.008 50.2785 124.101 52.2627 124.244 54.3132L127.238 54.1031ZM126.996 42.3708C127.068 40.324 127.204 38.3703 127.401 36.5069L124.417 36.1912C124.212 38.1287 124.071 40.1527 123.996 42.2654L126.996 42.3708ZM128.235 30.8468C128.625 28.8205 129.099 26.9232 129.648 25.1497L126.781 24.2621C126.197 26.1478 125.698 28.1524 125.288 30.2792L128.235 30.8468ZM131.718 19.7567C132.567 17.9447 133.515 16.3022 134.55 14.819L132.089 13.1017C130.951 14.7328 129.918 16.5248 129 18.483L131.718 19.7567ZM138.216 10.5363C139.605 9.21737 141.098 8.08743 142.682 7.13411L141.135 4.56276C139.366 5.62759 137.698 6.88971 136.15 8.36002L138.216 10.5363ZM147.791 4.75828C149.553 4.15008 151.398 3.70527 153.314 3.41535L152.865 0.448118C150.782 0.763341 148.758 1.24964 146.812 1.92162L147.791 4.75828ZM159.037 3.00127C160.916 3.0019 162.844 3.12707 164.808 3.36956L165.175 0.391187C163.1 0.134881 161.049 0.000957704 159.038 0.000273028L159.037 3.00127ZM170.538 4.38177C172.401 4.8056 174.284 5.32249 176.177 5.92613L177.089 3.06689C175.119 2.43907 173.154 1.89935 171.203 1.45553L170.538 4.38177ZM181.7 7.91761C183.497 8.63973 185.295 9.43306 187.086 10.2919L188.383 7.58614C186.537 6.70019 184.679 5.88036 182.818 5.13292L181.7 7.91761ZM192.313 12.9963C194.018 13.9423 195.707 14.9437 197.375 15.9951L198.975 13.4565C197.261 12.3759 195.524 11.3461 193.77 10.3725L192.313 12.9963ZM202.275 19.2725C203.88 20.4089 205.456 21.5893 206.996 22.8083L208.859 20.4549C207.276 19.2029 205.658 17.9907 204.01 16.8235L202.275 19.2725ZM211.517 26.5865C212.996 27.8927 214.432 29.2328 215.817 30.6014L217.926 28.4666C216.5 27.0578 215.024 25.6795 213.503 24.3369L211.517 26.5865ZM219.885 34.8661C221.212 36.3454 222.476 37.849 223.669 39.3706L226.03 37.5189C224.795 35.9429 223.488 34.3886 222.118 32.8621L219.885 34.8661ZM227.116 44.1154C228.223 45.7681 229.239 47.4329 230.157 49.1023L232.787 47.6571C231.824 45.906 230.762 44.1665 229.61 42.4459L227.116 44.1154ZM232.693 54.33C233.46 56.1563 234.096 57.9764 234.592 59.7812L237.486 58.9859C236.953 57.0462 236.273 55.1037 235.46 53.1684L232.693 54.33ZM235.678 65.3998C235.885 67.3215 235.912 69.2119 235.747 71.0606L238.736 71.3273C238.92 69.2686 238.888 67.1807 238.661 65.0782L235.678 65.3998ZM234.636 76.558C234.072 78.3015 233.303 80.0022 232.313 81.65L234.885 83.1959C235.993 81.3527 236.856 79.4434 237.491 77.4823L234.636 76.558ZM228.92 86.146C228.276 86.844 227.581 87.53 226.835 88.2028L228.845 90.4314C229.657 89.6994 230.416 88.9493 231.125 88.1823L228.92 86.146ZM226.835 88.2028C226.111 88.8559 225.368 89.4917 224.607 90.1103L226.499 92.4393C227.3 91.7887 228.082 91.1195 228.845 90.4314L226.835 88.2028ZM219.858 93.5955C218.234 94.6721 216.544 95.6849 214.792 96.6353L216.224 99.2731C218.05 98.2823 219.815 97.2242 221.516 96.0968L219.858 93.5955ZM209.473 99.2492C207.685 100.043 205.845 100.78 203.956 101.462L204.976 104.285C206.929 103.579 208.835 102.816 210.69 101.992L209.473 99.2492ZM198.317 103.297C196.438 103.845 194.518 104.344 192.562 104.795L193.237 107.719C195.246 107.256 197.22 106.742 199.156 106.178L198.317 103.297ZM186.718 105.985C184.777 106.329 182.805 106.631 180.805 106.892L181.193 109.868C183.237 109.601 185.255 109.292 187.243 108.939L186.718 105.985ZM174.852 107.537C172.89 107.709 170.904 107.844 168.899 107.942L169.045 110.939C171.088 110.839 173.112 110.702 175.114 110.527L174.852 107.537ZM162.915 108.127C160.93 108.153 158.928 108.146 156.912 108.106L156.852 111.107C158.901 111.147 160.936 111.154 162.955 111.127L162.915 108.127ZM150.922 107.894C148.94 107.794 146.947 107.663 144.944 107.503L144.705 110.495C146.736 110.657 148.758 110.789 150.77 110.891L150.922 107.894ZM138.965 106.942C136.983 106.728 134.994 106.487 133.001 106.219L132.601 109.193C134.62 109.465 136.635 109.709 138.644 109.925L138.965 106.942ZM127.069 105.344C125.097 105.029 123.123 104.687 121.148 104.321L120.601 107.272C122.599 107.642 124.598 107.988 126.594 108.308L127.069 105.344ZM115.253 103.155C113.297 102.744 111.343 102.31 109.392 101.852L108.707 104.774C110.68 105.237 112.657 105.676 114.636 106.092L115.253 103.155ZM103.558 100.413C101.619 99.9115 99.6863 99.3877 97.7607 98.8424L96.9431 101.73C98.8905 102.281 100.845 102.811 102.806 103.319L103.558 100.413ZM91.9966 97.1393C90.0789 96.549 88.1708 95.9378 86.274 95.3063L85.3261 98.1536C87.2444 98.7923 89.1743 99.4105 91.1137 100.008L91.9966 97.1393ZM80.6038 93.346C78.7099 92.6667 76.8299 91.9675 74.9655 91.249L73.8864 94.0493C75.7728 94.7762 77.6748 95.4837 79.5906 96.1708L80.6038 93.346ZM69.3857 89.0216C67.5301 88.2548 65.6928 87.4689 63.8759 86.6649L62.6614 89.4091C64.5012 90.2233 66.3613 91.0189 68.2396 91.7951L69.3857 89.0216ZM58.4093 84.1611C56.5867 83.2974 54.7879 82.4153 53.0154 81.5157L51.6572 84.1917C53.4544 85.1039 55.2775 85.9979 57.1242 86.873L58.4093 84.1611ZM47.7127 78.7291C45.9429 77.7662 44.2035 76.7855 42.4968 75.7881L40.9825 78.379C42.7163 79.3923 44.4825 80.388 46.2784 81.3652L47.7127 78.7291ZM37.3593 72.672C35.6488 71.5949 33.977 70.5006 32.3466 69.3901L30.6573 71.8704C32.3183 73.0018 34.0203 74.1158 35.7602 75.2115L37.3593 72.672ZM27.4764 65.9327C25.857 64.7335 24.2868 63.5179 22.7688 62.2871L20.8788 64.6182C22.4323 65.8777 24.0373 67.1202 25.6904 68.3444L27.4764 65.9327ZM18.2142 58.4071C16.705 57.0538 15.2602 55.6848 13.8835 54.3018L11.7566 56.419C13.1753 57.8442 14.6615 59.2522 16.2108 60.6414L18.2142 58.4071ZM9.82435 49.9552C8.49561 48.4329 7.25143 46.8967 6.09634 45.3487L3.69113 47.1434C4.89475 48.7565 6.18744 50.3521 7.56348 51.9286L9.82435 49.9552Z" fill="#0038FF" fill-opacity="0.12"/>
</svg>
