<svg width="1331" height="571" viewBox="0 0 1331 571" fill="none" xmlns="http://www.w3.org/2000/svg">
<mask id="mask0_849_11841" style="mask-type:alpha" maskUnits="userSpaceOnUse" x="0" y="0" width="1331" height="571">
<path d="M0.500172 20.0069C0.500172 9.2336 9.23362 0.500172 20.0069 0.500172H1310.99C1321.77 0.500172 1330.5 9.23362 1330.5 20.0069V550.36C1330.5 561.133 1321.77 569.867 1310.99 569.867H20.0069C9.23364 569.867 0.500172 561.133 0.500172 550.36V20.0069Z" fill="#4A3AFF" stroke="#EFF0F7"/>
</mask>
<g mask="url(#mask0_849_11841)">
<path opacity="0.2" d="M941.456 1.7105C941.456 21.8336 943.908 41.7597 948.673 60.3511C953.437 78.9425 960.421 95.835 969.225 110.064C978.028 124.293 988.48 135.581 999.983 143.281C1011.49 150.982 1023.81 154.946 1036.26 154.946C1048.71 154.946 1061.04 150.982 1072.55 143.281C1084.05 135.581 1094.5 124.293 1103.3 110.064C1112.11 95.835 1119.09 78.9424 1123.85 60.3511C1128.62 41.7597 1131.07 21.8336 1131.07 1.71044L1036.26 1.7105L941.456 1.7105Z" fill="white"/>
<path opacity="0.1" d="M940.604 254.84C940.604 278.44 937.728 301.81 932.14 323.614C926.552 345.418 918.362 365.23 908.037 381.919C897.712 398.607 885.454 411.845 871.963 420.876C858.473 429.908 844.014 434.556 829.412 434.556C814.81 434.556 800.351 429.908 786.861 420.876C773.37 411.845 761.112 398.607 750.787 381.919C740.462 365.23 732.272 345.418 726.684 323.614C721.096 301.81 718.22 278.44 718.22 254.84L829.412 254.84L940.604 254.84Z" fill="white"/>
<rect opacity="0.1" x="1131.05" y="154.115" width="307.564" height="190.295" transform="rotate(90 1131.05 154.115)" fill="white"/>
<path opacity="0.07" d="M930.984 590.163L1037.51 422.699L1130.94 266.976L1130.94 590.163L930.984 590.163Z" fill="white"/>
<ellipse opacity="0.07" cx="1230.82" cy="445.842" rx="161.019" ry="99.6236" transform="rotate(90 1230.82 445.842)" fill="white"/>
<path opacity="0.1" d="M0.5492 -0.32289C23.7465 -0.322887 46.7166 7.06194 68.1481 21.4099C89.5796 35.7579 109.053 56.7881 125.456 83.2998C141.859 109.811 154.87 141.285 163.747 175.924C172.625 210.564 177.194 247.69 177.194 285.183C177.194 322.676 172.625 359.802 163.747 394.441C154.87 429.08 141.859 460.554 125.456 487.066C109.053 513.577 89.5795 534.607 68.148 548.955C46.7165 563.303 23.7464 570.688 0.549123 570.688L0.549184 285.183L0.5492 -0.32289Z" fill="white"/>
<rect opacity="0.2" x="1331" y="-36.4928" width="323.187" height="199.961" transform="rotate(90 1331 -36.4928)" fill="white"/>
<path opacity="0.2" d="M1307.52 0L1213.52 147.772L1131.07 285.183L1131.07 -7.20234e-06L1307.52 0Z" fill="white"/>
</g>
</svg>
