<svg width="52" height="49" viewBox="0 0 52 49" fill="none" xmlns="http://www.w3.org/2000/svg">
<path d="M26 0C11.662 0 0 10.9892 0 24.5C0 38.0108 11.662 49 26 49C40.338 49 52 38.0108 52 24.5C52 10.9892 40.338 0 26 0ZM27.3031 3.46822C33.9685 3.82739 39.8377 6.92419 43.6758 11.5865C42.6629 11.562 41.6546 11.5562 40.6505 11.5704C38.9074 11.5976 37.166 11.6846 35.4297 11.8311C35.1104 11.21 34.612 10.6862 33.9915 10.3197C33.371 9.95312 32.6536 9.75859 31.9212 9.75835C31.7398 9.75837 31.5586 9.77032 31.3789 9.79412C30.1576 7.60958 28.7965 5.49705 27.3031 3.46822ZM24.1426 3.50742C26.0338 5.94223 27.6734 8.41379 29.0763 10.9197C28.5544 11.4442 28.2073 12.1015 28.0779 12.8101C25.6521 13.2555 23.2519 13.8164 20.8863 14.4908C20.592 14.1158 20.2246 13.797 19.8037 13.5514C20.7849 10.2513 22.1577 6.90753 23.9127 3.52359C23.9892 3.51722 24.0661 3.51379 24.1426 3.50742ZM20.7938 4.0082C19.3274 7.02905 18.1574 10.0386 17.2869 13.0291C16.7603 13.0886 16.2521 13.2487 15.7935 13.4996C15.3348 13.7505 14.9353 14.087 14.6193 14.4883C12.2731 13.7832 9.89668 13.1705 7.49632 12.6518C10.6292 8.30821 15.3721 5.2252 20.7938 4.0082ZM42.1777 14.013C43.2656 14.0194 44.3586 14.0522 45.4574 14.1061C46.7707 16.2859 47.6578 18.6702 48.0766 21.1455C44.9306 21.6276 41.8678 22.2955 38.8861 23.1373C38.5642 22.7617 38.167 22.4496 37.717 22.2187C37.2671 21.9878 36.7732 21.8427 36.2638 21.7918C35.7627 19.9115 35.1521 18.0586 34.4349 16.2415C35.0798 15.7288 35.5309 15.0328 35.7204 14.258C37.8518 14.0836 40.0031 13.9998 42.1777 14.013ZM6.10064 14.8764C8.75368 15.4267 11.3422 16.07 13.8554 16.8261C13.8556 16.831 13.8557 16.8359 13.8559 16.8408C10.4718 18.1506 7.14428 19.6951 3.87244 21.4649C4.22242 19.1675 4.97542 16.941 6.10064 14.8764ZM28.5095 15.2116C28.8466 15.7859 29.3408 16.2646 29.9407 16.5981C30.5405 16.9316 31.2242 17.1076 31.9207 17.1079C31.9557 17.1075 31.9908 17.1067 32.0258 17.1054C32.7056 18.8208 33.2847 20.5701 33.7605 22.3455C33.5651 22.4622 33.3812 22.595 33.2108 22.7424C29.5439 20.4903 25.6726 18.5484 21.6424 16.9393C21.6456 16.8975 21.648 16.8557 21.6497 16.8139C23.9065 16.1716 26.1956 15.6368 28.5095 15.2116ZM14.8231 19.1027C15.1099 19.4099 15.4491 19.67 15.8267 19.872C15.1861 24.596 15.328 29.254 16.3056 33.8105C14.0018 35.398 11.7821 37.0914 9.65484 38.8844C5.92384 35.1217 3.64 30.0693 3.64 24.5C3.64 24.477 3.64208 24.4549 3.64208 24.4319C7.30652 22.3572 11.0313 20.5751 14.8231 19.1027ZM20.606 19.1806C24.5786 20.7625 28.3906 22.6808 31.9951 24.9121C31.9671 25.0889 31.9528 25.2674 31.9524 25.4462C31.9524 25.4539 31.9524 25.4615 31.9524 25.4692C27.2932 27.2945 22.8452 29.5754 18.603 32.2871C17.8698 28.3681 17.7918 24.3736 18.3394 20.3095C19.2083 20.1847 20.0071 19.7868 20.606 19.1806ZM48.3356 23.5876C48.3491 23.8899 48.36 24.1938 48.36 24.4995C48.3633 27.4838 47.6928 30.4346 46.3928 33.1558C44.2043 30.9598 41.8646 28.9019 39.389 26.9956C39.6275 26.5125 39.7517 25.9863 39.753 25.4535C42.5695 24.6626 45.436 24.0394 48.3356 23.5876ZM32.8302 27.7668C33.3914 28.416 34.1711 28.8652 35.0402 29.0399C35.6091 33.8953 35.4354 38.8722 34.5556 43.9751C31.8425 45.031 28.9353 45.573 26 45.57C25.232 45.57 24.4728 45.5337 23.725 45.4627C21.6388 42.0013 20.1323 38.4704 19.1859 34.8753C23.5165 32.022 28.0587 29.644 32.8302 27.7668ZM37.6043 28.7762C40.2765 30.828 42.7858 33.0614 45.1121 35.4584C43.2017 38.4121 40.5503 40.8782 37.3911 42.6398C38.0593 37.9348 38.1399 33.3087 37.6043 28.7772V28.7762ZM16.9551 36.3982C17.7819 39.2858 18.9488 42.1297 20.4667 44.9208C17.18 44.1333 14.1276 42.6487 11.5424 40.5803C13.3089 39.1005 15.1128 37.704 16.9551 36.3982Z" fill="#2274AC"/>
</svg>
