<svg width="82" height="166" viewBox="0 0 82 166" fill="none" xmlns="http://www.w3.org/2000/svg">
<path d="M38.9793 55.7244L37.706 54.9312L38.9793 55.7244ZM64.3014 93.6786L64.3047 92.1785L64.3014 93.6786ZM12.0157 0.000144017L-0.000501905 12.4765L16.8125 16.6447L12.0157 0.000144017ZM67.8216 163.5C67.0008 162.955 66.1591 162.373 65.3008 161.753L63.5441 164.185C64.4336 164.827 65.308 165.433 66.163 166L67.8216 163.5ZM60.4315 157.967C58.9065 156.696 57.3582 155.326 55.8071 153.861L53.7469 156.042C55.3437 157.55 56.9386 158.962 58.5113 160.272L60.4315 157.967ZM51.4385 149.478C50.0545 148.002 48.6841 146.454 47.3421 144.837L45.0333 146.753C46.4153 148.419 47.8261 150.012 49.2506 151.53L51.4385 149.478ZM43.5481 139.963C42.3493 138.317 41.1886 136.614 40.0783 134.855L37.5414 136.457C38.6887 138.274 39.8868 140.032 41.1232 141.729L43.5481 139.963ZM36.9675 129.524C36.0032 127.727 35.0969 125.882 34.2595 123.991L31.5162 125.206C32.3855 127.169 33.3252 129.082 34.3238 130.943L36.9675 129.524ZM31.9949 118.271C31.3232 116.348 30.7266 114.385 30.2149 112.384L27.3081 113.127C27.8418 115.215 28.4635 117.26 29.1625 119.26L31.9949 118.271ZM28.9624 106.38C28.639 104.38 28.4034 102.346 28.2647 100.281L25.2712 100.482C25.4163 102.643 25.6626 104.769 26.0006 106.859L28.9624 106.38ZM28.1429 94.1576C28.198 92.1426 28.3479 90.1 28.6003 88.0315L25.6221 87.6681C25.3583 89.8307 25.2014 91.9672 25.1437 94.0756L28.1429 94.1576ZM29.6196 81.9945C30.0426 80.0339 30.5601 78.0517 31.1785 76.0493L28.3118 75.1641C27.668 77.249 27.1284 79.3154 26.6868 81.3617L29.6196 81.9945ZM33.2385 70.2406C33.982 68.3852 34.814 66.5137 35.7395 64.6272L33.046 63.3058C32.088 65.2584 31.2254 67.1984 30.4535 69.1247L33.2385 70.2406ZM38.6458 59.1915C39.1601 58.3032 39.6955 57.4118 40.2526 56.5175L37.706 54.9312C37.1321 55.8526 36.58 56.7717 36.0493 57.6883L38.6458 59.1915ZM40.2526 56.5175C40.809 55.6244 41.3602 54.7647 41.9063 53.9378L39.4027 52.2845C38.8414 53.1345 38.2758 54.0165 37.706 54.9312L40.2526 56.5175ZM45.2973 49.1267C46.5727 47.4407 47.8146 45.9409 49.0214 44.6147L46.8024 42.5955C45.5278 43.9961 44.2284 45.5667 42.9046 47.3166L45.2973 49.1267ZM53.147 40.6227C54.8048 39.2431 56.3697 38.2209 57.837 37.5034L56.519 34.8081C54.8004 35.6485 53.0362 36.8117 51.2279 38.3165L53.147 40.6227ZM62.9449 36.1324C64.7248 36.0841 66.3628 36.5337 67.8729 37.403L69.3698 34.8029C67.4121 33.6759 65.2317 33.069 62.8634 33.1333L62.9449 36.1324ZM71.8656 41.0046C72.9427 42.3809 73.9174 44.0111 74.7761 45.8432L77.4928 44.5699C76.5565 42.5724 75.4691 40.741 74.2284 39.1556L71.8656 41.0046ZM76.8045 51.2504C77.3399 53.0578 77.7794 54.9578 78.1183 56.9109L81.0744 56.3979C80.717 54.3384 80.2518 52.3247 79.6812 50.3983L76.8045 51.2504ZM78.8164 62.7117C78.9506 64.6615 78.9861 66.6194 78.92 68.5488L81.9185 68.6516C81.9882 66.6168 81.9507 64.5558 81.8095 62.5057L78.8164 62.7117ZM78.3936 74.3501C78.0941 76.3286 77.6738 78.222 77.1318 79.9866L79.9998 80.8675C80.5901 78.9454 81.0411 76.9061 81.3601 74.7992L78.3936 74.3501ZM74.9416 85.2105C73.9749 86.929 72.8458 88.3693 71.5626 89.4832L73.5292 91.749C75.1198 90.3684 76.4546 88.6403 77.5565 86.6815L74.9416 85.2105ZM66.9398 91.8858C66.1172 92.0786 65.2402 92.1806 64.3047 92.1785L64.298 95.1787C65.4575 95.1813 66.5671 95.0548 67.6247 94.8068L66.9398 91.8858ZM64.3047 92.1785C63.3929 92.1764 62.48 92.1159 61.5668 91.9992L61.1865 94.9753C62.22 95.1074 63.2577 95.1764 64.298 95.1787L64.3047 92.1785ZM56.2004 90.6827C54.5033 90.0712 52.8102 89.2798 51.1287 88.3225L49.6443 90.9298C51.4597 91.9633 53.3087 92.8299 55.1834 93.5053L56.2004 90.6827ZM46.4201 85.1924C44.95 84.0748 43.4983 82.8393 42.0707 81.4978L40.0162 83.6843C41.5131 85.0908 43.0442 86.3947 44.6043 87.5808L46.4201 85.1924ZM38.0634 77.3884C36.8073 75.9902 35.5775 74.5152 34.3784 72.9733L32.01 74.8151C33.25 76.4096 34.5252 77.9393 35.8315 79.3934L38.0634 77.3884ZM30.9781 68.3048C29.9038 66.7321 28.8614 65.1091 27.8544 63.4445L25.2873 64.9974C26.3218 66.7076 27.3941 68.3772 28.5007 69.9971L30.9781 68.3048ZM24.9877 58.4169C24.0776 56.7225 23.2049 54.9973 22.3729 53.2493L19.6639 54.5387C20.5165 56.33 21.4111 58.0987 22.3446 59.8366L24.9877 58.4169ZM20.0092 47.9614C19.2615 46.1755 18.558 44.3756 17.9021 42.5697L15.0821 43.594C15.7546 45.4454 16.4756 47.2902 17.2418 49.1201L20.0092 47.9614ZM16.0602 37.0776C15.4877 35.2157 14.9691 33.357 14.5081 31.5104L11.5972 32.2372C12.0717 34.1375 12.6047 36.0479 13.1925 37.9594L16.0602 37.0776ZM13.2723 25.8657C12.9118 23.941 12.6203 22.0415 12.4017 20.1777L9.42184 20.5273C9.64896 22.463 9.95104 24.4302 10.3233 26.418L13.2723 25.8657ZM11.9584 14.4468C11.8901 12.4815 11.9158 10.5763 12.04 8.74484L9.04661 8.54187C8.91487 10.4848 8.88842 12.493 8.95999 14.5511L11.9584 14.4468Z" fill="#FF4766"/>
</svg>
