<svg width="64" height="56" viewBox="0 0 64 56" fill="none" xmlns="http://www.w3.org/2000/svg">
<path d="M30.0657 8.60293C29.8251 8.38016 29.637 8.11812 29.5122 7.83175C29.3873 7.54538 29.3282 7.2403 29.3381 6.93393C29.348 6.62756 29.4267 6.3259 29.5699 6.04616C29.713 5.76643 29.9177 5.51411 30.1723 5.3036C30.4269 5.09309 30.7264 4.92852 31.0537 4.81928C31.3809 4.71004 31.7296 4.65828 32.0797 4.66695C32.4299 4.67562 32.7746 4.74454 33.0943 4.86979C33.414 4.99504 33.7024 5.17416 33.943 5.39693L56.6096 26.3969C57.0777 26.8302 57.3386 27.4037 57.3386 27.9999C57.3386 28.5961 57.0777 29.1697 56.6096 29.6029L33.943 50.6053C33.704 50.8329 33.4157 51.0167 33.0948 51.1461C32.7739 51.2754 32.4269 51.3476 32.0739 51.3586C31.7208 51.3696 31.3688 51.3191 31.0382 51.21C30.7077 51.1009 30.4052 50.9355 30.1483 50.7232C29.8915 50.511 29.6854 50.2562 29.542 49.9737C29.3986 49.6912 29.3208 49.3866 29.3131 49.0775C29.3054 48.7685 29.368 48.4612 29.4972 48.1735C29.6264 47.8858 29.8196 47.6234 30.0657 47.4016L51.0043 27.9999L30.0657 8.60293Z" fill="#2274AC"/>
</svg>
