<svg width="14" height="40" viewBox="0 0 14 40" fill="none" xmlns="http://www.w3.org/2000/svg">
<path d="M8.76361 1.81677C9.20535 1.46991 9.28225 0.830625 8.93539 0.388892C8.58852 -0.0528413 7.94924 -0.129748 7.50751 0.217116L8.76361 1.81677ZM2.71185 34.5761C2.71185 37.5716 5.14013 39.9998 8.13556 39.9998C11.131 39.9998 13.5593 37.5716 13.5593 34.5761C13.5593 31.5807 11.131 29.1524 8.13556 29.1524C5.14013 29.1524 2.71185 31.5807 2.71185 34.5761ZM7.50751 0.217116C-0.873751 6.79836 -0.910567 15.6426 1.09142 22.6597C2.09155 26.1652 3.60763 29.2635 4.88825 31.4945C5.52972 32.612 6.11584 33.5183 6.55513 34.1566C6.77456 34.4755 6.95928 34.7302 7.09778 34.913C7.16649 35.0037 7.22737 35.0814 7.27764 35.1423C7.3022 35.1721 7.32957 35.2044 7.35727 35.2349C7.35821 35.2359 7.43977 35.3304 7.55238 35.4092L8.71874 33.743C8.78741 33.7911 8.83251 33.8363 8.83756 33.8413C8.85166 33.8551 8.86039 33.8647 8.86175 33.8662C8.86489 33.8697 8.86064 33.8651 8.84685 33.8484C8.82043 33.8164 8.77776 33.7624 8.7189 33.6847C8.60224 33.5308 8.43573 33.3016 8.2306 33.0036C7.82077 32.408 7.26444 31.5485 6.65218 30.4819C5.42532 28.3446 3.98875 25.4016 3.04727 22.1017C1.16603 15.5079 1.29013 7.6852 8.76361 1.81677L7.50751 0.217116Z" fill="#FFB656"/>
</svg>
