<svg width="776" height="689" viewBox="0 0 776 689" fill="none" xmlns="http://www.w3.org/2000/svg">
<path d="M201.697 5.45749C204.608 0.298015 211.151 -1.52451 216.31 1.38676L259.29 25.6383C264.449 28.5496 266.272 35.0922 263.361 40.2517L253.027 58.5659C250.116 63.7253 243.573 65.5479 238.413 62.6366L195.434 38.385C190.274 35.4737 188.452 28.9311 191.363 23.7716L201.697 5.45749Z" fill="white"/>
<path d="M347.675 87.8269C350.587 82.6674 357.129 80.8448 362.289 83.7561L405.268 108.008C410.428 110.919 412.25 117.462 409.339 122.621L399.005 140.935C396.094 146.095 389.551 147.917 384.392 145.006L341.412 120.754C336.253 117.843 334.43 111.3 337.341 106.141L347.675 87.8269Z" fill="white"/>
<path d="M493.654 170.196C496.565 165.037 503.108 163.214 508.267 166.125L551.247 190.377C556.406 193.288 558.229 199.831 555.317 204.99L544.984 223.305C542.072 228.464 535.53 230.287 530.37 227.375L487.391 203.124C482.231 200.212 480.409 193.67 483.32 188.51L493.654 170.196Z" fill="white"/>
<path d="M639.632 252.566C642.543 247.406 649.086 245.584 654.245 248.495L697.225 272.746C702.385 275.658 704.207 282.2 701.296 287.36L690.962 305.674C688.051 310.833 681.508 312.656 676.349 309.745L633.369 285.493C628.209 282.582 626.387 276.039 629.298 270.88L639.632 252.566Z" fill="white"/>
<path d="M174.557 53.5552C177.469 48.3957 184.011 46.5732 189.171 49.4845L232.15 73.7361C237.31 76.6473 239.132 83.19 236.221 88.3495L225.887 106.664C222.976 111.823 216.433 113.646 211.274 110.734L168.294 86.4827C163.135 83.5715 161.312 77.0288 164.224 71.8694L174.557 53.5552Z" fill="white"/>
<path d="M320.536 135.925C323.447 130.765 329.99 128.943 335.149 131.854L378.129 156.105C383.288 159.017 385.111 165.559 382.2 170.719L371.866 189.033C368.954 194.192 362.412 196.015 357.252 193.104L314.273 168.852C309.113 165.941 307.291 159.398 310.202 154.239L320.536 135.925Z" fill="white"/>
<path d="M466.514 218.294C469.425 213.134 475.968 211.312 481.128 214.223L524.107 238.475C529.267 241.386 531.089 247.929 528.178 253.088L517.844 271.402C514.933 276.562 508.39 278.384 503.231 275.473L460.251 251.221C455.092 248.31 453.269 241.768 456.18 236.608L466.514 218.294Z" fill="white"/>
<path d="M612.493 300.663C615.404 295.504 621.946 293.681 627.106 296.593L670.086 320.844C675.245 323.755 677.068 330.298 674.156 335.458L663.822 353.772C660.911 358.931 654.369 360.754 649.209 357.842L606.229 333.591C601.07 330.68 599.247 324.137 602.159 318.977L612.493 300.663Z" fill="white"/>
<path d="M147.418 101.653C150.329 96.4935 156.872 94.671 162.031 97.5822L205.011 121.834C210.17 124.745 211.993 131.288 209.082 136.447L198.748 154.761C195.837 159.921 189.294 161.743 184.134 158.832L141.155 134.58C135.995 131.669 134.173 125.127 137.084 119.967L147.418 101.653Z" fill="white"/>
<path d="M93.1389 197.848C96.0502 192.689 102.593 190.866 107.752 193.778L150.732 218.029C155.891 220.941 157.714 227.483 154.803 232.643L144.469 250.957C141.558 256.116 135.015 257.939 129.855 255.028L86.8758 230.776C81.7163 227.865 79.8938 221.322 82.8051 216.163L93.1389 197.848Z" fill="white"/>
<path d="M38.8599 294.044C41.7712 288.884 48.3138 287.062 53.4733 289.973L96.453 314.225C101.612 317.136 103.435 323.679 100.524 328.838L90.1898 347.152C87.2786 352.312 80.7359 354.134 75.5764 351.223L32.5968 326.971C27.4373 324.06 25.6148 317.518 28.5261 312.358L38.8599 294.044Z" fill="white"/>
<path d="M293.396 184.022C296.308 178.863 302.85 177.04 308.01 179.952L350.989 204.203C356.149 207.114 357.971 213.657 355.06 218.817L344.726 237.131C341.815 242.29 335.272 244.113 330.113 241.201L287.133 216.95C281.974 214.039 280.151 207.496 283.062 202.336L293.396 184.022Z" fill="white"/>
<path d="M239.117 280.218C242.029 275.058 248.571 273.236 253.731 276.147L296.71 300.399C301.87 303.31 303.692 309.853 300.781 315.012L290.447 333.326C287.536 338.486 280.993 340.308 275.834 337.397L232.854 313.145C227.695 310.234 225.872 303.691 228.783 298.532L239.117 280.218Z" fill="white"/>
<path d="M184.838 376.413C187.75 371.254 194.292 369.431 199.452 372.343L242.431 396.594C247.591 399.505 249.413 406.048 246.502 411.208L236.168 429.522C233.257 434.681 226.714 436.504 221.555 433.592L178.575 409.341C173.416 406.43 171.593 399.887 174.504 394.727L184.838 376.413Z" fill="white"/>
<path d="M439.375 266.392C442.286 261.232 448.829 259.41 453.988 262.321L496.968 286.573C502.127 289.484 503.95 296.026 501.038 301.186L490.705 319.5C487.793 324.66 481.251 326.482 476.091 323.571L433.112 299.319C427.952 296.408 426.13 289.865 429.041 284.706L439.375 266.392Z" fill="white"/>
<path d="M585.353 348.761C588.264 343.602 594.807 341.779 599.966 344.69L642.946 368.942C648.106 371.853 649.928 378.396 647.017 383.555L636.683 401.869C633.772 407.029 627.229 408.851 622.07 405.94L579.09 381.689C573.93 378.777 572.108 372.235 575.019 367.075L585.353 348.761Z" fill="white"/>
<path d="M385.096 362.587C388.007 357.428 394.55 355.605 399.709 358.516L442.689 382.768C447.848 385.679 449.671 392.222 446.759 397.381L436.426 415.696C433.514 420.855 426.972 422.678 421.812 419.766L378.833 395.515C373.673 392.603 371.851 386.061 374.762 380.901L385.096 362.587Z" fill="white"/>
<path d="M330.817 458.783C333.728 453.623 340.271 451.801 345.43 454.712L388.41 478.963C393.569 481.875 395.392 488.417 392.48 493.577L382.147 511.891C379.235 517.05 372.693 518.873 367.533 515.962L324.554 491.71C319.394 488.799 317.572 482.256 320.483 477.097L330.817 458.783Z" fill="white"/>
<path d="M531.074 444.957C533.985 439.797 540.528 437.975 545.687 440.886L588.667 465.137C593.827 468.049 595.649 474.591 592.738 479.751L582.404 498.065C579.493 503.224 572.95 505.047 567.791 502.136L524.811 477.884C519.651 474.973 517.829 468.43 520.74 463.271L531.074 444.957Z" fill="white"/>
<path d="M476.795 541.152C479.706 535.993 486.249 534.17 491.408 537.081L534.388 561.333C539.548 564.244 541.37 570.787 538.459 575.946L528.125 594.26C525.214 599.42 518.671 601.242 513.512 598.331L470.532 574.08C465.372 571.168 463.55 564.626 466.461 559.466L476.795 541.152Z" fill="white"/>
<path d="M120.278 149.751C123.19 144.591 129.732 142.769 134.892 145.68L177.871 169.932C183.031 172.843 184.853 179.385 181.942 184.545L171.608 202.859C168.697 208.019 162.154 209.841 156.995 206.93L114.015 182.678C108.856 179.767 107.033 173.224 109.945 168.065L120.278 149.751Z" fill="white"/>
<path d="M65.9994 245.946C68.9107 240.787 75.4534 238.964 80.6128 241.875L123.592 266.127C128.752 269.038 130.574 275.581 127.663 280.74L117.329 299.055C114.418 304.214 107.875 306.037 102.716 303.125L59.7363 278.874C54.5768 275.962 52.7543 269.42 55.6656 264.26L65.9994 245.946Z" fill="white"/>
<path d="M11.7204 342.142C14.6317 336.982 21.1744 335.16 26.3338 338.071L69.3135 362.322C74.473 365.234 76.2955 371.776 73.3842 376.936L63.0503 395.25C60.1391 400.409 53.5964 402.232 48.4369 399.321L5.4573 375.069C0.297821 372.158 -1.52471 365.615 1.38657 360.456L11.7204 342.142Z" fill="white"/>
<path d="M266.257 232.12C269.168 226.961 275.711 225.138 280.87 228.049L323.85 252.301C329.009 255.212 330.832 261.755 327.921 266.914L317.587 285.228C314.675 290.388 308.133 292.21 302.973 289.299L259.994 265.048C254.834 262.136 253.012 255.594 255.923 250.434L266.257 232.12Z" fill="white"/>
<path d="M211.978 328.316C214.889 323.156 221.432 321.334 226.591 324.245L269.571 348.496C274.73 351.408 276.553 357.95 273.642 363.11L263.308 381.424C260.396 386.583 253.854 388.406 248.694 385.495L205.715 361.243C200.555 358.332 198.733 351.789 201.644 346.63L211.978 328.316Z" fill="white"/>
<path d="M157.699 424.511C160.61 419.352 167.153 417.529 172.312 420.44L215.292 444.692C220.451 447.603 222.274 454.146 219.363 459.305L209.029 477.619C206.117 482.779 199.575 484.601 194.415 481.69L151.436 457.439C146.276 454.527 144.454 447.985 147.365 442.825L157.699 424.511Z" fill="white"/>
<path d="M412.235 314.489C415.146 309.33 421.689 307.507 426.849 310.419L469.828 334.67C474.988 337.582 476.81 344.124 473.899 349.284L463.565 367.598C460.654 372.757 454.111 374.58 448.952 371.669L405.972 347.417C400.813 344.506 398.99 337.963 401.901 332.804L412.235 314.489Z" fill="white"/>
<path d="M558.214 396.859C561.125 391.699 567.667 389.877 572.827 392.788L615.807 417.04C620.966 419.951 622.789 426.494 619.877 431.653L609.543 449.967C606.632 455.127 600.09 456.949 594.93 454.038L551.95 429.786C546.791 426.875 544.968 420.332 547.88 415.173L558.214 396.859Z" fill="white"/>
<path d="M357.956 410.685C360.867 405.525 367.41 403.703 372.57 406.614L415.549 430.866C420.709 433.777 422.531 440.32 419.62 445.479L409.286 463.793C406.375 468.953 399.832 470.775 394.673 467.864L351.693 443.612C346.534 440.701 344.711 434.158 347.622 428.999L357.956 410.685Z" fill="white"/>
<path d="M303.677 506.88C306.588 501.721 313.131 499.898 318.291 502.81L361.27 527.061C366.43 529.972 368.252 536.515 365.341 541.675L355.007 559.989C352.096 565.148 345.553 566.971 340.394 564.059L297.414 539.808C292.255 536.897 290.432 530.354 293.343 525.194L303.677 506.88Z" fill="white"/>
<path d="M503.935 493.054C506.846 487.895 513.388 486.072 518.548 488.984L561.528 513.235C566.687 516.146 568.51 522.689 565.598 527.848L555.264 546.163C552.353 551.322 545.811 553.145 540.651 550.233L497.671 525.982C492.512 523.071 490.689 516.528 493.601 511.368L503.935 493.054Z" fill="white"/>
<path d="M449.656 589.25C452.567 584.09 459.109 582.268 464.269 585.179L507.249 609.431C512.408 612.342 514.231 618.884 511.319 624.044L500.985 642.358C498.074 647.518 491.532 649.34 486.372 646.429L443.392 622.177C438.233 619.266 436.41 612.723 439.322 607.564L449.656 589.25Z" fill="white"/>
<path d="M274.686 46.6422C277.597 41.4827 284.14 39.6602 289.3 42.5714L332.279 66.823C337.439 69.7343 339.261 76.2769 336.35 81.4364L326.016 99.7506C323.105 104.91 316.562 106.733 311.403 103.821L268.423 79.5697C263.263 76.6584 261.441 70.1158 264.352 64.9563L274.686 46.6422Z" fill="white"/>
<path d="M420.665 129.012C423.576 123.852 430.118 122.03 435.278 124.941L478.258 149.192C483.417 152.104 485.24 158.646 482.328 163.806L471.994 182.12C469.083 187.279 462.54 189.102 457.381 186.191L414.401 161.939C409.242 159.028 407.419 152.485 410.331 147.326L420.665 129.012Z" fill="white"/>
<path d="M566.643 211.381C569.554 206.221 576.097 204.399 581.256 207.31L624.236 231.562C629.395 234.473 631.218 241.016 628.307 246.175L617.973 264.489C615.061 269.649 608.519 271.471 603.359 268.56L560.38 244.308C555.22 241.397 553.398 234.855 556.309 229.695L566.643 211.381Z" fill="white"/>
<path d="M712.621 293.75C715.533 288.591 722.075 286.768 727.235 289.68L770.214 313.931C775.374 316.842 777.196 323.385 774.285 328.544L763.951 346.859C761.04 352.018 754.497 353.841 749.338 350.929L706.358 326.678C701.199 323.767 699.376 317.224 702.287 312.064L712.621 293.75Z" fill="white"/>
<path d="M247.547 94.7399C250.458 89.5804 257.001 87.7579 262.16 90.6692L305.14 114.921C310.299 117.832 312.122 124.375 309.21 129.534L298.877 147.848C295.965 153.008 289.423 154.83 284.263 151.919L241.283 127.667C236.124 124.756 234.301 118.214 237.213 113.054L247.547 94.7399Z" fill="white"/>
<path d="M393.525 177.109C396.436 171.95 402.979 170.127 408.138 173.039L451.118 197.29C456.278 200.201 458.1 206.744 455.189 211.904L444.855 230.218C441.944 235.377 435.401 237.2 430.242 234.288L387.262 210.037C382.102 207.126 380.28 200.583 383.191 195.423L393.525 177.109Z" fill="white"/>
<path d="M539.503 259.479C542.415 254.319 548.957 252.497 554.117 255.408L597.096 279.659C602.256 282.571 604.078 289.113 601.167 294.273L590.833 312.587C587.922 317.746 581.379 319.569 576.22 316.658L533.24 292.406C528.081 289.495 526.258 282.952 529.169 277.793L539.503 259.479Z" fill="white"/>
<path d="M685.482 341.848C688.393 336.689 694.936 334.866 700.095 337.777L743.075 362.029C748.234 364.94 750.057 371.483 747.146 376.642L736.812 394.956C733.9 400.116 727.358 401.938 722.198 399.027L679.219 374.776C674.059 371.864 672.237 365.322 675.148 360.162L685.482 341.848Z" fill="white"/>
<path d="M220.407 142.838C223.318 137.678 229.861 135.856 235.021 138.767L278 163.018C283.16 165.93 284.982 172.472 282.071 177.632L271.737 195.946C268.826 201.105 262.283 202.928 257.124 200.017L214.144 175.765C208.985 172.854 207.162 166.311 210.073 161.152L220.407 142.838Z" fill="white"/>
<path d="M166.128 239.033C169.039 233.874 175.582 232.051 180.742 234.962L223.721 259.214C228.881 262.125 230.703 268.668 227.792 273.827L217.458 292.141C214.547 297.301 208.004 299.123 202.845 296.212L159.865 271.961C154.706 269.049 152.883 262.507 155.794 257.347L166.128 239.033Z" fill="white"/>
<path d="M111.849 335.229C114.76 330.069 121.303 328.247 126.463 331.158L169.442 355.409C174.602 358.321 176.424 364.863 173.513 370.023L163.179 388.337C160.268 393.496 153.725 395.319 148.566 392.408L105.586 368.156C100.427 365.245 98.604 358.702 101.515 353.543L111.849 335.229Z" fill="white"/>
<path d="M366.386 225.207C369.297 220.048 375.839 218.225 380.999 221.136L423.979 245.388C429.138 248.299 430.961 254.842 428.049 260.001L417.715 278.315C414.804 283.475 408.262 285.297 403.102 282.386L360.122 258.135C354.963 255.223 353.14 248.681 356.052 243.521L366.386 225.207Z" fill="white"/>
<path d="M312.107 321.402C315.018 316.243 321.56 314.42 326.72 317.332L369.7 341.583C374.859 344.495 376.682 351.037 373.77 356.197L363.436 374.511C360.525 379.67 353.983 381.493 348.823 378.582L305.843 354.33C300.684 351.419 298.861 344.876 301.773 339.717L312.107 321.402Z" fill="white"/>
<path d="M257.828 417.598C260.739 412.438 267.281 410.616 272.441 413.527L315.421 437.779C320.58 440.69 322.403 447.233 319.491 452.392L309.157 470.706C306.246 475.866 299.704 477.688 294.544 474.777L251.564 450.525C246.405 447.614 244.582 441.072 247.494 435.912L257.828 417.598Z" fill="white"/>
<path d="M512.364 307.576C515.275 302.417 521.818 300.594 526.977 303.506L569.957 327.757C575.116 330.668 576.939 337.211 574.028 342.371L563.694 360.685C560.782 365.844 554.24 367.667 549.08 364.755L506.101 340.504C500.941 337.593 499.119 331.05 502.03 325.891L512.364 307.576Z" fill="white"/>
<path d="M658.342 389.946C661.254 384.786 667.796 382.964 672.956 385.875L715.935 410.127C721.095 413.038 722.917 419.58 720.006 424.74L709.672 443.054C706.761 448.214 700.218 450.036 695.059 447.125L652.079 422.873C646.92 419.962 645.097 413.419 648.008 408.26L658.342 389.946Z" fill="white"/>
<path d="M458.085 403.772C460.996 398.612 467.539 396.79 472.698 399.701L515.678 423.953C520.837 426.864 522.66 433.407 519.749 438.566L509.415 456.88C506.503 462.04 499.961 463.862 494.801 460.951L451.822 436.699C446.662 433.788 444.84 427.245 447.751 422.086L458.085 403.772Z" fill="white"/>
<path d="M403.806 499.967C406.717 494.808 413.26 492.985 418.419 495.897L461.399 520.148C466.558 523.059 468.381 529.602 465.47 534.762L455.136 553.076C452.224 558.235 445.682 560.058 440.522 557.146L397.543 532.895C392.383 529.984 390.561 523.441 393.472 518.281L403.806 499.967Z" fill="white"/>
<path d="M604.063 486.141C606.975 480.982 613.517 479.159 618.677 482.07L661.656 506.322C666.816 509.233 668.638 515.776 665.727 520.935L655.393 539.25C652.482 544.409 645.939 546.232 640.78 543.32L597.8 519.069C592.641 516.157 590.818 509.615 593.729 504.455L604.063 486.141Z" fill="white"/>
<path d="M549.784 582.337C552.696 577.177 559.238 575.355 564.398 578.266L607.377 602.518C612.537 605.429 614.359 611.971 611.448 617.131L601.114 635.445C598.203 640.605 591.66 642.427 586.501 639.516L543.521 615.264C538.362 612.353 536.539 605.81 539.45 600.651L549.784 582.337Z" fill="white"/>
<path d="M193.268 190.935C196.179 185.776 202.722 183.953 207.881 186.865L250.861 211.116C256.02 214.028 257.843 220.57 254.931 225.73L244.598 244.044C241.686 249.203 235.144 251.026 229.984 248.114L187.004 223.863C181.845 220.952 180.022 214.409 182.934 209.25L193.268 190.935Z" fill="white"/>
<path d="M138.989 287.131C141.9 281.971 148.443 280.149 153.602 283.06L196.582 307.312C201.741 310.223 203.564 316.766 200.652 321.925L190.319 340.239C187.407 345.399 180.865 347.221 175.705 344.31L132.725 320.058C127.566 317.147 125.743 310.604 128.655 305.445L138.989 287.131Z" fill="white"/>
<path d="M84.7096 383.326C87.6209 378.167 94.1635 376.344 99.323 379.256L142.303 403.507C147.462 406.418 149.285 412.961 146.373 418.121L136.04 436.435C133.128 441.594 126.586 443.417 121.426 440.505L78.4465 416.254C73.287 413.343 71.4645 406.8 74.3758 401.64L84.7096 383.326Z" fill="white"/>
<path d="M339.246 273.305C342.157 268.145 348.7 266.323 353.859 269.234L396.839 293.486C401.999 296.397 403.821 302.94 400.91 308.099L390.576 326.413C387.665 331.573 381.122 333.395 375.963 330.484L332.983 306.232C327.823 303.321 326.001 296.778 328.912 291.619L339.246 273.305Z" fill="white"/>
<path d="M284.967 369.5C287.878 364.341 294.421 362.518 299.58 365.429L342.56 389.681C347.72 392.592 349.542 399.135 346.631 404.294L336.297 422.609C333.386 427.768 326.843 429.591 321.684 426.679L278.704 402.428C273.544 399.516 271.722 392.974 274.633 387.814L284.967 369.5Z" fill="white"/>
<path d="M230.688 465.696C233.599 460.536 240.142 458.714 245.301 461.625L288.281 485.877C293.441 488.788 295.263 495.33 292.352 500.49L282.018 518.804C279.107 523.964 272.564 525.786 267.405 522.875L224.425 498.623C219.265 495.712 217.443 489.169 220.354 484.01L230.688 465.696Z" fill="white"/>
<path d="M485.224 355.674C488.136 350.515 494.678 348.692 499.838 351.603L542.817 375.855C547.977 378.766 549.799 385.309 546.888 390.468L536.554 408.782C533.643 413.942 527.1 415.764 521.941 412.853L478.961 388.602C473.802 385.69 471.979 379.148 474.89 373.988L485.224 355.674Z" fill="white"/>
<path d="M631.203 438.043C634.114 432.884 640.657 431.061 645.816 433.973L688.796 458.224C693.955 461.136 695.778 467.678 692.867 472.838L682.533 491.152C679.621 496.311 673.079 498.134 667.919 495.223L624.94 470.971C619.78 468.06 617.958 461.517 620.869 456.358L631.203 438.043Z" fill="white"/>
<path d="M430.945 451.87C433.857 446.71 440.399 444.888 445.559 447.799L488.538 472.05C493.698 474.962 495.52 481.504 492.609 486.664L482.275 504.978C479.364 510.137 472.821 511.96 467.662 509.049L424.682 484.797C419.523 481.886 417.7 475.343 420.612 470.184L430.945 451.87Z" fill="white"/>
<path d="M376.666 548.065C379.578 542.906 386.12 541.083 391.28 543.994L434.259 568.246C439.419 571.157 441.241 577.7 438.33 582.859L427.996 601.173C425.085 606.333 418.542 608.155 413.383 605.244L370.403 580.993C365.244 578.081 363.421 571.539 366.333 566.379L376.666 548.065Z" fill="white"/>
<path d="M576.924 534.239C579.835 529.079 586.378 527.257 591.537 530.168L634.517 554.42C639.676 557.331 641.499 563.874 638.588 569.033L628.254 587.347C625.342 592.507 618.8 594.329 613.64 591.418L570.661 567.166C565.501 564.255 563.679 557.713 566.59 552.553L576.924 534.239Z" fill="white"/>
<path d="M522.645 630.434C525.556 625.275 532.099 623.452 537.258 626.364L580.238 650.615C585.397 653.527 587.22 660.069 584.309 665.229L573.975 683.543C571.063 688.702 564.521 690.525 559.361 687.613L516.382 663.362C511.222 660.451 509.4 653.908 512.311 648.749L522.645 630.434Z" fill="white"/>
</svg>
