<svg width="15" height="15" viewBox="0 0 15 15" fill="none" xmlns="http://www.w3.org/2000/svg">
<path d="M5.96041 8.12465H4.58108C4.43344 8.54157 4.14317 8.89288 3.76156 9.11648C3.37996 9.34008 2.93159 9.42157 2.49571 9.34656C2.05983 9.27155 1.6645 9.04487 1.37959 8.70657C1.09468 8.36827 0.938538 7.94014 0.938759 7.49785C0.93898 7.05557 1.09555 6.6276 1.3808 6.28958C1.66605 5.95157 2.0616 5.72528 2.49756 5.6507C2.93352 5.57613 3.3818 5.65808 3.76318 5.88206C4.14456 6.10604 4.43448 6.45763 4.58171 6.8747H5.96041L8.12533 3.12484H10.1065C10.2537 2.70777 10.5436 2.35617 10.925 2.13219C11.3064 1.90821 11.7547 1.82627 12.1907 1.90084C12.6266 1.97541 13.0222 2.20171 13.3074 2.53972C13.5927 2.87773 13.7492 3.3057 13.7495 3.74799C13.7497 4.19028 13.5935 4.61841 13.3086 4.95671C13.0237 5.295 12.6284 5.52169 12.1925 5.5967C11.7566 5.67171 11.3083 5.59021 10.9266 5.36661C10.545 5.14301 10.2548 4.79171 10.1071 4.37479H8.84655L7.04287 7.49905L8.84718 10.6246H10.1071C10.2546 10.2076 10.5447 9.85612 10.9262 9.63233C11.3076 9.40854 11.756 9.32682 12.1919 9.40161C12.6278 9.4764 13.0233 9.70289 13.3083 10.041C13.5934 10.3792 13.7498 10.8073 13.7498 11.2495C13.7498 11.6918 13.5934 12.1199 13.3083 12.458C13.0233 12.7962 12.6278 13.0227 12.1919 13.0975C11.756 13.1723 11.3076 13.0905 10.9262 12.8668C10.5447 12.643 10.2546 12.2915 10.1071 11.8745H8.12533L5.96041 8.12465ZM11.8752 10.6246C11.7094 10.6246 11.5505 10.6904 11.4333 10.8076C11.3161 10.9248 11.2502 11.0838 11.2502 11.2495C11.2502 11.4153 11.3161 11.5743 11.4333 11.6915C11.5505 11.8087 11.7094 11.8745 11.8752 11.8745C12.0409 11.8745 12.1999 11.8087 12.3171 11.6915C12.4343 11.5743 12.5002 11.4153 12.5002 11.2495C12.5002 11.0838 12.4343 10.9248 12.3171 10.8076C12.1999 10.6904 12.0409 10.6246 11.8752 10.6246ZM2.81302 6.8747C2.64727 6.8747 2.4883 6.94054 2.37109 7.05775C2.25389 7.17496 2.18804 7.33392 2.18804 7.49968C2.18804 7.66543 2.25389 7.8244 2.37109 7.9416C2.4883 8.05881 2.64727 8.12465 2.81302 8.12465C2.97877 8.12465 3.13774 8.05881 3.25495 7.9416C3.37215 7.8244 3.438 7.66543 3.438 7.49968C3.438 7.33392 3.37215 7.17496 3.25495 7.05775C3.13774 6.94054 2.97877 6.8747 2.81302 6.8747ZM11.8752 3.12484C11.7094 3.12484 11.5505 3.19068 11.4333 3.30789C11.3161 3.42509 11.2502 3.58406 11.2502 3.74981C11.2502 3.91557 11.3161 4.07453 11.4333 4.19174C11.5505 4.30894 11.7094 4.37479 11.8752 4.37479C12.0409 4.37479 12.1999 4.30894 12.3171 4.19174C12.4343 4.07453 12.5002 3.91557 12.5002 3.74981C12.5002 3.58406 12.4343 3.42509 12.3171 3.30789C12.1999 3.19068 12.0409 3.12484 11.8752 3.12484Z" fill="#A0A0A0"/>
</svg>
