<svg width="26" height="24" viewBox="0 0 26 24" fill="none" xmlns="http://www.w3.org/2000/svg">
<rect width="26" height="24" rx="8" fill="#23BDEE"/>
<g clip-path="url(#clip0_1003_19191)">
<path d="M9.42479 5.3999C9.14272 5.3999 8.91406 5.61097 8.91406 5.87134V6.81419H9.93548V5.87134C9.93548 5.61097 9.70683 5.3999 9.42479 5.3999Z" fill="white"/>
<path d="M16.5742 5.3999C16.2921 5.3999 16.0635 5.61097 16.0635 5.87134V6.81419H17.0849V5.87134C17.0849 5.61097 16.8563 5.3999 16.5742 5.3999Z" fill="white"/>
<path d="M18.6175 6.81396H17.0853V8.69969C17.0853 8.96006 16.8567 9.17113 16.5746 9.17113C16.2925 9.17113 16.0639 8.96006 16.0639 8.69969V6.81396H9.93531V8.69969C9.93531 8.96006 9.70666 9.17113 9.42459 9.17113C9.14252 9.17113 8.91386 8.96006 8.91386 8.69969V6.81396H7.38175C6.53557 6.81396 5.84961 7.44716 5.84961 8.22825V17.1854C5.84961 17.9665 6.53557 18.5997 7.38175 18.5997H18.6175C19.4636 18.5997 20.1496 17.9665 20.1496 17.1854V8.22825C20.1496 7.44716 19.4636 6.81396 18.6175 6.81396ZM19.1282 17.1854C19.1282 17.4458 18.8995 17.6568 18.6174 17.6568H7.38175C7.09968 17.6568 6.87103 17.4458 6.87103 17.1854V11.0568H19.1282V17.1854Z" fill="white"/>
<path d="M9.93546 12H8.91405C8.63197 12 8.40332 12.2111 8.40332 12.4714C8.40332 12.7318 8.63197 12.9429 8.91405 12.9429H9.93546C10.2175 12.9429 10.4462 12.7318 10.4462 12.4714C10.4462 12.2111 10.2175 12 9.93546 12Z" fill="white"/>
<path d="M13.5107 12H12.4892C12.2072 12 11.9785 12.2111 11.9785 12.4714C11.9785 12.7318 12.2072 12.9429 12.4892 12.9429H13.5107C13.7927 12.9429 14.0214 12.7318 14.0214 12.4714C14.0214 12.2111 13.7927 12 13.5107 12Z" fill="white"/>
<path d="M17.0849 12H16.0635C15.7814 12 15.5527 12.2111 15.5527 12.4714C15.5527 12.7318 15.7814 12.9429 16.0635 12.9429H17.0849C17.3669 12.9429 17.5956 12.7318 17.5956 12.4714C17.5956 12.2111 17.3669 12 17.0849 12Z" fill="white"/>
<path d="M9.93546 13.8857H8.91405C8.63197 13.8857 8.40332 14.0968 8.40332 14.3572C8.40332 14.6176 8.63197 14.8286 8.91405 14.8286H9.93546C10.2175 14.8286 10.4462 14.6176 10.4462 14.3572C10.4462 14.0968 10.2175 13.8857 9.93546 13.8857Z" fill="white"/>
<path d="M13.5107 13.8857H12.4892C12.2072 13.8857 11.9785 14.0968 11.9785 14.3572C11.9785 14.6176 12.2072 14.8286 12.4892 14.8286H13.5107C13.7927 14.8286 14.0214 14.6176 14.0214 14.3572C14.0214 14.0968 13.7927 13.8857 13.5107 13.8857Z" fill="white"/>
<path d="M17.0849 13.8857H16.0635C15.7814 13.8857 15.5527 14.0968 15.5527 14.3572C15.5527 14.6176 15.7814 14.8286 16.0635 14.8286H17.0849C17.3669 14.8286 17.5956 14.6176 17.5956 14.3572C17.5956 14.0968 17.3669 13.8857 17.0849 13.8857Z" fill="white"/>
<path d="M9.93546 15.7715H8.91405C8.63197 15.7715 8.40332 15.9825 8.40332 16.2429C8.40332 16.5033 8.63197 16.7143 8.91405 16.7143H9.93546C10.2175 16.7143 10.4462 16.5033 10.4462 16.2429C10.4462 15.9825 10.2175 15.7715 9.93546 15.7715Z" fill="white"/>
<path d="M13.5107 15.7715H12.4892C12.2072 15.7715 11.9785 15.9825 11.9785 16.2429C11.9785 16.5033 12.2072 16.7144 12.4892 16.7144H13.5107C13.7927 16.7144 14.0214 16.5033 14.0214 16.2429C14.0214 15.9825 13.7927 15.7715 13.5107 15.7715Z" fill="white"/>
<path d="M17.0849 15.7715H16.0635C15.7814 15.7715 15.5527 15.9825 15.5527 16.2429C15.5527 16.5033 15.7814 16.7144 16.0635 16.7144H17.0849C17.3669 16.7144 17.5956 16.5033 17.5956 16.2429C17.5956 15.9825 17.3669 15.7715 17.0849 15.7715Z" fill="white"/>
</g>
<defs>
<clipPath id="clip0_1003_19191">
<rect width="14.3" height="13.2" fill="white" transform="translate(5.84961 5.3999)"/>
</clipPath>
</defs>
</svg>
