<svg width="70" height="70" viewBox="0 0 70 70" fill="none" xmlns="http://www.w3.org/2000/svg">
<path d="M60.6414 11.1777C47.4847 -2.98372 25.339 -3.7982 11.1777 9.35846C-2.98372 22.5151 -3.7982 44.6608 9.35846 58.8221C22.5151 72.9835 44.6608 73.798 58.8221 60.6414C72.9835 47.4847 73.798 25.339 60.6414 11.1777ZM12.3437 56.0487C0.718781 43.536 1.43844 23.9686 13.9511 12.3437C26.4638 0.718781 46.0312 1.43844 57.6561 13.9511C69.281 26.4638 68.5614 46.0312 56.0487 57.6561C43.536 69.281 23.9686 68.5614 12.3437 56.0487Z" fill="white" fill-opacity="0.06"/>
<path d="M50.7823 3.76052C45.0378 0.858375 38.6044 -0.403651 32.1893 0.113185C25.7741 0.630021 19.6257 2.9057 14.4199 6.69005C9.21418 10.4744 5.15268 15.6209 2.68196 21.5636C0.21123 27.5064 -0.573047 34.0154 0.415348 40.375C1.40374 46.7346 4.12654 52.6985 8.28439 57.611C12.4422 62.5236 17.8741 66.1946 23.9829 68.2205C30.0917 70.2464 36.6407 70.5486 42.9101 69.094C49.1795 67.6395 54.9265 64.4844 59.5192 59.9757L56.8059 57.2119C52.7214 61.2217 47.6105 64.0276 42.0348 65.3212C36.4592 66.6149 30.6348 66.346 25.202 64.5444C19.7692 62.7427 14.9384 59.4779 11.2407 55.1089C7.54294 50.74 5.12145 45.436 4.24242 39.7802C3.3634 34.1243 4.06089 28.3356 6.25821 23.0505C8.45553 17.7653 12.0676 13.1884 16.6973 9.82278C21.327 6.4572 26.795 4.43334 32.5003 3.9737C38.2055 3.51405 43.9271 4.63643 49.0358 7.21742L50.7823 3.76052Z" fill="#FFB656"/>
</svg>
