<svg width="17" height="16" viewBox="0 0 17 16" fill="none" xmlns="http://www.w3.org/2000/svg">
<path d="M8.0034 5.3322C6.53341 5.3322 5.3338 6.53101 5.3338 8C5.3338 9.46899 6.53341 10.6678 8.0034 10.6678C9.47338 10.6678 10.673 9.46899 10.673 8C10.673 6.53101 9.47338 5.3322 8.0034 5.3322ZM16.0102 8C16.0102 6.89525 16.0202 5.80051 15.9581 4.69777C15.8961 3.4169 15.6037 2.28014 14.6664 1.3435C13.7271 0.404868 12.5916 0.114672 11.3099 0.0526304C10.2044 -0.0094115 9.10889 0.000595291 8.0054 0.000595291C6.89991 0.000595291 5.80443 -0.0094115 4.70094 0.0526304C3.41921 0.114672 2.28168 0.40687 1.34441 1.3435C0.405142 2.28214 0.11475 3.4169 0.052666 4.69777C-0.00941786 5.80252 0.000595692 6.89725 0.000595692 8C0.000595692 9.10275 -0.00941786 10.1995 0.052666 11.3022C0.11475 12.5831 0.407145 13.7199 1.34441 14.6565C2.28368 15.5951 3.41921 15.8853 4.70094 15.9474C5.80643 16.0094 6.90191 15.9994 8.0054 15.9994C9.11089 15.9994 10.2064 16.0094 11.3099 15.9474C12.5916 15.8853 13.7291 15.5931 14.6664 14.6565C15.6057 13.7179 15.8961 12.5831 15.9581 11.3022C16.0222 10.1995 16.0102 9.10475 16.0102 8ZM8.0034 12.1048C5.73033 12.1048 3.89585 10.2715 3.89585 8C3.89585 5.72847 5.73033 3.89523 8.0034 3.89523C10.2765 3.89523 12.1109 5.72847 12.1109 8C12.1109 10.2715 10.2765 12.1048 8.0034 12.1048ZM12.2792 4.68576C11.7485 4.68576 11.3199 4.25747 11.3199 3.72711C11.3199 3.19675 11.7485 2.76847 12.2792 2.76847C12.8099 2.76847 13.2385 3.19675 13.2385 3.72711C13.2386 3.85305 13.2139 3.97778 13.1658 4.09416C13.1176 4.21054 13.047 4.31628 12.9578 4.40533C12.8687 4.49438 12.7629 4.56499 12.6465 4.61311C12.53 4.66123 12.4052 4.68592 12.2792 4.68576Z" fill="#F8F8F8"/>
</svg>
