<svg width="798" height="678" viewBox="0 0 798 678" fill="none" xmlns="http://www.w3.org/2000/svg">
<path d="M0 16C0 24.8365 7.16343 32 16 32C24.8365 32 32 24.8365 32 16C32 7.16343 24.8365 0 16 0C7.16343 0 0 7.16343 0 16ZM121.482 463.594L119.412 465.765L119.412 465.765L121.482 463.594ZM792.076 675.676C792.45 677.29 794.061 678.295 795.675 677.922C797.29 677.548 798.295 675.937 797.922 674.322L792.076 675.676ZM664.572 463.594L662.917 466.096V466.096L664.572 463.594ZM345.226 306.041L344.498 308.951H344.498L345.226 306.041ZM13.2464 22.0483C13.3204 23.7035 14.7222 24.9853 16.3774 24.9113C18.0326 24.8373 19.3144 23.4355 19.2404 21.7803L13.2464 22.0483ZM19.8494 34.0655C19.7603 32.4111 18.3469 31.1421 16.6925 31.2311C15.038 31.3202 13.769 32.7336 13.8581 34.388L19.8494 34.0655ZM14.5654 46.6949C14.6662 48.3486 16.0885 49.6076 17.7423 49.5068C19.3961 49.406 20.655 47.9836 20.5542 46.3298L14.5654 46.6949ZM21.3439 58.6268C21.2325 56.9737 19.802 55.7239 18.1489 55.8353C16.4958 55.9468 15.2461 57.3772 15.3575 59.0303L21.3439 58.6268ZM16.2229 71.3089C16.3444 72.9613 17.7824 74.2024 19.4348 74.0809C21.0872 73.9594 22.3282 72.5214 22.2067 70.869L16.2229 71.3089ZM23.1409 83.0796C23.0097 81.428 21.5643 80.1955 19.9127 80.3268C18.261 80.458 17.0285 81.9034 17.1598 83.555L23.1409 83.0796ZM18.1695 95.8022C18.3104 97.453 19.763 98.677 21.4139 98.536C23.0647 98.3951 24.2887 96.9425 24.1477 95.2916L18.1695 95.8022ZM25.229 107.527C25.0783 105.877 23.6185 104.662 21.9685 104.812C20.3185 104.963 19.1032 106.423 19.2539 108.073L25.229 107.527ZM20.4153 120.376C20.576 122.025 22.0431 123.232 23.6921 123.071C25.3411 122.91 26.5477 121.443 26.387 119.794L20.4153 120.376ZM27.6149 132.01C27.4441 130.362 25.9697 129.165 24.3217 129.336C22.6737 129.506 21.4761 130.981 21.6469 132.629L27.6149 132.01ZM22.9483 144.82C23.1293 146.466 24.6112 147.655 26.2581 147.474C27.905 147.293 29.0934 145.811 28.9123 144.164L22.9483 144.82ZM30.294 156.372C30.1024 154.726 28.6128 153.547 26.9671 153.739C25.3214 153.931 24.1427 155.42 24.3343 157.066L30.294 156.372ZM25.805 169.336C26.0078 170.98 27.5052 172.149 29.1496 171.946C30.794 171.744 31.9627 170.246 31.7599 168.602L25.805 169.336ZM33.2965 180.722C33.0824 179.079 31.5769 177.92 29.9339 178.135C28.291 178.349 27.1327 179.854 27.3468 181.497L33.2965 180.722ZM28.983 193.709C29.2091 195.35 30.7229 196.497 32.3643 196.271C34.0056 196.045 35.153 194.532 34.9269 192.89L28.983 193.709ZM36.6495 205.059C36.411 203.419 34.8885 202.283 33.2489 202.522C31.6093 202.76 30.4735 204.283 30.7121 205.922L36.6495 205.059ZM32.5291 218.075C32.7807 219.712 34.3122 220.836 35.9499 220.584C37.5875 220.333 38.7111 218.801 38.4595 217.164L32.5291 218.075ZM40.3743 229.289C40.1089 227.653 38.5679 226.542 36.9325 226.808C35.297 227.073 34.1864 228.614 34.4518 230.25L40.3743 229.289ZM36.4784 242.397C36.7584 244.03 38.3092 245.127 39.9423 244.847C41.5753 244.567 42.6721 243.016 42.3921 241.383L36.4784 242.397ZM44.5208 253.457C44.2253 251.826 42.6641 250.744 41.0338 251.04C39.4035 251.335 38.3215 252.897 38.617 254.527L44.5208 253.457ZM40.8754 266.639C41.1874 268.266 42.7595 269.332 44.3867 269.02C46.0139 268.708 47.08 267.136 46.768 265.509L40.8754 266.639ZM49.1409 277.533C48.8111 275.91 47.2276 274.861 45.6039 275.19C43.9802 275.52 42.9312 277.104 43.2609 278.727L49.1409 277.533ZM45.7848 290.798C46.1335 292.418 47.7293 293.448 49.349 293.1C50.9687 292.751 51.9991 291.155 51.6504 289.535L45.7848 290.798ZM54.2983 301.472C53.9292 299.857 52.3205 298.847 50.7053 299.216C49.0901 299.585 48.08 301.194 48.4492 302.809L54.2983 301.472ZM51.2844 314.835C51.6759 316.445 53.2983 317.433 54.9083 317.042C56.5182 316.65 57.506 315.028 57.1145 313.418L51.2844 314.835ZM60.0962 325.295C59.6805 323.691 58.0433 322.728 56.4395 323.144C54.8356 323.56 53.8724 325.197 54.2882 326.801L60.0962 325.295ZM57.4716 338.683C57.9139 340.28 59.5668 341.216 61.1635 340.774C62.7603 340.332 63.6962 338.679 63.254 337.082L57.4716 338.683ZM66.638 348.883C66.1663 347.295 64.4964 346.39 62.9081 346.861C61.3198 347.333 60.4146 349.003 60.8862 350.591L66.638 348.883ZM64.5209 362.393C65.0252 363.972 66.7134 364.842 68.2916 364.338C69.8699 363.834 70.7406 362.146 70.2363 360.567L64.5209 362.393ZM74.0666 372.105C73.5261 370.539 71.8183 369.707 70.2521 370.248C68.6858 370.788 67.8543 372.496 68.3948 374.062L74.0666 372.105ZM72.6015 385.759C73.1833 387.31 74.9126 388.096 76.4639 387.514C78.0153 386.932 78.8012 385.203 78.2194 383.652L72.6015 385.759ZM82.6776 395.023C82.0489 393.491 80.2966 392.757 78.7636 393.386C77.2307 394.015 76.4977 395.767 77.1264 397.3L82.6776 395.023ZM82.0127 408.655C82.695 410.165 84.4721 410.835 85.982 410.153C87.4918 409.471 88.1625 407.694 87.4802 406.184L82.0127 408.655ZM92.6899 417.117C91.9453 415.637 90.1419 415.041 88.6617 415.785C87.1816 416.53 86.5853 418.333 87.3299 419.814L92.6899 417.117ZM93.2148 430.834C94.033 432.275 95.8642 432.78 97.305 431.961C98.7457 431.143 99.2504 429.312 98.4322 427.871L93.2148 430.834ZM104.732 438.235C103.826 436.848 101.967 436.456 100.58 437.362C99.1921 438.267 98.8009 440.126 99.7062 441.513L104.732 438.235ZM106.929 451.741C107.938 453.056 109.821 453.304 111.136 452.295C112.45 451.286 112.698 449.403 111.689 448.088L106.929 451.741ZM119.422 457.248C118.29 456.037 116.392 455.974 115.182 457.105C113.972 458.237 113.908 460.135 115.039 461.346L119.422 457.248ZM123.927 469.959C125.155 471.07 127.053 470.975 128.164 469.747C129.276 468.518 129.181 466.621 127.952 465.509L123.927 469.959ZM136.952 473.217C135.663 472.175 133.774 472.374 132.732 473.663C131.69 474.951 131.89 476.84 133.178 477.882L136.952 473.217ZM142.881 485.263C144.23 486.225 146.104 485.912 147.066 484.563C148.028 483.214 147.714 481.34 146.366 480.378L142.881 485.263ZM156.191 486.915C154.782 486.044 152.933 486.48 152.062 487.89C151.191 489.299 151.627 491.148 153.037 492.019L156.191 486.915ZM163.642 498.068C165.11 498.837 166.923 498.27 167.691 496.802C168.46 495.334 167.893 493.521 166.425 492.753L163.642 498.068ZM177.096 497.835C175.573 497.181 173.809 497.885 173.155 499.407C172.5 500.929 173.204 502.693 174.726 503.348L177.096 497.835ZM186.169 507.738C187.739 508.269 189.441 507.427 189.972 505.857C190.503 504.288 189.661 502.585 188.092 502.054L186.169 507.738ZM199.366 505.361C197.758 504.96 196.13 505.939 195.729 507.546C195.329 509.154 196.307 510.782 197.915 511.183L199.366 505.361ZM209.949 513.658C211.584 513.925 213.126 512.816 213.392 511.18C213.659 509.545 212.55 508.003 210.914 507.737L209.949 513.658ZM222.585 509.156C220.933 509.022 219.486 510.252 219.352 511.904C219.218 513.555 220.448 515.003 222.1 515.137L222.585 509.156ZM234.357 515.65C236.014 515.655 237.361 514.317 237.367 512.66C237.373 511.003 236.035 509.655 234.378 509.65L234.357 515.65ZM246.165 509.26C244.512 509.373 243.264 510.805 243.377 512.458C243.491 514.111 244.923 515.359 246.576 515.246L246.165 509.26ZM258.736 514.001C260.378 513.779 261.529 512.268 261.307 510.627C261.086 508.985 259.575 507.833 257.933 508.055L258.736 514.001ZM269.624 506.121C267.998 506.437 266.936 508.012 267.253 509.639C267.57 511.265 269.145 512.327 270.771 512.01L269.624 506.121ZM282.646 509.381C284.255 508.984 285.237 507.358 284.84 505.75C284.443 504.141 282.817 503.159 281.208 503.556L282.646 509.381ZM292.699 500.464C291.108 500.925 290.191 502.589 290.652 504.18C291.113 505.772 292.777 506.688 294.368 506.227L292.699 500.464ZM305.954 502.677C307.531 502.171 308.4 500.482 307.893 498.904C307.387 497.326 305.698 496.458 304.12 496.964L305.954 502.677ZM315.5 493.209C313.93 493.736 313.084 495.437 313.611 497.008C314.138 498.578 315.839 499.424 317.41 498.897L315.5 493.209ZM328.772 495.117C330.349 494.606 331.213 492.915 330.702 491.338C330.192 489.762 328.5 488.898 326.924 489.409L328.772 495.117ZM338.651 485.916C337.047 486.332 336.084 487.97 336.5 489.574C336.916 491.177 338.553 492.14 340.157 491.724L338.651 485.916ZM351.786 487.777C353.298 487.098 353.973 485.323 353.294 483.811C352.615 482.3 350.839 481.625 349.328 482.304L351.786 487.777ZM360.32 477.576C358.789 478.209 358.061 479.964 358.694 481.495C359.328 483.026 361.082 483.754 362.613 483.12L360.32 477.576ZM373.506 478.761C375.05 478.162 375.817 476.424 375.218 474.879C374.619 473.335 372.882 472.568 371.337 473.167L373.506 478.761ZM382.524 468.958C380.968 469.526 380.167 471.248 380.735 472.805C381.304 474.361 383.026 475.162 384.582 474.594L382.524 468.958ZM395.662 470.663C397.228 470.123 398.06 468.416 397.521 466.849C396.981 465.283 395.273 464.451 393.707 464.99L395.662 470.663ZM404.997 461.212C403.421 461.724 402.559 463.417 403.07 464.992C403.582 466.568 405.275 467.431 406.85 466.919L404.997 461.212ZM418.115 463.37C419.7 462.886 420.592 461.21 420.109 459.625C419.625 458.04 417.948 457.148 416.363 457.632L418.115 463.37ZM427.792 454.254C426.199 454.709 425.277 456.37 425.732 457.963C426.187 459.556 427.848 460.478 429.441 460.023L427.792 454.254ZM440.819 456.884C442.42 456.458 443.373 454.815 442.947 453.214C442.521 451.613 440.878 450.66 439.277 451.086L440.819 456.884ZM450.809 448.136C449.2 448.531 448.216 450.156 448.611 451.765C449.007 453.374 450.631 454.358 452.24 453.962L450.809 448.136ZM463.712 451.264C465.329 450.901 466.345 449.296 465.982 447.68C465.619 446.063 464.014 445.047 462.397 445.41L463.712 451.264ZM474.044 442.921C472.42 443.25 471.37 444.833 471.699 446.457C472.029 448.081 473.612 449.131 475.236 448.802L474.044 442.921ZM486.807 446.589C488.437 446.296 489.522 444.736 489.229 443.106C488.936 441.475 487.377 440.39 485.746 440.683L486.807 446.589ZM497.501 438.713C495.864 438.968 494.742 440.501 494.997 442.138C495.251 443.775 496.784 444.897 498.421 444.642L497.501 438.713ZM510.075 442.982C511.718 442.77 512.878 441.266 512.665 439.622C512.453 437.979 510.949 436.819 509.305 437.032L510.075 442.982ZM521.156 435.662C519.507 435.829 518.307 437.301 518.474 438.95C518.642 440.598 520.114 441.798 521.762 441.631L521.156 435.662ZM533.476 440.614C535.128 440.495 536.372 439.06 536.253 437.407C536.135 435.754 534.699 434.511 533.047 434.629L533.476 440.614ZM544.971 433.965C543.316 434.03 542.026 435.425 542.091 437.08C542.156 438.736 543.551 440.025 545.207 439.96L544.971 433.965ZM556.944 439.704C558.601 439.698 559.939 438.349 559.933 436.693C559.926 435.036 558.578 433.698 556.921 433.704L556.944 439.704ZM568.883 433.887C567.227 433.829 565.838 435.124 565.78 436.78C565.722 438.436 567.017 439.825 568.673 439.883L568.883 433.887ZM580.372 440.541C582.024 440.67 583.468 439.435 583.597 437.783C583.726 436.132 582.492 434.688 580.84 434.559L580.372 440.541ZM592.769 435.772C591.125 435.564 589.624 436.729 589.417 438.373C589.209 440.017 590.374 441.517 592.018 441.725L592.769 435.772ZM603.574 443.489C605.204 443.783 606.764 442.699 607.058 441.069C607.352 439.438 606.269 437.878 604.638 437.584L603.574 443.489ZM616.406 440.058C614.795 439.669 613.174 440.659 612.785 442.269C612.396 443.88 613.386 445.501 614.996 445.89L616.406 440.058ZM626.229 448.988C627.811 449.481 629.493 448.599 629.986 447.017C630.48 445.435 629.597 443.753 628.015 443.26L626.229 448.988ZM639.396 447.257C637.854 446.651 636.113 447.41 635.507 448.952C634.901 450.494 635.66 452.235 637.202 452.841L639.396 447.257ZM647.831 457.503C649.32 458.229 651.116 457.61 651.842 456.12C652.567 454.631 651.949 452.835 650.459 452.109L647.831 457.503ZM661.1 457.865C659.678 457.014 657.836 457.477 656.985 458.899C656.134 460.321 656.597 462.163 658.019 463.014L661.1 457.865ZM667.604 469.298C668.958 470.252 670.83 469.929 671.785 468.574C672.739 467.22 672.415 465.348 671.061 464.394L667.604 469.298ZM680.421 471.402C679.123 470.372 677.236 470.589 676.206 471.887C675.176 473.185 675.394 475.072 676.692 476.102L680.421 471.402ZM685.401 483.402C686.642 484.499 688.538 484.383 689.635 483.141C690.733 481.9 690.616 480.004 689.374 478.907L685.401 483.402ZM697.924 486.854C696.738 485.696 694.839 485.719 693.681 486.905C692.524 488.09 692.547 489.99 693.733 491.147L697.924 486.854ZM701.692 499.288C702.823 500.499 704.722 500.564 705.932 499.433C707.143 498.302 707.208 496.403 706.077 495.193L701.692 499.288ZM713.845 503.878C712.766 502.62 710.873 502.474 709.614 503.552C708.356 504.631 708.21 506.524 709.288 507.783L713.845 503.878ZM716.533 516.59C717.56 517.89 719.446 518.111 720.746 517.084C722.046 516.057 722.268 514.17 721.241 512.87L716.533 516.59ZM728.282 522.135C727.303 520.797 725.426 520.506 724.089 521.485C722.752 522.463 722.461 524.34 723.439 525.677L728.282 522.135ZM730.021 535.014C730.952 536.385 732.818 536.741 734.189 535.809C735.559 534.878 735.915 533.012 734.983 531.642L730.021 535.014ZM741.361 541.363C740.474 539.964 738.621 539.548 737.221 540.434C735.821 541.32 735.405 543.174 736.292 544.574L741.361 541.363ZM742.263 554.33C743.106 555.756 744.946 556.228 746.372 555.385C747.798 554.541 748.27 552.701 747.427 551.275L742.263 554.33ZM753.196 561.356C752.393 559.906 750.568 559.382 749.118 560.184C747.669 560.987 747.144 562.813 747.947 564.262L753.196 561.356ZM753.353 574.349C754.116 575.82 755.927 576.393 757.398 575.63C758.869 574.867 759.442 573.056 758.679 571.586L753.353 574.349ZM763.886 581.944C763.16 580.454 761.365 579.835 759.875 580.56C758.385 581.285 757.766 583.081 758.491 584.57L763.886 581.944ZM763.373 594.92C764.061 596.427 765.841 597.09 767.348 596.401C768.855 595.713 769.519 593.933 768.83 592.426L763.373 594.92ZM773.535 603.054C772.882 601.532 771.119 600.827 769.596 601.479C768.073 602.132 767.368 603.896 768.021 605.419L773.535 603.054ZM772.416 616.002C773.034 617.539 774.781 618.284 776.318 617.666C777.855 617.048 778.601 615.301 777.982 613.764L772.416 616.002ZM782.178 624.545C781.594 622.995 779.864 622.211 778.313 622.794C776.763 623.378 775.979 625.108 776.562 626.659L782.178 624.545ZM780.49 637.459C781.038 639.023 782.751 639.845 784.314 639.296C785.877 638.748 786.7 637.035 786.151 635.472L780.49 637.459ZM789.87 646.463C789.357 644.887 787.664 644.026 786.088 644.539C784.513 645.052 783.652 646.745 784.165 648.321L789.87 646.463ZM787.583 659.262C788.057 660.85 789.728 661.752 791.316 661.278C792.904 660.803 793.806 659.132 793.332 657.544L787.583 659.262ZM796.499 668.721C796.073 667.12 794.429 666.168 792.828 666.594C791.227 667.021 790.275 668.665 790.702 670.266L796.499 668.721ZM340.496 484.617C338.966 483.982 337.211 484.708 336.576 486.238C335.941 487.769 336.667 489.524 338.197 490.159L340.496 484.617ZM327.91 481.78C328.987 483.04 330.88 483.189 332.14 482.112C333.4 481.036 333.548 479.142 332.472 477.883L327.91 481.78ZM325.684 468.47C324.802 467.068 322.95 466.646 321.547 467.528C320.145 468.41 319.723 470.262 320.605 471.664L325.684 468.47ZM314.504 460.954C315.269 462.424 317.081 462.996 318.55 462.231C320.02 461.466 320.592 459.655 319.827 458.185L314.504 460.954ZM314.674 447.501C313.996 445.989 312.221 445.313 310.709 445.991C309.197 446.668 308.521 448.444 309.199 449.955L314.674 447.501ZM304.469 438.669C305.073 440.211 306.813 440.972 308.356 440.368C309.899 439.764 310.66 438.023 310.056 436.481L304.469 438.669ZM305.962 425.313C305.425 423.745 303.719 422.91 302.152 423.446C300.584 423.983 299.749 425.689 300.285 427.256L305.962 425.313ZM296.585 415.654C297.055 417.243 298.724 418.15 300.313 417.68C301.902 417.21 302.809 415.541 302.339 413.952L296.585 415.654ZM299.206 402.447C298.806 400.84 297.179 399.86 295.571 400.26C293.963 400.66 292.984 402.288 293.384 403.896L299.206 402.447ZM290.718 392.004C291.041 393.629 292.62 394.684 294.245 394.361C295.87 394.038 296.926 392.458 296.602 390.833L290.718 392.004ZM294.588 379.102C294.353 377.462 292.833 376.323 291.192 376.558C289.552 376.793 288.413 378.313 288.648 379.953L294.588 379.102ZM287.292 367.777C287.42 369.429 288.863 370.664 290.515 370.536C292.167 370.408 293.402 368.965 293.274 367.313L287.292 367.777ZM292.824 355.552C292.831 353.895 291.494 352.546 289.838 352.538C288.181 352.53 286.831 353.867 286.824 355.524L292.824 355.552ZM287.534 343.128C287.343 344.773 288.521 346.263 290.167 346.454C291.813 346.646 293.302 345.467 293.494 343.821L287.534 343.128ZM295.67 332.516C296.121 330.921 295.194 329.264 293.599 328.813C292.005 328.362 290.347 329.289 289.896 330.884L295.67 332.516ZM294.751 319.059C293.927 320.497 294.426 322.33 295.863 323.153C297.301 323.977 299.134 323.479 299.957 322.041L294.751 319.059ZM306.879 313.609C308.148 312.544 308.314 310.651 307.249 309.382C306.184 308.113 304.292 307.947 303.022 309.012L306.879 313.609ZM314.483 302.721C312.906 303.23 312.041 304.921 312.55 306.498C313.06 308.074 314.751 308.939 316.327 308.43L314.483 302.721ZM327.371 306.722C329.027 306.696 330.349 305.332 330.323 303.675C330.297 302.019 328.933 300.697 327.276 300.723L327.371 306.722ZM339.701 301.792C338.07 301.505 336.514 302.595 336.227 304.227C335.94 305.858 337.03 307.414 338.662 307.701L339.701 301.792ZM350 310.479C351.584 310.964 353.262 310.073 353.747 308.489C354.232 306.905 353.342 305.227 351.758 304.742L350 310.479ZM362.871 308.861C361.355 308.191 359.584 308.876 358.914 310.391C358.244 311.907 358.929 313.678 360.444 314.348L362.871 308.861ZM370.22 319.509C371.625 320.389 373.476 319.963 374.355 318.559C375.235 317.155 374.809 315.304 373.405 314.424L370.22 319.509ZM383.063 321.641C381.826 320.539 379.929 320.65 378.828 321.887C377.726 323.125 377.837 325.021 379.074 326.123L383.063 321.641ZM386.555 334.103C387.573 335.411 389.458 335.646 390.765 334.628C392.073 333.611 392.308 331.726 391.291 330.418L386.555 334.103ZM397.796 340.599C397.035 339.127 395.225 338.55 393.753 339.311C392.281 340.072 391.705 341.882 392.466 343.354L397.796 340.599ZM396.652 353.532C397.152 355.112 398.838 355.987 400.417 355.487C401.997 354.987 402.872 353.301 402.372 351.722L396.652 353.532ZM405.103 363.374C404.843 361.738 403.306 360.622 401.669 360.882C400.033 361.142 398.917 362.679 399.177 364.315L405.103 363.374ZM400.203 375.418C400.254 377.074 401.638 378.375 403.294 378.324C404.95 378.274 406.251 376.89 406.2 375.234L400.203 375.418ZM405.91 387.083C406.037 385.431 404.801 383.989 403.149 383.862C401.497 383.735 400.055 384.971 399.928 386.623L405.91 387.083ZM398.536 397.797C398.257 399.43 399.356 400.98 400.989 401.259C402.622 401.537 404.172 400.439 404.451 398.806L398.536 397.797ZM401.994 410.324C402.403 408.719 401.434 407.085 399.829 406.676C398.223 406.266 396.59 407.235 396.18 408.841L401.994 410.324ZM392.975 419.695C392.449 421.266 393.296 422.966 394.867 423.492C396.438 424.019 398.138 423.172 398.664 421.601L392.975 419.695ZM394.546 432.604C395.18 431.074 394.453 429.319 392.922 428.685C391.391 428.051 389.636 428.779 389.003 430.31L394.546 432.604ZM384.318 440.622C383.582 442.106 384.188 443.906 385.672 444.643C387.156 445.379 388.957 444.773 389.693 443.288L384.318 440.622ZM384.099 453.635C384.939 452.207 384.462 450.368 383.034 449.528C381.606 448.688 379.767 449.165 378.927 450.593L384.099 453.635ZM372.825 460.107C371.874 461.463 372.203 463.334 373.559 464.285C374.916 465.236 376.787 464.907 377.738 463.55L372.825 460.107ZM370.51 472.891C371.591 471.635 371.448 469.741 370.192 468.66C368.936 467.58 367.041 467.723 365.961 468.979L370.51 472.891ZM358.184 476.899C356.935 477.987 356.805 479.882 357.894 481.131C358.983 482.38 360.878 482.511 362.127 481.422L358.184 476.899ZM351.922 488.376C353.416 487.661 354.048 485.87 353.333 484.375C352.618 482.881 350.826 482.249 349.332 482.964L351.922 488.376ZM16 16C13.0018 16.1035 13.0018 16.1035 13.0018 16.1036C13.0018 16.1036 13.0018 16.1036 13.0018 16.1037C13.0018 16.1038 13.0018 16.1039 13.0018 16.1041C13.0018 16.1044 13.0018 16.1049 13.0018 16.1054C13.0019 16.1066 13.0019 16.1083 13.002 16.1104C13.0022 16.1147 13.0024 16.1211 13.0027 16.1294C13.0033 16.146 13.0041 16.1707 13.0053 16.2032C13.0076 16.2684 13.0111 16.3652 13.0158 16.4932C13.0253 16.7492 13.0397 17.1299 13.0594 17.6311C13.099 18.6333 13.1601 20.1171 13.2464 22.0483L19.2404 21.7803C19.1545 19.86 19.0939 18.3866 19.0548 17.3946C19.0352 16.8985 19.021 16.5228 19.0117 16.2717C19.0071 16.1462 19.0037 16.0518 19.0015 15.989C19.0003 15.9577 18.9995 15.9342 18.999 15.9188C18.9987 15.9111 18.9985 15.9053 18.9984 15.9016C18.9983 15.8997 18.9983 15.8984 18.9982 15.8975C18.9982 15.8971 18.9982 15.8968 18.9982 15.8966C18.9982 15.8965 18.9982 15.8965 18.9982 15.8964C18.9982 15.8964 18.9982 15.8964 18.9982 15.8964C18.9982 15.8964 18.9982 15.8965 16 16ZM13.8581 34.388C14.0534 38.0176 14.2875 42.1357 14.5654 46.6949L20.5542 46.3298C20.2773 41.7854 20.044 37.6815 19.8494 34.0655L13.8581 34.388ZM15.3575 59.0303C15.6191 62.9113 15.9069 67.0105 16.2229 71.3089L22.2067 70.869C21.8916 66.5831 21.6047 62.496 21.3439 58.6268L15.3575 59.0303ZM17.1598 83.555C17.4741 87.5095 17.8102 91.5958 18.1695 95.8022L24.1477 95.2916C23.7895 91.0973 23.4543 87.0228 23.1409 83.0796L17.1598 83.555ZM19.2539 108.073C19.6207 112.087 20.0075 116.191 20.4153 120.376L26.387 119.794C25.9804 115.622 25.5948 111.53 25.229 107.527L19.2539 108.073ZM21.6469 132.629C22.0617 136.633 22.4953 140.698 22.9483 144.82L28.9123 144.164C28.4607 140.056 28.0285 136.002 27.6149 132.01L21.6469 132.629ZM24.3343 157.066C24.8058 161.114 25.2958 165.206 25.805 169.336L31.7599 168.602C31.2524 164.485 30.764 160.406 30.294 156.372L24.3343 157.066ZM27.3468 181.497C27.8736 185.539 28.4188 189.612 28.983 193.709L34.9269 192.89C34.3647 188.808 33.8214 184.75 33.2965 180.722L27.3468 181.497ZM30.7121 205.922C31.2989 209.957 31.9044 214.009 32.5291 218.075L38.4595 217.164C37.8374 213.114 37.2342 209.077 36.6495 205.059L30.7121 205.922ZM34.4518 230.25C35.1079 234.292 35.7832 238.343 36.4784 242.397L42.3921 241.383C41.7 237.347 41.0276 233.314 40.3743 229.289L34.4518 230.25ZM38.617 254.527C39.3494 258.567 40.102 262.606 40.8754 266.639L46.768 265.509C45.9986 261.497 45.2497 257.478 44.5208 253.457L38.617 254.527ZM43.2609 278.727C44.0805 282.764 44.9216 286.789 45.7848 290.798L51.6504 289.535C50.7923 285.55 49.956 281.548 49.1409 277.533L43.2609 278.727ZM48.4492 302.809C49.3708 306.841 50.3156 310.851 51.2844 314.835L57.1145 313.418C56.1525 309.462 55.214 305.478 54.2983 301.472L48.4492 302.809ZM54.2882 326.801C55.3237 330.796 56.3847 334.759 57.4716 338.683L63.254 337.082C62.1762 333.19 61.1238 329.26 60.0962 325.295L54.2882 326.801ZM60.8862 350.591C62.0689 354.574 63.2802 358.51 64.5209 362.393L70.2363 360.567C69.0087 356.725 67.8095 352.828 66.638 348.883L60.8862 350.591ZM68.3948 374.062C69.7633 378.028 71.1653 381.929 72.6015 385.759L78.2194 383.652C76.8028 379.875 75.4188 376.023 74.0666 372.105L68.3948 374.062ZM77.1264 397.3C78.7154 401.175 80.3439 404.962 82.0127 408.655L87.4802 406.184C85.8422 402.56 84.2416 398.837 82.6776 395.023L77.1264 397.3ZM87.3299 419.814C89.2411 423.613 91.2022 427.29 93.2148 430.834L98.4322 427.871C96.473 424.421 94.5592 420.833 92.6899 417.117L87.3299 419.814ZM99.7062 441.513C102.047 445.102 104.454 448.516 106.929 451.741L111.689 448.088C109.315 444.995 106.996 441.707 104.732 438.235L99.7062 441.513ZM115.039 461.346C116.475 462.881 117.932 464.355 119.412 465.765L123.552 461.422C122.159 460.095 120.783 458.703 119.422 457.248L115.039 461.346ZM119.412 465.765C120.917 467.2 122.422 468.598 123.927 469.959L127.952 465.509C126.487 464.184 125.02 462.822 123.552 461.422L119.412 465.765ZM133.178 477.882C136.418 480.502 139.653 482.96 142.881 485.263L146.366 480.378C143.237 478.147 140.099 475.763 136.952 473.217L133.178 477.882ZM153.037 492.019C156.583 494.211 160.119 496.224 163.642 498.068L166.425 492.753C163.03 490.975 159.618 489.033 156.191 486.915L153.037 492.019ZM174.726 503.348C178.562 504.997 182.378 506.455 186.169 507.738L188.092 502.054C184.451 500.823 180.784 499.421 177.096 497.835L174.726 503.348ZM197.915 511.183C201.962 512.191 205.974 513.01 209.949 513.658L210.914 507.737C207.1 507.115 203.249 506.329 199.366 505.361L197.915 511.183ZM222.1 515.137C226.237 515.472 230.325 515.636 234.357 515.65L234.378 509.65C230.494 509.636 226.562 509.479 222.585 509.156L222.1 515.137ZM246.576 515.246C250.7 514.962 254.755 514.539 258.736 514.001L257.933 508.055C254.074 508.576 250.149 508.986 246.165 509.26L246.576 515.246ZM270.771 512.01C274.823 511.221 278.784 510.334 282.646 509.381L281.208 503.556C277.432 504.488 273.569 505.352 269.624 506.121L270.771 512.01ZM294.368 506.227C298.361 505.071 302.226 503.874 305.954 502.677L304.12 496.964C300.433 498.148 296.623 499.327 292.699 500.464L294.368 506.227ZM317.41 498.897C321.413 497.553 325.195 496.275 328.772 495.117L326.924 489.409C323.308 490.58 319.485 491.871 315.5 493.209L317.41 498.897ZM340.157 491.724C342.146 491.208 344.019 490.779 345.777 490.451L344.676 484.553C342.751 484.912 340.739 485.374 338.651 485.916L340.157 491.724ZM346.516 490.21C348.097 489.458 349.857 488.644 351.786 487.777L349.328 482.304C347.362 483.187 345.561 484.019 343.936 484.793L346.516 490.21ZM362.613 483.12C365.971 481.731 369.611 480.271 373.506 478.761L371.337 473.167C367.401 474.692 363.72 476.169 360.32 477.576L362.613 483.12ZM384.582 474.594C388.126 473.3 391.824 471.985 395.662 470.663L393.707 464.99C389.834 466.325 386.102 467.651 382.524 468.958L384.582 474.594ZM406.85 466.919C410.508 465.731 414.267 464.545 418.115 463.37L416.363 457.632C412.48 458.817 408.688 460.014 404.997 461.212L406.85 466.919ZM429.441 460.023C433.167 458.958 436.963 457.91 440.819 456.884L439.277 451.086C435.384 452.121 431.553 453.179 427.792 454.254L429.441 460.023ZM452.24 453.962C456.019 453.034 459.846 452.133 463.712 451.264L462.397 445.41C458.491 446.288 454.626 447.198 450.809 448.136L452.24 453.962ZM475.236 448.802C479.064 448.026 482.923 447.286 486.807 446.589L485.746 440.683C481.817 441.389 477.914 442.137 474.044 442.921L475.236 448.802ZM498.421 444.642C502.291 444.042 506.178 443.486 510.075 442.982L509.305 437.032C505.356 437.543 501.419 438.105 497.501 438.713L498.421 444.642ZM521.762 441.631C525.665 441.235 529.572 440.894 533.476 440.614L533.047 434.629C529.081 434.914 525.115 435.259 521.156 435.662L521.762 441.631ZM545.207 439.96C549.131 439.806 553.045 439.719 556.944 439.704L556.921 433.704C552.948 433.72 548.963 433.808 544.971 433.965L545.207 439.96ZM568.673 439.883C572.598 440.021 576.501 440.238 580.372 440.541L580.84 434.559C576.878 434.249 572.89 434.027 568.883 433.887L568.673 439.883ZM592.018 441.725C595.911 442.216 599.766 442.802 603.574 443.489L604.638 437.584C600.722 436.878 596.763 436.276 592.769 435.772L592.018 441.725ZM614.996 445.89C618.801 446.809 622.547 447.84 626.229 448.988L628.015 443.26C624.203 442.071 620.331 441.006 616.406 440.058L614.996 445.89ZM637.202 452.841C640.823 454.264 644.369 455.816 647.831 457.503L650.459 452.109C646.85 450.35 643.159 448.735 639.396 447.257L637.202 452.841ZM658.019 463.014C659.675 464.005 661.308 465.032 662.917 466.096L666.227 461.092C664.542 459.977 662.832 458.902 661.1 457.865L658.019 463.014ZM662.917 466.096C664.496 467.14 666.058 468.208 667.604 469.298L671.061 464.394C669.467 463.27 667.856 462.169 666.227 461.092L662.917 466.096ZM676.692 476.102C679.66 478.457 682.562 480.893 685.401 483.402L689.374 478.907C686.459 476.33 683.475 473.825 680.421 471.402L676.692 476.102ZM693.733 491.147C696.449 493.799 699.102 496.516 701.692 499.288L706.077 495.193C703.426 492.355 700.709 489.573 697.924 486.854L693.733 491.147ZM709.288 507.783C711.766 510.674 714.18 513.612 716.533 516.59L721.241 512.87C718.841 509.833 716.376 506.832 713.845 503.878L709.288 507.783ZM723.439 525.677C725.695 528.762 727.889 531.877 730.021 535.014L734.983 531.642C732.814 528.45 730.58 525.278 728.282 522.135L723.439 525.677ZM736.292 544.574C738.345 547.816 740.335 551.072 742.263 554.33L747.427 551.275C745.47 547.967 743.448 544.659 741.361 541.363L736.292 544.574ZM747.947 564.262C749.814 567.636 751.616 571.002 753.353 574.349L758.679 571.586C756.918 568.192 755.091 564.779 753.196 561.356L747.947 564.262ZM758.491 584.57C760.189 588.058 761.816 591.512 763.373 594.92L768.83 592.426C767.253 588.976 765.606 585.477 763.886 581.944L758.491 584.57ZM768.021 605.419C769.567 609.024 771.031 612.557 772.416 616.002L777.982 613.764C776.581 610.279 775.1 606.703 773.535 603.054L768.021 605.419ZM776.562 626.659C777.974 630.412 779.283 634.021 780.49 637.459L786.151 635.472C784.93 631.993 783.606 628.342 782.178 624.545L776.562 626.659ZM784.165 648.321C785.474 652.342 786.611 656.01 787.583 659.262L793.332 657.544C792.347 654.248 791.195 650.533 789.87 646.463L784.165 648.321ZM790.702 670.266C791.17 672.025 791.515 673.385 791.743 674.301C791.857 674.759 791.941 675.107 791.996 675.337C792.024 675.453 792.044 675.539 792.058 675.596C792.064 675.624 792.069 675.645 792.072 675.658C792.074 675.665 792.075 675.67 792.075 675.673C792.076 675.674 792.076 675.675 792.076 675.676C792.076 675.676 792.076 675.676 792.076 675.676C792.076 675.676 792.076 675.676 792.076 675.676C792.076 675.676 792.076 675.676 792.076 675.676C792.076 675.676 792.076 675.676 794.999 674.999C797.922 674.322 797.922 674.322 797.922 674.322C797.922 674.322 797.921 674.322 797.921 674.322C797.921 674.322 797.921 674.322 797.921 674.321C797.921 674.321 797.921 674.32 797.921 674.32C797.921 674.318 797.92 674.316 797.92 674.314C797.918 674.309 797.917 674.303 797.915 674.294C797.911 674.277 797.905 674.253 797.898 674.22C797.883 674.156 797.86 674.062 797.831 673.939C797.772 673.693 797.684 673.33 797.566 672.856C797.331 671.908 796.977 670.515 796.499 668.721L790.702 670.266ZM343.936 484.793C343.116 485.184 342.049 485.261 340.496 484.617L338.197 490.159C340.894 491.278 343.787 491.51 346.516 490.21L343.936 484.793ZM332.472 477.883C330.284 475.323 328.003 472.158 325.684 468.47L320.605 471.664C323.036 475.53 325.487 478.945 327.91 481.78L332.472 477.883ZM319.827 458.185C318.086 454.838 316.36 451.262 314.674 447.501L309.199 449.955C310.929 453.814 312.705 457.496 314.504 460.954L319.827 458.185ZM310.056 436.481C308.637 432.859 307.267 429.126 305.962 425.313L300.285 427.256C301.618 431.15 303.018 434.965 304.469 438.669L310.056 436.481ZM302.339 413.952C301.215 410.152 300.167 406.308 299.206 402.447L293.384 403.896C294.366 407.844 295.438 411.772 296.585 415.654L302.339 413.952ZM296.602 390.833C295.819 386.898 295.143 382.978 294.588 379.102L288.648 379.953C289.22 383.943 289.915 387.97 290.718 392.004L296.602 390.833ZM293.274 367.313C292.962 363.288 292.806 359.356 292.824 355.552L286.824 355.524C286.805 359.509 286.968 363.606 287.292 367.777L293.274 367.313ZM293.494 343.821C293.962 339.798 294.682 336.013 295.67 332.516L289.896 330.884C288.808 334.734 288.034 338.837 287.534 343.128L293.494 343.821ZM299.957 322.041C301.858 318.722 304.155 315.894 306.879 313.609L303.022 309.012C299.695 311.805 296.96 315.202 294.751 319.059L299.957 322.041ZM316.327 308.43C319.554 307.388 323.218 306.788 327.371 306.722L327.276 300.723C322.599 300.797 318.339 301.475 314.483 302.721L316.327 308.43ZM338.662 307.701C340.534 308.031 342.479 308.446 344.498 308.951L345.955 303.131C343.807 302.593 341.723 302.148 339.701 301.792L338.662 307.701ZM344.498 308.951C346.39 309.424 348.223 309.934 350 310.479L351.758 304.742C349.879 304.166 347.945 303.629 345.955 303.131L344.498 308.951ZM360.444 314.348C363.979 315.911 367.232 317.638 370.22 319.509L373.405 314.424C370.163 312.394 366.656 310.534 362.871 308.861L360.444 314.348ZM379.074 326.123C381.88 328.62 384.366 331.288 386.555 334.103L391.291 330.418C388.877 327.316 386.141 324.381 383.063 321.641L379.074 326.123ZM392.466 343.354C394.15 346.613 395.538 350.014 396.652 353.532L402.372 351.722C401.161 347.896 399.646 344.177 397.796 340.599L392.466 343.354ZM399.177 364.315C399.752 367.941 400.088 371.651 400.203 375.418L406.2 375.234C406.078 371.233 405.721 367.269 405.103 363.374L399.177 364.315ZM399.928 386.623C399.643 390.333 399.172 394.065 398.536 397.797L404.451 398.806C405.116 394.904 405.61 390.988 405.91 387.083L399.928 386.623ZM396.18 408.841C395.247 412.496 394.172 416.122 392.975 419.695L398.664 421.601C399.906 417.895 401.023 414.128 401.994 410.324L396.18 408.841ZM389.003 430.31C387.541 433.842 385.972 437.288 384.318 440.622L389.693 443.288C391.407 439.834 393.032 436.263 394.546 432.604L389.003 430.31ZM378.927 450.593C376.955 453.948 374.911 457.13 372.825 460.107L377.738 463.55C379.92 460.437 382.05 457.12 384.099 453.635L378.927 450.593ZM365.961 468.979C363.352 472.013 360.742 474.67 358.184 476.899L362.127 481.422C364.934 478.975 367.745 476.106 370.51 472.891L365.961 468.979ZM349.332 482.964C347.665 483.762 346.109 484.285 344.676 484.553L345.777 490.451C347.818 490.07 349.876 489.355 351.922 488.376L349.332 482.964Z" fill="#85B6FF"/>
</svg>
