<svg width="21" height="19" viewBox="0 0 21 19" fill="none" xmlns="http://www.w3.org/2000/svg">
<mask id="path-1-inside-1_0_283" fill="white">
<path d="M20.2796 7.7285L11.0778 0.362016C10.7787 0.122536 10.3848 -0.00706631 9.97839 0.000297454C9.572 0.00766122 9.18461 0.151421 8.89719 0.401529L0.434304 7.76572L0 8.1436V18.9999H8.15508V12.2262H12.6033V18.9999H20.7584V8.11186L20.2796 7.7285ZM10.0103 1.29026C10.0233 1.29026 10.0153 1.29272 10.0097 1.29752C10.0039 1.29272 9.9972 1.29026 10.0103 1.29026ZM19.2756 17.7097H14.086V12.2262C14.086 11.884 13.9298 11.5558 13.6518 11.3139C13.3737 11.0719 12.9966 10.936 12.6033 10.936H8.15508C7.76183 10.936 7.38469 11.0719 7.10662 11.3139C6.82856 11.5558 6.67234 11.884 6.67234 12.2262V17.7097H1.48274V8.67804L10.0103 1.31385L10.0114 1.31244L19.2756 8.67804V17.7097Z"/>
</mask>
<path d="M20.2796 7.7285L11.0778 0.362016C10.7787 0.122536 10.3848 -0.00706631 9.97839 0.000297454C9.572 0.00766122 9.18461 0.151421 8.89719 0.401529L0.434304 7.76572L0 8.1436V18.9999H8.15508V12.2262H12.6033V18.9999H20.7584V8.11186L20.2796 7.7285ZM10.0103 1.29026C10.0233 1.29026 10.0153 1.29272 10.0097 1.29752C10.0039 1.29272 9.9972 1.29026 10.0103 1.29026ZM19.2756 17.7097H14.086V12.2262C14.086 11.884 13.9298 11.5558 13.6518 11.3139C13.3737 11.0719 12.9966 10.936 12.6033 10.936H8.15508C7.76183 10.936 7.38469 11.0719 7.10662 11.3139C6.82856 11.5558 6.67234 11.884 6.67234 12.2262V17.7097H1.48274V8.67804L10.0103 1.31385L10.0114 1.31244L19.2756 8.67804V17.7097Z" fill="#FEB656"/>
<path d="M20.2796 7.7285L21.8923 5.71409L21.8922 5.71404L20.2796 7.7285ZM11.0778 0.362016L9.46513 2.37647L9.46515 2.37648L11.0778 0.362016ZM8.89719 0.401529L10.5911 2.34818L10.5911 2.34817L8.89719 0.401529ZM0.434304 7.76572L2.12812 9.71247L2.12823 9.71237L0.434304 7.76572ZM0 8.1436L-1.69382 6.19685L-2.58047 6.96831V8.1436H0ZM0 18.9999H-2.58047V21.5804H0V18.9999ZM8.15508 18.9999V21.5804H10.7356V18.9999H8.15508ZM8.15508 12.2262V9.64571H5.57461V12.2262H8.15508ZM12.6033 12.2262H15.1838V9.64571H12.6033V12.2262ZM12.6033 18.9999H10.0228V21.5804H12.6033V18.9999ZM20.7584 18.9999V21.5804H23.3389V18.9999H20.7584ZM20.7584 8.11186H23.3389V6.87222L22.3712 6.09746L20.7584 8.11186ZM10.0097 1.29752L8.36348 3.2847L10.0367 4.6708L11.6875 3.25807L10.0097 1.29752ZM19.2756 17.7097V20.2902H21.8561V17.7097H19.2756ZM14.086 17.7097H11.5056V20.2902H14.086V17.7097ZM6.67234 17.7097V20.2902H9.25281V17.7097H6.67234ZM1.48274 17.7097H-1.09773V20.2902H1.48274V17.7097ZM1.48274 8.67804L-0.203842 6.72502L-1.09773 7.49696V8.67804H1.48274ZM10.0103 1.31385L11.6969 3.26687L11.8842 3.10509L12.0374 2.91065L10.0103 1.31385ZM10.0114 1.31244L11.6173 -0.707438L9.5883 -2.3206L7.9843 -0.284365L10.0114 1.31244ZM19.2756 8.67804H21.8561V7.43299L20.8816 6.65816L19.2756 8.67804ZM21.8922 5.71404L12.6905 -1.65245L9.46515 2.37648L18.6669 9.74297L21.8922 5.71404ZM12.6906 -1.65243C11.8913 -2.29231 10.9007 -2.59731 9.93164 -2.57975L10.0251 2.58035C9.86881 2.58318 9.66613 2.53738 9.46513 2.37647L12.6906 -1.65243ZM9.93164 -2.57975C8.96256 -2.56219 7.98019 -2.22119 7.20326 -1.54511L10.5911 2.34817C10.389 2.52403 10.1814 2.57752 10.0251 2.58035L9.93164 -2.57975ZM7.20327 -1.54512L-1.25962 5.81907L2.12823 9.71237L10.5911 2.34818L7.20327 -1.54512ZM-1.25951 5.81897L-1.69382 6.19685L1.69382 10.0903L2.12812 9.71247L-1.25951 5.81897ZM-2.58047 8.1436V18.9999H2.58047V8.1436H-2.58047ZM0 21.5804H8.15508V16.4195H0V21.5804ZM10.7356 18.9999V12.2262H5.57461V18.9999H10.7356ZM8.15508 14.8067H12.6033V9.64571H8.15508V14.8067ZM10.0228 12.2262V18.9999H15.1838V12.2262H10.0228ZM12.6033 21.5804H20.7584V16.4195H12.6033V21.5804ZM23.3389 18.9999V8.11186H18.1779V18.9999H23.3389ZM22.3712 6.09746L21.8923 5.71409L18.6668 9.74291L19.1456 10.1263L22.3712 6.09746ZM10.0103 3.87073C9.97927 3.87073 9.90958 3.87026 9.82075 3.86359C9.7658 3.85945 9.53714 3.84301 9.25827 3.75729C9.11762 3.71405 8.83574 3.61541 8.53031 3.40011C8.20821 3.17306 7.75152 2.73465 7.54119 2.01773C7.12327 0.593246 8.04831 -0.37745 8.09113 -0.425461C8.28258 -0.640128 8.46915 -0.772692 8.49079 -0.788542C8.53866 -0.823614 8.58408 -0.853801 8.56951 -0.843956C8.56933 -0.843838 8.56701 -0.842268 8.56418 -0.840348C8.56118 -0.838309 8.55668 -0.835248 8.55125 -0.831514C8.54055 -0.82416 8.52421 -0.81282 8.50454 -0.798662C8.46696 -0.771616 8.40471 -0.725388 8.33185 -0.663037L11.6875 3.25807C11.616 3.31922 11.5553 3.36433 11.5191 3.39032C11.5002 3.40395 11.4846 3.41478 11.4746 3.42165C11.4695 3.42514 11.4654 3.42796 11.4627 3.42976C11.4614 3.43067 11.4603 3.43142 11.4596 3.43189C11.4592 3.43213 11.4589 3.43233 11.4587 3.43245C11.4586 3.43258 11.4584 3.43267 11.4584 3.43268C11.4452 3.44162 11.4918 3.4106 11.5407 3.37477C11.5634 3.35816 11.7508 3.22492 11.9428 3.00964C11.9862 2.96102 12.9115 1.98979 12.4934 0.564851C12.283 -0.152294 11.8262 -0.590917 11.5038 -0.818158C11.1981 -1.03365 10.9158 -1.13246 10.7747 -1.17585C10.4948 -1.26188 10.2647 -1.27855 10.2077 -1.28284C10.1168 -1.28967 10.0445 -1.29021 10.0103 -1.29021V3.87073ZM11.6559 -0.689669C11.5766 -0.755362 11.4753 -0.827695 11.5304 -0.78731C11.5345 -0.78431 11.6002 -0.736905 11.6776 -0.670969C11.7156 -0.63855 11.9713 -0.427487 12.1916 -0.074842C12.4234 0.296295 12.9579 1.45327 12.1802 2.67608C11.6251 3.54899 10.7729 3.75572 10.6821 3.78045C10.4456 3.84488 10.2543 3.85964 10.1929 3.86409C10.1089 3.87018 10.0426 3.87073 10.0103 3.87073V-1.29021C9.97468 -1.29021 9.90577 -1.28959 9.81965 -1.28334C9.75609 -1.27873 9.56318 -1.26375 9.32556 -1.19901C9.23365 -1.17397 8.38082 -0.966865 7.82538 -0.0935005C7.04741 1.12977 7.58204 2.28728 7.81421 2.65902C8.03483 3.01227 8.29125 3.22402 8.33018 3.2572C8.40844 3.32389 8.47519 3.37212 8.48052 3.37603C8.53812 3.41823 8.43988 3.348 8.36348 3.2847L11.6559 -0.689669ZM19.2756 15.1292H14.086V20.2902H19.2756V15.1292ZM16.6665 17.7097V12.2262H11.5056V17.7097H16.6665ZM16.6665 12.2262C16.6665 11.0746 16.1378 10.0565 15.3457 9.3672L11.9578 13.2605C11.7219 13.0552 11.5056 12.6934 11.5056 12.2262H16.6665ZM15.3457 9.3672C14.5649 8.68781 13.574 8.35548 12.6033 8.35548V13.5164C12.4191 13.5164 12.1825 13.456 11.9578 13.2605L15.3457 9.3672ZM12.6033 8.35548H8.15508V13.5164H12.6033V8.35548ZM8.15508 8.35548C7.1844 8.35548 6.19345 8.68781 5.4127 9.3672L8.80055 13.2605C8.57593 13.456 8.33927 13.5164 8.15508 13.5164V8.35548ZM5.4127 9.3672C4.62059 10.0565 4.09187 11.0746 4.09187 12.2262H9.25281C9.25281 12.6934 9.03653 13.0552 8.80055 13.2605L5.4127 9.3672ZM4.09187 12.2262V17.7097H9.25281V12.2262H4.09187ZM6.67234 15.1292H1.48274V20.2902H6.67234V15.1292ZM4.06322 17.7097V8.67804H-1.09773V17.7097H4.06322ZM3.16933 10.6311L11.6969 3.26687L8.32369 -0.639171L-0.203842 6.72502L3.16933 10.6311ZM12.0374 2.91065L12.0385 2.90924L7.9843 -0.284365L7.98318 -0.282954L12.0374 2.91065ZM8.40547 3.33231L17.6697 10.6979L20.8816 6.65816L11.6173 -0.707438L8.40547 3.33231ZM16.6952 8.67804V17.7097H21.8561V8.67804H16.6952Z" fill="#FEB656" mask="url(#path-1-inside-1_0_283)"/>
</svg>
