<svg width="43" height="46" viewBox="0 0 43 46" fill="none" xmlns="http://www.w3.org/2000/svg">
<path d="M27.5245 23.6064C27.2259 23.9958 26.972 24.4076 26.763 24.8418C26.554 25.276 26.3748 25.7402 26.2255 26.2344C24.9415 25.1862 23.5306 24.3851 21.9927 23.8311C20.4549 23.277 18.8573 23 17.2 23C15.8861 23 14.617 23.1722 13.3927 23.5166C12.1684 23.861 11.0262 24.3402 9.96615 24.9541C8.90608 25.568 7.94306 26.3167 7.07708 27.2002C6.21111 28.0837 5.46458 29.057 4.8375 30.1201C4.21042 31.1833 3.72517 32.3288 3.38177 33.5566C3.03837 34.7845 2.86667 36.0573 2.86667 37.375H0C0 35.5781 0.261285 33.8486 0.783854 32.1865C1.30642 30.5244 2.06042 28.9896 3.04583 27.582C4.03125 26.1745 5.19583 24.9242 6.53958 23.8311C7.88333 22.738 9.40625 21.877 11.1083 21.248C10.2722 20.724 9.52569 20.11 8.86875 19.4062C8.21181 18.7025 7.64444 17.9238 7.16667 17.0703C6.68889 16.2168 6.33802 15.3258 6.11406 14.3975C5.8901 13.4691 5.76319 12.5033 5.73333 11.5C5.73333 9.91276 6.03194 8.42285 6.62917 7.03027C7.22639 5.6377 8.04757 4.4248 9.09271 3.3916C10.1378 2.3584 11.3547 1.53483 12.7432 0.920898C14.1318 0.306966 15.6174 0 17.2 0C18.7826 0 20.2682 0.299479 21.6568 0.898438C23.0453 1.4974 24.2547 2.32096 25.2849 3.36914C26.3151 4.41732 27.1363 5.6377 27.7484 7.03027C28.3606 8.42285 28.6667 9.91276 28.6667 11.5C28.6667 12.4883 28.5472 13.4541 28.3083 14.3975C28.0694 15.3408 27.7111 16.2318 27.2333 17.0703C26.7556 17.9089 26.1882 18.68 25.5312 19.3838C24.8743 20.0876 24.1203 20.709 23.2693 21.248C24.8221 21.847 26.2405 22.6331 27.5245 23.6064ZM8.6 11.5C8.6 12.6979 8.82396 13.8135 9.27188 14.8467C9.71979 15.8799 10.3319 16.7933 11.1083 17.5869C11.8847 18.3805 12.7955 19.002 13.8406 19.4512C14.8858 19.9004 16.0056 20.125 17.2 20.125C18.3795 20.125 19.4918 19.9004 20.537 19.4512C21.5821 19.002 22.4929 18.388 23.2693 17.6094C24.0457 16.8307 24.6653 15.9173 25.1281 14.8691C25.591 13.821 25.8149 12.6979 25.8 11.5C25.8 10.3171 25.576 9.2015 25.1281 8.15332C24.6802 7.10514 24.0681 6.19173 23.2917 5.41309C22.5153 4.63444 21.597 4.01302 20.537 3.54883C19.4769 3.08464 18.3646 2.86003 17.2 2.875C16.0056 2.875 14.8932 3.09961 13.863 3.54883C12.8328 3.99805 11.922 4.61198 11.1307 5.39062C10.3394 6.16927 9.71979 7.09017 9.27188 8.15332C8.82396 9.21647 8.6 10.332 8.6 11.5ZM43 31.625V46H25.8V31.625H28.6667V28.75C28.6667 27.9564 28.816 27.2152 29.1146 26.5264C29.4132 25.8376 29.8238 25.2236 30.3464 24.6846C30.8689 24.1455 31.4736 23.7337 32.1604 23.4492C32.8472 23.1647 33.5938 23.015 34.4 23C35.1913 23 35.9304 23.1497 36.6172 23.4492C37.304 23.7487 37.9161 24.1605 38.4536 24.6846C38.9911 25.2087 39.4017 25.8151 39.6854 26.5039C39.9691 27.1927 40.1184 27.9414 40.1333 28.75V31.625H43ZM31.5333 31.625H37.2667V28.75C37.2667 28.3457 37.192 27.9714 37.0427 27.627C36.8934 27.2826 36.6918 26.9831 36.438 26.7285C36.1842 26.474 35.8781 26.2643 35.5198 26.0996C35.1615 25.9349 34.7882 25.86 34.4 25.875C33.9969 25.875 33.6236 25.9499 33.2802 26.0996C32.9368 26.2493 32.6382 26.4515 32.3844 26.7061C32.1306 26.9606 31.9215 27.2676 31.7573 27.627C31.5931 27.9863 31.5184 28.3607 31.5333 28.75V31.625ZM40.1333 34.5H28.6667V43.125H40.1333V34.5Z" fill="#2274AC"/>
</svg>
