<svg width="21" height="19" viewBox="0 0 21 19" fill="none" xmlns="http://www.w3.org/2000/svg">
<path d="M20.2796 7.7285L11.0778 0.362016C10.7787 0.122536 10.3848 -0.00706631 9.97839 0.000297454C9.572 0.00766122 9.18461 0.151421 8.89719 0.401529L0.434304 7.76572L0 8.1436V18.9999H8.15508V12.2262H12.6033V18.9999H20.7584V8.11186L20.2796 7.7285ZM10.0103 1.29026C10.0233 1.29026 10.0153 1.29272 10.0097 1.29752C10.0039 1.29272 9.9972 1.29026 10.0103 1.29026ZM19.2756 17.7097H14.086V12.2262C14.086 11.884 13.9298 11.5558 13.6518 11.3139C13.3737 11.0719 12.9966 10.936 12.6033 10.936H8.15508C7.76183 10.936 7.38469 11.0719 7.10662 11.3139C6.82856 11.5558 6.67234 11.884 6.67234 12.2262V17.7097H1.48274V8.67804L10.0103 1.31385L10.0114 1.31244L19.2756 8.67804V17.7097Z" fill="#275473"/>
</svg>
