<svg width="27" height="31" viewBox="0 0 27 31" fill="none" xmlns="http://www.w3.org/2000/svg">
<path d="M13.5 0L13.6974 0.010606C14.0741 0.0504907 14.4248 0.20315 14.693 0.443956C14.9612 0.684762 15.1313 0.999671 15.1757 1.33788L15.1875 1.51515V7.57576L15.1959 7.80303C15.2563 8.5245 15.6022 9.20277 16.1711 9.7152C16.7399 10.2276 17.4942 10.5404 18.2976 10.597L18.5625 10.6061H25.3125L25.5099 10.6167C25.8866 10.6566 26.2373 10.8092 26.5055 11.05C26.7737 11.2908 26.9438 11.6057 26.9882 11.9439L27 12.1212V25.7576C27.0001 26.917 26.5067 28.0326 25.6208 28.8762C24.735 29.7197 23.5236 30.2274 22.2345 30.2955L21.9375 30.303H5.0625C3.77121 30.3031 2.52869 29.8601 1.58918 29.0647C0.649676 28.2693 0.0841936 27.1817 0.0084377 26.0242L7.8645e-09 25.7576V4.54545C-7.19242e-05 3.38604 0.493299 2.27043 1.37917 1.42688C2.26503 0.583323 3.47643 0.0755947 4.7655 0.00757593L5.0625 0H13.5Z" fill="#5D99C3"/>
<path d="M25.3122 7.57579H18.5622L18.5605 1.51367L25.3122 7.57579Z" fill="#5D99C3"/>
</svg>
