<svg width="38" height="25" viewBox="0 0 38 25" fill="none" xmlns="http://www.w3.org/2000/svg">
<path d="M0 21.1539C0 22.1739 0.44484 23.1522 1.23666 23.8735C2.02848 24.5948 3.10242 25 4.22222 25H33.7778C34.8976 25 35.9715 24.5948 36.7633 23.8735C37.5552 23.1522 38 22.1739 38 21.1539V16.3462H0V21.1539Z" fill="#138808"/>
<path d="M38 8.65385V3.84615C38 2.82609 37.5552 1.84781 36.7633 1.12651C35.9715 0.405218 34.8976 0 33.7778 0H4.22222C3.10242 0 2.02848 0.405218 1.23666 1.12651C0.44484 1.84781 0 2.82609 0 3.84615L0 8.65385H38Z" fill="#FF9933"/>
<path d="M0 8.33398H38V16.6676H0V8.33398Z" fill="#F7F7F7"/>
<path d="M18.9996 16.3461C21.3314 16.3461 23.2218 14.6241 23.2218 12.5C23.2218 10.3758 21.3314 8.65381 18.9996 8.65381C16.6677 8.65381 14.7773 10.3758 14.7773 12.5C14.7773 14.6241 16.6677 16.3461 18.9996 16.3461Z" fill="#000080"/>
<path d="M19 15.7453C20.9675 15.7453 22.5625 14.2923 22.5625 12.5001C22.5625 10.7078 20.9675 9.25488 19 9.25488C17.0325 9.25488 15.4375 10.7078 15.4375 12.5001C15.4375 14.2923 17.0325 15.7453 19 15.7453Z" fill="#F7F7F7"/>
<path d="M19.1064 11.2979L19.0008 11.9229L18.8953 11.2979L19.0008 9.42285L19.1064 11.2979ZM18.1268 9.52766L18.5575 11.3632L18.8372 11.9421L18.7612 11.3142L18.1268 9.52766ZM17.3119 9.83535L18.2493 11.5065L18.6842 11.9998L18.4329 11.4104L17.3119 9.83535ZM16.6121 10.3238L17.9928 11.718L18.5533 12.0921L18.1427 11.5815L16.6121 10.3238ZM16.0759 10.9613L17.8049 11.9825L18.4519 12.2113L17.9104 11.8152L16.0759 10.9613ZM15.7381 11.7036L17.6993 12.2815L18.3886 12.3507L17.7532 12.0959L15.7381 11.7036ZM15.623 12.4998L17.6814 12.5959L18.3675 12.4998L17.6814 12.4036L15.623 12.4998ZM15.7381 13.2959L17.7532 12.9036L18.3886 12.6488L17.6993 12.718L15.7381 13.2959ZM16.0759 14.0382L17.9104 13.1844L18.4519 12.7882L17.8049 13.0171L16.0759 14.0382ZM16.6121 14.6757L18.1427 13.418L18.5533 12.9075L17.9928 13.2815L16.6121 14.6757ZM17.3119 15.1642L18.4329 13.5892L18.6842 12.9998L18.2493 13.493L17.3119 15.1642ZM18.1268 15.4719L18.7612 13.6854L18.8372 13.0575L18.5575 13.6363L18.1268 15.4719ZM19.0008 15.5767L19.1064 13.7017L19.0008 13.0767L18.8953 13.7017L19.0008 15.5767ZM19.8748 15.4719L19.4442 13.6363L19.1644 13.0575L19.2404 13.6854L19.8748 15.4719ZM20.6897 15.1642L19.7524 13.493L19.3175 12.9998L19.5687 13.5892L20.6897 15.1642ZM21.3895 14.6757L20.0089 13.2815L19.4484 12.9075L19.859 13.418L21.3895 14.6757ZM21.9258 14.0382L20.1968 13.0171L19.5497 12.7882L20.0912 13.1844L21.9258 14.0382ZM22.2635 13.2959L20.3023 12.718L19.613 12.6488L20.2485 12.9036L22.2635 13.2959ZM22.3786 12.4998L20.3203 12.4036L19.6342 12.4998L20.3203 12.5959L22.3786 12.4998ZM22.2635 11.7036L20.2485 12.0959L19.613 12.3507L20.3023 12.2815L22.2635 11.7036ZM21.9258 10.9613L20.0912 11.8152L19.5497 12.2113L20.1968 11.9825L21.9258 10.9613ZM21.3895 10.3238L19.859 11.5815L19.4484 12.0921L20.0089 11.718L21.3895 10.3238ZM20.6897 9.83535L19.5687 11.4104L19.3175 11.9998L19.7524 11.5065L20.6897 9.83535ZM19.8748 9.52766L19.2404 11.3142L19.1644 11.9421L19.4442 11.3632L19.8748 9.52766Z" fill="#6666B3"/>
<path d="M18.5383 9.47983C18.6549 9.47983 18.7494 9.39373 18.7494 9.28752C18.7494 9.18131 18.6549 9.09521 18.5383 9.09521C18.4217 9.09521 18.3271 9.18131 18.3271 9.28752C18.3271 9.39373 18.4217 9.47983 18.5383 9.47983Z" fill="#000080"/>
<path d="M17.6388 9.69907C17.7554 9.69907 17.85 9.61297 17.85 9.50676C17.85 9.40055 17.7554 9.31445 17.6388 9.31445C17.5223 9.31445 17.4277 9.40055 17.4277 9.50676C17.4277 9.61297 17.5223 9.69907 17.6388 9.69907Z" fill="#000080"/>
<path d="M16.8361 10.1214C16.9527 10.1214 17.0472 10.0353 17.0472 9.92912C17.0472 9.82292 16.9527 9.73682 16.8361 9.73682C16.7195 9.73682 16.625 9.82292 16.625 9.92912C16.625 10.0353 16.7195 10.1214 16.8361 10.1214Z" fill="#000080"/>
<path d="M16.1818 10.7191C16.2984 10.7191 16.3929 10.633 16.3929 10.5268C16.3929 10.4206 16.2984 10.3345 16.1818 10.3345C16.0652 10.3345 15.9707 10.4206 15.9707 10.5268C15.9707 10.633 16.0652 10.7191 16.1818 10.7191Z" fill="#000080"/>
<path d="M15.715 11.4515C15.8316 11.4515 15.9261 11.3654 15.9261 11.2592C15.9261 11.153 15.8316 11.0669 15.715 11.0669C15.5984 11.0669 15.5039 11.153 15.5039 11.2592C15.5039 11.3654 15.5984 11.4515 15.715 11.4515Z" fill="#000080"/>
<path d="M15.4767 12.2694C15.5933 12.2694 15.6878 12.1833 15.6878 12.0771C15.6878 11.9709 15.5933 11.8848 15.4767 11.8848C15.3601 11.8848 15.2656 11.9709 15.2656 12.0771C15.2656 12.1833 15.3601 12.2694 15.4767 12.2694Z" fill="#000080"/>
<path d="M15.4767 13.1156C15.5933 13.1156 15.6878 13.0295 15.6878 12.9233C15.6878 12.8171 15.5933 12.731 15.4767 12.731C15.3601 12.731 15.2656 12.8171 15.2656 12.9233C15.2656 13.0295 15.3601 13.1156 15.4767 13.1156Z" fill="#000080"/>
<path d="M15.715 13.9325C15.8316 13.9325 15.9261 13.8464 15.9261 13.7402C15.9261 13.634 15.8316 13.5479 15.715 13.5479C15.5984 13.5479 15.5039 13.634 15.5039 13.7402C15.5039 13.8464 15.5984 13.9325 15.715 13.9325Z" fill="#000080"/>
<path d="M16.1818 14.6654C16.2984 14.6654 16.3929 14.5793 16.3929 14.4731C16.3929 14.3669 16.2984 14.2808 16.1818 14.2808C16.0652 14.2808 15.9707 14.3669 15.9707 14.4731C15.9707 14.5793 16.0652 14.6654 16.1818 14.6654Z" fill="#000080"/>
<path d="M16.8361 15.2625C16.9527 15.2625 17.0472 15.1764 17.0472 15.0702C17.0472 14.964 16.9527 14.8779 16.8361 14.8779C16.7195 14.8779 16.625 14.964 16.625 15.0702C16.625 15.1764 16.7195 15.2625 16.8361 15.2625Z" fill="#000080"/>
<path d="M17.6388 15.6859C17.7554 15.6859 17.85 15.5998 17.85 15.4936C17.85 15.3874 17.7554 15.3013 17.6388 15.3013C17.5223 15.3013 17.4277 15.3874 17.4277 15.4936C17.4277 15.5998 17.5223 15.6859 17.6388 15.6859Z" fill="#000080"/>
<path d="M18.5383 15.9046C18.6549 15.9046 18.7494 15.8185 18.7494 15.7123C18.7494 15.6061 18.6549 15.52 18.5383 15.52C18.4217 15.52 18.3271 15.6061 18.3271 15.7123C18.3271 15.8185 18.4217 15.9046 18.5383 15.9046Z" fill="#000080"/>
<path d="M19.466 15.9046C19.5826 15.9046 19.6771 15.8185 19.6771 15.7123C19.6771 15.6061 19.5826 15.52 19.466 15.52C19.3494 15.52 19.2549 15.6061 19.2549 15.7123C19.2549 15.8185 19.3494 15.9046 19.466 15.9046Z" fill="#000080"/>
<path d="M20.3664 15.6859C20.483 15.6859 20.5775 15.5998 20.5775 15.4936C20.5775 15.3874 20.483 15.3013 20.3664 15.3013C20.2498 15.3013 20.1553 15.3874 20.1553 15.4936C20.1553 15.5998 20.2498 15.6859 20.3664 15.6859Z" fill="#000080"/>
<path d="M21.1701 15.2625C21.2867 15.2625 21.3812 15.1764 21.3812 15.0702C21.3812 14.964 21.2867 14.8779 21.1701 14.8779C21.0535 14.8779 20.959 14.964 20.959 15.0702C20.959 15.1764 21.0535 15.2625 21.1701 15.2625Z" fill="#000080"/>
<path d="M21.8244 14.6654C21.941 14.6654 22.0355 14.5793 22.0355 14.4731C22.0355 14.3669 21.941 14.2808 21.8244 14.2808C21.7078 14.2808 21.6133 14.3669 21.6133 14.4731C21.6133 14.5793 21.7078 14.6654 21.8244 14.6654Z" fill="#000080"/>
<path d="M22.2863 13.9325C22.4029 13.9325 22.4974 13.8464 22.4974 13.7402C22.4974 13.634 22.4029 13.5479 22.2863 13.5479C22.1697 13.5479 22.0752 13.634 22.0752 13.7402C22.0752 13.8464 22.1697 13.9325 22.2863 13.9325Z" fill="#000080"/>
<path d="M22.5295 13.1156C22.6461 13.1156 22.7406 13.0295 22.7406 12.9233C22.7406 12.8171 22.6461 12.731 22.5295 12.731C22.4129 12.731 22.3184 12.8171 22.3184 12.9233C22.3184 13.0295 22.4129 13.1156 22.5295 13.1156Z" fill="#000080"/>
<path d="M22.5295 12.2694C22.6461 12.2694 22.7406 12.1833 22.7406 12.0771C22.7406 11.9709 22.6461 11.8848 22.5295 11.8848C22.4129 11.8848 22.3184 11.9709 22.3184 12.0771C22.3184 12.1833 22.4129 12.2694 22.5295 12.2694Z" fill="#000080"/>
<path d="M22.2863 11.4515C22.4029 11.4515 22.4974 11.3654 22.4974 11.2592C22.4974 11.153 22.4029 11.0669 22.2863 11.0669C22.1697 11.0669 22.0752 11.153 22.0752 11.2592C22.0752 11.3654 22.1697 11.4515 22.2863 11.4515Z" fill="#000080"/>
<path d="M21.8244 10.7191C21.941 10.7191 22.0355 10.633 22.0355 10.5268C22.0355 10.4206 21.941 10.3345 21.8244 10.3345C21.7078 10.3345 21.6133 10.4206 21.6133 10.5268C21.6133 10.633 21.7078 10.7191 21.8244 10.7191Z" fill="#000080"/>
<path d="M21.1701 10.1214C21.2867 10.1214 21.3812 10.0353 21.3812 9.92912C21.3812 9.82292 21.2867 9.73682 21.1701 9.73682C21.0535 9.73682 20.959 9.82292 20.959 9.92912C20.959 10.0353 21.0535 10.1214 21.1701 10.1214Z" fill="#000080"/>
<path d="M20.3664 9.69907C20.483 9.69907 20.5775 9.61297 20.5775 9.50676C20.5775 9.40055 20.483 9.31445 20.3664 9.31445C20.2498 9.31445 20.1553 9.40055 20.1553 9.50676C20.1553 9.61297 20.2498 9.69907 20.3664 9.69907Z" fill="#000080"/>
<path d="M19.466 9.47983C19.5826 9.47983 19.6771 9.39373 19.6771 9.28752C19.6771 9.18131 19.5826 9.09521 19.466 9.09521C19.3494 9.09521 19.2549 9.18131 19.2549 9.28752C19.2549 9.39373 19.3494 9.47983 19.466 9.47983Z" fill="#000080"/>
<path d="M19.0008 13.3655C19.5255 13.3655 19.9508 12.9781 19.9508 12.5001C19.9508 12.0222 19.5255 11.6348 19.0008 11.6348C18.4761 11.6348 18.0508 12.0222 18.0508 12.5001C18.0508 12.9781 18.4761 13.3655 19.0008 13.3655Z" fill="#000080"/>
</svg>
