<svg width="150" height="81" viewBox="0 0 150 81" fill="none" xmlns="http://www.w3.org/2000/svg">
<path fill-rule="evenodd" clip-rule="evenodd" d="M142.645 56.5981C141.666 55.6765 140.109 55.6907 139.139 56.615C127.502 67.3289 115.25 72.7786 102.757 72.9151C90.5929 73.0465 78.3036 67.9949 66.2464 57.9859C63.5663 55.8012 59.4236 51.2525 55.7794 45.882C58.8372 41.6717 60.8747 36.6859 61.8808 31.8824C63.3647 24.788 62.2842 18.2648 59.8386 15.0341C58.4834 13.2452 56.736 12.1489 54.6929 11.6919C52.0776 11.1105 48.5241 11.6292 44.4456 14.9407C38.8186 19.5311 37.4509 26.0854 39.1318 33.2988C40.0197 37.0909 41.8122 41.0703 44.045 44.8945C41.4614 46.8687 38.247 48.0108 34.3352 47.5996C26.0546 46.783 19.846 40.2742 15.4297 32.6161C11.5997 25.9912 6.98564 16.2041 8.20531 8.42741C8.61822 5.78466 9.82596 3.51335 7.54748 1.35348C4.05907 -1.98827 0.861357 1.47097 0.288883 5.10075C-0.936626 12.8983 1.96685 22.2913 4.8324 29.4845C10.0914 42.722 19.9602 54.6278 33.2858 56.2692C39.5329 57.0112 44.8337 55.421 49.1274 52.4664C53.2029 57.8806 57.5984 62.36 60.4825 64.6082C74.753 75.5089 89.115 80.5782 103.011 79.8071C116.893 79.0437 130.356 72.5192 142.663 59.9547C143.625 59.0172 143.624 57.5197 142.645 56.5981ZM50.0842 35.3707C49.2176 33.1707 48.632 31.0093 48.4603 28.954C48.2464 26.3404 48.7731 23.9168 50.901 22.1944C51.2616 21.907 51.7007 21.5056 52.0613 21.2182C52.3325 22.1258 52.8016 23.911 52.8085 25.3876C52.808 28.6837 52.0253 32.6059 50.4542 36.2589C50.3064 35.9528 50.1884 35.6656 50.0842 35.3707Z" fill="#4D2C5E"/>
<path fill-rule="evenodd" clip-rule="evenodd" d="M52.3923 20.9674C52.6361 21.097 52.8699 21.1793 52.8512 20.9957C52.8225 20.7649 52.6605 20.8015 52.3923 20.9674Z" fill="#4D2C5E"/>
<path fill-rule="evenodd" clip-rule="evenodd" d="M135.823 61.8106C134.689 64.2349 133.594 66.8143 132.812 69.2731C131.61 73.11 131.094 76.6203 132.083 79.1756C132.392 80.4503 133.734 81.2417 135.058 80.9331C136.389 80.6378 137.216 79.3526 136.894 78.0855C136.825 77.4535 137.056 76.7975 137.274 76.0601C137.772 74.3219 138.887 72.5073 140.1 70.5502C141.651 68.0541 143.516 65.5604 145.107 63.2534C146.555 61.1666 147.762 59.2304 148.531 57.6955C149.744 55.2803 149.809 53.2525 149.535 52.0647C149.458 51.7545 146.769 47.1429 142.169 48.9799C140.525 49.642 136.45 51.5241 136.248 51.6178C133.8 52.9004 129.252 55.22 124.921 56.4331C123.552 56.8194 122.23 57.1621 121.026 57.2107C120.962 57.105 120.899 56.9993 120.821 56.9011C119.697 55.3725 117.51 55.0126 115.905 56.0758C115.015 56.5851 113.855 58.0194 113.544 58.8784C112.949 60.5469 113.612 61.8901 115.239 63.0002C117.455 64.5072 120.661 64.9384 124.265 64.6561C128.053 64.3427 132.344 63.0635 135.823 61.8106ZM139.824 54.0656C140.092 53.5646 140.184 53.197 139.821 53.1152C139.415 53.0223 139.685 53.6837 139.824 54.0656Z" fill="#4D2C5E"/>
</svg>
