<svg width="15" height="15" viewBox="0 0 15 15" fill="none" xmlns="http://www.w3.org/2000/svg">
<path fill-rule="evenodd" clip-rule="evenodd" d="M4.62701 10.8476C6.766 10.5351 8.23876 10.562 10.3806 10.8585C10.5357 10.881 10.6774 10.9589 10.7796 11.0777C10.8818 11.1966 10.9375 11.3484 10.9365 11.5051C10.9365 11.6551 10.8849 11.8007 10.7918 11.9144C10.6295 12.1128 10.4632 12.3078 10.2931 12.4994H11.1183C11.1702 12.4375 11.2224 12.3744 11.2752 12.3104C11.4606 12.0831 11.5617 11.7987 11.5615 11.5054C11.5615 10.8726 11.0996 10.3273 10.4662 10.2398C8.27376 9.93639 6.74131 9.90733 4.5367 10.2295C3.89673 10.3229 3.43674 10.8767 3.43674 11.5138C3.43674 11.7966 3.52893 12.0763 3.70361 12.3029C3.75517 12.3697 3.80611 12.4354 3.85673 12.4997H4.66201C4.50371 12.3102 4.34931 12.1175 4.1989 11.9216C4.10952 11.8044 4.0613 11.6609 4.06172 11.5135C4.06172 11.177 4.30359 10.8948 4.62701 10.8476ZM7.4991 7.81209C7.74532 7.81209 7.98913 7.76359 8.2166 7.66937C8.44408 7.57514 8.65077 7.43704 8.82488 7.26293C8.99898 7.08883 9.13708 6.88214 9.23131 6.65466C9.32553 6.42719 9.37403 6.18338 9.37403 5.93716C9.37403 5.69094 9.32553 5.44713 9.23131 5.21965C9.13708 4.99217 8.99898 4.78548 8.82488 4.61138C8.65077 4.43728 8.44408 4.29917 8.2166 4.20495C7.98913 4.11072 7.74532 4.06223 7.4991 4.06223C7.00183 4.06223 6.52494 4.25976 6.17332 4.61138C5.8217 4.963 5.62417 5.43989 5.62417 5.93716C5.62417 6.43442 5.8217 6.91132 6.17332 7.26293C6.52494 7.61455 7.00183 7.81209 7.4991 7.81209ZM7.4991 8.43707C8.16211 8.43707 8.79798 8.17368 9.2668 7.70486C9.73562 7.23604 9.99901 6.60017 9.99901 5.93716C9.99901 5.27414 9.73562 4.63828 9.2668 4.16945C8.79798 3.70063 8.16211 3.43725 7.4991 3.43725C6.83608 3.43725 6.20022 3.70063 5.73139 4.16945C5.26257 4.63828 4.99919 5.27414 4.99919 5.93716C4.99919 6.60017 5.26257 7.23604 5.73139 7.70486C6.20022 8.17368 6.83608 8.43707 7.4991 8.43707Z" fill="#A0A0A0"/>
<path fill-rule="evenodd" clip-rule="evenodd" d="M7.49877 13.1246C10.6052 13.1246 13.1236 10.6062 13.1236 7.49977C13.1236 4.39332 10.6052 1.87498 7.49877 1.87498C4.39232 1.87498 1.87397 4.39332 1.87397 7.49977C1.87397 10.6062 4.39232 13.1246 7.49877 13.1246ZM7.49877 13.7495C10.9505 13.7495 13.7485 10.9515 13.7485 7.49977C13.7485 4.04802 10.9505 1.25 7.49877 1.25C4.04702 1.25 1.24899 4.04802 1.24899 7.49977C1.24899 10.9515 4.04702 13.7495 7.49877 13.7495Z" fill="#A0A0A0"/>
</svg>
