<svg width="151" height="153" viewBox="0 0 151 153" fill="none" xmlns="http://www.w3.org/2000/svg">
<g clip-path="url(#clip0_849_10485)">
<path d="M54.8282 36.2245C53.5059 35.4558 51.8738 35.4585 50.5477 36.2316C49.2215 37.0047 48.4031 38.4305 48.4013 39.9712L48.298 127.041C48.2962 128.58 49.1091 129.999 50.4306 130.765C51.7521 131.531 53.3818 131.527 54.7062 130.755L129.54 87.1296C130.864 86.3575 131.682 84.9344 131.686 83.3958C131.69 81.8573 130.879 80.4368 129.559 79.6692L54.8282 36.2245Z" fill="#7E7BED" stroke="#E9E9E9" stroke-width="8.56153" stroke-linejoin="round"/>
<path d="M57.2993 68.3068L75.9404 57.4848L57.7944 91.807L92.2285 70.9367L61.7688 110.435L107.394 82.632" stroke="black" stroke-width="4.28077" stroke-linejoin="bevel"/>
</g>
<defs>
<clipPath id="clip0_849_10485">
<rect width="110.497" height="111.033" fill="white" transform="matrix(0.866361 -0.505057 0.49778 0.870562 0 55.8073)"/>
</clipPath>
</defs>
</svg>
