<svg width="370" height="505" viewBox="0 0 370 505" fill="none" xmlns="http://www.w3.org/2000/svg">
<rect width="370" height="505" rx="24" fill="#275473"/>
<rect x="-0.5" y="0.5" width="301.334" height="424.143" rx="79.5" transform="matrix(-1 0 0 1 327.336 20.2812)" stroke="white"/>
<rect width="302.334" height="425.143" rx="80" transform="matrix(-1 0 0 1 338.023 31.1821)" fill="white"/>
<path d="M37.9993 110C45.8362 172.252 78.9472 275.389 148.697 189.922C235.883 83.0872 227.725 223.142 224.742 284.999C224.806 281.328 214.108 420.901 334.591 230.155" stroke="#0075FD" stroke-width="6" stroke-linecap="round" stroke-linejoin="round"/>
<path d="M0.25 375.451H369.75V481C369.75 494.117 359.117 504.75 346 504.75H24C10.8832 504.75 0.25 494.117 0.25 481V375.451Z" fill="white" stroke="#8A8A8A" stroke-width="0.5"/>
</svg>
