<svg width="52" height="40" viewBox="0 0 52 40" fill="none" xmlns="http://www.w3.org/2000/svg">
<path d="M6.5 6.66667C4.77609 6.66667 3.12279 7.36905 1.90381 8.61929C0.68482 9.86953 0 11.5652 0 13.3333L0 33.3333C0 35.1014 0.68482 36.7971 1.90381 38.0474C3.12279 39.2976 4.77609 40 6.5 40H45.5C47.2239 40 48.8772 39.2976 50.0962 38.0474C51.3152 36.7971 52 35.1014 52 33.3333V13.3333C52 11.5652 51.3152 9.86953 50.0962 8.61929C48.8772 7.36905 47.2239 6.66667 45.5 6.66667H41.691C39.9672 6.66629 38.3142 5.96366 37.0955 4.71333L34.4045 1.95333C33.1858 0.703004 31.5328 0.000377583 29.809 0H22.191C20.4672 0.000377583 18.8142 0.703004 17.5955 1.95333L14.9045 4.71333C13.6858 5.96366 12.0328 6.66629 10.309 6.66667H6.5ZM8.125 13.3333C7.69402 13.3333 7.2807 13.1577 6.97595 12.8452C6.67121 12.5326 6.5 12.1087 6.5 11.6667C6.5 11.2246 6.67121 10.8007 6.97595 10.4882C7.2807 10.1756 7.69402 10 8.125 10C8.55598 10 8.9693 10.1756 9.27405 10.4882C9.57879 10.8007 9.75 11.2246 9.75 11.6667C9.75 12.1087 9.57879 12.5326 9.27405 12.8452C8.9693 13.1577 8.55598 13.3333 8.125 13.3333ZM37.375 21.6667C37.375 24.7609 36.1766 27.7283 34.0433 29.9162C31.9101 32.1042 29.0168 33.3333 26 33.3333C22.9832 33.3333 20.0899 32.1042 17.9567 29.9162C15.8234 27.7283 14.625 24.7609 14.625 21.6667C14.625 18.5725 15.8234 15.605 17.9567 13.4171C20.0899 11.2292 22.9832 10 26 10C29.0168 10 31.9101 11.2292 34.0433 13.4171C36.1766 15.605 37.375 18.5725 37.375 21.6667Z" fill="#FFB656"/>
</svg>
