<svg width="45" height="44" viewBox="0 0 45 44" fill="none" xmlns="http://www.w3.org/2000/svg">
<g clip-path="url(#clip0_849_11917)">
<path d="M38.3421 37.4907H31.6746V27.2808C31.6746 24.8462 31.6301 21.712 28.2067 21.712C24.734 21.712 24.2026 24.3648 24.2026 27.1036V37.49H17.5352V16.4944H23.936V19.3637H24.0256C24.6662 18.2928 25.5918 17.4118 26.704 16.8145C27.8161 16.2172 29.0731 15.9261 30.3411 15.9721C37.099 15.9721 38.3449 20.3185 38.3449 25.9728L38.3421 37.4907ZM10.0118 13.6246C7.87482 13.625 6.14215 11.9313 6.1418 9.84184C6.14145 7.75236 7.87342 6.05819 10.0104 6.05784C12.1474 6.05733 13.88 7.75098 13.8804 9.84047C13.8806 10.8439 13.4731 11.8063 12.7476 12.5159C12.0221 13.2256 11.038 13.6244 10.0118 13.6246ZM13.3457 37.4909H6.67107V16.4944H13.3455V37.4907L13.3457 37.4909ZM41.6661 0.00320236H3.32068C1.50838 -0.0167351 0.0221484 1.40278 0 3.17481V40.8245C0.0214453 42.5974 1.5075 44.0183 3.32051 43.9998H41.6661C43.483 44.0218 44.9749 42.6009 45 40.8245V3.17189C44.9742 1.39642 43.4821 -0.0229226 41.6661 0.000280482" fill="white"/>
</g>
<defs>
<clipPath id="clip0_849_11917">
<rect width="45" height="44" fill="white"/>
</clipPath>
</defs>
</svg>
