<svg width="21" height="22" viewBox="0 0 21 22" fill="none" xmlns="http://www.w3.org/2000/svg">
<path d="M3.15149 12.0001L3.26519 3.20097C3.27273 2.61755 3.49629 2.06083 3.8867 1.65327C4.2771 1.24571 4.80237 1.02071 5.34694 1.02775L17.6669 1.18717C18.2115 1.19422 18.7308 1.43274 19.1105 1.85026C19.4903 2.26778 19.6994 2.83011 19.6918 3.41353L19.5071 17.7122C19.4929 18.812 18.8484 21.0039 16.3844 20.972M16.3844 20.972L4.06446 20.8126C3.03779 20.7993 0.992991 20.1128 1.0271 17.473L1.05553 15.2732L13.3755 15.4327L13.3471 17.6324C13.313 20.2722 15.3578 20.9587 16.3844 20.972Z" stroke="#275473" stroke-width="2" stroke-linecap="round" stroke-linejoin="round"/>
</svg>
