<svg width="35" height="35" viewBox="0 0 35 35" fill="none" xmlns="http://www.w3.org/2000/svg">
<path d="M34.067 5.30679C34.3587 5.02444 34.5914 4.68664 34.7516 4.3131C34.9118 3.93957 34.9962 3.53778 34.9999 3.13117C35.0036 2.72456 34.9265 2.32129 34.7732 1.94487C34.6199 1.56846 34.3934 1.22644 34.1069 0.938777C33.8204 0.651115 33.4797 0.42357 33.1046 0.269417C32.7295 0.115265 32.3276 0.037594 31.9222 0.0409343C31.5169 0.0442746 31.1163 0.12856 30.7438 0.288873C30.3712 0.449186 30.0343 0.682317 29.7525 0.974661L17.5173 13.2443L5.2861 0.974661C5.00663 0.673793 4.66961 0.432475 4.29515 0.265103C3.92068 0.0977301 3.51645 0.00773129 3.10656 0.000476574C2.69667 -0.00677814 2.28953 0.0688601 1.90941 0.222877C1.5293 0.376894 1.184 0.606136 0.894118 0.896927C0.604238 1.18772 0.375714 1.5341 0.222179 1.91541C0.0686444 2.29672 -0.00675692 2.70514 0.000475082 3.11632C0.00770709 3.5275 0.0974241 3.933 0.264273 4.30863C0.431121 4.68427 0.671683 5.02236 0.971609 5.30271L13.1946 17.5764L0.963469 29.846C0.424239 30.4265 0.130677 31.1943 0.14463 31.9876C0.158584 32.781 0.478965 33.5379 1.03827 34.099C1.59758 34.6601 2.35215 34.9814 3.14301 34.9954C3.93387 35.0094 4.69927 34.715 5.27796 34.174L17.5173 21.9044L29.7485 34.1781C30.3272 34.719 31.0926 35.0135 31.8834 34.9995C32.6743 34.9855 33.4288 34.6641 33.9881 34.1031C34.5475 33.542 34.8678 32.7851 34.8818 31.9917C34.8957 31.1984 34.6022 30.4306 34.063 29.8501L21.8399 17.5764L34.067 5.30679Z" fill="#F8F8F8"/>
</svg>
