<svg width="15" height="15" viewBox="0 0 15 15" fill="none" xmlns="http://www.w3.org/2000/svg">
<path d="M6.56117 0.937248C6.06391 0.937248 5.58702 1.13479 5.2354 1.4864C4.88378 1.83802 4.68624 2.31492 4.68624 2.81218V10.3119C4.68624 10.8092 4.88378 11.2861 5.2354 11.6377C5.58702 11.9893 6.06391 12.1868 6.56117 12.1868H11.2494C11.7467 12.1868 12.2236 11.9893 12.5752 11.6377C12.9268 11.2861 13.1244 10.8092 13.1244 10.3119V5.15584H13.1225V4.13776C13.1224 3.76507 12.9744 3.40766 12.711 3.14404L10.9166 1.3488C10.653 1.08535 10.2956 0.937328 9.92293 0.937248H6.56024H6.56117ZM11.2494 11.2494H6.56117C6.31254 11.2494 6.07409 11.1506 5.89829 10.9748C5.72248 10.799 5.62371 10.5605 5.62371 10.3119V2.81218C5.62371 2.56355 5.72248 2.3251 5.89829 2.14929C6.07409 1.97348 6.31254 1.87471 6.56117 1.87471H9.37357V3.28091C9.37357 3.65386 9.52173 4.01153 9.78544 4.27525C10.0492 4.53896 10.4068 4.68711 10.7798 4.68711H12.186V5.68176H12.1869V10.3119C12.1869 10.5605 12.0881 10.799 11.9123 10.9748C11.7365 11.1506 11.4981 11.2494 11.2494 11.2494ZM11.991 3.74965H10.7788C10.6545 3.74965 10.5353 3.70026 10.4474 3.61236C10.3595 3.52445 10.3101 3.40523 10.3101 3.28091V2.06877L11.991 3.74965ZM2.81225 3.74965C2.81225 3.50101 2.91102 3.26257 3.08683 3.08676C3.26263 2.91095 3.50108 2.81218 3.74971 2.81218V10.3119C3.74971 11.0578 4.04602 11.7731 4.57345 12.3006C5.10087 12.828 5.81622 13.1243 6.56211 13.1243H11.2494C11.2494 13.3729 11.1507 13.6114 10.9749 13.7872C10.7991 13.963 10.5606 14.0618 10.312 14.0618H6.36524C5.42293 14.0618 4.51921 13.6874 3.8529 13.0211C3.18658 12.3548 2.81225 11.4511 2.81225 10.5088V3.74965Z" fill="#A0A0A0"/>
</svg>
