<svg width="317" height="141" viewBox="0 0 317 141" fill="none" xmlns="http://www.w3.org/2000/svg">
<path d="M288.628 140.683C286.234 140.683 283.949 140.248 281.665 139.487C271.437 135.896 248.588 133.285 236.729 132.523L227.154 131.87C221.387 131.544 216.926 126.865 216.709 121.099C216.491 114.353 211.268 108.913 204.523 108.26C190.922 106.954 176.886 106.301 162.415 106.301C143.81 106.301 126.619 107.389 111.93 108.913C105.511 109.566 100.506 114.679 99.9621 120.99C99.9621 121.534 99.8532 121.86 99.8532 121.86C99.3092 127.301 94.9571 131.544 89.4081 131.979L80.3773 132.523C68.5177 133.285 45.7777 135.896 35.5501 139.378C33.0476 140.248 30.5451 140.683 27.9339 140.683C18.9031 140.683 10.4164 135.352 6.60828 126.865C3.99699 120.99 4.10581 114.353 6.39069 108.369C7.15232 106.519 8.02275 104.452 9.00198 102.276C2.80016 97.4883 -0.572776 89.9809 0.080047 82.0382C0.73287 73.8779 5.41145 66.8056 12.7013 63.1063C17.1623 60.8214 24.3433 57.5573 33.1565 54.946V38.9518C33.1565 30.3563 38.1614 22.6313 45.8865 19.1495C47.6274 18.3879 88.864 0 154.255 0C192.119 0 230.636 6.09303 268.717 18.1703C277.748 20.9992 283.841 29.377 283.841 38.9518V54.946C292.654 57.5573 299.835 60.8214 304.296 63.1063C311.586 66.8056 316.264 73.8779 316.917 82.0382C317.57 89.9809 314.197 97.4883 307.995 102.276C308.974 104.452 309.845 106.519 310.606 108.369C312.891 114.353 313 120.99 310.389 126.865C306.581 135.352 298.203 140.683 289.063 140.683H288.628Z" fill="white"/>
</svg>
