<svg width="88" height="42" viewBox="0 0 88 42" fill="none" xmlns="http://www.w3.org/2000/svg">
<path fill-rule="evenodd" clip-rule="evenodd" d="M4.51808 24.7251C5.04968 24.2345 5.99315 24.3515 6.64261 24.9796C14.4036 32.2871 22.1866 36.4453 29.761 37.3982C37.1361 38.3251 44.2415 36.1176 50.8758 30.8877C52.3531 29.7496 54.5586 27.2797 56.4074 24.2767C54.2751 21.5106 52.7088 18.3452 51.7793 15.3621C50.4077 10.9566 50.6272 7.07615 51.8928 5.28733C52.5942 4.29685 53.5793 3.75375 54.7861 3.61891C56.3311 3.44848 58.5176 4.01054 61.2082 6.30276C64.9218 9.47834 66.187 13.5483 65.65 17.8056C65.3651 20.0433 64.5449 22.3316 63.4477 24.4952C65.1439 25.8723 67.1666 26.7888 69.5081 26.8119C74.4681 26.8934 77.7941 23.3787 79.9579 19.0424C81.8356 15.2916 83.9773 9.67795 82.7203 4.87706C82.294 3.24569 81.4113 1.78421 82.6471 0.633117C84.5368 -1.15041 86.7038 1.17005 87.2925 3.41108C88.5545 8.22502 87.4224 13.7188 86.1666 17.8814C83.8644 25.5425 78.6818 32.0751 70.7215 32.1423C66.9879 32.1572 63.6719 30.8237 60.8747 28.7329C58.7676 31.7323 56.4044 34.1426 54.8077 35.305C46.8926 40.9215 38.5332 42.9954 30.0669 41.5599C21.6094 40.1301 13.0212 35.2358 4.73119 26.7594C4.08568 26.1238 3.98648 25.2158 4.51808 24.7251ZM59.1556 18.2991C59.5337 17.0254 59.7442 15.7554 59.7112 14.5211C59.6665 12.951 59.186 11.4446 57.7826 10.2519C57.545 10.0525 57.2524 9.77855 57.0148 9.57915C56.9111 10.1106 56.746 11.1605 56.8403 12.0555C57.0603 14.0543 57.7958 16.4873 58.9907 18.812C59.0598 18.6367 59.1122 18.4707 59.1556 18.2991Z" fill="#4D2C5E"/>
<path fill-rule="evenodd" clip-rule="evenodd" d="M8.95025 29.1299C9.79643 30.6748 10.6298 32.3108 11.2655 33.8521C12.247 36.2561 12.792 38.4148 12.3645 39.8916C12.2629 40.641 11.5045 41.0264 10.6843 40.7478C9.86028 40.4767 9.27544 39.642 9.38589 38.8981C9.38507 38.5206 9.2023 38.1079 9.02153 37.6468C8.60496 36.561 7.81077 35.3861 6.94776 34.1183C5.84492 32.501 4.55227 30.8633 3.43758 29.3575C2.42414 27.9949 1.56606 26.7401 0.999962 25.7585C0.106582 24.2136 -0.0679649 22.9827 0.01887 22.2834C0.0445139 22.1012 1.36248 19.4989 4.26325 20.9294C5.30065 21.444 7.88766 22.8654 8.01549 22.936C9.57986 23.8817 12.4815 25.6005 15.1789 26.635C16.0314 26.9637 16.8525 27.2627 17.5832 27.3758C17.6147 27.3163 17.6462 27.2567 17.6866 27.2028C18.2642 26.3564 19.5615 26.2907 20.6018 27.0452C21.173 27.4149 21.9693 28.363 22.214 28.904C22.6846 29.9544 22.3735 30.7207 21.4645 31.2791C20.226 32.0365 18.318 32.0746 16.122 31.6536C13.8129 31.2009 11.1352 30.1293 8.95025 29.1299ZM6.01847 24.168C5.82289 23.8464 5.74332 23.6177 5.95675 23.5934C6.19576 23.5654 6.07659 23.9467 6.01847 24.168Z" fill="#4D2C5E"/>
</svg>
