<svg width="60" height="60" viewBox="0 0 60 60" fill="none" xmlns="http://www.w3.org/2000/svg">
<g clip-path="url(#clip0_849_27399)">
<path d="M58.2414 56.4839H56.3664V21.7969C56.3664 20.8261 55.5794 20.0391 54.6086 20.0391H47.5775C46.6067 20.0391 45.8197 20.8261 45.8197 21.7969V56.4839H42.3041V33.5154C42.3041 32.5447 41.5171 31.7577 40.5463 31.7577H33.5152C32.5444 31.7577 31.7574 32.5447 31.7574 33.5154V56.4839H28.2418V39.9607C28.2418 38.9899 27.4548 38.2029 26.484 38.2029H19.4529C18.4821 38.2029 17.6951 38.9899 17.6951 39.9607V56.4839H14.1795V44.1794C14.1795 43.2086 13.3925 42.4216 12.4217 42.4216H5.39055C4.41978 42.4216 3.63276 43.2086 3.63276 44.1794V56.4839H1.75779C0.78702 56.4839 0 57.2709 0 58.2417C0 59.2124 0.78702 59.9995 1.75779 59.9995H58.2414C59.2122 59.9995 59.9992 59.2124 59.9992 58.2417C59.9992 57.2709 59.2122 56.4839 58.2414 56.4839Z" fill="#0075FF"/>
<path d="M1.75779 37.7698C12.7285 37.7698 24.6254 33.8298 35.2573 26.6755C43.5839 21.0723 50.5249 13.9142 54.8364 6.58457L56.5436 12.9556C56.7541 13.741 57.7702 14.4195 58.6964 14.1985C59.6407 13.9733 60.1905 12.9834 59.9393 12.0457L57.0609 1.30324C56.8095 0.365633 55.8461 -0.191 54.908 0.0603637L44.1656 2.9388C43.2279 3.19005 42.6715 4.1539 42.9227 5.09162C43.1741 6.02934 44.1375 6.58598 45.0756 6.3345L51.996 4.48015C47.9736 11.4698 41.3258 18.3543 33.2945 23.7588C23.2367 30.5269 12.0367 34.2543 1.75779 34.2543C0.78702 34.2543 0 35.0413 0 36.0121C0 36.9828 0.78702 37.7698 1.75779 37.7698Z" fill="#0075FF"/>
</g>
<defs>
<clipPath id="clip0_849_27399">
<rect width="60" height="60" fill="white"/>
</clipPath>
</defs>
</svg>
