<svg width="625" height="575" viewBox="0 0 625 575" fill="none" xmlns="http://www.w3.org/2000/svg">
<path d="M3.93835 3.17686C4.10561 1.73229 5.2844 0.713445 6.57121 0.901201C7.85807 1.08896 8.76566 2.41222 8.5984 3.85677L3.93835 3.17686ZM600.977 573.912C599.782 574.48 598.403 573.855 597.896 572.514L589.631 550.664C589.124 549.322 589.682 547.775 590.875 547.205C592.07 546.635 593.449 547.261 593.956 548.601L601.303 568.024L618.605 559.777C619.799 559.208 621.179 559.834 621.687 561.175C622.193 562.515 621.637 564.065 620.441 564.634L600.977 573.912ZM600.95 561.154C601.378 559.779 602.717 559.053 603.942 559.535C605.167 560.015 605.814 561.518 605.386 562.893L600.95 561.154ZM610.961 543.329C610.596 544.727 609.292 545.529 608.046 545.119C606.801 544.71 606.087 543.245 606.452 541.847L610.961 543.329ZM611.099 522.281C611.403 520.866 612.672 519.993 613.933 520.335C615.195 520.676 615.972 522.1 615.668 523.516L611.099 522.281ZM619.483 503.457C619.246 504.89 618.02 505.835 616.745 505.569C615.468 505.304 614.627 503.927 614.863 502.494L619.483 503.457ZM617.631 482.511C617.791 481.066 618.964 480.041 620.252 480.22C621.541 480.398 622.454 481.716 622.294 483.162L617.631 482.511ZM623.917 462.699C623.85 464.155 622.745 465.272 621.45 465.196C620.153 465.12 619.157 463.881 619.224 462.425L623.917 462.699ZM619.401 442.289C619.354 440.833 620.368 439.611 621.665 439.56C622.962 439.508 624.05 440.645 624.097 442.101L619.401 442.289ZM622.471 421.528C622.659 422.97 621.771 424.31 620.487 424.521C619.204 424.732 618.01 423.735 617.821 422.294L622.471 421.528ZM614.063 402.767C613.696 401.369 614.409 399.903 615.654 399.493C616.9 399.082 618.206 399.882 618.571 401.28L614.063 402.767ZM611.856 381.895C612.435 383.198 611.962 384.782 610.802 385.431C609.639 386.08 608.228 385.551 607.65 384.246L611.856 381.895ZM598.219 367.545C597.41 366.405 597.578 364.745 598.594 363.838C599.61 362.931 601.087 363.119 601.895 364.258L598.219 367.545ZM588.751 349.482C589.765 350.391 589.931 352.051 589.121 353.189C588.311 354.328 586.832 354.513 585.819 353.604L588.751 349.482ZM570.983 343.004C569.823 342.352 569.353 340.768 569.935 339.465C570.517 338.162 571.928 337.636 573.089 338.288L570.983 343.004ZM555.803 330.678C557.047 331.093 557.755 332.561 557.385 333.957C557.014 335.353 555.706 336.15 554.462 335.733L555.803 330.678ZM537.13 331.43C535.847 331.211 534.967 329.864 535.162 328.423C535.358 326.985 536.558 325.995 537.841 326.217L537.13 331.43ZM519.608 324.238C520.903 324.304 521.907 325.536 521.848 326.992C521.79 328.446 520.692 329.574 519.395 329.508L519.608 324.238ZM501.007 329.285C499.71 329.287 498.657 328.107 498.656 326.651C498.654 325.193 499.705 324.012 501.002 324.01L501.007 329.285ZM482.236 324.024C483.535 324.024 484.586 325.206 484.586 326.662C484.586 328.119 483.533 329.299 482.236 329.299V324.024ZM463.463 329.259C462.164 329.252 461.118 328.067 461.123 326.611C461.127 325.153 462.185 323.976 463.482 323.984L463.463 329.259ZM444.735 323.834C446.033 323.85 447.074 325.042 447.061 326.5C447.047 327.956 445.985 329.125 444.686 329.109L444.735 323.834ZM425.908 328.81C424.61 328.784 423.577 327.581 423.601 326.124C423.626 324.668 424.696 323.509 425.994 323.535L425.908 328.81ZM407.255 323.048C408.552 323.09 409.575 324.304 409.537 325.759C409.501 327.215 408.421 328.362 407.124 328.322L407.255 323.048ZM388.336 327.611C387.039 327.553 386.03 326.327 386.082 324.872C386.132 323.416 387.225 322.281 388.522 322.339L388.336 327.611ZM369.799 321.376C371.095 321.453 372.091 322.693 372.022 324.149C371.954 325.603 370.849 326.72 369.553 326.644L369.799 321.376ZM350.781 325.388C349.487 325.292 348.508 324.035 348.594 322.58C348.681 321.128 349.801 320.029 351.096 320.126L350.781 325.388ZM332.446 318.557C333.74 318.678 334.7 319.953 334.594 321.404C334.486 322.856 333.35 323.934 332.056 323.815L332.446 318.557ZM313.342 321.88C312.052 321.735 311.11 320.44 311.24 318.991C311.372 317.542 312.525 316.486 313.815 316.633L313.342 321.88ZM295.216 314.314C296.505 314.49 297.423 315.803 297.266 317.251C297.11 318.696 295.939 319.726 294.65 319.551L295.216 314.314ZM276.001 316.783C274.716 316.577 273.825 315.239 274.008 313.797C274.193 312.355 275.383 311.355 276.668 311.562L276.001 316.783ZM258.193 308.33C259.472 308.573 260.335 309.934 260.119 311.369C259.904 312.805 258.692 313.774 257.412 313.532L258.193 308.33ZM238.908 309.747C237.634 309.468 236.804 308.08 237.055 306.651C237.304 305.221 238.54 304.291 239.813 304.572L238.908 309.747ZM221.533 300.226C222.799 300.549 223.591 301.963 223.303 303.384C223.015 304.805 221.756 305.693 220.49 305.369L221.533 300.226ZM202.186 300.331C200.932 299.96 200.181 298.518 200.512 297.11C200.842 295.701 202.128 294.859 203.383 295.23L202.186 300.331ZM185.413 289.519C186.655 289.942 187.355 291.416 186.978 292.809C186.6 294.203 185.289 294.989 184.047 294.565L185.413 289.519ZM166.121 287.992C164.898 287.509 164.252 286.004 164.682 284.63C165.111 283.255 166.452 282.531 167.677 283.014L166.121 287.992ZM150.234 275.633C151.437 276.179 152.017 277.716 151.53 279.067C151.043 280.417 149.674 281.07 148.471 280.523L150.234 275.633ZM131.169 272.063C129.994 271.444 129.487 269.874 130.038 268.555C130.588 267.236 131.987 266.666 133.162 267.285L131.169 272.063ZM116.557 257.874C117.697 258.571 118.118 260.173 117.498 261.451C116.878 262.731 115.451 263.204 114.311 262.508L116.557 257.874ZM98.0174 251.757C96.922 250.976 96.5979 249.346 97.2937 248.115C97.9894 246.886 99.4415 246.522 100.537 247.305L98.0174 251.757ZM85.2463 235.485C86.2861 236.357 86.4994 238.01 85.7228 239.177C84.9463 240.343 83.474 240.584 82.4342 239.712L85.2463 235.485ZM67.7386 226.297C66.7676 225.331 66.6781 223.664 67.5389 222.574C68.3996 221.484 69.8846 221.384 70.8556 222.349L67.7386 226.297ZM57.5547 207.862C58.4433 208.924 58.397 210.592 57.4513 211.591C56.5055 212.588 55.0187 212.535 54.1301 211.475L57.5547 207.862ZM41.8168 195.261C41.0245 194.107 41.2153 192.451 42.243 191.561C43.2706 190.671 44.746 190.886 45.5383 192.039L41.8168 195.261ZM34.9886 174.964C35.673 176.201 35.334 177.828 34.2316 178.596C33.129 179.365 31.6805 178.983 30.996 177.745L34.9886 174.964ZM21.8234 159.095C21.2549 157.786 21.7396 156.207 22.9061 155.569C24.0726 154.931 25.4791 155.475 26.0477 156.784L21.8234 159.095ZM18.7911 137.694C19.2406 139.06 18.6183 140.577 17.401 141.082C16.1838 141.586 14.8325 140.888 14.3829 139.521L18.7911 137.694ZM8.68148 119.259C8.34901 117.85 9.09632 116.406 10.3507 116.033C11.605 115.66 12.8914 116.499 13.2239 117.907L8.68148 119.259ZM9.28567 97.6223C9.50689 99.0577 8.64969 100.423 7.37101 100.671C6.09236 100.919 4.87644 99.957 4.6552 98.5216L9.28567 97.6223ZM2.1921 77.4752C2.07382 76.0245 3.02555 74.7409 4.31781 74.6081C5.61007 74.4753 6.75352 75.5437 6.87179 76.9944L2.1921 77.4752ZM5.85827 56.1193C5.88294 57.5758 4.8511 58.7789 3.55368 58.8065C2.25625 58.8343 1.1845 57.676 1.15988 56.2195L5.85827 56.1193ZM1.42576 34.8904C1.48504 33.4351 2.58399 32.3094 3.88031 32.376C5.1766 32.4427 6.17942 33.6762 6.12008 35.1314L1.42576 34.8904ZM7.49481 14.4909C7.36211 15.94 6.20814 16.994 4.91726 16.845C3.62638 16.6961 2.68753 15.4006 2.82019 13.9516L7.49481 14.4909ZM600.059 571.483C597.88 570.495 597.88 570.495 597.88 570.495C597.88 570.493 597.882 570.491 597.882 570.488C597.885 570.483 597.888 570.474 597.891 570.462C597.901 570.437 597.915 570.4 597.932 570.349C597.968 570.249 598.021 570.096 598.092 569.892C598.234 569.486 598.444 568.879 598.712 568.084C599.248 566.493 600.018 564.151 600.95 561.154L605.386 562.893C604.44 565.935 603.656 568.322 603.107 569.95C602.832 570.766 602.616 571.392 602.468 571.816C602.395 572.028 602.337 572.19 602.299 572.299C602.279 572.354 602.265 572.396 602.254 572.424C602.249 572.44 602.244 572.45 602.243 572.457C602.241 572.461 602.24 572.464 602.238 572.466C602.238 572.468 602.238 572.47 602.238 572.47C602.238 572.471 602.238 572.471 602.238 572.471C602.238 572.471 602.236 572.471 600.059 571.483ZM606.452 541.847C607.982 535.979 609.573 529.397 611.099 522.281L615.668 523.516C614.122 530.723 612.511 537.388 610.961 543.329L606.452 541.847ZM614.863 502.494C615.93 496.047 616.875 489.355 617.631 482.511L622.294 483.162C621.525 490.12 620.565 496.918 619.483 503.457L614.863 502.494ZM619.224 462.425C619.536 455.732 619.613 448.992 619.401 442.289L624.097 442.101C624.315 448.975 624.235 455.87 623.917 462.699L619.224 462.425ZM617.821 422.294C616.95 415.627 615.717 409.089 614.063 402.767L618.571 401.28C620.294 407.865 621.571 414.645 622.471 421.528L617.821 422.294ZM607.65 384.246C605.028 378.338 601.906 372.741 598.219 367.545L601.895 364.258C605.802 369.765 609.099 375.677 611.856 381.895L607.65 384.246ZM585.819 353.604C581.42 349.662 576.492 346.104 570.983 343.004L573.089 338.288C578.884 341.55 584.089 345.304 588.751 349.482L585.819 353.604ZM554.462 335.733C549.111 333.947 543.344 332.498 537.13 331.43L537.841 326.217C544.252 327.317 550.231 328.816 555.803 330.678L554.462 335.733ZM519.395 329.508C516.431 329.357 513.385 329.28 510.252 329.28V324.005C513.452 324.005 516.571 324.084 519.608 324.238L519.395 329.508ZM510.252 329.28C507.224 329.28 504.141 329.283 501.007 329.285L501.002 324.01C504.138 324.008 507.222 324.005 510.252 324.005V329.28ZM482.236 329.299C476.127 329.297 469.863 329.289 463.463 329.259L463.482 323.984C469.874 324.013 476.132 324.022 482.236 324.024V329.299ZM444.686 329.109C438.526 329.039 432.26 328.94 425.908 328.81L425.994 323.535C432.332 323.667 438.585 323.764 444.735 323.834L444.686 329.109ZM407.124 328.322C400.924 328.126 394.658 327.891 388.336 327.611L388.522 322.339C394.824 322.619 401.073 322.853 407.255 323.048L407.124 328.322ZM369.553 326.644C363.333 326.278 357.072 325.861 350.781 325.388L351.096 320.126C357.362 320.597 363.599 321.012 369.799 321.376L369.553 326.644ZM332.056 323.815C325.831 323.233 319.591 322.591 313.342 321.88L313.815 316.633C320.034 317.338 326.248 317.979 332.446 318.557L332.056 323.815ZM294.65 319.551C288.425 318.705 282.205 317.783 276.001 316.783L276.668 311.562C282.838 312.556 289.024 313.472 295.216 314.314L294.65 319.551ZM257.412 313.532C251.215 312.36 245.042 311.101 238.908 309.747L239.813 304.572C245.905 305.914 252.034 307.166 258.193 308.33L257.412 313.532ZM220.49 305.369C214.335 303.797 208.231 302.119 202.186 300.331L203.383 295.23C209.375 297.002 215.429 298.666 221.533 300.226L220.49 305.369ZM184.047 294.565C177.993 292.499 172.014 290.31 166.121 287.992L167.677 283.014C173.504 285.307 179.42 287.474 185.413 289.519L184.047 294.565ZM148.471 280.523C142.594 277.852 136.822 275.035 131.169 272.063L133.162 267.285C138.735 270.215 144.43 272.995 150.234 275.633L148.471 280.523ZM114.311 262.508C108.734 259.102 103.297 255.522 98.0174 251.757L100.537 247.305C105.723 251.001 111.068 254.521 116.557 257.874L114.311 262.508ZM82.4342 239.712C77.3483 235.448 72.4441 230.979 67.7386 226.297L70.8556 222.349C75.459 226.93 80.2608 231.305 85.2463 235.485L82.4342 239.712ZM54.1301 211.475C49.7997 206.3 45.6896 200.9 41.8168 195.261L45.5383 192.039C49.3154 197.54 53.3262 202.81 57.5547 207.862L54.1301 211.475ZM30.996 177.745C27.6896 171.767 24.6268 165.553 21.8234 159.095L26.0477 156.784C28.7806 163.079 31.7659 169.136 34.9886 174.964L30.996 177.745ZM14.3829 139.521C12.2345 132.991 10.3298 126.239 8.68148 119.259L13.2239 117.907C14.8347 124.729 16.6948 131.322 18.7911 137.694L14.3829 139.521ZM4.6552 98.5216C3.60464 91.7055 2.7804 84.6919 2.1921 77.4752L6.87179 76.9944C7.44897 84.0747 8.25703 90.9487 9.28567 97.6223L4.6552 98.5216ZM1.15988 56.2195C1.04262 49.284 1.12886 42.1758 1.42576 34.8904L6.12008 35.1314C5.82768 42.307 5.74301 49.3014 5.85827 56.1193L1.15988 56.2195ZM2.82019 13.9516C3.14544 10.3995 3.51792 6.8081 3.93835 3.17686L8.5984 3.85677C8.18327 7.44206 7.81566 10.9866 7.49481 14.4909L2.82019 13.9516Z" fill="#85B6FF"/>
</svg>
