<svg width="11" height="17" viewBox="0 0 11 17" fill="none" xmlns="http://www.w3.org/2000/svg">
<path d="M0.842126 16.9998C0.618907 16.9998 0.40483 16.9141 0.24699 16.7615C0.0891504 16.6089 0.000476691 16.402 0.000476691 16.1862V10.8735C-0.0046593 10.726 0.0317875 10.5799 0.105916 10.451C0.180044 10.322 0.289062 10.2149 0.421301 10.1412L4.58747 7.83875V3.25821C4.58688 3.11485 4.62549 2.97388 4.69939 2.84958C4.77329 2.72528 4.87985 2.62206 5.00829 2.55038L9.39328 0.1096C9.48934 0.0558056 9.59547 0.0209135 9.70553 0.00693325C9.8156 -0.007047 9.92745 0.000160994 10.0346 0.0281414C10.1418 0.0561219 10.2422 0.104322 10.33 0.169966C10.4178 0.235611 10.4914 0.317402 10.5463 0.41063C10.6017 0.503974 10.6373 0.606995 10.6511 0.71373C10.665 0.820466 10.6568 0.928797 10.627 1.03245C10.5973 1.13611 10.5466 1.23304 10.4778 1.31763C10.4091 1.40222 10.3237 1.47279 10.2265 1.52525L6.27076 3.70569V8.31063C6.27051 8.4548 6.23063 8.59631 6.15521 8.72068C6.07978 8.84505 5.97153 8.94782 5.84152 9.01846L1.68378 11.3453V16.1862C1.68378 16.402 1.5951 16.6089 1.43726 16.7615C1.27942 16.9141 1.06535 16.9998 0.842126 16.9998Z" fill="#48537D"/>
</svg>
