<svg width="55" height="53" viewBox="0 0 55 53" fill="none" xmlns="http://www.w3.org/2000/svg">
<path d="M47.4604 15.5468C46.6812 16.2977 45.925 17.0264 45.9021 17.7552C45.8333 18.4618 46.6125 19.1906 47.3458 19.8752C48.4458 20.9793 49.5229 21.9731 49.4771 23.0552C49.4313 24.1372 48.2625 25.2635 47.0938 26.3676L37.6292 35.5102L34.375 32.3743L44.1146 23.011L41.9146 20.891L38.6604 24.0047L30.0667 15.7235L38.8667 7.26557C39.7604 6.40432 41.25 6.40432 42.0979 7.26557L47.4604 12.4331C48.3542 13.2502 48.3542 14.6856 47.4604 15.5468ZM6.875 38.0939L28.7833 16.9601L37.3771 25.2414L15.4688 46.3752H6.875V38.0939Z" fill="#979797"/>
</svg>
