<svg width="310" height="136" viewBox="0 0 310 136" fill="none" xmlns="http://www.w3.org/2000/svg">
<path d="M100.724 117.409C90.278 117.409 80.5937 112.621 74.1738 104.242C69.1684 97.7137 66.2305 89.4439 65.36 79.1067C54.3699 76.1688 45.5561 67.1373 41.9653 54.8415C37.6128 40.2606 41.4212 25.1357 51.5408 16.1042C60.681 7.9433 70.1477 6.96399 76.35 6.31111C80.1585 5.87586 82.8788 5.65825 87.2313 3.80844C93.1072 1.30575 99.0918 0 104.968 0C125.86 0 142.399 16.4307 142.726 37.5403C142.835 46.6806 139.57 55.0592 133.585 61.1527C132.497 62.2408 131.3 63.3289 129.995 64.1994C135.218 78.7803 135.218 91.0761 129.886 100.978C125.316 109.357 117.372 115.015 107.362 116.865C105.077 117.191 102.9 117.409 100.724 117.409Z" fill="white"/>
<path d="M234.906 133.622C227.942 133.622 221.195 131.228 215.211 126.658C207.05 120.456 202.371 111.533 201.827 101.74C201.283 90.9675 205.744 80.4126 215.102 70.1843C210.205 60.7176 210.641 49.0746 216.299 38.5198C223.154 25.7887 235.994 17.519 249.051 17.519C250.248 17.519 251.445 17.6278 252.533 17.7366C264.72 19.0423 271.793 25.4623 276.363 29.5972C279.193 32.2087 281.26 34.0585 285.504 36.0171C298.779 42.1106 307.484 52.9919 309.551 65.9405C311.51 78.2364 306.94 91.2939 297.691 99.7813C291.38 105.657 283.436 108.813 275.493 108.813C273.425 108.813 271.358 108.595 269.399 108.16C258.301 129.052 244.699 133.622 234.906 133.622Z" fill="white"/>
<path d="M53.9454 135.254C40.235 135.254 28.2657 128.29 21.7369 116.647C18.3637 110.662 17.1668 105.113 17.058 100.325C15.6434 99.1283 14.4465 97.9313 13.4672 96.7344C-0.460823 80.8477 -3.72523 62.2408 4.3269 45.4837C12.379 28.8354 28.9185 17.9541 46.3286 17.9541C52.3132 17.9541 58.0803 19.2598 63.0857 21.8713C73.8581 27.4208 80.9309 38.3021 81.5838 50.2715C86.3716 53.6446 90.7241 58.106 94.2061 63.329C110.31 87.0501 100.952 112.512 84.0865 124.59C74.2934 131.554 63.8474 135.254 53.9454 135.254Z" fill="white"/>
<path d="M155.475 116.648C149.817 116.648 144.268 115.125 139.371 112.513C135.454 114.037 131.21 114.907 126.966 114.907C120.002 114.907 113.365 112.731 107.707 108.596C95.5195 99.5645 90.9494 84.2219 95.9548 68.5529L96.0636 68.1176L96.1724 67.6824C97.4782 64.0916 99.1104 61.1536 100.525 58.5421C102.81 54.4073 104.877 50.49 106.836 42.0026V41.785C106.945 41.1321 107.162 40.3704 107.271 39.6087C109.121 31.2302 111.08 23.1781 115.323 16.5405C121.635 6.7474 131.754 1.19792 143.179 1.19792C144.159 1.19792 145.029 1.19796 146.009 1.30677C158.522 1.85083 169.186 8.92361 174.626 20.2401C178.108 27.4217 179.088 35.6915 179.849 44.1789C179.958 45.0494 179.958 45.7023 180.067 46.3551V46.5728C180.937 55.2778 182.57 59.4126 184.202 63.7651C185.29 66.4854 186.487 69.641 187.357 73.3406L187.466 73.7759L187.575 74.2112C190.622 90.4243 184.202 105.114 171.035 112.513C166.465 115.233 161.025 116.648 155.475 116.648Z" fill="white"/>
<path d="M209.21 123.829C202.464 123.829 195.826 121.653 190.494 117.845C187.992 118.498 185.38 118.824 182.66 118.824C178.851 118.824 174.934 118.171 170.908 116.974C157.415 112.731 149.146 101.74 148.71 87.5948C148.493 79.8691 150.56 72.3611 152.41 65.8323C153.28 62.5679 154.26 59.3036 154.586 56.9097C155.239 52.2307 155.457 49.4016 155.566 46.6813C155.892 40.8054 156.327 35.9088 158.939 27.6391C160.244 23.613 162.312 19.9134 164.923 16.649L165.032 16.5403C172.323 7.4 183.857 2.50341 197.458 2.50341C211.169 2.50341 226.294 7.61762 235.978 15.4521C244.357 22.1985 249.362 32.4269 249.906 44.0698C250.559 55.9304 246.533 68.7702 239.786 77.5841C243.051 87.0508 242.724 97.2791 237.937 106.419C232.496 117.083 221.397 123.829 209.21 123.829Z" fill="white"/>
</svg>
