<svg width="20" height="20" viewBox="0 0 20 20" fill="none" xmlns="http://www.w3.org/2000/svg">
<path d="M3.27395 0.541872L3.274 0.541845L13.6202 11.1851C14.154 10.8741 14.7723 10.729 15.3882 10.7702C16.004 10.8114 16.5855 11.0367 17.0517 11.4133L17.0518 11.4134L18.8519 12.8663C19.393 13.3031 19.7453 13.9164 19.8444 14.5919C19.9435 15.2675 19.783 15.9613 19.3909 16.5444L18.4869 17.887L18.4869 17.8871C18.1838 18.3377 17.7729 18.7143 17.2888 18.9841C16.8048 19.254 16.2623 19.409 15.7079 19.4358C12.3519 19.5971 8.8557 17.8545 5.2053 14.2235C1.55234 10.5891 -0.135198 7.17077 0.155372 3.96009L0.155372 3.96008C0.202942 3.43422 0.38157 2.92362 0.676755 2.47156C0.971999 2.01941 1.37418 1.63946 1.85133 1.36373L3.27395 0.541872ZM11.5924 12.3681L13.6201 11.1851L7.45092 8.30229L7.32911 8.27375C7.3291 8.2738 7.32909 8.27384 7.32908 8.27388C7.29901 8.40226 7.32031 8.55275 7.37552 8.71422C7.43144 8.87775 7.52629 9.06455 7.65848 9.27175C7.92297 9.68632 8.3452 10.1954 8.93438 10.7818L8.93441 10.7818C9.59858 11.4424 10.1557 11.8864 10.5907 12.1434C10.8079 12.2718 10.9994 12.3564 11.1621 12.3963C11.3218 12.4356 11.4729 12.4362 11.5913 12.3687L11.5924 12.3681ZM16.7166 18.0257C17.0341 17.8486 17.3045 17.601 17.5042 17.3037L18.4075 15.9623L18.4075 15.9622C18.6447 15.6097 18.7432 15.188 18.6828 14.7755C18.6224 14.3629 18.4074 13.9894 18.0791 13.7243L18.0004 13.8216L18.0791 13.7243L16.2787 12.2705C15.9961 12.0421 15.645 11.9066 15.2751 11.8819C14.9052 11.8571 14.5341 11.9441 14.2135 12.1308L14.2134 12.1309L12.1813 13.3165C12.1812 13.3166 12.181 13.3167 12.1809 13.3168C11.6602 13.6152 11.0765 13.6135 10.3984 13.3183C9.71519 13.0208 8.94619 12.4287 8.076 11.5626L8.07594 11.5625C7.33939 10.8302 6.81019 10.1818 6.49364 9.5995C6.17758 9.01814 6.07897 8.51325 6.18516 8.06008C6.2263 7.88462 6.30022 7.71701 6.40371 7.56508L7.70096 5.6683C7.90794 5.36585 8.01305 5.00993 8.00031 4.65033C7.98758 4.29067 7.8576 3.94651 7.62908 3.66635L7.62907 3.66635L6.17262 1.88094C5.90704 1.55518 5.52584 1.33724 5.1013 1.26604C4.67688 1.19487 4.23696 1.27494 3.86319 1.49115C3.86317 1.49116 3.86315 1.49117 3.86313 1.49119L2.44169 2.31236L2.44126 2.3119C2.12824 2.49273 1.86304 2.74251 1.66837 3.04055C1.47368 3.33862 1.35524 3.67626 1.32363 4.02508L1.44824 4.03634L1.32363 4.02508C1.06367 6.89482 2.6423 10.0386 6.06351 13.4419C9.48329 16.8442 12.6936 18.4661 15.6797 18.322C16.0433 18.3044 16.399 18.2028 16.7166 18.0257Z" fill="#275473" stroke="#275473" stroke-width="0.25"/>
</svg>
