<svg width="599" height="92" viewBox="0 0 599 92" fill="none" xmlns="http://www.w3.org/2000/svg">
<g style="mix-blend-mode:multiply" opacity="0.3">
<path d="M597.818 71.292L537.211 55.0494C533.845 54.1426 530.297 54.1426 526.931 55.0494L466.325 71.292C465.044 71.632 464.806 73.1848 465.622 73.9669C465.735 74.0803 465.871 74.1709 466.019 74.2389C466.109 74.2843 466.211 74.3182 466.325 74.3523L526.931 90.5948C530.297 91.5016 533.845 91.5016 537.211 90.5948L597.818 74.3523C597.931 74.3182 598.022 74.2843 598.124 74.2389C598.282 74.1596 598.407 74.0689 598.52 73.9669C599.336 73.1848 599.11 71.632 597.818 71.292Z" fill="black"/>
</g>
<g style="mix-blend-mode:multiply" opacity="0.3">
<path d="M557.281 27.8578L534.43 21.7371C533.161 21.397 531.823 21.397 530.554 21.7371L507.703 27.8578C507.216 27.9825 507.136 28.5718 507.442 28.8665C507.488 28.9119 507.533 28.9459 507.59 28.9686C507.624 28.9912 507.658 29.0025 507.703 29.0139L530.554 35.1346C531.823 35.4746 533.161 35.4746 534.43 35.1346L557.281 29.0139C557.281 29.0139 557.36 28.9912 557.394 28.9686C557.451 28.9459 557.496 28.9005 557.541 28.8665C557.847 28.5718 557.757 27.9825 557.281 27.8578Z" fill="black"/>
</g>
<g style="mix-blend-mode:multiply" opacity="0.3">
<path d="M81.9457 62.2923L70.8491 59.3225C70.237 59.1525 69.5796 59.1525 68.9676 59.3225L57.8709 62.2923C57.6329 62.3603 57.5989 62.6436 57.7463 62.7796C57.7689 62.8023 57.7916 62.8136 57.8143 62.8249C57.8369 62.8249 57.8482 62.8363 57.8709 62.8476L68.9676 65.8173C69.5796 65.9873 70.237 65.9873 70.8491 65.8173L81.9457 62.8476C81.9457 62.8476 81.9797 62.8363 82.0024 62.8249C82.0251 62.8136 82.0591 62.791 82.0704 62.7796C82.2177 62.6323 82.1723 62.3489 81.9457 62.2923Z" fill="black"/>
</g>
<g style="mix-blend-mode:multiply" opacity="0.3">
<path d="M88.2733 11.2524L47.9446 0.450551C45.7004 -0.150184 43.3428 -0.150184 41.1099 0.450551L0.781267 11.2524C-0.06883 11.4791 -0.227484 12.5106 0.316578 13.032C0.39592 13.1 0.47524 13.1679 0.577252 13.2133C0.633925 13.2473 0.701925 13.27 0.781267 13.2926L41.1099 24.0946C43.3541 24.6953 45.7117 24.6953 47.9446 24.0946L88.2733 13.2926C88.3413 13.27 88.4093 13.2473 88.4773 13.2133C88.5793 13.1679 88.67 13.1 88.738 13.032C89.2821 12.5106 89.1234 11.4791 88.2733 11.2524Z" fill="black"/>
</g>
</svg>
