<svg width="132" height="181" viewBox="0 0 132 181" fill="none" xmlns="http://www.w3.org/2000/svg">
<path fill-rule="evenodd" clip-rule="evenodd" d="M11.4217 167.312C11.4186 165.734 13.0402 164.363 15.0583 164.211C38.8488 162.109 57.4851 155.416 70.526 144.429C83.2224 133.73 90.3474 118.939 91.7809 100.546C92.1437 96.4888 91.4157 89.317 89.2694 81.9566C81.4838 81.4378 73.8979 79.4175 67.5768 76.6214C58.2431 72.49 52.1839 66.5206 51.1544 61.8679C50.5852 59.2907 51.1826 56.8972 52.7882 54.7322C54.8473 51.9636 59.0846 49.207 66.9351 48.1293C77.7898 46.6589 86.4097 50.4786 92.6085 57.5114C95.8629 61.2121 98.3898 65.86 100.292 70.7796C105.129 70.002 109.702 68.0253 113.286 64.2363C120.932 56.2571 120.18 45.7456 116.315 35.9428C112.981 27.454 106.978 15.8404 97.1667 10.9504C93.8342 9.28725 90.0899 8.61508 90.0656 4.93321C89.9899 -0.730644 97.094 -0.912894 101.677 1.36668C111.517 6.26752 118.852 16.0597 123.806 24.1286C132.938 38.9649 135.849 56.8713 123.904 69.9632C118.274 76.0797 111.055 79.5647 103.375 81.1076C105.124 88.8845 105.515 96.2276 105.012 100.515C102.275 121.557 93.0308 138.202 77.8442 149.948C62.6802 161.687 41.6119 168.629 15.095 169.905C13.0706 170.04 11.4247 168.889 11.4217 167.312ZM83.5858 68.8268C82.0604 66.3677 80.2875 64.1877 78.2043 62.4567C75.5506 60.2594 72.3416 58.8655 68.2516 59.4319C67.5634 59.5314 66.6689 59.613 65.9808 59.7124C66.6991 60.6503 68.1783 62.4379 69.7953 63.5781C73.4208 66.1092 78.5421 68.4267 84.1808 69.8375C83.9967 69.4712 83.8026 69.1458 83.5858 68.8268Z" fill="#FFB656"/>
<path fill-rule="evenodd" clip-rule="evenodd" d="M65.1672 59.4084C65.0584 59.7233 64.9082 59.9932 64.7263 59.8362C64.503 59.6342 64.7097 59.5189 65.1672 59.4084Z" fill="#FFB656"/>
<path fill-rule="evenodd" clip-rule="evenodd" d="M25.3873 166.452C29.2134 167.305 33.1704 168.31 36.6718 169.501C42.118 171.375 46.499 173.607 48.284 176.44C49.3646 177.69 48.8506 179.485 47.1497 180.421C45.4551 181.374 43.1945 181.122 42.1365 179.866C41.5135 179.322 40.5569 179.023 39.5236 178.651C37.1043 177.761 33.9663 177.359 30.571 176.935C26.2369 176.396 21.5817 176.138 17.4134 175.781C13.6341 175.465 10.2677 175.051 7.79358 174.556C3.89593 173.78 1.60403 172.285 0.583789 171.132C0.322438 170.827 -1.96767 164.913 4.78172 162.246C7.20046 161.296 13.4596 159.129 13.7695 159.022C17.6966 157.836 24.922 155.584 30.7111 152.677C32.5438 151.76 34.2798 150.852 35.5727 149.823C35.5224 149.686 35.4721 149.548 35.4443 149.404C34.9251 147.237 36.7815 145.025 39.5997 144.417C41.074 144.02 43.8414 144.091 45.1031 144.473C47.5462 145.224 48.3372 146.84 47.8801 149.131C47.252 152.248 44.425 155.418 40.4056 158.394C36.163 161.509 30.3425 164.331 25.3873 166.452ZM12.7743 164.064C11.9484 163.918 11.4512 163.717 11.7344 163.333C12.0503 162.903 12.4978 163.649 12.7743 164.064Z" fill="#FFB656"/>
</svg>
