<svg width="26" height="24" viewBox="0 0 26 24" fill="none" xmlns="http://www.w3.org/2000/svg">
<rect width="26" height="24" rx="8" fill="#23BDEE"/>
<g clip-path="url(#clip0_849_23138)">
<path d="M9.42528 5.3999C9.14321 5.3999 8.91455 5.61097 8.91455 5.87134V6.81419H9.93597V5.87134C9.93597 5.61097 9.70732 5.3999 9.42528 5.3999Z" fill="white"/>
<path d="M16.5752 5.3999C16.2931 5.3999 16.0645 5.61097 16.0645 5.87134V6.81419H17.0859V5.87134C17.0859 5.61097 16.8572 5.3999 16.5752 5.3999Z" fill="white"/>
<path d="M18.618 6.81396H17.0858V8.69969C17.0858 8.96006 16.8572 9.17113 16.5751 9.17113C16.293 9.17113 16.0644 8.96006 16.0644 8.69969V6.81396H9.9358V8.69969C9.9358 8.96006 9.70714 9.17113 9.42508 9.17113C9.14301 9.17113 8.91435 8.96006 8.91435 8.69969V6.81396H7.38224C6.53606 6.81396 5.8501 7.44716 5.8501 8.22825V17.1854C5.8501 17.9665 6.53606 18.5997 7.38224 18.5997H18.618C19.4641 18.5997 20.1501 17.9665 20.1501 17.1854V8.22825C20.1501 7.44716 19.4641 6.81396 18.618 6.81396ZM19.1286 17.1854C19.1286 17.4458 18.9 17.6568 18.6179 17.6568H7.38224C7.10017 17.6568 6.87152 17.4458 6.87152 17.1854V11.0568H19.1286V17.1854Z" fill="white"/>
<path d="M9.93595 12H8.91453C8.63246 12 8.40381 12.2111 8.40381 12.4714C8.40381 12.7318 8.63246 12.9429 8.91453 12.9429H9.93595C10.218 12.9429 10.4467 12.7318 10.4467 12.4714C10.4467 12.2111 10.218 12 9.93595 12Z" fill="white"/>
<path d="M13.5107 12H12.4892C12.2072 12 11.9785 12.2111 11.9785 12.4714C11.9785 12.7318 12.2072 12.9429 12.4892 12.9429H13.5107C13.7927 12.9429 14.0214 12.7318 14.0214 12.4714C14.0214 12.2111 13.7927 12 13.5107 12Z" fill="white"/>
<path d="M17.0859 12H16.0644C15.7824 12 15.5537 12.2111 15.5537 12.4714C15.5537 12.7318 15.7824 12.9429 16.0644 12.9429H17.0859C17.3679 12.9429 17.5966 12.7318 17.5966 12.4714C17.5966 12.2111 17.3679 12 17.0859 12Z" fill="white"/>
<path d="M9.93595 13.8857H8.91453C8.63246 13.8857 8.40381 14.0968 8.40381 14.3572C8.40381 14.6176 8.63246 14.8286 8.91453 14.8286H9.93595C10.218 14.8286 10.4467 14.6176 10.4467 14.3572C10.4467 14.0968 10.218 13.8857 9.93595 13.8857Z" fill="white"/>
<path d="M13.5107 13.8857H12.4892C12.2072 13.8857 11.9785 14.0968 11.9785 14.3572C11.9785 14.6176 12.2072 14.8286 12.4892 14.8286H13.5107C13.7927 14.8286 14.0214 14.6176 14.0214 14.3572C14.0214 14.0968 13.7927 13.8857 13.5107 13.8857Z" fill="white"/>
<path d="M17.0859 13.8857H16.0644C15.7824 13.8857 15.5537 14.0968 15.5537 14.3572C15.5537 14.6176 15.7824 14.8286 16.0644 14.8286H17.0859C17.3679 14.8286 17.5966 14.6176 17.5966 14.3572C17.5965 14.0968 17.3679 13.8857 17.0859 13.8857Z" fill="white"/>
<path d="M9.93595 15.7715H8.91453C8.63246 15.7715 8.40381 15.9825 8.40381 16.2429C8.40381 16.5033 8.63246 16.7143 8.91453 16.7143H9.93595C10.218 16.7143 10.4467 16.5033 10.4467 16.2429C10.4467 15.9825 10.218 15.7715 9.93595 15.7715Z" fill="white"/>
<path d="M13.5107 15.7715H12.4892C12.2072 15.7715 11.9785 15.9825 11.9785 16.2429C11.9785 16.5033 12.2072 16.7144 12.4892 16.7144H13.5107C13.7927 16.7144 14.0214 16.5033 14.0214 16.2429C14.0214 15.9825 13.7927 15.7715 13.5107 15.7715Z" fill="white"/>
<path d="M17.0859 15.7715H16.0644C15.7824 15.7715 15.5537 15.9825 15.5537 16.2429C15.5537 16.5033 15.7824 16.7144 16.0644 16.7144H17.0859C17.3679 16.7144 17.5966 16.5033 17.5966 16.2429C17.5966 15.9825 17.3679 15.7715 17.0859 15.7715Z" fill="white"/>
</g>
<defs>
<clipPath id="clip0_849_23138">
<rect width="14.3" height="13.2" fill="white" transform="translate(5.8501 5.3999)"/>
</clipPath>
</defs>
</svg>
