<svg width="36" height="26" viewBox="0 0 36 26" fill="none" xmlns="http://www.w3.org/2000/svg">
<path d="M0 22C0 23.0609 0.421427 24.0783 1.17157 24.8284C1.92172 25.5786 2.93913 26 4 26H32C33.0609 26 34.0783 25.5786 34.8284 24.8284C35.5786 24.0783 36 23.0609 36 22V17H0V22Z" fill="#138808"/>
<path d="M36 9V4C36 2.93913 35.5786 1.92172 34.8284 1.17157C34.0783 0.421427 33.0609 0 32 0H4C2.93913 0 1.92172 0.421427 1.17157 1.17157C0.421427 1.92172 0 2.93913 0 4L0 9H36Z" fill="#FF9933"/>
<path d="M0 8.66699H36V17.334H0V8.66699Z" fill="#F7F7F7"/>
<path d="M18 17C20.2091 17 22 15.2091 22 13C22 10.7909 20.2091 9 18 9C15.7909 9 14 10.7909 14 13C14 15.2091 15.7909 17 18 17Z" fill="#000080"/>
<path d="M18 16.375C19.864 16.375 21.375 14.864 21.375 13C21.375 11.136 19.864 9.625 18 9.625C16.136 9.625 14.625 11.136 14.625 13C14.625 14.864 16.136 16.375 18 16.375Z" fill="#F7F7F7"/>
<path d="M18.0969 11.7498L17.9969 12.3998L17.8969 11.7498L17.9969 9.7998L18.0969 11.7498ZM17.1689 9.9088L17.5769 11.8178L17.8419 12.4198L17.7699 11.7668L17.1689 9.9088ZM16.3969 10.2288L17.2849 11.9668L17.6969 12.4798L17.4589 11.8668L16.3969 10.2288ZM15.7339 10.7368L17.0419 12.1868L17.5729 12.5758L17.1839 12.0448L15.7339 10.7368ZM15.2259 11.3998L16.8639 12.4618L17.4769 12.6998L16.9639 12.2878L15.2259 11.3998ZM14.9059 12.1718L16.7639 12.7728L17.4169 12.8448L16.8149 12.5798L14.9059 12.1718ZM14.7969 12.9998L16.7469 13.0998L17.3969 12.9998L16.7469 12.8998L14.7969 12.9998ZM14.9059 13.8278L16.8149 13.4198L17.4169 13.1548L16.7639 13.2268L14.9059 13.8278ZM15.2259 14.5998L16.9639 13.7118L17.4769 13.2998L16.8639 13.5378L15.2259 14.5998ZM15.7339 15.2628L17.1839 13.9548L17.5729 13.4238L17.0419 13.8128L15.7339 15.2628ZM16.3969 15.7708L17.4589 14.1328L17.6969 13.5198L17.2849 14.0328L16.3969 15.7708ZM17.1689 16.0908L17.7699 14.2328L17.8419 13.5798L17.5769 14.1818L17.1689 16.0908ZM17.9969 16.1998L18.0969 14.2498L17.9969 13.5998L17.8969 14.2498L17.9969 16.1998ZM18.8249 16.0908L18.4169 14.1818L18.1519 13.5798L18.2239 14.2328L18.8249 16.0908ZM19.5969 15.7708L18.7089 14.0328L18.2969 13.5198L18.5349 14.1328L19.5969 15.7708ZM20.2599 15.2628L18.9519 13.8128L18.4209 13.4238L18.8099 13.9548L20.2599 15.2628ZM20.7679 14.5998L19.1299 13.5378L18.5169 13.2998L19.0299 13.7118L20.7679 14.5998ZM21.0879 13.8278L19.2299 13.2268L18.5769 13.1548L19.1789 13.4198L21.0879 13.8278ZM21.1969 12.9998L19.2469 12.8998L18.5969 12.9998L19.2469 13.0998L21.1969 12.9998ZM21.0879 12.1718L19.1789 12.5798L18.5769 12.8448L19.2299 12.7728L21.0879 12.1718ZM20.7679 11.3998L19.0299 12.2878L18.5169 12.6998L19.1299 12.4618L20.7679 11.3998ZM20.2599 10.7368L18.8099 12.0448L18.4209 12.5758L18.9519 12.1868L20.2599 10.7368ZM19.5969 10.2288L18.5349 11.8668L18.2969 12.4798L18.7089 11.9668L19.5969 10.2288ZM18.8249 9.9088L18.2239 11.7668L18.1519 12.4198L18.4169 11.8178L18.8249 9.9088Z" fill="#6666B3"/>
<path d="M17.5594 9.85898C17.6698 9.85898 17.7594 9.76944 17.7594 9.65899C17.7594 9.54853 17.6698 9.45898 17.5594 9.45898C17.4489 9.45898 17.3594 9.54853 17.3594 9.65899C17.3594 9.76944 17.4489 9.85898 17.5594 9.85898Z" fill="#000080"/>
<path d="M16.7156 10.087C16.8261 10.087 16.9156 9.99747 16.9156 9.88701C16.9156 9.77655 16.8261 9.68701 16.7156 9.68701C16.6052 9.68701 16.5156 9.77655 16.5156 9.88701C16.5156 9.99747 16.6052 10.087 16.7156 10.087Z" fill="#000080"/>
<path d="M15.95 10.526C16.0605 10.526 16.15 10.4364 16.15 10.326C16.15 10.2155 16.0605 10.126 15.95 10.126C15.8395 10.126 15.75 10.2155 15.75 10.326C15.75 10.4364 15.8395 10.526 15.95 10.526Z" fill="#000080"/>
<path d="M15.325 11.148C15.4355 11.148 15.525 11.0585 15.525 10.948C15.525 10.8376 15.4355 10.748 15.325 10.748C15.2145 10.748 15.125 10.8376 15.125 10.948C15.125 11.0585 15.2145 11.148 15.325 11.148Z" fill="#000080"/>
<path d="M14.8875 11.9098C14.998 11.9098 15.0875 11.8202 15.0875 11.7098C15.0875 11.5993 14.998 11.5098 14.8875 11.5098C14.777 11.5098 14.6875 11.5993 14.6875 11.7098C14.6875 11.8202 14.777 11.9098 14.8875 11.9098Z" fill="#000080"/>
<path d="M14.6609 12.7599C14.7714 12.7599 14.8609 12.6703 14.8609 12.5599C14.8609 12.4494 14.7714 12.3599 14.6609 12.3599C14.5505 12.3599 14.4609 12.4494 14.4609 12.5599C14.4609 12.6703 14.5505 12.7599 14.6609 12.7599Z" fill="#000080"/>
<path d="M14.6609 13.6402C14.7714 13.6402 14.8609 13.5507 14.8609 13.4402C14.8609 13.3298 14.7714 13.2402 14.6609 13.2402C14.5505 13.2402 14.4609 13.3298 14.4609 13.4402C14.4609 13.5507 14.5505 13.6402 14.6609 13.6402Z" fill="#000080"/>
<path d="M14.8875 14.4898C14.998 14.4898 15.0875 14.4003 15.0875 14.2898C15.0875 14.1794 14.998 14.0898 14.8875 14.0898C14.777 14.0898 14.6875 14.1794 14.6875 14.2898C14.6875 14.4003 14.777 14.4898 14.8875 14.4898Z" fill="#000080"/>
<path d="M15.325 15.2521C15.4355 15.2521 15.525 15.1625 15.525 15.0521C15.525 14.9416 15.4355 14.8521 15.325 14.8521C15.2145 14.8521 15.125 14.9416 15.125 15.0521C15.125 15.1625 15.2145 15.2521 15.325 15.2521Z" fill="#000080"/>
<path d="M15.95 15.8736C16.0605 15.8736 16.15 15.7841 16.15 15.6736C16.15 15.5632 16.0605 15.4736 15.95 15.4736C15.8395 15.4736 15.75 15.5632 15.75 15.6736C15.75 15.7841 15.8395 15.8736 15.95 15.8736Z" fill="#000080"/>
<path d="M16.7156 16.3131C16.8261 16.3131 16.9156 16.2235 16.9156 16.1131C16.9156 16.0026 16.8261 15.9131 16.7156 15.9131C16.6052 15.9131 16.5156 16.0026 16.5156 16.1131C16.5156 16.2235 16.6052 16.3131 16.7156 16.3131Z" fill="#000080"/>
<path d="M17.5594 16.5406C17.6698 16.5406 17.7594 16.4511 17.7594 16.3406C17.7594 16.2302 17.6698 16.1406 17.5594 16.1406C17.4489 16.1406 17.3594 16.2302 17.3594 16.3406C17.3594 16.4511 17.4489 16.5406 17.5594 16.5406Z" fill="#000080"/>
<path d="M18.4422 16.5406C18.5526 16.5406 18.6422 16.4511 18.6422 16.3406C18.6422 16.2302 18.5526 16.1406 18.4422 16.1406C18.3317 16.1406 18.2422 16.2302 18.2422 16.3406C18.2422 16.4511 18.3317 16.5406 18.4422 16.5406Z" fill="#000080"/>
<path d="M19.2938 16.3131C19.4042 16.3131 19.4937 16.2235 19.4937 16.1131C19.4937 16.0026 19.4042 15.9131 19.2938 15.9131C19.1833 15.9131 19.0938 16.0026 19.0938 16.1131C19.0938 16.2235 19.1833 16.3131 19.2938 16.3131Z" fill="#000080"/>
<path d="M20.0594 15.8736C20.1698 15.8736 20.2594 15.7841 20.2594 15.6736C20.2594 15.5632 20.1698 15.4736 20.0594 15.4736C19.9489 15.4736 19.8594 15.5632 19.8594 15.6736C19.8594 15.7841 19.9489 15.8736 20.0594 15.8736Z" fill="#000080"/>
<path d="M20.6766 15.2521C20.787 15.2521 20.8766 15.1625 20.8766 15.0521C20.8766 14.9416 20.787 14.8521 20.6766 14.8521C20.5661 14.8521 20.4766 14.9416 20.4766 15.0521C20.4766 15.1625 20.5661 15.2521 20.6766 15.2521Z" fill="#000080"/>
<path d="M21.1141 14.4898C21.2245 14.4898 21.3141 14.4003 21.3141 14.2898C21.3141 14.1794 21.2245 14.0898 21.1141 14.0898C21.0036 14.0898 20.9141 14.1794 20.9141 14.2898C20.9141 14.4003 21.0036 14.4898 21.1141 14.4898Z" fill="#000080"/>
<path d="M21.3406 13.6402C21.4511 13.6402 21.5406 13.5507 21.5406 13.4402C21.5406 13.3298 21.4511 13.2402 21.3406 13.2402C21.2302 13.2402 21.1406 13.3298 21.1406 13.4402C21.1406 13.5507 21.2302 13.6402 21.3406 13.6402Z" fill="#000080"/>
<path d="M21.3406 12.7599C21.4511 12.7599 21.5406 12.6703 21.5406 12.5599C21.5406 12.4494 21.4511 12.3599 21.3406 12.3599C21.2302 12.3599 21.1406 12.4494 21.1406 12.5599C21.1406 12.6703 21.2302 12.7599 21.3406 12.7599Z" fill="#000080"/>
<path d="M21.1141 11.9098C21.2245 11.9098 21.3141 11.8202 21.3141 11.7098C21.3141 11.5993 21.2245 11.5098 21.1141 11.5098C21.0036 11.5098 20.9141 11.5993 20.9141 11.7098C20.9141 11.8202 21.0036 11.9098 21.1141 11.9098Z" fill="#000080"/>
<path d="M20.6766 11.148C20.787 11.148 20.8766 11.0585 20.8766 10.948C20.8766 10.8376 20.787 10.748 20.6766 10.748C20.5661 10.748 20.4766 10.8376 20.4766 10.948C20.4766 11.0585 20.5661 11.148 20.6766 11.148Z" fill="#000080"/>
<path d="M20.0594 10.526C20.1698 10.526 20.2594 10.4364 20.2594 10.326C20.2594 10.2155 20.1698 10.126 20.0594 10.126C19.9489 10.126 19.8594 10.2155 19.8594 10.326C19.8594 10.4364 19.9489 10.526 20.0594 10.526Z" fill="#000080"/>
<path d="M19.2938 10.087C19.4042 10.087 19.4937 9.99747 19.4937 9.88701C19.4937 9.77655 19.4042 9.68701 19.2938 9.68701C19.1833 9.68701 19.0938 9.77655 19.0938 9.88701C19.0938 9.99747 19.1833 10.087 19.2938 10.087Z" fill="#000080"/>
<path d="M18.4422 9.85898C18.5526 9.85898 18.6422 9.76944 18.6422 9.65899C18.6422 9.54853 18.5526 9.45898 18.4422 9.45898C18.3317 9.45898 18.2422 9.54853 18.2422 9.65899C18.2422 9.76944 18.3317 9.85898 18.4422 9.85898Z" fill="#000080"/>
<path d="M18.0016 13.9001C18.4986 13.9001 18.9016 13.4972 18.9016 13.0001C18.9016 12.503 18.4986 12.1001 18.0016 12.1001C17.5045 12.1001 17.1016 12.503 17.1016 13.0001C17.1016 13.4972 17.5045 13.9001 18.0016 13.9001Z" fill="#000080"/>
</svg>
