<svg width="22" height="22" viewBox="0 0 22 22" fill="none" xmlns="http://www.w3.org/2000/svg">
<path d="M19.9861 16V7H5.99584V16H19.9861ZM19.9861 2C20.5162 2 21.0245 2.21071 21.3994 2.58579C21.7742 2.96086 21.9847 3.46957 21.9847 4V16C21.9847 16.5304 21.7742 17.0391 21.3994 17.4142C21.0245 17.7893 20.5162 18 19.9861 18H5.99584C5.46577 18 4.95742 17.7893 4.58261 17.4142C4.20779 17.0391 3.99723 16.5304 3.99723 16V4C3.99723 3.46957 4.20779 2.96086 4.58261 2.58579C4.95742 2.21071 5.46577 2 5.99584 2H6.99514V0H8.99376V2H16.9882V0H18.9868V2H19.9861ZM16.5185 10.06L12.0816 14.5L9.40347 11.82L10.4627 10.76L12.0816 12.38L15.4593 9L16.5185 10.06ZM1.99861 20H15.9889V22H1.99861C1.46855 22 0.960193 21.7893 0.58538 21.4142C0.210568 21.0391 0 20.5304 0 20V8H1.99861V20Z" fill="#FFB656"/>
</svg>
