<svg width="418" height="470" viewBox="0 0 418 470" fill="none" xmlns="http://www.w3.org/2000/svg">
<g filter="url(#filter0_d_849_10996)">
<path d="M43.595 76.942C35.1489 173.46 30.9869 226.1 28.9626 306.113C31.8674 337.195 37.3934 350.625 59.3638 362.186C147.765 401.061 209.443 430.986 281.801 459.097C312.293 462.359 324.152 455.692 336.105 438.852C360.686 377.136 372.6 307.584 395.809 220.188C401.744 186.085 396.857 171.273 372.147 153.128C280.12 98.5422 145.892 22.83 145.892 22.83C145.892 22.83 120.535 5.97111 104.133 7.27853C84.6983 10.8042 75.7357 16.3629 63.9846 28.4767C50.3832 42.805 45.9539 53.4309 43.595 76.942Z" fill="#275473"/>
</g>
<defs>
<filter id="filter0_d_849_10996" x="8.94765" y="-12.8078" width="409.157" height="492.722" filterUnits="userSpaceOnUse" color-interpolation-filters="sRGB">
<feFlood flood-opacity="0" result="BackgroundImageFix"/>
<feColorMatrix in="SourceAlpha" type="matrix" values="0 0 0 0 0 0 0 0 0 0 0 0 0 0 0 0 0 0 127 0" result="hardAlpha"/>
<feOffset/>
<feGaussianBlur stdDeviation="10"/>
<feComposite in2="hardAlpha" operator="out"/>
<feColorMatrix type="matrix" values="0 0 0 0 0 0 0 0 0 0 0 0 0 0 0 0 0 0 0.1 0"/>
<feBlend mode="normal" in2="BackgroundImageFix" result="effect1_dropShadow_849_10996"/>
<feBlend mode="normal" in="SourceGraphic" in2="effect1_dropShadow_849_10996" result="shape"/>
</filter>
</defs>
</svg>
