<svg width="40" height="26" viewBox="0 0 40 26" fill="none" xmlns="http://www.w3.org/2000/svg">
<path d="M0 22C0 23.0609 0.462811 24.0783 1.28662 24.8284C2.11043 25.5786 3.22776 26 4.3928 26H35.1424C36.3074 26 37.4248 25.5786 38.2486 24.8284C39.0724 24.0783 39.5352 23.0609 39.5352 22V17H0V22Z" fill="#138808"/>
<path d="M39.5352 9V4C39.5352 2.93913 39.0724 1.92172 38.2486 1.17157C37.4248 0.421427 36.3074 0 35.1424 0H4.3928C3.22776 0 2.11043 0.421427 1.28662 1.17157C0.462811 1.92172 0 2.93913 0 4L0 9H39.5352Z" fill="#FF9933"/>
<path d="M0 8.66797H39.5352V17.335H0V8.66797Z" fill="#F7F7F7"/>
<path d="M19.7678 17C22.1939 17 24.1606 15.2091 24.1606 13C24.1606 10.7909 22.1939 9 19.7678 9C17.3417 9 15.375 10.7909 15.375 13C15.375 15.2091 17.3417 17 19.7678 17Z" fill="#000080"/>
<path d="M19.7689 16.375C21.8159 16.375 23.4753 14.864 23.4753 13C23.4753 11.136 21.8159 9.625 19.7689 9.625C17.7219 9.625 16.0625 11.136 16.0625 13C16.0625 14.864 17.7219 16.375 19.7689 16.375Z" fill="#F7F7F7"/>
<path d="M19.8741 11.7508L19.7642 12.4008L19.6544 11.7508L19.7642 9.80078L19.8741 11.7508ZM18.8549 9.90978L19.303 11.8188L19.594 12.4208L19.5149 11.7678L18.8549 9.90978ZM18.0071 10.2298L18.9823 11.9678L19.4348 12.4808L19.1734 11.8678L18.0071 10.2298ZM17.279 10.7378L18.7155 12.1878L19.2986 12.5768L18.8714 12.0458L17.279 10.7378ZM16.7211 11.4008L18.52 12.4628L19.1932 12.7008L18.6298 12.2888L16.7211 11.4008ZM16.3697 12.1728L18.4102 12.7738L19.1273 12.8458L18.4662 12.5808L16.3697 12.1728ZM16.25 13.0008L18.3915 13.1008L19.1053 13.0008L18.3915 12.9008L16.25 13.0008ZM16.3697 13.8288L18.4662 13.4208L19.1273 13.1558L18.4102 13.2278L16.3697 13.8288ZM16.7211 14.6008L18.6298 13.7128L19.1932 13.3008L18.52 13.5388L16.7211 14.6008ZM17.279 15.2638L18.8714 13.9558L19.2986 13.4248L18.7155 13.8138L17.279 15.2638ZM18.0071 15.7718L19.1734 14.1338L19.4348 13.5208L18.9823 14.0338L18.0071 15.7718ZM18.8549 16.0918L19.5149 14.2338L19.594 13.5808L19.303 14.1828L18.8549 16.0918ZM19.7642 16.2008L19.8741 14.2508L19.7642 13.6008L19.6544 14.2508L19.7642 16.2008ZM20.6735 16.0918L20.2255 14.1828L19.9345 13.5808L20.0135 14.2338L20.6735 16.0918ZM21.5214 15.7718L20.5462 14.0338L20.0937 13.5208L20.3551 14.1338L21.5214 15.7718ZM22.2495 15.2638L20.813 13.8138L20.2299 13.4248L20.6571 13.9558L22.2495 15.2638ZM22.8074 14.6008L21.0085 13.5388L20.3353 13.3008L20.8987 13.7128L22.8074 14.6008ZM23.1588 13.8288L21.1183 13.2278L20.4012 13.1558L21.0623 13.4208L23.1588 13.8288ZM23.2785 13.0008L21.137 12.9008L20.4232 13.0008L21.137 13.1008L23.2785 13.0008ZM23.1588 12.1728L21.0623 12.5808L20.4012 12.8458L21.1183 12.7738L23.1588 12.1728ZM22.8074 11.4008L20.8987 12.2888L20.3353 12.7008L21.0085 12.4628L22.8074 11.4008ZM22.2495 10.7378L20.6571 12.0458L20.2299 12.5768L20.813 12.1878L22.2495 10.7378ZM21.5214 10.2298L20.3551 11.8678L20.0937 12.4808L20.5462 11.9678L21.5214 10.2298ZM20.6735 9.90978L20.0135 11.7678L19.9345 12.4208L20.2255 11.8188L20.6735 9.90978Z" fill="#6666B3"/>
<path d="M19.2816 9.85898C19.4026 9.85898 19.5008 9.76944 19.5008 9.65899C19.5008 9.54853 19.4026 9.45898 19.2816 9.45898C19.1606 9.45898 19.0625 9.54853 19.0625 9.65899C19.0625 9.76944 19.1606 9.85898 19.2816 9.85898Z" fill="#000080"/>
<path d="M18.3598 10.0875C18.4808 10.0875 18.5789 9.99796 18.5789 9.8875C18.5789 9.77704 18.4808 9.6875 18.3598 9.6875C18.2387 9.6875 18.1406 9.77704 18.1406 9.8875C18.1406 9.99796 18.2387 10.0875 18.3598 10.0875Z" fill="#000080"/>
<path d="M17.516 10.525C17.637 10.525 17.7351 10.4355 17.7351 10.325C17.7351 10.2145 17.637 10.125 17.516 10.125C17.395 10.125 17.2969 10.2145 17.2969 10.325C17.2969 10.4355 17.395 10.525 17.516 10.525Z" fill="#000080"/>
<path d="M16.8285 11.148C16.9495 11.148 17.0476 11.0585 17.0476 10.948C17.0476 10.8376 16.9495 10.748 16.8285 10.748C16.7075 10.748 16.6094 10.8376 16.6094 10.948C16.6094 11.0585 16.7075 11.148 16.8285 11.148Z" fill="#000080"/>
<path d="M16.3519 11.9098C16.473 11.9098 16.5711 11.8202 16.5711 11.7098C16.5711 11.5993 16.473 11.5098 16.3519 11.5098C16.2309 11.5098 16.1328 11.5993 16.1328 11.7098C16.1328 11.8202 16.2309 11.9098 16.3519 11.9098Z" fill="#000080"/>
<path d="M16.1019 12.7594C16.223 12.7594 16.3211 12.6698 16.3211 12.5594C16.3211 12.4489 16.223 12.3594 16.1019 12.3594C15.9809 12.3594 15.8828 12.4489 15.8828 12.5594C15.8828 12.6698 15.9809 12.7594 16.1019 12.7594Z" fill="#000080"/>
<path d="M16.1019 13.6402C16.223 13.6402 16.3211 13.5507 16.3211 13.4402C16.3211 13.3298 16.223 13.2402 16.1019 13.2402C15.9809 13.2402 15.8828 13.3298 15.8828 13.4402C15.8828 13.5507 15.9809 13.6402 16.1019 13.6402Z" fill="#000080"/>
<path d="M16.3519 14.4898C16.473 14.4898 16.5711 14.4003 16.5711 14.2898C16.5711 14.1794 16.473 14.0898 16.3519 14.0898C16.2309 14.0898 16.1328 14.1794 16.1328 14.2898C16.1328 14.4003 16.2309 14.4898 16.3519 14.4898Z" fill="#000080"/>
<path d="M16.8285 15.2516C16.9495 15.2516 17.0476 15.162 17.0476 15.0516C17.0476 14.9411 16.9495 14.8516 16.8285 14.8516C16.7075 14.8516 16.6094 14.9411 16.6094 15.0516C16.6094 15.162 16.7075 15.2516 16.8285 15.2516Z" fill="#000080"/>
<path d="M17.516 15.8727C17.637 15.8727 17.7351 15.7831 17.7351 15.6727C17.7351 15.5622 17.637 15.4727 17.516 15.4727C17.395 15.4727 17.2969 15.5622 17.2969 15.6727C17.2969 15.7831 17.395 15.8727 17.516 15.8727Z" fill="#000080"/>
<path d="M18.3598 16.3141C18.4808 16.3141 18.5789 16.2245 18.5789 16.1141C18.5789 16.0036 18.4808 15.9141 18.3598 15.9141C18.2387 15.9141 18.1406 16.0036 18.1406 16.1141C18.1406 16.2245 18.2387 16.3141 18.3598 16.3141Z" fill="#000080"/>
<path d="M19.2816 16.5406C19.4026 16.5406 19.5008 16.4511 19.5008 16.3406C19.5008 16.2302 19.4026 16.1406 19.2816 16.1406C19.1606 16.1406 19.0625 16.2302 19.0625 16.3406C19.0625 16.4511 19.1606 16.5406 19.2816 16.5406Z" fill="#000080"/>
<path d="M20.2504 16.5406C20.3714 16.5406 20.4695 16.4511 20.4695 16.3406C20.4695 16.2302 20.3714 16.1406 20.2504 16.1406C20.1294 16.1406 20.0312 16.2302 20.0312 16.3406C20.0312 16.4511 20.1294 16.5406 20.2504 16.5406Z" fill="#000080"/>
<path d="M21.1879 16.3141C21.3089 16.3141 21.407 16.2245 21.407 16.1141C21.407 16.0036 21.3089 15.9141 21.1879 15.9141C21.0669 15.9141 20.9688 16.0036 20.9688 16.1141C20.9688 16.2245 21.0669 16.3141 21.1879 16.3141Z" fill="#000080"/>
<path d="M22.0316 15.8727C22.1526 15.8727 22.2508 15.7831 22.2508 15.6727C22.2508 15.5622 22.1526 15.4727 22.0316 15.4727C21.9106 15.4727 21.8125 15.5622 21.8125 15.6727C21.8125 15.7831 21.9106 15.8727 22.0316 15.8727Z" fill="#000080"/>
<path d="M22.7035 15.2516C22.8245 15.2516 22.9226 15.162 22.9226 15.0516C22.9226 14.9411 22.8245 14.8516 22.7035 14.8516C22.5825 14.8516 22.4844 14.9411 22.4844 15.0516C22.4844 15.162 22.5825 15.2516 22.7035 15.2516Z" fill="#000080"/>
<path d="M23.1879 14.4898C23.3089 14.4898 23.407 14.4003 23.407 14.2898C23.407 14.1794 23.3089 14.0898 23.1879 14.0898C23.0669 14.0898 22.9688 14.1794 22.9688 14.2898C22.9688 14.4003 23.0669 14.4898 23.1879 14.4898Z" fill="#000080"/>
<path d="M23.4379 13.6402C23.5589 13.6402 23.657 13.5507 23.657 13.4402C23.657 13.3298 23.5589 13.2402 23.4379 13.2402C23.3169 13.2402 23.2188 13.3298 23.2188 13.4402C23.2188 13.5507 23.3169 13.6402 23.4379 13.6402Z" fill="#000080"/>
<path d="M23.4379 12.7594C23.5589 12.7594 23.657 12.6698 23.657 12.5594C23.657 12.4489 23.5589 12.3594 23.4379 12.3594C23.3169 12.3594 23.2188 12.4489 23.2188 12.5594C23.2188 12.6698 23.3169 12.7594 23.4379 12.7594Z" fill="#000080"/>
<path d="M23.1879 11.9098C23.3089 11.9098 23.407 11.8202 23.407 11.7098C23.407 11.5993 23.3089 11.5098 23.1879 11.5098C23.0669 11.5098 22.9688 11.5993 22.9688 11.7098C22.9688 11.8202 23.0669 11.9098 23.1879 11.9098Z" fill="#000080"/>
<path d="M22.7035 11.148C22.8245 11.148 22.9226 11.0585 22.9226 10.948C22.9226 10.8376 22.8245 10.748 22.7035 10.748C22.5825 10.748 22.4844 10.8376 22.4844 10.948C22.4844 11.0585 22.5825 11.148 22.7035 11.148Z" fill="#000080"/>
<path d="M22.0316 10.525C22.1526 10.525 22.2508 10.4355 22.2508 10.325C22.2508 10.2145 22.1526 10.125 22.0316 10.125C21.9106 10.125 21.8125 10.2145 21.8125 10.325C21.8125 10.4355 21.9106 10.525 22.0316 10.525Z" fill="#000080"/>
<path d="M21.1879 10.0875C21.3089 10.0875 21.407 9.99796 21.407 9.8875C21.407 9.77704 21.3089 9.6875 21.1879 9.6875C21.0669 9.6875 20.9688 9.77704 20.9688 9.8875C20.9688 9.99796 21.0669 10.0875 21.1879 10.0875Z" fill="#000080"/>
<path d="M20.2504 9.85898C20.3714 9.85898 20.4695 9.76944 20.4695 9.65899C20.4695 9.54853 20.3714 9.45898 20.2504 9.45898C20.1294 9.45898 20.0312 9.54853 20.0312 9.65899C20.0312 9.76944 20.1294 9.85898 20.2504 9.85898Z" fill="#000080"/>
<path d="M19.7696 13.8996C20.3155 13.8996 20.758 13.4967 20.758 12.9996C20.758 12.5026 20.3155 12.0996 19.7696 12.0996C19.2238 12.0996 18.7812 12.5026 18.7812 12.9996C18.7812 13.4967 19.2238 13.8996 19.7696 13.8996Z" fill="#000080"/>
</svg>
