<svg width="224" height="234" viewBox="0 0 224 234" fill="none" xmlns="http://www.w3.org/2000/svg">
<g style="mix-blend-mode:color-burn">
<path d="M104.65 4.16175C107.69 -1.38737 115.661 -1.38736 118.701 4.16175L133.68 31.505C135.716 35.2217 140.295 36.7095 144.127 34.8993L172.317 21.5826C178.038 18.88 184.486 23.5652 183.684 29.8413L179.73 60.7668C179.193 64.9705 182.023 68.8655 186.187 69.6534L216.82 75.4496C223.037 76.6259 225.5 84.2067 221.162 88.8125L199.786 111.508C196.88 114.593 196.88 119.407 199.786 122.492L221.162 145.187C225.5 149.793 223.037 157.374 216.82 158.55L186.187 164.347C182.023 165.135 179.193 169.029 179.73 173.233L183.684 204.159C184.486 210.435 178.038 215.12 172.317 212.417L144.127 199.101C140.295 197.291 135.716 198.778 133.68 202.495L118.701 229.838C115.661 235.387 107.69 235.387 104.65 229.838L89.6715 202.495C87.6354 198.778 83.0567 197.291 79.2248 199.101L51.0347 212.417C45.3137 215.12 38.8651 210.435 39.6675 204.159L43.6212 173.233C44.1587 169.029 41.3288 165.135 37.1648 164.347L6.53111 158.55C0.314223 157.374 -2.14891 149.793 2.18924 145.187L23.5655 122.492C26.4711 119.407 26.4711 114.593 23.5655 111.508L2.18924 88.8125C-2.14891 84.2067 0.314223 76.6259 6.53111 75.4496L37.1648 69.6534C41.3288 68.8655 44.1587 64.9705 43.6212 60.7668L39.6675 29.8413C38.8651 23.5652 45.3137 18.88 51.0347 21.5826L79.2248 34.8993C83.0567 36.7095 87.6354 35.2217 89.6715 31.505L104.65 4.16175Z" fill="#FFB656"/>
</g>
</svg>
