<svg width="14" height="30" viewBox="0 0 14 30" fill="none" xmlns="http://www.w3.org/2000/svg">
<path d="M8.67277 1.91987C9.16825 1.6487 9.35009 1.02721 9.07892 0.531725C8.80775 0.0362413 8.18626 -0.1456 7.69078 0.12557L8.67277 1.91987ZM2.72726 24.5453C2.72726 27.5578 5.16933 29.9998 8.18177 29.9998C11.1942 29.9998 13.6363 27.5578 13.6363 24.5453C13.6363 21.5329 11.1942 19.0908 8.18177 19.0908C5.16933 19.0908 2.72726 21.5329 2.72726 24.5453ZM7.69078 0.12557C3.53241 2.40138 1.29732 5.14273 0.429142 8.0662C-0.432603 10.968 0.10583 13.8714 1.13461 16.3846C2.1638 18.8988 3.71606 21.1052 5.01355 22.6806C5.66524 23.4719 6.26056 24.1135 6.70712 24.5657C6.9302 24.7917 7.11866 24.9729 7.26087 25.1037C7.33135 25.1685 7.39473 25.2249 7.44784 25.2698C7.47379 25.2917 7.50336 25.3161 7.5336 25.3392C7.53843 25.3429 7.6233 25.4108 7.73333 25.4645L8.63021 23.6262C8.69557 23.658 8.74092 23.6894 8.7488 23.6948C8.76459 23.7056 8.77495 23.7135 8.77755 23.7155C8.78309 23.7198 8.78086 23.7183 8.76825 23.7076C8.74423 23.6873 8.70346 23.6515 8.64565 23.5983C8.53126 23.4931 8.3665 23.3351 8.1626 23.1286C7.75521 22.716 7.2016 22.1199 6.59243 21.3802C5.3682 19.8938 3.95104 17.8656 3.02759 15.6097C2.10373 13.3528 1.7063 10.9506 2.38995 8.64849C3.06717 6.36805 4.85874 4.00723 8.67277 1.91987L7.69078 0.12557Z" fill="#2274AC"/>
</svg>
