<svg width="31" height="31" viewBox="0 0 31 31" fill="none" xmlns="http://www.w3.org/2000/svg">
<path d="M28.1602 12.9704H27.1198V12.9168H15.4948V18.0835H22.7946C21.7297 21.0911 18.868 23.2502 15.4948 23.2502C11.2149 23.2502 7.74479 19.7801 7.74479 15.5002C7.74479 11.2202 11.2149 7.75016 15.4948 7.75016C17.4704 7.75016 19.2678 8.49545 20.6363 9.71285L24.2898 6.05937C21.9828 3.90939 18.897 2.5835 15.4948 2.5835C8.36156 2.5835 2.57812 8.36693 2.57812 15.5002C2.57812 22.6334 8.36156 28.4168 15.4948 28.4168C22.628 28.4168 28.4115 22.6334 28.4115 15.5002C28.4115 14.6341 28.3223 13.7887 28.1602 12.9704Z" fill="#FFC107"/>
<path d="M4.07812 9.4881L8.3219 12.6004C9.47019 9.75741 12.2511 7.75016 15.5055 7.75016C17.4811 7.75016 19.2785 8.49545 20.647 9.71285L24.3005 6.05937C21.9935 3.90939 18.9078 2.5835 15.5055 2.5835C10.5442 2.5835 6.24167 5.38447 4.07812 9.4881Z" fill="#FF3D00"/>
<path d="M15.4991 28.4166C18.8354 28.4166 21.867 27.1398 24.159 25.0635L20.1613 21.6806C18.8209 22.7 17.183 23.2513 15.4991 23.25C12.1394 23.25 9.28679 21.1077 8.21212 18.1182L4 21.3635C6.13771 25.5465 10.479 28.4166 15.4991 28.4166Z" fill="#4CAF50"/>
<path d="M28.1654 12.9701H27.125V12.9165H15.5V18.0832H22.7999C22.2904 19.5146 21.3728 20.7654 20.1603 21.6811L20.1623 21.6798L24.16 25.0627C23.8771 25.3197 28.4167 21.9582 28.4167 15.4998C28.4167 14.6338 28.3275 13.7884 28.1654 12.9701Z" fill="#1976D2"/>
</svg>
