<svg width="19" height="14" viewBox="0 0 19 14" fill="none" xmlns="http://www.w3.org/2000/svg">
<path d="M8.35998 0.0266583L10.4622 -0.000135658L10.4721 0.776174L11.5232 0.762777L11.5331 1.53909L12.5842 1.52569L12.5941 2.302L13.6453 2.2886L13.6551 3.06491L14.7063 3.05152L14.7162 3.82783L15.7673 3.81443L15.7772 4.59074L16.8283 4.57734L16.8382 5.35365L17.8893 5.34025L17.8992 6.11656L18.9503 6.10317L18.9701 7.65579L17.919 7.66918L17.9289 8.44549L16.8778 8.45889L16.8877 9.2352L15.8365 9.2486L15.8464 10.0249L14.7953 10.0383L14.8052 10.8146L13.7541 10.828L13.764 11.6043L12.7129 11.6177L12.7228 12.394L11.6716 12.4074L11.6815 13.1837L10.6304 13.1971L10.6403 13.9734L8.53808 14.0002L8.48861 10.1187L0.0796596 10.2259L0.000504157 4.01538L8.40945 3.90821L8.35998 0.0266583ZM10.5018 3.1051L10.5315 5.43403L2.12253 5.54121L2.16211 8.64645L10.5711 8.53927L10.6007 10.8682L11.6519 10.8548L11.642 10.0785L12.6931 10.0651L12.6832 9.28879L13.7343 9.27539L13.7244 8.49908L14.7755 8.48568L14.7656 7.70937L15.8168 7.69598L15.797 6.14336L14.7458 6.15675L14.736 5.38045L13.6848 5.39384L13.6749 4.61753L12.6238 4.63093L12.6139 3.85462L11.5628 3.86802L11.5529 3.09171L10.5018 3.1051Z" fill="#FFB656"/>
</svg>
