<svg width="273" height="98" viewBox="0 0 273 98" fill="none" xmlns="http://www.w3.org/2000/svg">
<path d="M215.909 88.9417C215.909 88.9417 249.498 91.1158 266.347 96.9857C267.651 97.4205 268.738 96.2247 268.304 94.9203C266.456 90.1374 262.542 81.2239 256.673 74.7018L272.326 63.1794C273.304 62.5272 273.195 61.0054 272.108 60.5706C264.39 56.5486 237.541 44.4827 214.605 54.2659L215.909 88.9417Z" fill="#275473"/>
<path d="M240.026 74.1581C240.026 74.1581 227.634 77.854 215.894 88.9416C215.894 88.9416 213.394 63.614 218.394 47.0914L240.026 74.1581Z" fill="#030401"/>
<path d="M57.0868 88.9417C57.0868 88.9417 23.498 91.1158 6.64921 96.9857C5.34479 97.4205 4.25779 96.2247 4.69259 94.9203C6.54052 90.1374 10.4538 81.2239 16.3237 74.7018L0.670613 63.1794C-0.307703 62.5272 -0.198988 61.0054 0.88803 60.5706C8.60586 56.5486 35.4552 44.4827 58.3913 54.2659L57.0868 88.9417Z" fill="#275473"/>
<path d="M32.9566 74.1581C32.9566 74.1581 45.3486 77.854 57.0884 88.9416C57.0884 88.9416 59.5886 63.614 54.5883 47.0914L32.9566 74.1581Z" fill="#030401"/>
<path d="M32.9566 74.1588C32.9566 74.1588 136.549 48.2878 240.034 74.1588V17.199C118.288 -21.4988 32.9566 17.199 32.9566 17.199L32.9566 74.1588Z" fill="#275473"/>
<path d="M32.9566 51.1133V74.158C32.9566 74.158 45.566 77.4191 56.4362 88.2893" stroke="#030401" stroke-width="3.25993" stroke-miterlimit="10" stroke-linecap="round" stroke-linejoin="round"/>
<path d="M240.038 51.1133V74.158C240.038 74.158 227.429 77.4191 216.559 88.2893" stroke="#030401" stroke-width="3.25993" stroke-miterlimit="10" stroke-linecap="round" stroke-linejoin="round"/>
</svg>
