<svg width="34" height="30" viewBox="0 0 34 30" fill="none" xmlns="http://www.w3.org/2000/svg">
<path d="M33.0937 4.54868C33.377 4.30666 33.6031 4.01712 33.7587 3.69695C33.9143 3.37677 33.9963 3.03238 33.9999 2.68386C34.0035 2.33534 33.9286 1.98967 33.7797 1.66703C33.6308 1.34439 33.4107 1.05123 33.1324 0.804666C32.8541 0.558099 32.5231 0.36306 32.1587 0.230929C31.7944 0.0987985 31.4039 0.0322234 31.0102 0.0350865C30.6164 0.0379497 30.2272 0.110194 29.8654 0.247606C29.5035 0.385017 29.1762 0.584843 28.9025 0.835424L17.0168 11.3522L5.13507 0.835424C4.86358 0.577537 4.53619 0.370693 4.17243 0.227231C3.80866 0.0837687 3.41598 0.00662682 3.0178 0.000408492C2.61962 -0.00580984 2.22411 0.0590229 1.85486 0.191038C1.4856 0.323052 1.15017 0.519545 0.868572 0.768794C0.586974 1.01804 0.36498 1.31494 0.215831 1.64178C0.0666832 1.96861 -0.00656387 2.31869 0.000461508 2.67113C0.00748688 3.02357 0.0946406 3.37114 0.256722 3.69312C0.418804 4.01509 0.652493 4.30488 0.943849 4.54518L12.8177 15.0655L0.935942 25.5823C0.412118 26.0799 0.126943 26.738 0.140498 27.418C0.154053 28.098 0.46528 28.7468 1.00861 29.2277C1.55194 29.7086 2.28495 29.9841 3.05321 29.9961C3.82147 30.0081 4.56501 29.7557 5.12716 29.292L17.0168 18.7752L28.8985 29.2955C29.4607 29.7592 30.2042 30.0116 30.9725 29.9996C31.7407 29.9876 32.4737 29.7121 33.0171 29.2312C33.5604 28.7503 33.8716 28.1015 33.8852 27.4215C33.8987 26.7415 33.6136 26.0834 33.0897 25.5858L21.2159 15.0655L33.0937 4.54868Z" fill="#313A70"/>
</svg>
