<svg width="28" height="42" viewBox="0 0 28 42" fill="none" xmlns="http://www.w3.org/2000/svg">
<g clip-path="url(#clip0_849_12748)">
<path d="M7.00042 42.0002C10.8643 42.0002 14.0008 38.8636 14.0008 34.9996V27.999H7.00042C3.1365 27.999 0 31.1356 0 34.9996C0 38.8636 3.1365 42.0002 7.00042 42.0002Z" fill="#0ACF83"/>
<path d="M0 21.0006C0 17.1366 3.1365 14 7.00042 14H14.0008V27.9994H7.00042C3.1365 28.0011 0 24.8646 0 21.0006Z" fill="#A259FF"/>
<path d="M28.0009 21.0006C28.0009 24.8646 24.8644 28.0011 21.0004 28.0011C17.1365 28.0011 14 24.8646 14 21.0006C14 17.1366 17.1365 14 21.0004 14C24.8644 14 28.0009 17.1366 28.0009 21.0006Z" fill="#1ABCFE"/>
<path d="M0 7.00056C0 3.13656 3.1365 0 7.00042 0H14.0008V13.9994H7.00042C3.1365 13.9994 0 10.8646 0 7.00056Z" fill="#F24E1E"/>
<path d="M14 0H21.0004C24.8644 0 28.0009 3.13656 28.0009 7.00056C28.0009 10.8646 24.8644 13.9994 21.0004 13.9994H14V0Z" fill="#FF7262"/>
</g>
<defs>
<clipPath id="clip0_849_12748">
<rect width="28" height="42" fill="white"/>
</clipPath>
</defs>
</svg>
