<svg width="35" height="37" viewBox="0 0 35 37" fill="none" xmlns="http://www.w3.org/2000/svg">
<path d="M34.067 5.59292C34.3587 5.29535 34.5914 4.93934 34.7516 4.54566C34.9118 4.15198 34.9962 3.72853 34.9999 3.3C35.0036 2.87147 34.9265 2.44645 34.7732 2.04974C34.6199 1.65302 34.3934 1.29257 34.1069 0.989394C33.8204 0.686222 33.4797 0.446408 33.1046 0.283944C32.7295 0.12148 32.3276 0.039621 31.9222 0.0431414C31.5169 0.0466618 31.1163 0.135492 30.7438 0.304449C30.3712 0.473406 30.0343 0.719106 29.7525 1.02721L17.5173 13.9584L5.2861 1.02721C5.00663 0.710123 4.66961 0.455794 4.29515 0.279397C3.92068 0.103 3.51645 0.00814815 3.10656 0.00050227C2.69667 -0.00714361 2.28953 0.0725729 1.90941 0.234894C1.5293 0.397216 1.184 0.638818 0.894118 0.945288C0.604238 1.25176 0.375714 1.61681 0.222179 2.01868C0.0686444 2.42055 -0.00675692 2.851 0.000475082 3.28435C0.00770709 3.71769 0.0974241 4.14506 0.264273 4.54095C0.431121 4.93684 0.671683 5.29315 0.971609 5.58862L13.1946 18.5241L0.963469 31.4552C0.424239 32.067 0.130677 32.8762 0.14463 33.7124C0.158584 34.5485 0.478965 35.3462 1.03827 35.9376C1.59758 36.5289 2.35215 36.8676 3.14301 36.8823C3.93387 36.8971 4.69927 36.5867 5.27796 36.0166L17.5173 23.0855L29.7485 36.0209C30.3272 36.591 31.0926 36.9014 31.8834 36.8866C32.6743 36.8719 33.4288 36.5332 33.9881 35.9419C34.5475 35.3505 34.8678 34.5528 34.8818 33.7167C34.8957 32.8806 34.6022 32.0713 34.063 31.4595L21.8399 18.5241L34.067 5.59292Z" fill="black"/>
</svg>
