<svg width="51" height="43" viewBox="0 0 51 43" fill="none" xmlns="http://www.w3.org/2000/svg">
<path d="M47.0156 4.03125H3.98438C3.35057 4.03187 2.74293 4.24443 2.29476 4.6223C1.84659 5.00017 1.59449 5.51249 1.59375 6.04688V36.9531C1.59449 37.4875 1.84659 37.9998 2.29476 38.3777C2.74293 38.7556 3.35057 38.9681 3.98438 38.9688H12.75V34.0286C12.7502 33.7292 12.8452 33.4352 13.0253 33.1772C13.2054 32.9191 13.464 32.7063 13.7744 32.5607L22.9364 28.2672L19.9219 21.9131V16.7969C19.9219 15.5495 20.5096 14.3533 21.5557 13.4713C22.6018 12.5893 24.0206 12.0938 25.5 12.0938C26.9794 12.0938 28.3982 12.5893 29.4443 13.4713C30.4904 14.3533 31.0781 15.5495 31.0781 16.7969V21.9131L28.0636 28.267L37.2256 32.5607C37.536 32.7063 37.7946 32.9191 37.9747 33.1772C38.1548 33.4352 38.2498 33.7292 38.25 34.0286V38.9688H47.0156C47.6494 38.9681 48.2571 38.7556 48.7052 38.3777C49.1534 37.9998 49.4055 37.4875 49.4062 36.9531V6.04688C49.4055 5.51249 49.1534 5.00017 48.7052 4.6223C48.2571 4.24443 47.6494 4.03187 47.0156 4.03125ZM46.2188 36.2812H41.4375V34.0286C41.4372 33.25 41.1902 32.4856 40.7219 31.8145C40.2536 31.1433 39.5812 30.5899 38.7741 30.2114L32.0658 27.0682L34.2656 22.4306V16.7969C34.2656 14.8368 33.3421 12.9569 31.6982 11.5709C30.0544 10.1849 27.8248 9.40625 25.5 9.40625C23.1752 9.40625 20.9456 10.1849 19.3018 11.5709C17.6579 12.9569 16.7344 14.8368 16.7344 16.7969V22.4306L18.9342 27.0682L12.2259 30.2119C11.4189 30.5903 10.7465 31.1437 10.2782 31.8147C9.80997 32.4857 9.56288 33.2501 9.5625 34.0286V36.2812H4.78125V6.71875H46.2188V36.2812Z" fill="#2274AC"/>
</svg>
