<svg width="491" height="578" viewBox="0 0 491 578" fill="none" xmlns="http://www.w3.org/2000/svg">
<g opacity="0.5">
<mask id="mask0_849_10669" style="mask-type:alpha" maskUnits="userSpaceOnUse" x="0" y="-203" width="594" height="781">
<rect x="593.037" y="-202.206" width="779.706" height="592.536" transform="rotate(90 593.037 -202.206)" fill="url(#paint0_linear_849_10669)" stroke="#6246E5"/>
</mask>
<g mask="url(#mask0_849_10669)">
<path d="M160.747 796.833C117.967 796.833 79.1384 766.459 50.9771 717.137C22.8239 667.829 5.39494 599.677 5.39494 524.372C5.39494 449.067 22.8239 380.915 50.9771 331.607C79.1384 282.285 117.967 251.911 160.747 251.911C203.527 251.911 242.355 282.285 270.516 331.607C298.669 380.915 316.098 449.067 316.098 524.372C316.098 599.677 298.669 667.829 270.516 717.137C242.355 766.459 203.527 796.833 160.747 796.833Z" stroke="#E5E5E5"/>
<path d="M177.15 807.606C129.273 807.606 85.8313 773.614 54.3301 718.442C22.837 663.285 3.34224 587.052 3.34224 502.821C3.34224 418.59 22.837 342.357 54.3301 287.2C85.8313 232.028 129.273 198.036 177.15 198.036C225.027 198.036 268.469 232.028 299.97 287.2C331.463 342.357 350.958 418.59 350.958 502.821C350.958 587.052 331.463 663.285 299.97 718.442C268.469 773.614 225.027 807.606 177.15 807.606Z" stroke="#E5E5E5"/>
<path d="M190.482 818.383C138.076 818.383 90.532 781.175 56.062 720.803C21.6001 660.446 0.269115 577.031 0.269119 484.865C0.269123 392.699 21.6001 309.284 56.062 248.927C90.5321 188.555 138.076 151.347 190.482 151.347C242.889 151.347 290.433 188.555 324.903 248.927C359.365 309.284 380.696 392.699 380.696 484.865C380.696 577.031 359.365 660.446 324.903 720.803C290.433 781.175 242.889 818.383 190.482 818.383Z" stroke="#E5E5E5"/>
<path d="M209.963 825.565C153.592 825.565 102.46 785.543 65.3921 720.622C28.3325 655.715 5.39478 566.014 5.39478 466.906C5.39479 367.798 28.3325 278.097 65.3921 213.19C102.46 148.269 153.592 108.247 209.963 108.247C266.334 108.247 317.466 148.269 354.534 213.19C391.593 278.097 414.531 367.798 414.531 466.906C414.531 566.014 391.593 655.716 354.534 720.622C317.466 785.543 266.334 825.565 209.963 825.565Z" stroke="#E5E5E5"/>
<path d="M228.932 832.748C168.738 832.748 114.146 790.012 74.573 720.704C35.0085 651.411 10.5214 555.649 10.5214 449.846C10.5214 344.043 35.0085 248.281 74.573 178.988C114.146 109.68 168.738 66.9438 228.932 66.9438C289.125 66.9438 343.718 109.68 383.29 178.988C422.855 248.281 447.342 344.043 447.342 449.846C447.342 555.649 422.855 651.411 383.29 720.704C343.718 790.012 289.125 832.748 228.932 832.748Z" stroke="#E5E5E5"/>
<path d="M250.462 841.728C184.323 841.728 124.347 794.772 80.8776 718.639C37.4166 642.521 10.5194 537.331 10.5194 421.114C10.5194 304.898 37.4166 199.708 80.8777 123.59C124.347 47.4572 184.323 0.500439 250.462 0.500442C316.601 0.500445 376.577 47.4572 420.046 123.59C463.507 199.708 490.404 304.898 490.404 421.114C490.404 537.331 463.507 642.521 420.046 718.639C376.577 794.772 316.601 841.728 250.462 841.728Z" stroke="#E5E5E5"/>
</g>
</g>
<defs>
<linearGradient id="paint0_linear_849_10669" x1="1147.24" y1="-186.053" x2="941.508" y2="495.821" gradientUnits="userSpaceOnUse">
<stop stop-color="#747DEF"/>
<stop offset="1" stop-color="#5E3BE1"/>
</linearGradient>
</defs>
</svg>
