<svg width="601" height="30" viewBox="0 0 601 30" fill="none" xmlns="http://www.w3.org/2000/svg">
<path d="M2.73684 19.4052H8.37856V22.0306H0V2.19735H2.73684V19.4052Z" fill="#2274AC"/>
<path d="M16.4051 22.2874C15.1567 22.2874 14.0283 21.9545 13.02 21.2886C12.0117 20.6037 11.2195 19.6525 10.6433 18.4349C10.0671 17.1983 9.77905 15.7715 9.77905 14.1544C9.77905 12.5563 10.0751 11.139 10.6673 9.90235C11.2595 8.66574 12.0677 7.71451 13.0921 7.04864C14.1164 6.38278 15.2607 6.04985 16.5251 6.04985C17.7895 6.04985 18.9338 6.38278 19.9582 7.04864C20.9825 7.71451 21.7907 8.66574 22.3829 9.90235C22.9751 11.139 23.2712 12.5563 23.2712 14.1544C23.2712 15.7524 22.9671 17.1698 22.3589 18.4064C21.7507 19.643 20.9185 20.6037 19.8621 21.2886C18.8218 21.9545 17.6695 22.2874 16.4051 22.2874ZM16.4051 19.4622C17.1093 19.4622 17.7655 19.2625 18.3737 18.863C18.9979 18.4635 19.502 17.8642 19.8861 17.0651C20.2703 16.2661 20.4623 15.2958 20.4623 14.1544C20.4623 13.0129 20.2783 12.0521 19.9101 11.2721C19.542 10.4731 19.0539 9.87381 18.4457 9.47429C17.8375 9.07477 17.1813 8.87501 16.4771 8.87501C15.7729 8.87501 15.1167 9.07477 14.5085 9.47429C13.9163 9.87381 13.4442 10.4731 13.0921 11.2721C12.74 12.0521 12.5639 13.0129 12.5639 14.1544C12.5639 15.8476 12.924 17.1603 13.6442 18.0925C14.3805 19.0057 15.3007 19.4622 16.4051 19.4622Z" fill="#2274AC"/>
<path d="M28.7135 8.58964C29.1136 7.79061 29.6418 7.17231 30.298 6.73474C30.9702 6.27814 31.7625 6.04985 32.6747 6.04985V9.41722H31.9785C30.9062 9.41722 30.0899 9.74064 29.5298 10.3875C28.9856 11.0343 28.7135 12.1568 28.7135 13.7548V22.0306H25.9767V6.30668H28.7135V8.58964Z" fill="#2274AC"/>
<path d="M47.3141 13.7834C47.3141 14.3731 47.2821 14.9058 47.2181 15.3815H37.111C37.191 16.6371 37.5832 17.6454 38.2874 18.4064C38.9916 19.1674 39.8559 19.5479 40.8802 19.5479C42.3526 19.5479 43.3929 18.8154 44.0011 17.3505H46.954C46.5539 18.7964 45.8257 19.9854 44.7694 20.9176C43.729 21.8308 42.4326 22.2874 40.8802 22.2874C39.6158 22.2874 38.4794 21.9545 37.4711 21.2886C36.4788 20.6037 35.6946 19.6525 35.1184 18.4349C34.5582 17.1983 34.2782 15.7715 34.2782 14.1544C34.2782 12.5373 34.5502 11.1199 35.0944 9.90235C35.6546 8.66574 36.4308 7.71451 37.4231 7.04864C38.4314 6.38278 39.5838 6.04985 40.8802 6.04985C42.1286 6.04985 43.2409 6.37327 44.2172 7.02011C45.1935 7.66695 45.9537 8.58013 46.4979 9.75966C47.0421 10.9202 47.3141 12.2614 47.3141 13.7834ZM44.4573 12.756C44.4413 11.5575 44.0812 10.5967 43.3769 9.87381C42.6727 9.15087 41.8005 8.7894 40.7601 8.7894C39.8159 8.7894 39.0076 9.15087 38.3354 9.87381C37.6632 10.5777 37.2631 11.5385 37.135 12.756H44.4573Z" fill="#2274AC"/>
<path d="M66.0204 6.04985C67.0607 6.04985 67.989 6.30668 68.8052 6.82035C69.6375 7.33401 70.2857 8.095 70.7498 9.10331C71.23 10.1116 71.47 11.3292 71.47 12.756V22.0306H68.7572V13.2412C68.7572 11.8334 68.4611 10.7585 67.8689 10.0165C67.2767 9.25551 66.4685 8.87501 65.4442 8.87501C64.4199 8.87501 63.6036 9.25551 62.9954 10.0165C62.4033 10.7585 62.1072 11.8334 62.1072 13.2412V22.0306H59.3943V13.2412C59.3943 11.8334 59.0982 10.7585 58.5061 10.0165C57.9139 9.25551 57.1056 8.87501 56.0813 8.87501C55.057 8.87501 54.2408 9.25551 53.6326 10.0165C53.0404 10.7585 52.7443 11.8334 52.7443 13.2412V22.0306H50.0075V6.30668H52.7443V8.10451C53.1924 7.45767 53.7606 6.95352 54.4488 6.59205C55.137 6.23058 55.8733 6.04985 56.6575 6.04985C57.7138 6.04985 58.6581 6.31619 59.4904 6.84889C60.3226 7.38158 60.9628 8.15208 61.4109 9.16038C61.8111 8.20915 62.4353 7.45767 63.2835 6.90596C64.1318 6.33522 65.0441 6.04985 66.0204 6.04985Z" fill="#2274AC"/>
<path d="M83.9257 2.19735V22.0306H81.1889V2.19735H83.9257Z" fill="#2274AC"/>
<path d="M90.2558 8.61818C90.7199 7.89524 91.3521 7.28645 92.1523 6.79181C92.9526 6.29717 93.8569 6.04985 94.8652 6.04985C96.0175 6.04985 97.0658 6.39229 98.0101 7.07718C98.9704 7.74304 99.7227 8.68477 100.267 9.90235C100.811 11.1199 101.083 12.5182 101.083 14.0973C101.083 15.6763 100.811 17.0937 100.267 18.3493C99.7227 19.5859 98.9704 20.5562 98.0101 21.2601C97.0658 21.945 96.0175 22.2874 94.8652 22.2874C93.8569 22.2874 92.9606 22.0496 92.1763 21.574C91.3921 21.0793 90.7519 20.4706 90.2558 19.7476V29.5073H87.5189V6.30668H90.2558V8.61818ZM98.2982 14.0973C98.2982 13.0129 98.1062 12.0807 97.722 11.3007C97.3539 10.5016 96.8578 9.90235 96.2336 9.50283C95.6254 9.08429 94.9692 8.87501 94.265 8.87501C93.5768 8.87501 92.9206 9.08429 92.2964 9.50283C91.6882 9.92137 91.192 10.5302 90.8079 11.3292C90.4398 12.1282 90.2558 13.07 90.2558 14.1544C90.2558 15.2388 90.4398 16.19 90.8079 17.0081C91.192 17.8071 91.6882 18.4159 92.2964 18.8344C92.9206 19.253 93.5768 19.4622 94.265 19.4622C94.9692 19.4622 95.6254 19.253 96.2336 18.8344C96.8578 18.3969 97.3539 17.7691 97.722 16.951C98.1062 16.1329 98.2982 15.1817 98.2982 14.0973Z" fill="#2274AC"/>
<path d="M108.591 22.2874C107.551 22.2874 106.614 22.0686 105.782 21.6311C104.966 21.1745 104.318 20.5657 103.838 19.8047C103.357 19.0247 103.101 18.1591 103.069 17.2078H105.902C105.95 17.8737 106.214 18.4349 106.694 18.8915C107.191 19.3291 107.807 19.5479 108.543 19.5479C109.311 19.5479 109.903 19.3766 110.32 19.0342C110.752 18.6727 110.968 18.2161 110.968 17.6644C110.968 17.0747 110.728 16.6371 110.247 16.3517C109.783 16.0663 109.039 15.7524 108.015 15.41C107.023 15.0866 106.214 14.7727 105.59 14.4683C104.966 14.1639 104.422 13.6978 103.958 13.07C103.509 12.4421 103.285 11.6146 103.285 10.5872C103.285 9.75015 103.493 8.98916 103.91 8.30427C104.326 7.60036 104.918 7.04864 105.686 6.64913C106.47 6.24961 107.367 6.04985 108.375 6.04985C109.879 6.04985 111.088 6.50644 112 7.41963C112.928 8.31379 113.424 9.54088 113.488 11.1009H110.752C110.704 10.397 110.464 9.83576 110.031 9.41722C109.599 8.99867 109.015 8.7894 108.279 8.7894C107.559 8.7894 107.007 8.95111 106.622 9.27453C106.238 9.59795 106.046 10.026 106.046 10.5587C106.046 10.9772 106.174 11.3292 106.43 11.6146C106.686 11.8999 106.998 12.1282 107.367 12.2995C107.735 12.4517 108.279 12.6514 108.999 12.8987C109.959 13.2031 110.744 13.517 111.352 13.8405C111.976 14.1449 112.512 14.6014 112.96 15.2102C113.408 15.819 113.641 16.6276 113.657 17.6359C113.657 18.53 113.448 19.3291 113.032 20.033C112.616 20.7369 112.024 21.2886 111.256 21.6881C110.504 22.0877 109.615 22.2874 108.591 22.2874Z" fill="#2274AC"/>
<path d="M128.593 6.30668V22.0306H125.857V20.1757C125.424 20.8225 124.856 21.3362 124.152 21.7167C123.464 22.0781 122.728 22.2589 121.943 22.2589C120.903 22.2589 119.967 22.002 119.135 21.4884C118.318 20.9747 117.67 20.2137 117.19 19.2054C116.726 18.1971 116.494 16.9795 116.494 15.5527V6.30668H119.207V15.0675C119.207 16.4754 119.503 17.5598 120.095 18.3208C120.687 19.0627 121.495 19.4337 122.52 19.4337C123.544 19.4337 124.352 19.0627 124.944 18.3208C125.552 17.5598 125.857 16.4754 125.857 15.0675V6.30668H128.593Z" fill="#2274AC"/>
<path d="M148.217 6.04985C149.258 6.04985 150.186 6.30668 151.002 6.82035C151.834 7.33401 152.483 8.095 152.947 9.10331C153.427 10.1116 153.667 11.3292 153.667 12.756V22.0306H150.954V13.2412C150.954 11.8334 150.658 10.7585 150.066 10.0165C149.474 9.25551 148.665 8.87501 147.641 8.87501C146.617 8.87501 145.801 9.25551 145.192 10.0165C144.6 10.7585 144.304 11.8334 144.304 13.2412V22.0306H141.591V13.2412C141.591 11.8334 141.295 10.7585 140.703 10.0165C140.111 9.25551 139.303 8.87501 138.278 8.87501C137.254 8.87501 136.438 9.25551 135.83 10.0165C135.237 10.7585 134.941 11.8334 134.941 13.2412V22.0306H132.204V6.30668H134.941V8.10451C135.389 7.45767 135.958 6.95352 136.646 6.59205C137.334 6.23058 138.07 6.04985 138.854 6.04985C139.911 6.04985 140.855 6.31619 141.687 6.84889C142.52 7.38158 143.16 8.15208 143.608 9.16038C144.008 8.20915 144.632 7.45767 145.481 6.90596C146.329 6.33522 147.241 6.04985 148.217 6.04985Z" fill="#2274AC"/>
<path d="M164.778 4.22348C164.282 4.22348 163.866 4.02372 163.53 3.6242C163.194 3.22468 163.026 2.73004 163.026 2.14028C163.026 1.55051 163.194 1.05587 163.53 0.656352C163.866 0.256833 164.282 0.0570733 164.778 0.0570733C165.258 0.0570733 165.667 0.256833 166.003 0.656352C166.339 1.05587 166.507 1.55051 166.507 2.14028C166.507 2.73004 166.339 3.22468 166.003 3.6242C165.667 4.02372 165.258 4.22348 164.778 4.22348ZM166.123 6.30668V22.0306H163.386V6.30668H166.123Z" fill="#2274AC"/>
<path d="M174.517 22.2874C173.477 22.2874 172.541 22.0686 171.709 21.6311C170.892 21.1745 170.244 20.5657 169.764 19.8047C169.284 19.0247 169.028 18.1591 168.996 17.2078H171.829C171.877 17.8737 172.141 18.4349 172.621 18.8915C173.117 19.3291 173.733 19.5479 174.469 19.5479C175.238 19.5479 175.83 19.3766 176.246 19.0342C176.678 18.6727 176.894 18.2161 176.894 17.6644C176.894 17.0747 176.654 16.6371 176.174 16.3517C175.71 16.0663 174.966 15.7524 173.941 15.41C172.949 15.0866 172.141 14.7727 171.516 14.4683C170.892 14.1639 170.348 13.6978 169.884 13.07C169.436 12.4421 169.212 11.6146 169.212 10.5872C169.212 9.75015 169.42 8.98916 169.836 8.30427C170.252 7.60036 170.844 7.04864 171.612 6.64913C172.397 6.24961 173.293 6.04985 174.301 6.04985C175.806 6.04985 177.014 6.50644 177.926 7.41963C178.855 8.31379 179.351 9.54088 179.415 11.1009H176.678C176.63 10.397 176.39 9.83576 175.958 9.41722C175.526 8.99867 174.942 8.7894 174.205 8.7894C173.485 8.7894 172.933 8.95111 172.549 9.27453C172.165 9.59795 171.973 10.026 171.973 10.5587C171.973 10.9772 172.101 11.3292 172.357 11.6146C172.613 11.8999 172.925 12.1282 173.293 12.2995C173.661 12.4517 174.205 12.6514 174.926 12.8987C175.886 13.2031 176.67 13.517 177.278 13.8405C177.902 14.1449 178.439 14.6014 178.887 15.2102C179.335 15.819 179.567 16.6276 179.583 17.6359C179.583 18.53 179.375 19.3291 178.959 20.033C178.543 20.7369 177.95 21.2886 177.182 21.6881C176.43 22.0877 175.542 22.2874 174.517 22.2874Z" fill="#2274AC"/>
<path d="M193.578 22.2874C192.538 22.2874 191.601 22.0686 190.769 21.6311C189.953 21.1745 189.305 20.5657 188.824 19.8047C188.344 19.0247 188.088 18.1591 188.056 17.2078H190.889C190.937 17.8737 191.201 18.4349 191.681 18.8915C192.177 19.3291 192.794 19.5479 193.53 19.5479C194.298 19.5479 194.89 19.3766 195.306 19.0342C195.739 18.6727 195.955 18.2161 195.955 17.6644C195.955 17.0747 195.715 16.6371 195.234 16.3517C194.77 16.0663 194.026 15.7524 193.002 15.41C192.009 15.0866 191.201 14.7727 190.577 14.4683C189.953 14.1639 189.409 13.6978 188.944 13.07C188.496 12.4421 188.272 11.6146 188.272 10.5872C188.272 9.75015 188.48 8.98916 188.896 8.30427C189.313 7.60036 189.905 7.04864 190.673 6.64913C191.457 6.24961 192.354 6.04985 193.362 6.04985C194.866 6.04985 196.075 6.50644 196.987 7.41963C197.915 8.31379 198.411 9.54088 198.475 11.1009H195.739C195.691 10.397 195.45 9.83576 195.018 9.41722C194.586 8.99867 194.002 8.7894 193.266 8.7894C192.546 8.7894 191.993 8.95111 191.609 9.27453C191.225 9.59795 191.033 10.026 191.033 10.5587C191.033 10.9772 191.161 11.3292 191.417 11.6146C191.673 11.8999 191.985 12.1282 192.354 12.2995C192.722 12.4517 193.266 12.6514 193.986 12.8987C194.946 13.2031 195.731 13.517 196.339 13.8405C196.963 14.1449 197.499 14.6014 197.947 15.2102C198.395 15.819 198.627 16.6276 198.643 17.6359C198.643 18.53 198.435 19.3291 198.019 20.033C197.603 20.7369 197.011 21.2886 196.243 21.6881C195.49 22.0877 194.602 22.2874 193.578 22.2874Z" fill="#2274AC"/>
<path d="M202.993 4.22348C202.497 4.22348 202.081 4.02372 201.745 3.6242C201.409 3.22468 201.241 2.73004 201.241 2.14028C201.241 1.55051 201.409 1.05587 201.745 0.656352C202.081 0.256833 202.497 0.0570733 202.993 0.0570733C203.473 0.0570733 203.881 0.256833 204.217 0.656352C204.554 1.05587 204.722 1.55051 204.722 2.14028C204.722 2.73004 204.554 3.22468 204.217 3.6242C203.881 4.02372 203.473 4.22348 202.993 4.22348ZM204.337 6.30668V22.0306H201.601V6.30668H204.337Z" fill="#2274AC"/>
<path d="M223.944 6.04985C224.984 6.04985 225.912 6.30668 226.728 6.82035C227.561 7.33401 228.209 8.095 228.673 9.10331C229.153 10.1116 229.393 11.3292 229.393 12.756V22.0306H226.68V13.2412C226.68 11.8334 226.384 10.7585 225.792 10.0165C225.2 9.25551 224.392 8.87501 223.367 8.87501C222.343 8.87501 221.527 9.25551 220.919 10.0165C220.327 10.7585 220.03 11.8334 220.03 13.2412V22.0306H217.318V13.2412C217.318 11.8334 217.021 10.7585 216.429 10.0165C215.837 9.25551 215.029 8.87501 214.005 8.87501C212.98 8.87501 212.164 9.25551 211.556 10.0165C210.964 10.7585 210.668 11.8334 210.668 13.2412V22.0306H207.931V6.30668H210.668V8.10451C211.116 7.45767 211.684 6.95352 212.372 6.59205C213.06 6.23058 213.796 6.04985 214.581 6.04985C215.637 6.04985 216.581 6.31619 217.414 6.84889C218.246 7.38158 218.886 8.15208 219.334 9.16038C219.734 8.20915 220.359 7.45767 221.207 6.90596C222.055 6.33522 222.967 6.04985 223.944 6.04985Z" fill="#2274AC"/>
<path d="M235.613 8.61818C236.077 7.89524 236.709 7.28645 237.509 6.79181C238.309 6.29717 239.214 6.04985 240.222 6.04985C241.374 6.04985 242.423 6.39229 243.367 7.07718C244.327 7.74304 245.08 8.68477 245.624 9.90235C246.168 11.1199 246.44 12.5182 246.44 14.0973C246.44 15.6763 246.168 17.0937 245.624 18.3493C245.08 19.5859 244.327 20.5562 243.367 21.2601C242.423 21.945 241.374 22.2874 240.222 22.2874C239.214 22.2874 238.317 22.0496 237.533 21.574C236.749 21.0793 236.109 20.4706 235.613 19.7476V29.5073H232.876V6.30668H235.613V8.61818ZM243.655 14.0973C243.655 13.0129 243.463 12.0807 243.079 11.3007C242.711 10.5016 242.215 9.90235 241.59 9.50283C240.982 9.08429 240.326 8.87501 239.622 8.87501C238.934 8.87501 238.277 9.08429 237.653 9.50283C237.045 9.92137 236.549 10.5302 236.165 11.3292C235.797 12.1282 235.613 13.07 235.613 14.1544C235.613 15.2388 235.797 16.19 236.165 17.0081C236.549 17.8071 237.045 18.4159 237.653 18.8344C238.277 19.253 238.934 19.4622 239.622 19.4622C240.326 19.4622 240.982 19.253 241.59 18.8344C242.215 18.3969 242.711 17.7691 243.079 16.951C243.463 16.1329 243.655 15.1817 243.655 14.0973Z" fill="#2274AC"/>
<path d="M251.883 0.913185V22.0306H249.146V0.913185H251.883Z" fill="#2274AC"/>
<path d="M267.384 6.30668L259.27 29.4217H256.437L259.126 21.7737L253.916 6.30668H256.965L260.686 18.2922L264.551 6.30668H267.384Z" fill="#2274AC"/>
<path d="M274.774 14.0973C274.774 12.5182 275.046 11.1199 275.59 9.90235C276.15 8.68477 276.902 7.74304 277.846 7.07718C278.807 6.39229 279.871 6.04985 281.039 6.04985C281.904 6.04985 282.752 6.27814 283.584 6.73474C284.432 7.17231 285.105 7.76207 285.601 8.50403V0.913185H288.362V22.0306H285.601V19.662C285.153 20.423 284.528 21.0508 283.728 21.5455C282.944 22.0401 282.04 22.2874 281.015 22.2874C279.863 22.2874 278.807 21.945 277.846 21.2601C276.902 20.5562 276.15 19.5859 275.59 18.3493C275.046 17.0937 274.774 15.6763 274.774 14.0973ZM285.601 14.1544C285.601 13.07 285.409 12.1282 285.025 11.3292C284.657 10.5302 284.168 9.92137 283.56 9.50283C282.952 9.08429 282.296 8.87501 281.592 8.87501C280.887 8.87501 280.231 9.08429 279.623 9.50283C279.015 9.90235 278.519 10.5016 278.135 11.3007C277.766 12.0807 277.582 13.0129 277.582 14.0973C277.582 15.1817 277.766 16.1329 278.135 16.951C278.519 17.7691 279.015 18.3969 279.623 18.8344C280.247 19.253 280.903 19.4622 281.592 19.4622C282.296 19.4622 282.952 19.253 283.56 18.8344C284.168 18.4159 284.657 17.8071 285.025 17.0081C285.409 16.19 285.601 15.2388 285.601 14.1544Z" fill="#2274AC"/>
<path d="M303.936 6.30668V22.0306H301.199V20.1757C300.767 20.8225 300.199 21.3362 299.495 21.7167C298.806 22.0781 298.07 22.2589 297.286 22.2589C296.246 22.2589 295.309 22.002 294.477 21.4884C293.661 20.9747 293.013 20.2137 292.533 19.2054C292.068 18.1971 291.836 16.9795 291.836 15.5527V6.30668H294.549V15.0675C294.549 16.4754 294.845 17.5598 295.437 18.3208C296.03 19.0627 296.838 19.4337 297.862 19.4337C298.886 19.4337 299.695 19.0627 300.287 18.3208C300.895 17.5598 301.199 16.4754 301.199 15.0675V6.30668H303.936Z" fill="#2274AC"/>
<path d="M323.56 6.04985C324.6 6.04985 325.529 6.30668 326.345 6.82035C327.177 7.33401 327.825 8.095 328.289 9.10331C328.77 10.1116 329.01 11.3292 329.01 12.756V22.0306H326.297V13.2412C326.297 11.8334 326.001 10.7585 325.409 10.0165C324.816 9.25551 324.008 8.87501 322.984 8.87501C321.959 8.87501 321.143 9.25551 320.535 10.0165C319.943 10.7585 319.647 11.8334 319.647 13.2412V22.0306H316.934V13.2412C316.934 11.8334 316.638 10.7585 316.046 10.0165C315.453 9.25551 314.645 8.87501 313.621 8.87501C312.597 8.87501 311.78 9.25551 311.172 10.0165C310.58 10.7585 310.284 11.8334 310.284 13.2412V22.0306H307.547V6.30668H310.284V8.10451C310.732 7.45767 311.3 6.95352 311.988 6.59205C312.677 6.23058 313.413 6.04985 314.197 6.04985C315.253 6.04985 316.198 6.31619 317.03 6.84889C317.862 7.38158 318.502 8.15208 318.951 9.16038C319.351 8.20915 319.975 7.45767 320.823 6.90596C321.671 6.33522 322.584 6.04985 323.56 6.04985Z" fill="#2274AC"/>
<path d="M348.505 6.04985C349.545 6.04985 350.474 6.30668 351.29 6.82035C352.122 7.33401 352.77 8.095 353.235 9.10331C353.715 10.1116 353.955 11.3292 353.955 12.756V22.0306H351.242V13.2412C351.242 11.8334 350.946 10.7585 350.354 10.0165C349.761 9.25551 348.953 8.87501 347.929 8.87501C346.905 8.87501 346.088 9.25551 345.48 10.0165C344.888 10.7585 344.592 11.8334 344.592 13.2412V22.0306H341.879V13.2412C341.879 11.8334 341.583 10.7585 340.991 10.0165C340.399 9.25551 339.59 8.87501 338.566 8.87501C337.542 8.87501 336.725 9.25551 336.117 10.0165C335.525 10.7585 335.229 11.8334 335.229 13.2412V22.0306H332.492V6.30668H335.229V8.10451C335.677 7.45767 336.245 6.95352 336.934 6.59205C337.622 6.23058 338.358 6.04985 339.142 6.04985C340.199 6.04985 341.143 6.31619 341.975 6.84889C342.807 7.38158 343.448 8.15208 343.896 9.16038C344.296 8.20915 344.92 7.45767 345.768 6.90596C346.617 6.33522 347.529 6.04985 348.505 6.04985Z" fill="#2274AC"/>
<path d="M369.345 6.30668L361.23 29.4217H358.398L361.086 21.7737L355.877 6.30668H358.926L362.647 18.2922L366.512 6.30668H369.345Z" fill="#2274AC"/>
<path d="M380.84 8.96062V17.6644C380.84 18.2542 380.952 18.6822 381.176 18.9486C381.416 19.1959 381.816 19.3196 382.376 19.3196H384.057V22.0306H381.896C380.664 22.0306 379.719 21.6881 379.063 21.0032C378.407 20.3184 378.079 19.2054 378.079 17.6644V8.96062H376.518V6.30668H378.079V2.39711H380.84V6.30668H384.057V8.96062H380.84Z" fill="#2274AC"/>
<path d="M398.703 13.7834C398.703 14.3731 398.671 14.9058 398.607 15.3815H388.5C388.58 16.6371 388.972 17.6454 389.676 18.4064C390.38 19.1674 391.244 19.5479 392.269 19.5479C393.741 19.5479 394.782 18.8154 395.39 17.3505H398.343C397.943 18.7964 397.214 19.9854 396.158 20.9176C395.118 21.8308 393.821 22.2874 392.269 22.2874C391.004 22.2874 389.868 21.9545 388.86 21.2886C387.867 20.6037 387.083 19.6525 386.507 18.4349C385.947 17.1983 385.667 15.7715 385.667 14.1544C385.667 12.5373 385.939 11.1199 386.483 9.90235C387.043 8.66574 387.819 7.71451 388.812 7.04864C389.82 6.38278 390.972 6.04985 392.269 6.04985C393.517 6.04985 394.629 6.37327 395.606 7.02011C396.582 7.66695 397.342 8.58013 397.886 9.75966C398.431 10.9202 398.703 12.2614 398.703 13.7834ZM395.846 12.756C395.83 11.5575 395.47 10.5967 394.766 9.87381C394.061 9.15087 393.189 8.7894 392.149 8.7894C391.204 8.7894 390.396 9.15087 389.724 9.87381C389.052 10.5777 388.652 11.5385 388.524 12.756H395.846Z" fill="#2274AC"/>
<path d="M407.062 14.0688L411.335 22.0306H408.238L405.381 16.6942L402.692 22.0306H399.836L404.109 14.297L399.836 6.30668H402.933L405.789 11.6431L408.478 6.30668H411.335L407.062 14.0688Z" fill="#2274AC"/>
<path d="M416.569 8.96062V17.6644C416.569 18.2542 416.681 18.6822 416.905 18.9486C417.145 19.1959 417.546 19.3196 418.106 19.3196H419.786V22.0306H417.626C416.393 22.0306 415.449 21.6881 414.793 21.0032C414.136 20.3184 413.808 19.2054 413.808 17.6644V8.96062H412.248V6.30668H413.808V2.39711H416.569V6.30668H419.786V8.96062H416.569Z" fill="#2274AC"/>
<path d="M434.283 22.2874C433.034 22.2874 431.906 21.9545 430.898 21.2886C429.889 20.6037 429.097 19.6525 428.521 18.4349C427.945 17.1983 427.657 15.7715 427.657 14.1544C427.657 12.5563 427.953 11.139 428.545 9.90235C429.137 8.66574 429.945 7.71451 430.97 7.04864C431.994 6.38278 433.138 6.04985 434.403 6.04985C435.667 6.04985 436.812 6.38278 437.836 7.04864C438.86 7.71451 439.668 8.66574 440.261 9.90235C440.853 11.139 441.149 12.5563 441.149 14.1544C441.149 15.7524 440.845 17.1698 440.237 18.4064C439.628 19.643 438.796 20.6037 437.74 21.2886C436.699 21.9545 435.547 22.2874 434.283 22.2874ZM434.283 19.4622C434.987 19.4622 435.643 19.2625 436.251 18.863C436.876 18.4635 437.38 17.8642 437.764 17.0651C438.148 16.2661 438.34 15.2958 438.34 14.1544C438.34 13.0129 438.156 12.0521 437.788 11.2721C437.42 10.4731 436.932 9.87381 436.323 9.47429C435.715 9.07477 435.059 8.87501 434.355 8.87501C433.651 8.87501 432.994 9.07477 432.386 9.47429C431.794 9.87381 431.322 10.4731 430.97 11.2721C430.618 12.0521 430.442 13.0129 430.442 14.1544C430.442 15.8476 430.802 17.1603 431.522 18.0925C432.258 19.0057 433.178 19.4622 434.283 19.4622Z" fill="#2274AC"/>
<path d="M449.4 8.96062H446.951V22.0306H444.19V8.96062H442.63V6.30668H444.19V5.19374C444.19 3.38639 444.591 2.07369 445.391 1.25563C446.207 0.418543 447.479 0 449.208 0V2.71102C448.376 2.71102 447.792 2.90126 447.455 3.28176C447.119 3.64323 446.951 4.28055 446.951 5.19374V6.30668H449.4V8.96062Z" fill="#2274AC"/>
<path d="M461.255 8.96062V17.6644C461.255 18.2542 461.367 18.6822 461.591 18.9486C461.831 19.1959 462.231 19.3196 462.791 19.3196H464.472V22.0306H462.311C461.079 22.0306 460.134 21.6881 459.478 21.0032C458.822 20.3184 458.494 19.2054 458.494 17.6644V8.96062H456.933V6.30668H458.494V2.39711H461.255V6.30668H464.472V8.96062H461.255Z" fill="#2274AC"/>
<path d="M473.836 6.04985C474.845 6.04985 475.741 6.30668 476.525 6.82035C477.325 7.33401 477.95 8.095 478.398 9.10331C478.862 10.1116 479.094 11.3292 479.094 12.756V22.0306H476.381V13.2412C476.381 11.8334 476.085 10.7585 475.493 10.0165C474.901 9.25551 474.092 8.87501 473.068 8.87501C472.044 8.87501 471.228 9.25551 470.619 10.0165C470.027 10.7585 469.731 11.8334 469.731 13.2412V22.0306H466.994V0.913185H469.731V8.13305C470.195 7.46719 470.779 6.95352 471.484 6.59205C472.204 6.23058 472.988 6.04985 473.836 6.04985Z" fill="#2274AC"/>
<path d="M494.709 13.7834C494.709 14.3731 494.677 14.9058 494.613 15.3815H484.506C484.586 16.6371 484.978 17.6454 485.682 18.4064C486.386 19.1674 487.25 19.5479 488.275 19.5479C489.747 19.5479 490.787 18.8154 491.396 17.3505H494.349C493.948 18.7964 493.22 19.9854 492.164 20.9176C491.124 21.8308 489.827 22.2874 488.275 22.2874C487.01 22.2874 485.874 21.9545 484.866 21.2886C483.873 20.6037 483.089 19.6525 482.513 18.4349C481.953 17.1983 481.673 15.7715 481.673 14.1544C481.673 12.5373 481.945 11.1199 482.489 9.90235C483.049 8.66574 483.825 7.71451 484.818 7.04864C485.826 6.38278 486.978 6.04985 488.275 6.04985C489.523 6.04985 490.635 6.37327 491.612 7.02011C492.588 7.66695 493.348 8.58013 493.892 9.75966C494.437 10.9202 494.709 12.2614 494.709 13.7834ZM491.852 12.756C491.836 11.5575 491.476 10.5967 490.771 9.87381C490.067 9.15087 489.195 8.7894 488.155 8.7894C487.21 8.7894 486.402 9.15087 485.73 9.87381C485.058 10.5777 484.658 11.5385 484.53 12.756H491.852Z" fill="#2274AC"/>
<path d="M506.375 8.61818C506.839 7.89524 507.471 7.28645 508.272 6.79181C509.072 6.29717 509.976 6.04985 510.984 6.04985C512.137 6.04985 513.185 6.39229 514.129 7.07718C515.09 7.74304 515.842 8.68477 516.386 9.90235C516.93 11.1199 517.202 12.5182 517.202 14.0973C517.202 15.6763 516.93 17.0937 516.386 18.3493C515.842 19.5859 515.09 20.5562 514.129 21.2601C513.185 21.945 512.137 22.2874 510.984 22.2874C509.976 22.2874 509.08 22.0496 508.296 21.574C507.511 21.0793 506.871 20.4706 506.375 19.7476V29.5073H503.638V6.30668H506.375V8.61818ZM514.418 14.0973C514.418 13.0129 514.225 12.0807 513.841 11.3007C513.473 10.5016 512.977 9.90235 512.353 9.50283C511.745 9.08429 511.089 8.87501 510.384 8.87501C509.696 8.87501 509.04 9.08429 508.416 9.50283C507.807 9.92137 507.311 10.5302 506.927 11.3292C506.559 12.1282 506.375 13.07 506.375 14.1544C506.375 15.2388 506.559 16.19 506.927 17.0081C507.311 17.8071 507.807 18.4159 508.416 18.8344C509.04 19.253 509.696 19.4622 510.384 19.4622C511.089 19.4622 511.745 19.253 512.353 18.8344C512.977 18.3969 513.473 17.7691 513.841 16.951C514.225 16.1329 514.418 15.1817 514.418 14.0973Z" fill="#2274AC"/>
<path d="M522.646 8.58964C523.046 7.79061 523.574 7.17231 524.23 6.73474C524.902 6.27814 525.695 6.04985 526.607 6.04985V9.41722H525.911C524.838 9.41722 524.022 9.74064 523.462 10.3875C522.918 11.0343 522.646 12.1568 522.646 13.7548V22.0306H519.909V6.30668H522.646V8.58964Z" fill="#2274AC"/>
<path d="M530.515 4.22348C530.019 4.22348 529.603 4.02372 529.267 3.6242C528.93 3.22468 528.762 2.73004 528.762 2.14028C528.762 1.55051 528.93 1.05587 529.267 0.656352C529.603 0.256833 530.019 0.0570733 530.515 0.0570733C530.995 0.0570733 531.403 0.256833 531.739 0.656352C532.076 1.05587 532.244 1.55051 532.244 2.14028C532.244 2.73004 532.076 3.22468 531.739 3.6242C531.403 4.02372 530.995 4.22348 530.515 4.22348ZM531.859 6.30668V22.0306H529.123V6.30668H531.859Z" fill="#2274AC"/>
<path d="M542.127 6.04985C543.167 6.04985 544.095 6.30668 544.912 6.82035C545.744 7.33401 546.392 8.095 546.856 9.10331C547.32 10.1116 547.552 11.3292 547.552 12.756V22.0306H544.839V13.2412C544.839 11.8334 544.543 10.7585 543.951 10.0165C543.359 9.25551 542.551 8.87501 541.527 8.87501C540.502 8.87501 539.686 9.25551 539.078 10.0165C538.486 10.7585 538.189 11.8334 538.189 13.2412V22.0306H535.453V6.30668H538.189V8.10451C538.638 7.45767 539.206 6.95352 539.894 6.59205C540.598 6.23058 541.342 6.04985 542.127 6.04985Z" fill="#2274AC"/>
<path d="M554.236 8.96062V17.6644C554.236 18.2542 554.348 18.6822 554.572 18.9486C554.812 19.1959 555.213 19.3196 555.773 19.3196H557.453V22.0306H555.293C554.06 22.0306 553.116 21.6881 552.46 21.0032C551.804 20.3184 551.475 19.2054 551.475 17.6644V8.96062H549.915V6.30668H551.475V2.39711H554.236V6.30668H557.453V8.96062H554.236Z" fill="#2274AC"/>
<path d="M561.368 4.22348C560.872 4.22348 560.456 4.02372 560.12 3.6242C559.784 3.22468 559.616 2.73004 559.616 2.14028C559.616 1.55051 559.784 1.05587 560.12 0.656352C560.456 0.256833 560.872 0.0570733 561.368 0.0570733C561.848 0.0570733 562.256 0.256833 562.593 0.656352C562.929 1.05587 563.097 1.55051 563.097 2.14028C563.097 2.73004 562.929 3.22468 562.593 3.6242C562.256 4.02372 561.848 4.22348 561.368 4.22348ZM562.713 6.30668V22.0306H559.976V6.30668H562.713Z" fill="#2274AC"/>
<path d="M572.98 6.04985C574.02 6.04985 574.948 6.30668 575.765 6.82035C576.597 7.33401 577.245 8.095 577.709 9.10331C578.173 10.1116 578.406 11.3292 578.406 12.756V22.0306H575.693V13.2412C575.693 11.8334 575.397 10.7585 574.804 10.0165C574.212 9.25551 573.404 8.87501 572.38 8.87501C571.355 8.87501 570.539 9.25551 569.931 10.0165C569.339 10.7585 569.043 11.8334 569.043 13.2412V22.0306H566.306V6.30668H569.043V8.10451C569.491 7.45767 570.059 6.95352 570.747 6.59205C571.451 6.23058 572.196 6.04985 572.98 6.04985Z" fill="#2274AC"/>
<path d="M587.226 6.04985C588.25 6.04985 589.155 6.29717 589.939 6.79181C590.739 7.26743 591.363 7.86671 591.812 8.58964V6.30668H594.572V22.2874C594.572 23.7333 594.316 25.0175 593.804 26.1399C593.292 27.2814 592.548 28.1756 591.571 28.8224C590.611 29.4692 589.459 29.7926 588.114 29.7926C586.322 29.7926 584.833 29.2885 583.649 28.2802C582.465 27.2909 581.792 25.9402 581.632 24.2279H584.345C584.553 25.046 584.993 25.7023 585.666 26.197C586.354 26.7107 587.17 26.9675 588.114 26.9675C589.219 26.9675 590.107 26.568 590.779 25.7689C591.467 24.9699 591.812 23.8094 591.812 22.2874V19.662C591.347 20.404 590.715 21.0318 589.915 21.5455C589.131 22.0401 588.234 22.2874 587.226 22.2874C586.074 22.2874 585.017 21.945 584.057 21.2601C583.113 20.5562 582.361 19.5859 581.8 18.3493C581.256 17.0937 580.984 15.6763 580.984 14.0973C580.984 12.5182 581.256 11.1199 581.8 9.90235C582.361 8.68477 583.113 7.74304 584.057 7.07718C585.017 6.39229 586.074 6.04985 587.226 6.04985ZM591.812 14.1544C591.812 13.07 591.619 12.1282 591.235 11.3292C590.867 10.5302 590.379 9.92137 589.771 9.50283C589.163 9.08429 588.506 8.87501 587.802 8.87501C587.098 8.87501 586.442 9.08429 585.834 9.50283C585.226 9.90235 584.729 10.5016 584.345 11.3007C583.977 12.0807 583.793 13.0129 583.793 14.0973C583.793 15.1817 583.977 16.1329 584.345 16.951C584.729 17.7691 585.226 18.3969 585.834 18.8344C586.458 19.253 587.114 19.4622 587.802 19.4622C588.506 19.4622 589.163 19.253 589.771 18.8344C590.379 18.4159 590.867 17.8071 591.235 17.0081C591.619 16.19 591.812 15.2388 591.812 14.1544Z" fill="#2274AC"/>
<path d="M599.271 22.2303C598.775 22.2303 598.359 22.0306 598.023 21.6311C597.687 21.2315 597.519 20.7369 597.519 20.1471C597.519 19.5574 597.687 19.0627 598.023 18.6632C598.359 18.2637 598.775 18.0639 599.271 18.0639C599.752 18.0639 600.16 18.2637 600.496 18.6632C600.832 19.0627 601 19.5574 601 20.1471C601 20.7369 600.832 21.2315 600.496 21.6311C600.16 22.0306 599.752 22.2303 599.271 22.2303Z" fill="#2274AC"/>
</svg>
