<svg width="12" height="9" viewBox="0 0 12 9" fill="none" xmlns="http://www.w3.org/2000/svg">
<path d="M1.77344 0.074043L10.1931 0.00012752C10.5255 -0.00327217 10.8521 0.0875316 11.135 0.262028C11.4179 0.436524 11.6457 0.687578 11.7918 0.986131C11.963 1.34038 12.0312 1.73559 11.9886 2.12672C11.9461 2.51784 11.7945 2.88915 11.5512 3.19833L7.38618 8.33509C7.22264 8.52716 7.01973 8.68184 6.79119 8.78863C6.56264 8.89542 6.31382 8.95183 6.06156 8.95405C5.80931 8.95626 5.55953 8.90423 5.32915 8.80146C5.09877 8.6987 4.89317 8.54761 4.72628 8.35844L0.471673 3.29559C0.222981 2.99073 0.0649316 2.62214 0.0155343 2.23183C-0.0338631 1.84151 0.0273811 1.44517 0.192284 1.08796C0.333188 0.786889 0.556475 0.531876 0.836298 0.352439C1.11612 0.173003 1.44104 0.0764795 1.77344 0.074043Z" fill="black"/>
</svg>
