<svg width="235" height="249" viewBox="0 0 235 249" fill="none" xmlns="http://www.w3.org/2000/svg">
<path d="M124.793 131.663C125.03 134.333 120.068 135.795 117.496 131.663C114.716 128.013 116.76 119.537 124.793 117.09C132.359 114.193 144.331 119.754 146.684 131.663C149.682 143.114 140.629 158.562 124.793 160.811C109.449 163.906 90.4348 151.372 88.3078 131.663C85.0838 112.435 101.179 89.9688 124.793 87.9418C147.949 84.6248 173.945 104.172 175.872 131.663C179.301 158.673 156.219 188.154 124.793 189.958C93.8308 193.497 60.8298 166.932 59.1202 131.663C55.4786 96.8528 85.5608 60.3954 124.793 58.7947C163.53 55.0564 203.578 88.5938 205.06 131.663C208.924 174.251 171.814 217.727 124.793 219.105C78.2448 223.066 31.2109 182.514 29.9322 131.663C25.869 81.2938 69.9618 30.8085 124.793 29.6473C179.134 25.4649 233.192 73.0352 234.248 131.663C238.538 189.833 187.413 247.295 124.793 248.253C62.6644 252.638 1.57818 198.091 0.744282 131.663C-3.74971 65.716 54.3713 1.2356 124.793 0.499999" stroke="#005DE9" stroke-linecap="round"/>
</svg>
