<svg width="368" height="426" viewBox="0 0 368 426" fill="none" xmlns="http://www.w3.org/2000/svg">
<path d="M0.0716855 77.6662C3.77463 174.616 6.23564 227.435 14.2481 307.154C21.026 337.639 28.1958 350.253 51.4612 358.857C144.115 385.891 209.112 407.535 284.486 425.98C315.174 425.228 326.115 417.056 335.876 398.768C352.554 334.266 355.673 263.64 367.773 173.815C369.394 139.174 362.686 125.105 335.876 110.321C237.653 68.1596 94.8765 10.5432 94.8765 10.5432C94.8765 10.5432 67.5851 -2.87956 51.4612 0.565427C32.6037 6.61009 24.3999 13.3031 14.2481 26.8704C2.53643 42.8789 -0.531023 54.0103 0.0716855 77.6662Z" fill="#FAB841"/>
</svg>
