<svg width="37" height="37" viewBox="0 0 37 37" fill="none" xmlns="http://www.w3.org/2000/svg">
<path d="M36.2816 31.8272C36.9282 32.5456 36.9282 33.6233 36.2097 34.2699L34.1981 36.2816C33.5515 37 32.4738 37 31.7553 36.2816L24.6427 29.1689C24.2835 28.8097 24.1398 28.3786 24.1398 27.9476V26.7262C21.5534 28.7379 18.3922 29.8874 14.9437 29.8874C6.68155 29.8874 0 23.2058 0 14.9437C0 6.7534 6.68155 0 14.9437 0C23.134 0 29.8874 6.7534 29.8874 14.9437C29.8874 18.4641 28.666 21.6252 26.7262 24.1398H27.8757C28.3068 24.1398 28.7379 24.3553 29.0971 24.6427L36.2816 31.8272ZM14.9437 24.1398C19.9728 24.1398 24.1398 20.0447 24.1398 14.9437C24.1398 9.91456 19.9728 5.74757 14.9437 5.74757C9.84272 5.74757 5.74757 9.91456 5.74757 14.9437C5.74757 20.0447 9.84272 24.1398 14.9437 24.1398Z" fill="white"/>
</svg>
