<svg width="15" height="40" viewBox="0 0 15 40" fill="none" xmlns="http://www.w3.org/2000/svg">
<path d="M9.72839 1.85511C10.1913 1.53706 10.3087 0.903964 9.99067 0.441056C9.67262 -0.0218527 9.03952 -0.13928 8.57662 0.178775L9.72839 1.85511ZM3.7288 34.5761C3.7288 37.5716 6.15707 39.9998 9.1525 39.9998C12.1479 39.9998 14.5762 37.5716 14.5762 34.5761C14.5762 31.5807 12.1479 29.1524 9.1525 29.1524C6.15707 29.1524 3.7288 31.5807 3.7288 34.5761ZM8.57662 0.178775C3.85746 3.42121 1.4082 7.26767 0.466898 11.247C-0.468008 15.1993 0.10743 19.1831 1.25284 22.6959C2.3991 26.2114 4.13524 29.3149 5.59895 31.546C6.33245 32.6641 7.00247 33.5706 7.50437 34.2088C7.75511 34.5276 7.96606 34.7821 8.12404 34.9646C8.20246 35.0551 8.2717 35.1324 8.32862 35.1928C8.35648 35.2224 8.38712 35.254 8.41777 35.2835C8.42171 35.2873 8.50714 35.3734 8.62134 35.4433L9.68367 33.7089C9.75191 33.7507 9.79752 33.7906 9.80324 33.7956C9.81772 33.808 9.8266 33.8165 9.82769 33.8176C9.83029 33.8201 9.82477 33.8149 9.80881 33.7979C9.77809 33.7653 9.72898 33.711 9.6616 33.6332C9.52799 33.4789 9.33752 33.2495 9.10305 32.9514C8.63453 32.3557 7.99889 31.4964 7.29955 30.4304C5.89757 28.2933 4.25926 25.3554 3.18653 22.0654C2.11296 18.7729 1.62488 15.1872 2.44617 11.7152C3.26106 8.27022 5.3877 4.83751 9.72839 1.85511L8.57662 0.178775Z" fill="#FFB656"/>
</svg>
