<svg width="72" height="69" viewBox="0 0 72 69" fill="none" xmlns="http://www.w3.org/2000/svg">
<path d="M0 0H72V69H0V0ZM7.2 62.1H56.1096L25.2 32.4783L7.2 49.7283V62.1ZM64.8 60.6717V6.9H7.2V39.9717L25.2 22.7217L64.8 60.6717ZM48.7692 17.25C47.8144 17.25 46.8987 17.6135 46.2236 18.2605C45.5485 18.9075 45.1692 19.785 45.1692 20.7C45.1692 21.615 45.5485 22.4925 46.2236 23.1395C46.8987 23.7865 47.8144 24.15 48.7692 24.15C49.724 24.15 50.6396 23.7865 51.3148 23.1395C51.9899 22.4925 52.3692 21.615 52.3692 20.7C52.3692 19.785 51.9899 18.9075 51.3148 18.2605C50.6396 17.6135 49.724 17.25 48.7692 17.25ZM37.9692 20.7C37.9692 17.955 39.107 15.3224 41.1324 13.3814C43.1578 11.4404 45.9049 10.35 48.7692 10.35C51.6335 10.35 54.3806 11.4404 56.4059 13.3814C58.4313 15.3224 59.5692 17.955 59.5692 20.7C59.5692 23.445 58.4313 26.0776 56.4059 28.0186C54.3806 29.9596 51.6335 31.05 48.7692 31.05C45.9049 31.05 43.1578 29.9596 41.1324 28.0186C39.107 26.0776 37.9692 23.445 37.9692 20.7Z" fill="#2274AC" fill-opacity="0.63"/>
</svg>
