<svg width="52" height="46" viewBox="0 0 52 46" fill="none" xmlns="http://www.w3.org/2000/svg">
<g clip-path="url(#clip0_849_25553)">
<path d="M0 34.5002C0 35.8558 0.608728 37.1558 1.69227 38.1143C2.77582 39.0728 4.24542 39.6113 5.77778 39.6113H46.2222C47.7546 39.6113 49.2242 39.0728 50.3077 38.1143C51.3913 37.1558 52 35.8558 52 34.5002V28.1113H0V34.5002Z" fill="#138808"/>
<path d="M52 17.8887V11.4998C52 10.1442 51.3913 8.8442 50.3077 7.88568C49.2242 6.92716 47.7546 6.38867 46.2222 6.38867H5.77778C4.24542 6.38867 2.77582 6.92716 1.69227 7.88568C0.608728 8.8442 0 10.1442 0 11.4998L0 17.8887H52Z" fill="#FF9933"/>
<path d="M0 17.4634H52V28.5379H0V17.4634Z" fill="#F7F7F7"/>
<path d="M25.9965 28.1109C29.1875 28.1109 31.7743 25.8226 31.7743 22.9998C31.7743 20.177 29.1875 17.8887 25.9965 17.8887C22.8055 17.8887 20.2188 20.177 20.2188 22.9998C20.2188 25.8226 22.8055 28.1109 25.9965 28.1109Z" fill="#000080"/>
<path d="M26 27.3125C28.6924 27.3125 30.875 25.3817 30.875 23C30.875 20.6183 28.6924 18.6875 26 18.6875C23.3076 18.6875 21.125 20.6183 21.125 23C21.125 25.3817 23.3076 27.3125 26 27.3125Z" fill="#F7F7F7"/>
<path d="M26.1417 21.4028L25.9972 22.2334L25.8528 21.4028L25.9972 18.9111L26.1417 21.4028ZM24.8012 19.0504L25.3906 21.4897L25.7733 22.2589L25.6693 21.4245L24.8012 19.0504ZM23.6861 19.4593L24.9688 21.6801L25.5639 22.3356L25.2201 21.5523L23.6861 19.4593ZM22.7284 20.1084L24.6178 21.9612L25.3848 22.4582L24.8229 21.7797L22.7284 20.1084ZM21.9947 20.9556L24.3607 22.3126L25.2461 22.6167L24.5051 22.0902L21.9947 20.9556ZM21.5324 21.942L24.2162 22.71L25.1594 22.802L24.2899 22.4634L21.5324 21.942ZM21.375 23L24.1917 23.1278L25.1306 23L24.1917 22.8722L21.375 23ZM21.5324 24.058L24.2899 23.5367L25.1594 23.1981L24.2162 23.2901L21.5324 24.058ZM21.9947 25.0445L24.5051 23.9098L25.2461 23.3834L24.3607 23.6875L21.9947 25.0445ZM22.7284 25.8916L24.8229 24.2203L25.3848 23.5418L24.6178 24.0389L22.7284 25.8916ZM23.6861 26.5407L25.2201 24.4477L25.5639 23.6645L24.9688 24.32L23.6861 26.5407ZM24.8012 26.9496L25.6693 24.5755L25.7733 23.7411L25.3906 24.5104L24.8012 26.9496ZM25.9972 27.0889L26.1417 24.5972L25.9972 23.7667L25.8528 24.5972L25.9972 27.0889ZM27.1932 26.9496L26.6039 24.5104L26.2211 23.7411L26.3251 24.5755L27.1932 26.9496ZM28.3083 26.5407L27.0257 24.32L26.4306 23.6645L26.7743 24.4477L28.3083 26.5407ZM29.266 25.8916L27.3767 24.0389L26.6097 23.5418L27.1716 24.2203L29.266 25.8916ZM29.9998 25.0445L27.6338 23.6875L26.7483 23.3834L27.4893 23.9098L29.9998 25.0445ZM30.462 24.058L27.7782 23.2901L26.835 23.1981L27.7046 23.5367L30.462 24.058ZM30.6194 23L27.8028 22.8722L26.8639 23L27.8028 23.1278L30.6194 23ZM30.462 21.942L27.7046 22.4634L26.835 22.802L27.7782 22.71L30.462 21.942ZM29.9998 20.9556L27.4893 22.0902L26.7483 22.6167L27.6338 22.3126L29.9998 20.9556ZM29.266 20.1084L27.1716 21.7797L26.6097 22.4582L27.3767 21.9612L29.266 20.1084ZM28.3083 19.4593L26.7743 21.5523L26.4306 22.3356L27.0257 21.6801L28.3083 19.4593ZM27.1932 19.0504L26.3251 21.4245L26.2211 22.2589L26.6039 21.4897L27.1932 19.0504Z" fill="#6666B3"/>
<path d="M25.3592 18.9867C25.5187 18.9867 25.6481 18.8723 25.6481 18.7311C25.6481 18.59 25.5187 18.4756 25.3592 18.4756C25.1997 18.4756 25.0703 18.59 25.0703 18.7311C25.0703 18.8723 25.1997 18.9867 25.3592 18.9867Z" fill="#000080"/>
<path d="M24.1326 19.2782C24.2922 19.2782 24.4215 19.1638 24.4215 19.0226C24.4215 18.8815 24.2922 18.7671 24.1326 18.7671C23.9731 18.7671 23.8438 18.8815 23.8438 19.0226C23.8438 19.1638 23.9731 19.2782 24.1326 19.2782Z" fill="#000080"/>
<path d="M23.0311 19.8392C23.1906 19.8392 23.32 19.7248 23.32 19.5837C23.32 19.4425 23.1906 19.3281 23.0311 19.3281C22.8715 19.3281 22.7422 19.4425 22.7422 19.5837C22.7422 19.7248 22.8715 19.8392 23.0311 19.8392Z" fill="#000080"/>
<path d="M22.1326 20.6337C22.2922 20.6337 22.4215 20.5193 22.4215 20.3781C22.4215 20.237 22.2922 20.1226 22.1326 20.1226C21.9731 20.1226 21.8438 20.237 21.8438 20.3781C21.8438 20.5193 21.9731 20.6337 22.1326 20.6337Z" fill="#000080"/>
<path d="M21.4998 21.6073C21.6594 21.6073 21.7887 21.4929 21.7887 21.3517C21.7887 21.2106 21.6594 21.0962 21.4998 21.0962C21.3403 21.0962 21.2109 21.2106 21.2109 21.3517C21.2109 21.4929 21.3403 21.6073 21.4998 21.6073Z" fill="#000080"/>
<path d="M21.1717 22.6937C21.3313 22.6937 21.4606 22.5793 21.4606 22.4382C21.4606 22.297 21.3313 22.1826 21.1717 22.1826C21.0122 22.1826 20.8828 22.297 20.8828 22.4382C20.8828 22.5793 21.0122 22.6937 21.1717 22.6937Z" fill="#000080"/>
<path d="M21.1717 23.8178C21.3313 23.8178 21.4606 23.7033 21.4606 23.5622C21.4606 23.4211 21.3313 23.3066 21.1717 23.3066C21.0122 23.3066 20.8828 23.4211 20.8828 23.5622C20.8828 23.7033 21.0122 23.8178 21.1717 23.8178Z" fill="#000080"/>
<path d="M21.4998 24.9042C21.6594 24.9042 21.7887 24.7898 21.7887 24.6486C21.7887 24.5075 21.6594 24.3931 21.4998 24.3931C21.3403 24.3931 21.2109 24.5075 21.2109 24.6486C21.2109 24.7898 21.3403 24.9042 21.4998 24.9042Z" fill="#000080"/>
<path d="M22.1326 25.8778C22.2922 25.8778 22.4215 25.7634 22.4215 25.6223C22.4215 25.4811 22.2922 25.3667 22.1326 25.3667C21.9731 25.3667 21.8438 25.4811 21.8438 25.6223C21.8438 25.7634 21.9731 25.8778 22.1326 25.8778Z" fill="#000080"/>
<path d="M23.0311 26.6727C23.1906 26.6727 23.32 26.5583 23.32 26.4172C23.32 26.276 23.1906 26.1616 23.0311 26.1616C22.8715 26.1616 22.7422 26.276 22.7422 26.4172C22.7422 26.5583 22.8715 26.6727 23.0311 26.6727Z" fill="#000080"/>
<path d="M24.1326 27.2333C24.2922 27.2333 24.4215 27.1189 24.4215 26.9777C24.4215 26.8366 24.2922 26.7222 24.1326 26.7222C23.9731 26.7222 23.8438 26.8366 23.8438 26.9777C23.8438 27.1189 23.9731 27.2333 24.1326 27.2333Z" fill="#000080"/>
<path d="M25.3592 27.5248C25.5187 27.5248 25.6481 27.4104 25.6481 27.2692C25.6481 27.1281 25.5187 27.0137 25.3592 27.0137C25.1997 27.0137 25.0703 27.1281 25.0703 27.2692C25.0703 27.4104 25.1997 27.5248 25.3592 27.5248Z" fill="#000080"/>
<path d="M26.6326 27.5248C26.7922 27.5248 26.9215 27.4104 26.9215 27.2692C26.9215 27.1281 26.7922 27.0137 26.6326 27.0137C26.4731 27.0137 26.3438 27.1281 26.3438 27.2692C26.3438 27.4104 26.4731 27.5248 26.6326 27.5248Z" fill="#000080"/>
<path d="M27.8592 27.2333C28.0188 27.2333 28.1481 27.1189 28.1481 26.9777C28.1481 26.8366 28.0188 26.7222 27.8592 26.7222C27.6997 26.7222 27.5703 26.8366 27.5703 26.9777C27.5703 27.1189 27.6997 27.2333 27.8592 27.2333Z" fill="#000080"/>
<path d="M28.9608 26.6727C29.1203 26.6727 29.2497 26.5583 29.2497 26.4172C29.2497 26.276 29.1203 26.1616 28.9608 26.1616C28.8012 26.1616 28.6719 26.276 28.6719 26.4172C28.6719 26.5583 28.8012 26.6727 28.9608 26.6727Z" fill="#000080"/>
<path d="M29.8592 25.8778C30.0187 25.8778 30.1481 25.7634 30.1481 25.6223C30.1481 25.4811 30.0187 25.3667 29.8592 25.3667C29.6997 25.3667 29.5703 25.4811 29.5703 25.6223C29.5703 25.7634 29.6997 25.8778 29.8592 25.8778Z" fill="#000080"/>
<path d="M30.492 24.9042C30.6516 24.9042 30.7809 24.7898 30.7809 24.6486C30.7809 24.5075 30.6516 24.3931 30.492 24.3931C30.3325 24.3931 30.2031 24.5075 30.2031 24.6486C30.2031 24.7898 30.3325 24.9042 30.492 24.9042Z" fill="#000080"/>
<path d="M30.8201 23.8178C30.9797 23.8178 31.109 23.7033 31.109 23.5622C31.109 23.4211 30.9797 23.3066 30.8201 23.3066C30.6606 23.3066 30.5312 23.4211 30.5312 23.5622C30.5312 23.7033 30.6606 23.8178 30.8201 23.8178Z" fill="#000080"/>
<path d="M30.8201 22.6937C30.9797 22.6937 31.109 22.5793 31.109 22.4382C31.109 22.297 30.9797 22.1826 30.8201 22.1826C30.6606 22.1826 30.5312 22.297 30.5312 22.4382C30.5312 22.5793 30.6606 22.6937 30.8201 22.6937Z" fill="#000080"/>
<path d="M30.492 21.6073C30.6516 21.6073 30.7809 21.4929 30.7809 21.3517C30.7809 21.2106 30.6516 21.0962 30.492 21.0962C30.3325 21.0962 30.2031 21.2106 30.2031 21.3517C30.2031 21.4929 30.3325 21.6073 30.492 21.6073Z" fill="#000080"/>
<path d="M29.8592 20.6337C30.0187 20.6337 30.1481 20.5193 30.1481 20.3781C30.1481 20.237 30.0187 20.1226 29.8592 20.1226C29.6997 20.1226 29.5703 20.237 29.5703 20.3781C29.5703 20.5193 29.6997 20.6337 29.8592 20.6337Z" fill="#000080"/>
<path d="M28.9608 19.8392C29.1203 19.8392 29.2497 19.7248 29.2497 19.5837C29.2497 19.4425 29.1203 19.3281 28.9608 19.3281C28.8012 19.3281 28.6719 19.4425 28.6719 19.5837C28.6719 19.7248 28.8012 19.8392 28.9608 19.8392Z" fill="#000080"/>
<path d="M27.8592 19.2782C28.0188 19.2782 28.1481 19.1638 28.1481 19.0226C28.1481 18.8815 28.0188 18.7671 27.8592 18.7671C27.6997 18.7671 27.5703 18.8815 27.5703 19.0226C27.5703 19.1638 27.6997 19.2782 27.8592 19.2782Z" fill="#000080"/>
<path d="M26.6326 18.9867C26.7922 18.9867 26.9215 18.8723 26.9215 18.7311C26.9215 18.59 26.7922 18.4756 26.6326 18.4756C26.4731 18.4756 26.3438 18.59 26.3438 18.7311C26.3438 18.8723 26.4731 18.9867 26.6326 18.9867Z" fill="#000080"/>
<path d="M25.9953 24.1501C26.7133 24.1501 27.2953 23.6352 27.2953 23.0001C27.2953 22.365 26.7133 21.8501 25.9953 21.8501C25.2773 21.8501 24.6953 22.365 24.6953 23.0001C24.6953 23.6352 25.2773 24.1501 25.9953 24.1501Z" fill="#000080"/>
</g>
<defs>
<clipPath id="clip0_849_25553">
<rect width="52" height="46" fill="white"/>
</clipPath>
</defs>
</svg>
