<svg width="55" height="54" viewBox="0 0 55 54" fill="none" xmlns="http://www.w3.org/2000/svg">
<path d="M0 45.8999C0 50.4898 3.56483 53.9998 8.22654 53.9998H46.617C51.2788 53.9998 54.8436 50.4898 54.8436 45.8999V24.2999H0V45.8999ZM46.617 5.39998H41.1327V2.69999C41.1327 1.08 40.0358 0 38.3905 0C36.7452 0 35.6483 1.08 35.6483 2.69999V5.39998H19.1953V2.69999C19.1953 1.08 18.0984 0 16.4531 0C14.8078 0 13.7109 1.08 13.7109 2.69999V5.39998H8.22654C3.56483 5.39998 0 8.90997 0 13.5V18.8999H54.8436V13.5C54.8436 8.90997 51.2788 5.39998 46.617 5.39998Z" fill="#2274AC"/>
</svg>
