<svg width="418" height="470" viewBox="0 0 418 470" fill="none" xmlns="http://www.w3.org/2000/svg">
<g filter="url(#filter0_d_849_11006)">
<path d="M374.162 76.942C382.608 173.46 386.77 226.1 388.794 306.113C385.889 337.195 380.363 350.625 358.393 362.186C269.99 401.061 208.311 430.986 135.953 459.097C105.46 462.359 93.6016 455.692 81.6481 438.852C57.0672 377.136 45.1524 307.584 21.9435 220.188C16.0084 186.085 20.8955 171.273 45.6056 153.128C137.634 98.5422 271.864 22.83 271.864 22.83C271.864 22.83 297.221 5.97111 313.623 7.27853C333.058 10.8042 342.021 16.3629 353.772 28.4767C367.373 42.805 371.803 53.4309 374.162 76.942Z" fill="#275473"/>
</g>
<defs>
<filter id="filter0_d_849_11006" x="-0.351808" y="-12.8078" width="409.161" height="492.722" filterUnits="userSpaceOnUse" color-interpolation-filters="sRGB">
<feFlood flood-opacity="0" result="BackgroundImageFix"/>
<feColorMatrix in="SourceAlpha" type="matrix" values="0 0 0 0 0 0 0 0 0 0 0 0 0 0 0 0 0 0 127 0" result="hardAlpha"/>
<feOffset/>
<feGaussianBlur stdDeviation="10"/>
<feComposite in2="hardAlpha" operator="out"/>
<feColorMatrix type="matrix" values="0 0 0 0 0 0 0 0 0 0 0 0 0 0 0 0 0 0 0.1 0"/>
<feBlend mode="normal" in2="BackgroundImageFix" result="effect1_dropShadow_849_11006"/>
<feBlend mode="normal" in="SourceGraphic" in2="effect1_dropShadow_849_11006" result="shape"/>
</filter>
</defs>
</svg>
