<svg width="31" height="13" viewBox="0 0 31 13" fill="none" xmlns="http://www.w3.org/2000/svg">
<path fill-rule="evenodd" clip-rule="evenodd" d="M27.3233 7.87641C27.1474 7.72473 26.8393 7.75618 26.6294 7.94449C24.1203 10.1345 21.5913 11.3658 19.1176 11.6224C16.709 11.872 14.3759 11.1688 12.1847 9.5477C11.6969 9.19476 10.9655 8.43328 10.3486 7.51109C11.0349 6.67856 11.5345 5.722 11.8264 4.81816C12.2573 3.48329 12.1698 2.30121 11.7486 1.75116C11.5152 1.44659 11.1907 1.27694 10.7955 1.23058C10.2894 1.17189 9.57647 1.33332 8.70565 2.01915C7.50378 2.96933 7.10637 4.20253 7.29925 5.50069C7.40147 6.18305 7.679 6.88318 8.04664 7.54654C7.49739 7.95823 6.83947 8.22825 6.07366 8.22495C4.45157 8.22789 3.34947 7.14346 2.62415 5.81404C1.9948 4.66414 1.27158 2.94605 1.66335 1.49034C1.79618 0.99567 2.07903 0.55473 1.67015 0.198919C1.04482 -0.352273 0.345357 0.344455 0.161864 1.02397C-0.231471 2.48363 0.161033 4.16079 0.588612 5.43329C1.37263 7.77528 3.09424 9.78647 5.69828 9.84205C6.9196 9.86304 7.99889 9.47179 8.90538 8.84774C9.60673 9.76997 10.3895 10.514 10.9164 10.8749C13.5281 12.6193 16.2709 13.2874 19.0344 12.8878C21.795 12.4899 24.5844 11.0381 27.2618 8.49464C27.4704 8.30405 27.4992 8.0281 27.3233 7.87641ZM9.42553 5.67956C9.2967 5.2902 9.22271 4.90274 9.22852 4.52717C9.2368 4.0495 9.38789 3.5931 9.84213 3.23627C9.91902 3.17662 10.0137 3.09453 10.0905 3.03488C10.1266 3.19711 10.1849 3.51739 10.1576 3.78939C10.0937 4.3968 9.863 5.1341 9.48153 5.83639C9.45822 5.78273 9.44044 5.73198 9.42553 5.67956Z" fill="#4D2C5E"/>
<path fill-rule="evenodd" clip-rule="evenodd" d="M27.4176 7.57603C27.1464 8.0438 26.8798 8.53944 26.6776 9.00703C26.3655 9.73639 26.1956 10.3928 26.3417 10.8454C26.378 11.0746 26.6283 11.1956 26.8961 11.1142C27.1652 11.0351 27.3536 10.7829 27.3143 10.5554C27.3131 10.4402 27.3713 10.315 27.4288 10.1751C27.5609 9.84554 27.8166 9.49048 28.0944 9.10735C28.4495 8.61862 28.8667 8.12451 29.2261 7.66989C29.5529 7.2585 29.8292 6.87932 30.0108 6.58224C30.2975 6.11469 30.3497 5.73977 30.3184 5.52598C30.3093 5.47024 29.8666 4.67021 28.9212 5.09397C28.5832 5.24644 27.7407 5.6688 27.699 5.68979C27.1899 5.97152 26.2454 6.48325 25.3652 6.78705C25.087 6.88361 24.8189 6.97124 24.5798 7.00252C24.5692 6.98421 24.5587 6.96591 24.5452 6.94927C24.3524 6.68839 23.9267 6.6626 23.5887 6.88827C23.4029 6.9986 23.1456 7.28442 23.0676 7.44846C22.9175 7.76698 23.0226 8.00223 23.323 8.17664C23.7321 8.4133 24.3579 8.43336 25.0763 8.31456C25.8316 8.18663 26.7052 7.87139 27.4176 7.57603ZM28.3588 6.07463C28.4217 5.97734 28.4468 5.90789 28.3767 5.89954C28.2983 5.88994 28.3389 6.00683 28.3588 6.07463Z" fill="#4D2C5E"/>
</svg>
