<svg width="64" height="56" viewBox="0 0 64 56" fill="none" xmlns="http://www.w3.org/2000/svg">
<path d="M33.9343 8.60293C34.1749 8.38016 34.363 8.11812 34.4878 7.83175C34.6127 7.54538 34.6718 7.2403 34.6619 6.93393C34.652 6.62756 34.5733 6.3259 34.4301 6.04616C34.287 5.76643 34.0823 5.51411 33.8277 5.3036C33.5731 5.09309 33.2736 4.92852 32.9463 4.81928C32.6191 4.71004 32.2704 4.65828 31.9203 4.66695C31.5701 4.67562 31.2254 4.74454 30.9057 4.86979C30.586 4.99504 30.2976 5.17416 30.057 5.39693L7.39035 26.3969C6.92225 26.8302 6.66143 27.4037 6.66143 27.9999C6.66143 28.5961 6.92225 29.1697 7.39035 29.6029L30.057 50.6053C30.296 50.8329 30.5843 51.0167 30.9052 51.1461C31.2261 51.2754 31.5731 51.3476 31.9261 51.3586C32.2792 51.3696 32.6312 51.3191 32.9618 51.21C33.2923 51.1009 33.5948 50.9355 33.8517 50.7232C34.1085 50.511 34.3146 50.2562 34.458 49.9737C34.6014 49.6912 34.6792 49.3866 34.6869 49.0775C34.6946 48.7685 34.632 48.4612 34.5028 48.1735C34.3736 47.8858 34.1804 47.6234 33.9343 47.4016L12.9957 27.9999L33.9343 8.60293Z" fill="#999999"/>
</svg>
