<svg width="15" height="15" viewBox="0 0 15 15" fill="none" xmlns="http://www.w3.org/2000/svg">
<path d="M3.3403 10.9963L1.50943 12.8263C1.42405 12.9147 1.3768 13.0331 1.37787 13.156C1.37894 13.2789 1.42824 13.3964 1.51514 13.4833C1.60205 13.5703 1.71961 13.6195 1.84251 13.6206C1.96541 13.6217 2.08382 13.5744 2.17222 13.4891L4.00309 11.6582C5.19952 12.6833 6.74648 13.2051 8.31936 13.1142C9.89224 13.0232 11.3688 12.3266 12.4391 11.1705C13.5095 10.0144 14.0904 8.48871 14.0601 6.9135C14.0298 5.33829 13.3905 3.83605 12.2765 2.722C11.1624 1.60795 9.6602 0.9687 8.08499 0.938378C6.50978 0.908056 4.98404 1.48902 3.82795 2.55937C2.67185 3.62972 1.97526 5.10625 1.88434 6.67913C1.79342 8.25201 2.31524 9.79896 3.3403 10.9954V10.9963ZM7.96764 12.1869C6.60016 12.1869 5.2887 11.6437 4.32175 10.6767C3.3548 9.70979 2.81157 8.39833 2.81157 7.03085C2.81157 5.66338 3.3548 4.35192 4.32175 3.38497C5.2887 2.41802 6.60016 1.87479 7.96764 1.87479C9.33511 1.87479 10.6466 2.41802 11.6135 3.38497C12.5805 4.35192 13.1237 5.66338 13.1237 7.03085C13.1237 8.39833 12.5805 9.70979 11.6135 10.6767C10.6466 11.6437 9.33511 12.1869 7.96764 12.1869Z" fill="#A0A0A0"/>
</svg>
