<svg width="20" height="20" viewBox="0 0 20 20" fill="none" xmlns="http://www.w3.org/2000/svg">
<path d="M1.78876 1.25539L3.2114 0.433522C3.85892 0.0590722 4.62112 -0.0794759 5.3557 0.0437409C6.09028 0.166957 6.74704 0.543518 7.20338 1.10313L8.66007 2.88944C9.05256 3.37064 9.27538 3.96107 9.29728 4.57786C9.31918 5.19466 9.13905 5.80687 8.78217 6.32859L7.48477 8.22559C7.46875 8.24907 7.45727 8.27506 7.45092 8.30229C7.36101 8.68567 7.85169 9.52765 9.02265 10.6931C10.3431 12.0064 11.2178 12.4377 11.5294 12.26L13.5571 11.077C14.1126 10.7534 14.7558 10.6025 15.3965 10.6453C16.0373 10.6882 16.6436 10.9227 17.1304 11.316L18.9305 12.7689C19.4957 13.2252 19.8644 13.8665 19.9682 14.5737C20.0719 15.281 19.9037 16.006 19.4947 16.6142L18.5907 17.9569C18.2764 18.4242 17.8506 18.8141 17.3497 19.0934C16.8488 19.3727 16.2875 19.5331 15.7139 19.5608C12.3075 19.7245 8.77899 17.9547 5.11706 14.3123C1.45354 10.6674 -0.264752 7.21424 0.0307686 3.94884C0.0802204 3.40217 0.265862 2.87201 0.572008 2.40316C0.878154 1.93431 1.29489 1.54078 1.78876 1.25539ZM2.50381 2.42025C2.20746 2.59145 1.95684 2.82768 1.77311 3.10896C1.58938 3.39025 1.47795 3.70833 1.44824 4.03634C1.19333 6.8502 2.73974 9.95898 6.15176 13.3532C9.56127 16.7452 12.7391 18.3386 15.6737 18.197C16.0181 18.1804 16.355 18.0841 16.6556 17.9164C16.9563 17.7487 17.2118 17.5145 17.4004 17.234L18.3037 15.8924C18.524 15.5649 18.6148 15.1745 18.559 14.7936C18.5032 14.4128 18.3047 14.0674 18.0004 13.8216L16.2001 12.3678C15.938 12.1561 15.6116 12.0298 15.2667 12.0067C14.9217 11.9836 14.5754 12.0648 14.2764 12.239L12.2435 13.4251C11.1164 14.0714 9.73576 13.3912 7.98773 11.6513C6.50732 10.1795 5.83225 9.01773 6.06335 8.03154C6.10806 7.84085 6.18831 7.65908 6.30032 7.49465L7.59772 5.59764C7.78998 5.3167 7.88705 4.98699 7.87528 4.6548C7.86352 4.32261 7.74351 4.00462 7.53212 3.74547L6.07565 1.96003C5.82991 1.65862 5.4762 1.4558 5.08057 1.38945C4.68494 1.32311 4.27445 1.39777 3.92575 1.5995L2.50311 2.42136L2.50381 2.42025Z" fill="#275473"/>
</svg>
