<svg width="36" height="26" viewBox="0 0 36 26" fill="none" xmlns="http://www.w3.org/2000/svg">
<path d="M0 22C0 23.0609 0.421427 24.0783 1.17157 24.8284C1.92172 25.5786 2.93913 26 4 26H32C33.0609 26 34.0783 25.5786 34.8284 24.8284C35.5786 24.0783 36 23.0609 36 22V17H0V22Z" fill="#138808"/>
<path d="M36 9V4C36 2.93913 35.5786 1.92172 34.8284 1.17157C34.0783 0.421427 33.0609 0 32 0H4C2.93913 0 1.92172 0.421427 1.17157 1.17157C0.421427 1.92172 0 2.93913 0 4L0 9H36Z" fill="#FF9933"/>
<path d="M0 8.66797H36V17.335H0V8.66797Z" fill="#F7F7F7"/>
<path d="M18 17C20.2091 17 22 15.2091 22 13C22 10.7909 20.2091 9 18 9C15.7909 9 14 10.7909 14 13C14 15.2091 15.7909 17 18 17Z" fill="#000080"/>
<path d="M18 16.375C19.864 16.375 21.375 14.864 21.375 13C21.375 11.136 19.864 9.625 18 9.625C16.136 9.625 14.625 11.136 14.625 13C14.625 14.864 16.136 16.375 18 16.375Z" fill="#F7F7F7"/>
<path d="M18.0969 11.7508L17.9969 12.4008L17.8969 11.7508L17.9969 9.80078L18.0969 11.7508ZM17.1689 9.90978L17.5769 11.8188L17.8419 12.4208L17.7699 11.7678L17.1689 9.90978ZM16.3969 10.2298L17.2849 11.9678L17.6969 12.4808L17.4589 11.8678L16.3969 10.2298ZM15.7339 10.7378L17.0419 12.1878L17.5729 12.5768L17.1839 12.0458L15.7339 10.7378ZM15.2259 11.4008L16.8639 12.4628L17.4769 12.7008L16.9639 12.2888L15.2259 11.4008ZM14.9059 12.1728L16.7639 12.7738L17.4169 12.8458L16.8149 12.5808L14.9059 12.1728ZM14.7969 13.0008L16.7469 13.1008L17.3969 13.0008L16.7469 12.9008L14.7969 13.0008ZM14.9059 13.8288L16.8149 13.4208L17.4169 13.1558L16.7639 13.2278L14.9059 13.8288ZM15.2259 14.6008L16.9639 13.7128L17.4769 13.3008L16.8639 13.5388L15.2259 14.6008ZM15.7339 15.2638L17.1839 13.9558L17.5729 13.4248L17.0419 13.8138L15.7339 15.2638ZM16.3969 15.7718L17.4589 14.1338L17.6969 13.5208L17.2849 14.0338L16.3969 15.7718ZM17.1689 16.0918L17.7699 14.2338L17.8419 13.5808L17.5769 14.1828L17.1689 16.0918ZM17.9969 16.2008L18.0969 14.2508L17.9969 13.6008L17.8969 14.2508L17.9969 16.2008ZM18.8249 16.0918L18.4169 14.1828L18.1519 13.5808L18.2239 14.2338L18.8249 16.0918ZM19.5969 15.7718L18.7089 14.0338L18.2969 13.5208L18.5349 14.1338L19.5969 15.7718ZM20.2599 15.2638L18.9519 13.8138L18.4209 13.4248L18.8099 13.9558L20.2599 15.2638ZM20.7679 14.6008L19.1299 13.5388L18.5169 13.3008L19.0299 13.7128L20.7679 14.6008ZM21.0879 13.8288L19.2299 13.2278L18.5769 13.1558L19.1789 13.4208L21.0879 13.8288ZM21.1969 13.0008L19.2469 12.9008L18.5969 13.0008L19.2469 13.1008L21.1969 13.0008ZM21.0879 12.1728L19.1789 12.5808L18.5769 12.8458L19.2299 12.7738L21.0879 12.1728ZM20.7679 11.4008L19.0299 12.2888L18.5169 12.7008L19.1299 12.4628L20.7679 11.4008ZM20.2599 10.7378L18.8099 12.0458L18.4209 12.5768L18.9519 12.1878L20.2599 10.7378ZM19.5969 10.2298L18.5349 11.8678L18.2969 12.4808L18.7089 11.9678L19.5969 10.2298ZM18.8249 9.90978L18.2239 11.7678L18.1519 12.4208L18.4169 11.8188L18.8249 9.90978Z" fill="#6666B3"/>
<path d="M17.5594 9.85898C17.6698 9.85898 17.7594 9.76944 17.7594 9.65899C17.7594 9.54853 17.6698 9.45898 17.5594 9.45898C17.4489 9.45898 17.3594 9.54853 17.3594 9.65899C17.3594 9.76944 17.4489 9.85898 17.5594 9.85898Z" fill="#000080"/>
<path d="M16.7156 10.0875C16.8261 10.0875 16.9156 9.99796 16.9156 9.8875C16.9156 9.77704 16.8261 9.6875 16.7156 9.6875C16.6052 9.6875 16.5156 9.77704 16.5156 9.8875C16.5156 9.99796 16.6052 10.0875 16.7156 10.0875Z" fill="#000080"/>
<path d="M15.95 10.525C16.0605 10.525 16.15 10.4355 16.15 10.325C16.15 10.2145 16.0605 10.125 15.95 10.125C15.8395 10.125 15.75 10.2145 15.75 10.325C15.75 10.4355 15.8395 10.525 15.95 10.525Z" fill="#000080"/>
<path d="M15.325 11.148C15.4355 11.148 15.525 11.0585 15.525 10.948C15.525 10.8376 15.4355 10.748 15.325 10.748C15.2145 10.748 15.125 10.8376 15.125 10.948C15.125 11.0585 15.2145 11.148 15.325 11.148Z" fill="#000080"/>
<path d="M14.8875 11.9098C14.998 11.9098 15.0875 11.8202 15.0875 11.7098C15.0875 11.5993 14.998 11.5098 14.8875 11.5098C14.777 11.5098 14.6875 11.5993 14.6875 11.7098C14.6875 11.8202 14.777 11.9098 14.8875 11.9098Z" fill="#000080"/>
<path d="M14.6609 12.7594C14.7714 12.7594 14.8609 12.6698 14.8609 12.5594C14.8609 12.4489 14.7714 12.3594 14.6609 12.3594C14.5505 12.3594 14.4609 12.4489 14.4609 12.5594C14.4609 12.6698 14.5505 12.7594 14.6609 12.7594Z" fill="#000080"/>
<path d="M14.6609 13.6402C14.7714 13.6402 14.8609 13.5507 14.8609 13.4402C14.8609 13.3298 14.7714 13.2402 14.6609 13.2402C14.5505 13.2402 14.4609 13.3298 14.4609 13.4402C14.4609 13.5507 14.5505 13.6402 14.6609 13.6402Z" fill="#000080"/>
<path d="M14.8875 14.4898C14.998 14.4898 15.0875 14.4003 15.0875 14.2898C15.0875 14.1794 14.998 14.0898 14.8875 14.0898C14.777 14.0898 14.6875 14.1794 14.6875 14.2898C14.6875 14.4003 14.777 14.4898 14.8875 14.4898Z" fill="#000080"/>
<path d="M15.325 15.2516C15.4355 15.2516 15.525 15.162 15.525 15.0516C15.525 14.9411 15.4355 14.8516 15.325 14.8516C15.2145 14.8516 15.125 14.9411 15.125 15.0516C15.125 15.162 15.2145 15.2516 15.325 15.2516Z" fill="#000080"/>
<path d="M15.95 15.8727C16.0605 15.8727 16.15 15.7831 16.15 15.6727C16.15 15.5622 16.0605 15.4727 15.95 15.4727C15.8395 15.4727 15.75 15.5622 15.75 15.6727C15.75 15.7831 15.8395 15.8727 15.95 15.8727Z" fill="#000080"/>
<path d="M16.7156 16.3141C16.8261 16.3141 16.9156 16.2245 16.9156 16.1141C16.9156 16.0036 16.8261 15.9141 16.7156 15.9141C16.6052 15.9141 16.5156 16.0036 16.5156 16.1141C16.5156 16.2245 16.6052 16.3141 16.7156 16.3141Z" fill="#000080"/>
<path d="M17.5594 16.5406C17.6698 16.5406 17.7594 16.4511 17.7594 16.3406C17.7594 16.2302 17.6698 16.1406 17.5594 16.1406C17.4489 16.1406 17.3594 16.2302 17.3594 16.3406C17.3594 16.4511 17.4489 16.5406 17.5594 16.5406Z" fill="#000080"/>
<path d="M18.4422 16.5406C18.5526 16.5406 18.6422 16.4511 18.6422 16.3406C18.6422 16.2302 18.5526 16.1406 18.4422 16.1406C18.3317 16.1406 18.2422 16.2302 18.2422 16.3406C18.2422 16.4511 18.3317 16.5406 18.4422 16.5406Z" fill="#000080"/>
<path d="M19.2938 16.3141C19.4042 16.3141 19.4937 16.2245 19.4937 16.1141C19.4937 16.0036 19.4042 15.9141 19.2938 15.9141C19.1833 15.9141 19.0938 16.0036 19.0938 16.1141C19.0938 16.2245 19.1833 16.3141 19.2938 16.3141Z" fill="#000080"/>
<path d="M20.0594 15.8727C20.1698 15.8727 20.2594 15.7831 20.2594 15.6727C20.2594 15.5622 20.1698 15.4727 20.0594 15.4727C19.9489 15.4727 19.8594 15.5622 19.8594 15.6727C19.8594 15.7831 19.9489 15.8727 20.0594 15.8727Z" fill="#000080"/>
<path d="M20.6766 15.2516C20.787 15.2516 20.8766 15.162 20.8766 15.0516C20.8766 14.9411 20.787 14.8516 20.6766 14.8516C20.5661 14.8516 20.4766 14.9411 20.4766 15.0516C20.4766 15.162 20.5661 15.2516 20.6766 15.2516Z" fill="#000080"/>
<path d="M21.1141 14.4898C21.2245 14.4898 21.3141 14.4003 21.3141 14.2898C21.3141 14.1794 21.2245 14.0898 21.1141 14.0898C21.0036 14.0898 20.9141 14.1794 20.9141 14.2898C20.9141 14.4003 21.0036 14.4898 21.1141 14.4898Z" fill="#000080"/>
<path d="M21.3406 13.6402C21.4511 13.6402 21.5406 13.5507 21.5406 13.4402C21.5406 13.3298 21.4511 13.2402 21.3406 13.2402C21.2302 13.2402 21.1406 13.3298 21.1406 13.4402C21.1406 13.5507 21.2302 13.6402 21.3406 13.6402Z" fill="#000080"/>
<path d="M21.3406 12.7594C21.4511 12.7594 21.5406 12.6698 21.5406 12.5594C21.5406 12.4489 21.4511 12.3594 21.3406 12.3594C21.2302 12.3594 21.1406 12.4489 21.1406 12.5594C21.1406 12.6698 21.2302 12.7594 21.3406 12.7594Z" fill="#000080"/>
<path d="M21.1141 11.9098C21.2245 11.9098 21.3141 11.8202 21.3141 11.7098C21.3141 11.5993 21.2245 11.5098 21.1141 11.5098C21.0036 11.5098 20.9141 11.5993 20.9141 11.7098C20.9141 11.8202 21.0036 11.9098 21.1141 11.9098Z" fill="#000080"/>
<path d="M20.6766 11.148C20.787 11.148 20.8766 11.0585 20.8766 10.948C20.8766 10.8376 20.787 10.748 20.6766 10.748C20.5661 10.748 20.4766 10.8376 20.4766 10.948C20.4766 11.0585 20.5661 11.148 20.6766 11.148Z" fill="#000080"/>
<path d="M20.0594 10.525C20.1698 10.525 20.2594 10.4355 20.2594 10.325C20.2594 10.2145 20.1698 10.125 20.0594 10.125C19.9489 10.125 19.8594 10.2145 19.8594 10.325C19.8594 10.4355 19.9489 10.525 20.0594 10.525Z" fill="#000080"/>
<path d="M19.2938 10.0875C19.4042 10.0875 19.4937 9.99796 19.4937 9.8875C19.4937 9.77704 19.4042 9.6875 19.2938 9.6875C19.1833 9.6875 19.0938 9.77704 19.0938 9.8875C19.0938 9.99796 19.1833 10.0875 19.2938 10.0875Z" fill="#000080"/>
<path d="M18.4422 9.85898C18.5526 9.85898 18.6422 9.76944 18.6422 9.65899C18.6422 9.54853 18.5526 9.45898 18.4422 9.45898C18.3317 9.45898 18.2422 9.54853 18.2422 9.65899C18.2422 9.76944 18.3317 9.85898 18.4422 9.85898Z" fill="#000080"/>
<path d="M18.0016 13.8996C18.4986 13.8996 18.9016 13.4967 18.9016 12.9996C18.9016 12.5026 18.4986 12.0996 18.0016 12.0996C17.5045 12.0996 17.1016 12.5026 17.1016 12.9996C17.1016 13.4967 17.5045 13.8996 18.0016 13.8996Z" fill="#000080"/>
</svg>
