<svg width="84" height="42" viewBox="0 0 84 42" fill="none" xmlns="http://www.w3.org/2000/svg">
<path fill-rule="evenodd" clip-rule="evenodd" d="M0.344479 24.7251C0.876085 24.2345 1.81955 24.3515 2.46901 24.9796C10.23 32.2871 18.013 36.4453 25.5874 37.3982C32.9625 38.3251 40.0679 36.1176 46.7022 30.8877C48.1795 29.7496 50.385 27.2797 52.2338 24.2767C50.1015 21.5106 48.5352 18.3452 47.6057 15.3621C46.2341 10.9566 46.4536 7.07615 47.7192 5.28733C48.4206 4.29685 49.4057 3.75375 50.6125 3.61891C52.1575 3.44848 54.344 4.01054 57.0346 6.30276C60.7482 9.47834 62.0134 13.5483 61.4764 17.8056C61.1915 20.0433 60.3713 22.3316 59.2741 24.4952C60.9703 25.8723 62.993 26.7888 65.3345 26.8119C70.2945 26.8934 73.6205 23.3787 75.7843 19.0424C77.662 15.2916 79.8037 9.67795 78.5467 4.87706C78.1204 3.24569 77.2377 1.78421 78.4735 0.633117C80.3632 -1.15041 82.5302 1.17005 83.1189 3.41108C84.3809 8.22502 83.2488 13.7188 81.993 17.8814C79.6908 25.5425 74.5082 32.0751 66.5479 32.1423C62.8143 32.1572 59.4983 30.8237 56.7011 28.7329C54.594 31.7323 52.2308 34.1426 50.6341 35.305C42.719 40.9215 34.3596 42.9954 25.8933 41.5599C17.4358 40.1301 8.84757 35.2358 0.557589 26.7594C-0.0879139 26.1238 -0.18712 25.2158 0.344479 24.7251ZM54.982 18.2991C55.3601 17.0254 55.5706 15.7554 55.5376 14.5211C55.4929 12.951 55.0124 11.4446 53.609 10.2519C53.3714 10.0525 53.0788 9.77855 52.8412 9.57915C52.7375 10.1106 52.5724 11.1605 52.6667 12.0555C52.8867 14.0543 53.6222 16.4873 54.8172 18.812C54.8862 18.6367 54.9386 18.4707 54.982 18.2991Z" fill="#4D2C5E"/>
</svg>
