<svg width="23" height="21" viewBox="0 0 23 21" fill="none" xmlns="http://www.w3.org/2000/svg">
<path fill-rule="evenodd" clip-rule="evenodd" d="M9.17664 8.84582C10.0442 10.4298 10.8987 12.1073 11.5504 13.6875C12.5568 16.1523 13.1155 18.3657 12.6773 19.8797C12.5731 20.6482 11.7955 21.0432 10.9546 20.7576C10.1097 20.4797 9.51005 19.6239 9.6233 18.8612C9.62245 18.4741 9.43507 18.051 9.24971 17.5782C8.82261 16.4649 8.00833 15.2603 7.1235 13.9604C5.99276 12.3022 4.66741 10.6231 3.52453 9.07927C2.48546 7.68221 1.60567 6.39564 1.02525 5.38922C0.109278 3.80525 -0.069684 2.54314 0.0193473 1.8262C0.0456398 1.63934 1.39695 -1.02871 4.37109 0.437962C5.43472 0.965585 8.08717 2.42288 8.21823 2.49527C9.82217 3.46497 12.7972 5.22717 15.5628 6.28782C16.4369 6.62488 17.2788 6.93143 18.028 7.04738C18.0603 6.98635 18.0926 6.92533 18.1339 6.87002C18.7262 6.00221 20.0563 5.93482 21.1228 6.7084C21.7086 7.08754 22.525 8.05954 22.7758 8.61425C23.2584 9.69127 22.9394 10.4769 22.0075 11.0494C20.7376 11.826 18.7813 11.8651 16.5297 11.4334C14.1622 10.9693 11.4169 9.8705 9.17664 8.84582ZM6.1707 3.75847C5.97017 3.42872 5.88859 3.19424 6.10742 3.16935C6.35247 3.14063 6.23029 3.53156 6.1707 3.75847Z" fill="#4D2C5E"/>
</svg>
