<svg width="88" height="41" viewBox="0 0 88 41" fill="none" xmlns="http://www.w3.org/2000/svg">
<path fill-rule="evenodd" clip-rule="evenodd" d="M4.52801 23.7104C5.06055 23.2399 6.00568 23.3521 6.65628 23.9544C14.431 30.962 22.2277 34.9494 29.8154 35.8632C37.2036 36.752 44.3215 34.6352 50.9675 29.62C52.4474 28.5286 54.6568 26.1601 56.5089 23.2804C54.3728 20.6278 52.8037 17.5923 51.8726 14.7318C50.4986 10.5071 50.7185 6.78595 51.9863 5.07057C52.689 4.12076 53.6758 3.59995 54.8847 3.47065C56.4325 3.30721 58.6228 3.8462 61.3182 6.04432C65.0383 9.08953 66.3058 12.9924 65.7677 17.0749C65.4824 19.2208 64.6607 21.4152 63.5616 23.4899C65.2607 24.8105 67.287 25.6893 69.6327 25.7115C74.6015 25.7896 77.9333 22.4193 80.1009 18.2609C81.9819 14.6642 84.1274 9.28095 82.8682 4.67715C82.4412 3.11275 81.5568 1.71127 82.7948 0.607428C84.6879 -1.10288 86.8588 1.12232 87.4485 3.27135C88.7127 7.88767 87.5786 13.156 86.3206 17.1476C84.0143 24.4942 78.8225 30.7586 70.8483 30.8231C67.108 30.8374 63.7861 29.5586 60.9841 27.5537C58.8732 30.4299 56.5059 32.7412 54.9064 33.856C46.9773 39.2419 38.6032 41.2306 30.1219 39.8541C21.6494 38.483 13.0461 33.7896 4.74149 25.6611C4.09484 25.0517 3.99547 24.1809 4.52801 23.7104ZM59.2619 17.5482C59.6407 16.3268 59.8516 15.1089 59.8185 13.9252C59.7737 12.4197 59.2924 10.9751 57.8865 9.83134C57.6485 9.64012 57.3553 9.37742 57.1174 9.1862C57.0135 9.69586 56.8481 10.7026 56.9425 11.5609C57.1629 13.4776 57.8997 15.8108 59.0968 18.04C59.166 17.8719 59.2184 17.7127 59.2619 17.5482Z" fill="#4D2C5E"/>
<path fill-rule="evenodd" clip-rule="evenodd" d="M56.983 8.83338C56.8442 8.89223 56.7083 8.92436 56.7074 8.81927C56.7094 8.68746 56.8098 8.71946 56.983 8.83338Z" fill="#4D2C5E"/>
<path fill-rule="evenodd" clip-rule="evenodd" d="M8.968 27.9338C9.81567 29.4153 10.6505 30.9842 11.2873 32.4622C12.2706 34.7675 12.8165 36.8376 12.3883 38.2537C12.2865 38.9724 11.5267 39.3419 10.7052 39.0748C9.87963 38.8149 9.29376 38.0145 9.40441 37.3011C9.40358 36.9391 9.2205 36.5433 9.0394 36.1011C8.6221 35.0599 7.8265 33.9333 6.96198 32.7175C5.85719 31.1666 4.56226 29.5961 3.44561 28.1522C2.43038 26.8455 1.57078 25.6422 1.00368 24.7009C0.108729 23.2194 -0.0661259 22.039 0.0208619 21.3684C0.0465512 21.1937 1.36685 18.6983 4.27273 20.07C5.31196 20.5635 7.90353 21.9265 8.03159 21.9942C9.59872 22.9012 12.5055 24.5493 15.2076 25.5414C16.0617 25.8566 16.8842 26.1433 17.6162 26.2518C17.6478 26.1947 17.6793 26.1376 17.7197 26.0859C18.2984 25.2742 19.598 25.2112 20.6401 25.9347C21.2123 26.2893 22.01 27.1984 22.2551 27.7172C22.7266 28.7246 22.415 29.4594 21.5044 29.9948C20.2636 30.7212 18.3522 30.7577 16.1524 30.3539C13.8392 29.9199 11.1568 28.8922 8.968 27.9338ZM6.03105 23.1757C5.83512 22.8673 5.75541 22.648 5.96922 22.6247C6.20864 22.5978 6.08927 22.9634 6.03105 23.1757Z" fill="#4D2C5E"/>
</svg>
