<svg width="11" height="17" viewBox="0 0 11 17" fill="none" xmlns="http://www.w3.org/2000/svg">
<path d="M0.842529 17.0003C0.619077 17.0003 0.404776 16.9145 0.246771 16.7617C0.0887662 16.609 0 16.4018 0 16.1858V10.8756C0.000887495 10.7335 0.0402383 10.5941 0.114141 10.4712C0.188044 10.3483 0.293927 10.2463 0.421265 10.1752L4.63391 7.8622V3.25244C4.6348 3.11031 4.67415 2.97088 4.74805 2.848C4.82196 2.72513 4.92784 2.62308 5.05517 2.55202L9.47845 0.108685C9.67286 0.000682769 9.90368 -0.0282435 10.1201 0.0282696C10.3366 0.0847827 10.521 0.222106 10.6327 0.410029C10.7444 0.597953 10.7744 0.821084 10.7159 1.03033C10.6574 1.23959 10.5154 1.41782 10.321 1.52582L6.27684 3.72482V8.33458C6.27658 8.47889 6.23666 8.62055 6.16116 8.74505C6.08566 8.86956 5.97729 8.97243 5.84715 9.04314L1.68506 11.348V16.1858C1.68506 16.4018 1.59629 16.609 1.43829 16.7617C1.28028 16.9145 1.06598 17.0003 0.842529 17.0003Z" fill="#48537D"/>
</svg>
