<svg width="60" height="60" viewBox="0 0 60 60" fill="none" xmlns="http://www.w3.org/2000/svg">
<g clip-path="url(#clip0_849_27404)">
<path d="M49.2454 35.0747L29.2723 33.6597C28.7693 33.6241 28.4919 34.2319 28.8485 34.5885L44.4736 50.2136C47.8273 46.8599 50.2173 42.5428 51.1933 37.713C51.4521 36.432 50.5456 35.2074 49.2454 35.0747Z" fill="white"/>
<path d="M24.6094 35.3897L19.9935 13.5836C19.7712 12.5334 18.8443 11.8242 17.8301 11.8242C17.6105 11.8242 17.3868 11.8575 17.1653 11.9277C7.21277 15.0825 0 24.3933 0 35.3897C0 48.9811 11.018 59.9991 24.6094 59.9991C31.4051 59.9991 37.5574 57.2446 42.0108 52.7911L24.6094 35.3897Z" fill="white"/>
<path d="M35.7024 0.00194587C34.6877 -0.0107104 33.6872 0.0385084 32.7041 0.145618C31.4002 0.287649 30.5036 1.52421 30.7752 2.8073L35.1406 23.4297C35.2894 24.1326 35.8751 24.6588 36.5898 24.7318L57.5759 26.8733C58.8696 27.0053 59.9951 25.9924 59.9996 24.6919L59.9997 24.6672C60.0307 11.1294 49.239 0.17093 35.7024 0.00194587Z" fill="white"/>
</g>
<defs>
<clipPath id="clip0_849_27404">
<rect width="60" height="60" fill="white"/>
</clipPath>
</defs>
</svg>
