<svg width="21" height="18" viewBox="0 0 21 18" fill="none" xmlns="http://www.w3.org/2000/svg">
<path d="M14.2389 17.8641C14.1028 17.8641 13.9752 17.8431 13.8562 17.8011C13.7371 17.7591 13.6265 17.6869 13.5244 17.5846L10.6154 14.6877C10.4283 14.5013 10.3347 14.2642 10.3347 13.9762C10.3347 13.6882 10.4283 13.451 10.6154 13.2647C10.8025 13.0783 11.0407 12.9851 11.3299 12.9851C11.6191 12.9851 11.8573 13.0783 12.0444 13.2647L14.2389 15.45L19.2915 10.4186C19.4786 10.2323 19.7167 10.1391 20.006 10.1391C20.2952 10.1391 20.5333 10.2323 20.7204 10.4186C20.9076 10.605 21.0011 10.8421 21.0011 11.1301C21.0011 11.4181 20.9076 11.6553 20.7204 11.8416L14.9534 17.5846C14.8514 17.6862 14.7408 17.7584 14.6217 17.8011C14.5026 17.8438 14.375 17.8648 14.2389 17.8641ZM2.04142 2.0329L10.2071 7.11515L18.3728 2.0329H2.04142ZM2.04142 16.2632C1.48003 16.2632 0.999278 16.064 0.599159 15.6655C0.19904 15.2671 -0.000678741 14.7887 1.73296e-06 14.2303V2.0329C1.73296e-06 1.47385 0.200061 0.995105 0.60018 0.596657C1.0003 0.198209 1.48071 -0.000675907 2.04142 1.72572e-06H18.3728C18.9342 1.72572e-06 19.415 0.199226 19.8151 0.597674C20.2152 0.996122 20.4149 1.47453 20.4142 2.0329V6.45445L19.3935 7.4709L18.3728 8.48735V4.0658L10.743 8.8177C10.6579 8.86852 10.5685 8.90681 10.4745 8.93256C10.3806 8.95831 10.2915 8.97084 10.2071 8.97017C10.1221 8.97017 10.0326 8.95763 9.93867 8.93256C9.84477 8.90749 9.75562 8.8692 9.67125 8.8177L2.04142 4.0658V14.2303H7.29809L9.33951 16.2632H2.04142Z" fill="white"/>
</svg>
