<svg width="21" height="22" viewBox="0 0 21 22" fill="none" xmlns="http://www.w3.org/2000/svg">
<path d="M12.7377 14.185C11.9089 14.2617 11.075 14.1061 10.3299 13.7358C10.1613 13.5999 10.0223 13.431 9.92162 13.2394C9.82094 13.0478 9.76066 12.8377 9.74451 12.622C9.74437 12.5897 9.73784 12.5578 9.72528 12.5281C9.71272 12.4984 9.69439 12.4714 9.67134 12.4488C9.64829 12.4262 9.62098 12.4084 9.59099 12.3963C9.561 12.3843 9.52893 12.3784 9.49662 12.3788C9.1477 12.3736 8.79874 12.372 8.4498 12.3739C8.38897 12.3674 8.32803 12.3851 8.2802 12.4232C8.23238 12.4613 8.20151 12.5166 8.19429 12.5772C8.17272 12.9554 8.23506 13.3336 8.37683 13.6849C8.51861 14.0362 8.73633 14.352 9.01445 14.6096C9.71709 15.1627 10.572 15.4887 11.4652 15.5441C12.3955 15.6561 13.3377 15.6204 14.2569 15.4385C14.9625 15.3106 15.6105 14.966 16.1106 14.4528C16.3873 14.1155 16.5736 13.7135 16.652 13.2846C16.7304 12.8556 16.6982 12.4139 16.5585 12.0007C16.4411 11.7094 16.2585 11.4488 16.0245 11.2389C15.7905 11.029 15.5115 10.8754 15.2089 10.7898C13.8008 10.2882 12.2755 10.3195 10.8382 9.93647C10.5884 9.85829 10.2836 9.77105 10.1736 9.50652C10.1101 9.32043 10.1066 9.11916 10.1636 8.931C10.2206 8.74284 10.3353 8.57725 10.4915 8.45749C10.9448 8.20161 11.4603 8.07611 11.9808 8.09492C12.6865 8.03225 13.3971 8.13739 14.0543 8.40172C14.2517 8.51882 14.4212 8.6774 14.551 8.86645C14.6808 9.0555 14.7679 9.2705 14.8062 9.4965C14.8076 9.5633 14.8341 9.62712 14.8804 9.67539C14.9267 9.72366 14.9894 9.75288 15.0562 9.75729C15.4021 9.76553 15.7482 9.76166 16.0953 9.7644C16.1553 9.77173 16.2159 9.75721 16.2661 9.7235C16.3162 9.68979 16.3525 9.63915 16.3683 9.58089C16.3735 9.11448 16.2566 8.6548 16.0291 8.24739C15.8016 7.83997 15.4714 7.49895 15.0713 7.2581C13.9664 6.74255 12.7382 6.54877 11.5279 6.69905C10.6414 6.73131 9.79315 7.06718 9.12556 7.65022C8.81897 7.97726 8.6105 8.38364 8.52388 8.82313C8.43725 9.26262 8.47595 9.71755 8.63558 10.1362C8.76009 10.4167 8.94407 10.667 9.17481 10.8698C9.40556 11.0726 9.6776 11.223 9.97219 11.3107C11.3769 11.8245 12.9193 11.6689 14.3364 12.1245C14.6137 12.2193 14.9348 12.3649 15.0182 12.6722C15.0628 12.8567 15.0584 13.0497 15.0054 13.2319C14.9523 13.4142 14.8525 13.5795 14.7157 13.7114C14.1235 14.075 13.4307 14.2408 12.7377 14.185ZM19.1936 4.92571C16.455 3.36247 13.7152 1.80032 10.9744 0.239265C10.6995 0.0841043 10.3893 0.00185368 10.0736 0.000361908C9.75777 -0.00112986 9.44687 0.078187 9.17053 0.230744L0.938286 4.82077C0.67125 4.96418 0.447522 5.17631 0.290317 5.43515C0.133112 5.69399 0.048158 5.99011 0.0442702 6.29279L0.000230477 15.6153C0.00328161 15.9236 0.0898718 16.2254 0.250817 16.4886C0.411761 16.7518 0.641059 16.9666 0.914391 17.1102C1.69804 17.5407 2.45944 18.0151 3.25865 18.4182C3.7195 18.6668 4.23198 18.805 4.75555 18.8218C5.27913 18.8386 5.79943 18.7335 6.27531 18.5149C6.63174 18.2945 6.92242 17.9826 7.11702 17.6119C7.31162 17.2411 7.40302 16.825 7.3817 16.407C7.40174 13.3303 7.41076 10.2536 7.4275 7.17799C7.43313 7.14434 7.43157 7.10988 7.42292 7.07687C7.41428 7.04386 7.39874 7.01306 7.37732 6.98647C7.35591 6.95988 7.32911 6.93811 7.29867 6.92259C7.26824 6.90707 7.23486 6.89815 7.20073 6.89641C6.85071 6.89075 6.50065 6.88909 6.1506 6.89145C6.11832 6.88852 6.08578 6.89239 6.0551 6.90281C6.02441 6.91324 5.99626 6.92998 5.97247 6.95196C5.94868 6.97393 5.92978 7.00065 5.917 7.03039C5.90421 7.06012 5.89783 7.09221 5.89826 7.12456C5.87941 10.1815 5.87048 13.2384 5.85273 16.2964C5.85236 16.5074 5.78733 16.7133 5.66635 16.8863C5.54538 17.0594 5.37426 17.1914 5.17597 17.2645C4.94785 17.3307 4.70831 17.348 4.473 17.3155C4.2377 17.2829 4.01193 17.2011 3.81045 17.0755L1.63228 15.8331C1.58409 15.8102 1.54411 15.773 1.51773 15.7267C1.49135 15.6803 1.47984 15.627 1.48474 15.5739L1.52832 6.3482C1.5236 6.28839 1.53792 6.22862 1.56923 6.17742C1.60053 6.12621 1.64724 6.08617 1.70267 6.06302C4.43753 4.54176 7.17203 3.01941 9.90616 1.49595C9.95367 1.46373 10.0098 1.44663 10.0673 1.4469C10.1247 1.44717 10.1807 1.4648 10.2279 1.49747L18.389 6.14074C18.4437 6.165 18.4895 6.20563 18.5201 6.25702C18.5506 6.3084 18.5644 6.368 18.5595 6.42756L18.516 15.6544C18.5204 15.7078 18.5085 15.7613 18.4819 15.8079C18.4554 15.8545 18.4153 15.892 18.3671 15.9155C15.6742 17.4193 12.9794 18.921 10.2829 20.4204C10.1547 20.4902 10.0021 20.605 9.85266 20.5174C9.14932 20.1159 8.45707 19.699 7.75594 19.2941C7.72017 19.2665 7.67694 19.2501 7.6318 19.2472C7.58665 19.2442 7.54165 19.2548 7.50257 19.2776C7.19261 19.4571 6.86651 19.6073 6.52854 19.7262C6.37619 19.787 6.18878 19.8038 6.08343 19.9441C6.21653 20.0895 6.37796 20.2063 6.55785 20.2873L9.01501 21.7213C9.28595 21.8928 9.59797 21.9888 9.91864 21.9992C10.2393 22.0096 10.5569 21.9341 10.8384 21.7805C13.5829 20.2534 16.3273 18.7249 19.0718 17.1948C19.3461 17.0536 19.5771 16.8411 19.7404 16.5797C19.9038 16.3184 19.9935 16.0178 20 15.7098L20.044 6.38727C20.0429 6.09065 19.9637 5.79954 19.8145 5.54305C19.6652 5.28656 19.4512 5.07369 19.1936 4.92571Z" fill="#48537D"/>
</svg>
