<svg width="32" height="33" viewBox="0 0 32 33" fill="none" xmlns="http://www.w3.org/2000/svg">
<path d="M27.4989 1.05549L27.8025 0.742445C28.031 0.506964 28.3022 0.320197 28.6007 0.192808C28.8991 0.0654186 29.219 -9.74371e-05 29.542 1.08765e-07C29.8651 9.76546e-05 30.1849 0.0658069 30.4833 0.193376C30.7817 0.320945 31.0528 0.507876 31.2812 0.743496C31.5095 0.979116 31.6906 1.25881 31.8142 1.56661C31.9377 1.87441 32.0012 2.20428 32.0011 2.5374C32.001 2.87052 31.9373 3.20036 31.8136 3.50808C31.6899 3.81581 31.5086 4.09539 31.2802 4.33088L30.9766 4.64182C31.4959 5.2424 31.7727 6.02507 31.7504 6.82939C31.728 7.63371 31.4082 8.39875 30.8564 8.96768L9.88862 30.5928C9.75755 30.7273 9.59345 30.8224 9.41394 30.868L1.26478 32.969C1.09424 33.0128 0.915622 33.0103 0.746277 32.9619C0.576931 32.9134 0.422624 32.8206 0.298354 32.6924C0.174084 32.5643 0.0840792 32.4051 0.0370883 32.2305C-0.00990259 32.0559 -0.0122809 31.8717 0.0301845 31.6958L2.06747 23.292C2.11205 23.1076 2.20429 22.9392 2.33436 22.8046L21.9779 2.54716C21.7814 2.40457 21.5424 2.33818 21.3031 2.3597C21.0638 2.38123 20.8395 2.4893 20.67 2.66482L13.9632 9.58326C13.8685 9.68093 13.7561 9.75841 13.6323 9.81126C13.5086 9.86412 13.3759 9.89133 13.242 9.89133C13.1081 9.89133 12.9754 9.86412 12.8517 9.81126C12.7279 9.75841 12.6155 9.68093 12.5208 9.58326C12.4261 9.48559 12.351 9.36964 12.2997 9.24203C12.2485 9.11442 12.2221 8.97765 12.2221 8.83952C12.2221 8.7014 12.2485 8.56463 12.2997 8.43701C12.351 8.3094 12.4261 8.19345 12.5208 8.09578L19.2316 1.17944C19.7837 0.610117 20.5261 0.280279 21.3065 0.257619C22.087 0.23496 22.8462 0.521197 23.4284 1.05759C23.9882 0.541676 24.7126 0.25631 25.4633 0.255922C26.2141 0.255535 26.9387 0.540153 27.4989 1.05549ZM26.1869 2.66482C25.9959 2.46788 25.7369 2.35725 25.4668 2.35725C25.1966 2.35725 24.9376 2.46788 24.7466 2.66482L3.97234 24.084L2.41585 30.5067L8.64384 28.9015L29.4181 7.48231C29.5129 7.38473 29.5882 7.2688 29.6396 7.14118C29.6909 7.01356 29.7173 6.87674 29.7173 6.73857C29.7173 6.60039 29.6909 6.46358 29.6396 6.33595C29.5882 6.20833 29.5129 6.09241 29.4181 5.99483L26.1869 2.66482Z" fill="#2274AC"/>
</svg>
