<svg width="132" height="173" viewBox="0 0 132 173" fill="none" xmlns="http://www.w3.org/2000/svg">
<path fill-rule="evenodd" clip-rule="evenodd" d="M11.4043 159.918C11.4013 158.41 13.0204 157.1 15.0355 156.955C38.7899 154.945 57.3979 148.548 70.419 138.047C83.0961 127.82 90.2104 113.683 91.6417 96.103C92.0039 92.2249 91.277 85.3701 89.134 78.3349C81.3602 77.839 73.7858 75.908 67.4743 73.2355C58.1548 69.2867 52.1048 63.5811 51.0768 59.134C50.5084 56.6707 51.1049 54.383 52.7081 52.3137C54.7641 49.6675 58.995 47.0326 66.8335 46.0026C77.6718 44.5972 86.2786 48.2481 92.468 54.97C95.7175 58.5072 98.2406 62.9497 100.14 67.6519C104.969 66.9087 109.535 65.0193 113.114 61.3978C120.749 53.7712 119.998 43.7242 116.139 34.3546C112.81 26.241 106.816 15.1407 97.0193 10.4668C93.6918 8.87711 89.9533 8.23464 89.929 4.71548C89.8534 -0.698063 96.9467 -0.872259 101.523 1.30657C111.348 5.99083 118.671 15.3502 123.618 23.0626C132.736 37.2432 135.643 54.3583 123.716 66.8716C118.094 72.7177 110.887 76.0488 103.218 77.5235C104.965 84.9567 105.355 91.9752 104.852 96.0731C102.12 116.186 92.8897 132.095 77.7261 143.321C62.5852 154.541 41.5488 161.177 15.0722 162.397C13.0508 162.526 11.4074 161.425 11.4043 159.918ZM83.459 65.7854C81.936 63.435 80.1657 61.3513 78.0857 59.6968C75.436 57.5966 72.2319 56.2644 68.1481 56.8057C67.4609 56.9007 66.5678 56.9788 65.8807 57.0738C66.5979 57.9702 68.0749 59.6788 69.6894 60.7687C73.3094 63.1879 78.423 65.403 84.0531 66.7514C83.8693 66.4013 83.6755 66.0903 83.459 65.7854Z" fill="#FFB656"/>
<path fill-rule="evenodd" clip-rule="evenodd" d="M65.0684 56.7831C64.9597 57.0841 64.8098 57.342 64.6281 57.192C64.4051 56.9989 64.6115 56.8887 65.0684 56.7831Z" fill="#FFB656"/>
<path fill-rule="evenodd" clip-rule="evenodd" d="M25.3487 159.096C29.1691 159.911 33.12 160.872 36.6162 162.01C42.0541 163.801 46.4285 165.934 48.2108 168.642C49.2897 169.836 48.7765 171.552 47.0782 172.447C45.3861 173.358 43.129 173.117 42.0726 171.917C41.4505 171.396 40.4954 171.111 39.4637 170.756C37.048 169.905 33.9148 169.52 30.5247 169.115C26.1971 168.6 21.5489 168.354 17.3869 168.012C13.6135 167.71 10.2522 167.314 7.78175 166.841C3.89002 166.1 1.6016 164.671 0.582904 163.569C0.321947 163.277 -1.96468 157.624 4.77446 155.075C7.18954 154.168 13.4392 152.096 13.7486 151.994C17.6697 150.86 24.8842 148.708 30.6645 145.929C32.4944 145.053 34.2278 144.185 35.5188 143.201C35.4685 143.07 35.4183 142.939 35.3905 142.801C34.8721 140.73 36.7257 138.615 39.5396 138.035C41.0117 137.654 43.7749 137.722 45.0347 138.088C47.474 138.806 48.2638 140.35 47.8075 142.54C47.1803 145.519 44.3576 148.549 40.3443 151.394C36.1081 154.371 30.2965 157.068 25.3487 159.096ZM12.755 156.812C11.9303 156.673 11.4338 156.481 11.7166 156.115C12.032 155.703 12.4789 156.416 12.755 156.812Z" fill="#FFB656"/>
</svg>
