<svg width="37" height="36" viewBox="0 0 37 36" fill="none" xmlns="http://www.w3.org/2000/svg">
<path d="M24.948 1.38477C22.3893 1.38477 20.1565 2.6683 19.1674 5.10661C21.2437 6.77369 22.681 9.35323 22.681 12.8508C22.681 16.5851 20.8708 19.9981 18.9895 22.1969C21.9865 23.3005 26.677 25.5117 28.0175 28.904C32.7393 28.6492 36.9545 27.7243 36.9545 25.0963V24.2309C36.9545 21.8217 32.6368 19.4637 28.8173 18.2162C28.6437 18.1608 27.5508 17.9032 28.2395 15.836C30.0326 14.0138 31.2636 11.0646 31.2636 8.17907C31.2636 3.73307 28.4245 1.38477 24.948 1.38477ZM12.765 5.66877C9.065 5.66877 5.87162 8.12646 5.87162 12.8508C5.87162 15.9385 7.38008 19.0898 9.29554 21.0283C10.0427 22.9654 8.68646 24.3445 8.40612 24.4483C4.53392 25.8274 0 28.3183 0 30.8078V31.7605C0 35.1514 6.64719 35.9143 12.8077 35.9143C18.9753 35.9143 25.5713 35.1514 25.5713 31.7605V30.8078C25.5713 28.2435 21.006 25.7748 16.9432 24.4469C16.7582 24.3874 15.5898 23.1828 16.3213 20.9854H16.2772C18.1841 19.0469 19.8348 15.926 19.8348 12.8508C19.8348 8.12646 16.4607 5.66877 12.7622 5.66877H12.765Z" fill="#2274AC" fill-opacity="0.73"/>
</svg>
