<svg width="246" height="45" viewBox="0 0 246 45" fill="none" xmlns="http://www.w3.org/2000/svg">
<path d="M5.59789 34.9527H0L12.5782 0H18.671L31.2492 34.9527H25.6513L15.7697 6.34882H15.4966L5.59789 34.9527ZM6.53656 21.2651H24.6956V25.7025H6.53656V21.2651Z" fill="white"/>
<path d="M35.8871 44.7831V8.73817H40.8705V12.9878H41.2972C41.593 12.4416 42.0197 11.8102 42.5772 11.0934C43.1347 10.3766 43.9084 9.75079 44.8983 9.21603C45.8882 8.6699 47.1966 8.39683 48.8236 8.39683C50.9399 8.39683 52.8286 8.93159 54.4898 10.0011C56.151 11.0706 57.4537 12.6123 58.3981 14.6262C59.3538 16.6401 59.8317 19.0635 59.8317 21.8966C59.8317 24.7297 59.3595 27.1589 58.4151 29.1841C57.4708 31.198 56.1737 32.7511 54.5239 33.8433C52.8741 34.9242 50.9911 35.4647 48.8748 35.4647C47.282 35.4647 45.9792 35.1973 44.9666 34.6625C43.9653 34.1278 43.1802 33.502 42.6114 32.7852C42.0425 32.0684 41.6044 31.4312 41.2972 30.8737H40.99V44.7831H35.8871ZM40.8876 21.8454C40.8876 23.6886 41.155 25.3043 41.6897 26.6924C42.2245 28.0805 42.9982 29.167 44.0108 29.9521C45.0235 30.7258 46.2636 31.1126 47.7314 31.1126C49.256 31.1126 50.5303 30.7087 51.5543 29.9009C52.5783 29.0817 53.352 27.9724 53.8754 26.5729C54.4102 25.1734 54.6775 23.5976 54.6775 21.8454C54.6775 20.116 54.4158 18.5629 53.8925 17.1862C53.3805 15.8095 52.6068 14.7229 51.5714 13.9265C50.5474 13.13 49.2674 12.7318 47.7314 12.7318C46.2523 12.7318 45.0007 13.1129 43.9767 13.8753C42.9641 14.6376 42.1961 15.7014 41.6727 17.0667C41.1493 18.4321 40.8876 20.025 40.8876 21.8454Z" fill="white"/>
<path d="M65.549 44.7831V8.73817H70.5325V12.9878H70.9592C71.255 12.4416 71.6817 11.8102 72.2392 11.0934C72.7967 10.3766 73.5704 9.75079 74.5603 9.21603C75.5501 8.6699 76.8586 8.39683 78.4856 8.39683C80.6019 8.39683 82.4906 8.93159 84.1518 10.0011C85.8129 11.0706 87.1157 12.6123 88.0601 14.6262C89.0158 16.6401 89.4937 19.0635 89.4937 21.8966C89.4937 24.7297 89.0215 27.1589 88.0771 29.1841C87.1328 31.198 85.8357 32.7511 84.1859 33.8433C82.5361 34.9242 80.6531 35.4647 78.5368 35.4647C76.9439 35.4647 75.6412 35.1973 74.6285 34.6625C73.6273 34.1278 72.8422 33.502 72.2733 32.7852C71.7044 32.0684 71.2664 31.4312 70.9592 30.8737H70.652V44.7831H65.549ZM70.5496 21.8454C70.5496 23.6886 70.817 25.3043 71.3517 26.6924C71.8865 28.0805 72.6602 29.167 73.6728 29.9521C74.6854 30.7258 75.9256 31.1126 77.3933 31.1126C78.918 31.1126 80.1923 30.7087 81.2163 29.9009C82.2403 29.0817 83.014 27.9724 83.5374 26.5729C84.0721 25.1734 84.3395 23.5976 84.3395 21.8454C84.3395 20.116 84.0778 18.5629 83.5544 17.1862C83.0424 15.8095 82.2687 14.7229 81.2334 13.9265C80.2094 13.13 78.9293 12.7318 77.3933 12.7318C75.9142 12.7318 74.6627 13.1129 73.6387 13.8753C72.626 14.6376 71.858 15.7014 71.3347 17.0667C70.8113 18.4321 70.5496 20.025 70.5496 21.8454Z" fill="white"/>
<path d="M100.314 0V34.9527H95.211V0H100.314Z" fill="white"/>
<path d="M110.405 44.7831C109.642 44.7831 108.948 44.7205 108.323 44.5954C107.697 44.4816 107.23 44.3564 106.923 44.2199L108.152 40.0385C109.085 40.2889 109.915 40.3969 110.644 40.3628C111.372 40.3287 112.015 40.0556 112.572 39.5436C113.141 39.0316 113.642 38.1953 114.074 37.0348L114.705 35.294L105.114 8.73817H110.575L117.214 29.0817H117.487L124.126 8.73817H129.605L118.801 38.4513C118.301 39.8167 117.664 40.9715 116.89 41.9159C116.116 42.8716 115.195 43.5884 114.125 44.0663C113.056 44.5442 111.816 44.7831 110.405 44.7831Z" fill="white"/>
<path d="M175.74 0V34.9527H170.893L153.127 9.31843H152.803V34.9527H147.529V0H152.41L170.194 25.6684H170.518V0H175.74Z" fill="white"/>
<path d="M194.066 35.4817C191.608 35.4817 189.463 34.9185 187.632 33.7921C185.8 32.6657 184.378 31.0899 183.365 29.0646C182.352 27.0394 181.846 24.6728 181.846 21.9649C181.846 19.2456 182.352 16.8676 183.365 14.831C184.378 12.7944 185.8 11.2128 187.632 10.0864C189.463 8.96003 191.608 8.39683 194.066 8.39683C196.523 8.39683 198.668 8.96003 200.5 10.0864C202.332 11.2128 203.754 12.7944 204.767 14.831C205.779 16.8676 206.286 19.2456 206.286 21.9649C206.286 24.6728 205.779 27.0394 204.767 29.0646C203.754 31.0899 202.332 32.6657 200.5 33.7921C198.668 34.9185 196.523 35.4817 194.066 35.4817ZM194.083 31.198C195.676 31.198 196.996 30.777 198.042 29.935C199.089 29.0931 199.863 27.9724 200.363 26.5729C200.875 25.1734 201.131 23.6317 201.131 21.9478C201.131 20.2753 200.875 18.7393 200.363 17.3398C199.863 15.9289 199.089 14.7969 198.042 13.9435C196.996 13.0902 195.676 12.6635 194.083 12.6635C192.479 12.6635 191.147 13.0902 190.089 13.9435C189.042 14.7969 188.263 15.9289 187.751 17.3398C187.25 18.7393 187 20.2753 187 21.9478C187 23.6317 187.25 25.1734 187.751 26.5729C188.263 27.9724 189.042 29.0931 190.089 29.935C191.147 30.777 192.479 31.198 194.083 31.198Z" fill="white"/>
<path d="M216.867 34.9527L209.153 8.73817H214.426L219.563 27.9894H219.819L224.974 8.73817H230.247L235.367 27.9041H235.623L240.726 8.73817H246L238.303 34.9527H233.097L227.773 16.0257H227.38L222.055 34.9527H216.867Z" fill="white"/>
</svg>
