<svg width="35" height="36" viewBox="0 0 35 36" fill="none" xmlns="http://www.w3.org/2000/svg">
<path d="M30.606 24C30.6123 23.8399 30.5931 23.6798 30.5492 23.526L27.6325 14.526C27.5362 14.2272 27.3508 13.9672 27.1026 13.783C26.8544 13.5988 26.5561 13.4998 26.25 13.5H20.4167V16.5H25.1985L27.6296 24H7.37042L9.80146 16.5H14.5833V13.5H8.75C8.44394 13.4998 8.14561 13.5988 7.89742 13.783C7.64922 13.9672 7.46379 14.2272 7.3675 14.526L4.45083 23.526C4.40688 23.6798 4.38767 23.8399 4.39396 24C4.375 24 4.375 31.5 4.375 31.5C4.375 31.8978 4.52865 32.2794 4.80214 32.5607C5.07563 32.842 5.44656 33 5.83333 33H29.1667C29.5534 33 29.9244 32.842 30.1979 32.5607C30.4714 32.2794 30.625 31.8978 30.625 31.5C30.625 31.5 30.625 24 30.606 24ZM23.3333 11.856C23.711 11.856 24.0888 11.7135 24.3644 11.4315C24.6378 11.1502 24.7914 10.7687 24.7914 10.371C24.7914 9.97325 24.6378 9.59179 24.3644 9.3105L17.5 2.25L10.6356 9.3105C10.3622 9.59179 10.2086 9.97325 10.2086 10.371C10.2086 10.7687 10.3622 11.1502 10.6356 11.4315C10.9113 11.715 11.289 11.856 11.6667 11.856C12.0444 11.856 12.4221 11.715 12.6977 11.4315L16.0417 7.992V18C16.0417 18.3978 16.1953 18.7794 16.4688 19.0607C16.7423 19.342 17.1132 19.5 17.5 19.5C17.8868 19.5 18.2577 19.342 18.5312 19.0607C18.8047 18.7794 18.9583 18.3978 18.9583 18V7.992L22.3023 11.4315C22.5778 11.7077 22.9486 11.8604 23.3333 11.856Z" fill="#2274AC"/>
</svg>
