<svg width="30" height="30" viewBox="0 0 30 30" fill="none" xmlns="http://www.w3.org/2000/svg">
<path d="M20.565 6.43491L12.615 14.3848L9.435 11.2048C9.30053 11.0478 9.13505 10.9203 8.94896 10.8303C8.76286 10.7402 8.56016 10.6896 8.35358 10.6817C8.147 10.6737 7.941 10.7085 7.74852 10.7839C7.55603 10.8593 7.38121 10.9737 7.23502 11.1199C7.08884 11.2661 6.97446 11.4409 6.89904 11.6334C6.82363 11.8258 6.78882 12.0318 6.7968 12.2384C6.80478 12.445 6.85538 12.6477 6.94541 12.8338C7.03545 13.0199 7.16298 13.1853 7.32 13.3198L11.565 17.5648C11.8444 17.8419 12.2215 17.9981 12.615 17.9998C12.8124 18.0009 13.0081 17.9631 13.1909 17.8884C13.3736 17.8138 13.5398 17.7038 13.68 17.5648L22.68 8.56488C22.8206 8.42544 22.9322 8.25954 23.0083 8.07675C23.0845 7.89397 23.1237 7.69791 23.1237 7.4999C23.1237 7.30188 23.0845 7.10582 23.0083 6.92304C22.9322 6.74025 22.8206 6.57435 22.68 6.43491C22.399 6.15554 22.0188 5.99873 21.6225 5.99873C21.2262 5.99873 20.846 6.15554 20.565 6.43491ZM25.5 0H4.5C3.30653 0 2.16193 0.474099 1.31802 1.318C0.474106 2.1619 0 3.30648 0 4.49994V19.4997C0 20.6932 0.474106 21.8378 1.31802 22.6817C2.16193 23.5256 3.30653 23.9997 4.5 23.9997H21.885L27.435 29.5646C27.5752 29.7036 27.7414 29.8136 27.9241 29.8882C28.1069 29.9629 28.3026 30.0007 28.5 29.9996C28.6968 30.0047 28.892 29.9636 29.07 29.8796C29.3439 29.7671 29.5784 29.576 29.7439 29.3304C29.9094 29.0848 29.9985 28.7957 30 28.4996V4.49994C30 3.30648 29.5259 2.1619 28.682 1.318C27.8381 0.474099 26.6935 0 25.5 0ZM27 24.8847L23.565 21.4347C23.4248 21.2957 23.2586 21.1857 23.0759 21.111C22.8931 21.0364 22.6974 20.9986 22.5 20.9997H4.5C4.10218 20.9997 3.72064 20.8417 3.43934 20.5604C3.15804 20.2791 3 19.8975 3 19.4997V4.49994C3 4.10212 3.15804 3.72059 3.43934 3.43929C3.72064 3.15799 4.10218 2.99996 4.5 2.99996H25.5C25.8978 2.99996 26.2794 3.15799 26.5607 3.43929C26.842 3.72059 27 4.10212 27 4.49994V24.8847Z" fill="#FFB656"/>
</svg>
