<svg width="1038" height="803" viewBox="0 0 1038 803" fill="none" xmlns="http://www.w3.org/2000/svg">
<mask id="mask0_1003_16422" style="mask-type:alpha" maskUnits="userSpaceOnUse" x="0" y="-639" width="1440" height="1442">
<path d="M0 -638.418H1440V782.582C1440 793.628 1431.05 802.582 1420 802.582H20C8.95432 802.582 0 793.628 0 782.582V-638.418Z" fill="#275473"/>
</mask>
<g mask="url(#mask0_1003_16422)">
<path d="M259 674.378C259 771.58 180.202 850.378 83 850.378C-14.2021 850.378 -93 771.58 -93 674.378L-93 337.842L259 337.842L259 674.378Z" fill="#113349"/>
<path d="M1038 646.416C1038 746.656 956.74 827.916 856.5 827.916C756.26 827.916 675 746.656 675 646.416V-0.000244141H1038V646.416Z" fill="#113349"/>
</g>
</svg>
