<svg width="14" height="41" viewBox="0 0 14 41" fill="none" xmlns="http://www.w3.org/2000/svg">
<path d="M8.77156 1.8068C9.20802 1.4537 9.27559 0.813625 8.92248 0.377166C8.56937 -0.0592941 7.9293 -0.126863 7.49284 0.226245L8.77156 1.8068ZM2.71073 35.5784C2.71073 38.5726 5.13801 40.9998 8.1322 40.9998C11.1264 40.9998 13.5537 38.5726 13.5537 35.5784C13.5537 32.5842 11.1264 30.1569 8.1322 30.1569C5.13801 30.1569 2.71073 32.5842 2.71073 35.5784ZM7.49284 0.226245C-0.874648 6.99578 -0.907531 16.0805 1.08883 23.2898C2.08707 26.8947 3.60065 30.082 4.87983 32.378C5.52049 33.5279 6.10586 34.4605 6.54451 35.1172C6.76363 35.4452 6.94801 35.7072 7.08614 35.8951C7.15469 35.9883 7.21531 36.068 7.26527 36.1304C7.28968 36.1609 7.31679 36.1938 7.34417 36.2248C7.34488 36.2256 7.42558 36.3221 7.53758 36.4028L8.72682 34.7539C8.79524 34.8032 8.83994 34.8495 8.84465 34.8542C8.85846 34.8682 8.86696 34.8778 8.86815 34.8792C8.87098 34.8824 8.86648 34.8774 8.85256 34.86C8.82586 34.8267 8.78297 34.7708 8.72399 34.6906C8.60709 34.5316 8.44038 34.2953 8.23511 33.9879C7.82499 33.3739 7.26838 32.4879 6.65583 31.3885C5.42857 29.1857 3.99072 26.1511 3.04815 22.7473C1.16289 15.9391 1.29086 7.85891 8.77156 1.8068L7.49284 0.226245Z" fill="#275473"/>
</svg>
