<svg width="20" height="20" viewBox="0 0 20 20" fill="none" xmlns="http://www.w3.org/2000/svg">
<path d="M8.99374 7H10.9923V5H8.99374M9.99304 18C5.58611 18 1.99861 14.41 1.99861 10C1.99861 5.59 5.58611 2 9.99304 2C14.4 2 17.9875 5.59 17.9875 10C17.9875 14.41 14.4 18 9.99304 18ZM9.99304 0C8.68074 0 7.38128 0.258658 6.16887 0.761205C4.95646 1.26375 3.85483 2.00035 2.92689 2.92893C1.05284 4.8043 0 7.34784 0 10C0 12.6522 1.05284 15.1957 2.92689 17.0711C3.85483 17.9997 4.95646 18.7362 6.16887 19.2388C7.38128 19.7413 8.68074 20 9.99304 20C12.6434 20 15.1851 18.9464 17.0592 17.0711C18.9332 15.1957 19.9861 12.6522 19.9861 10C19.9861 8.68678 19.7276 7.38642 19.2254 6.17317C18.7232 4.95991 17.9871 3.85752 17.0592 2.92893C16.1313 2.00035 15.0296 1.26375 13.8172 0.761205C12.6048 0.258658 11.3053 0 9.99304 0ZM8.99374 15H10.9923V9H8.99374V15Z" fill="#275473"/>
</svg>
