<svg width="39" height="42" viewBox="0 0 39 42" fill="none" xmlns="http://www.w3.org/2000/svg">
<path fill-rule="evenodd" clip-rule="evenodd" d="M26.2031 21.0001C26.2031 20.6521 26.0747 20.3182 25.8461 20.0721C25.6175 19.8259 25.3075 19.6876 24.9843 19.6876H7.15318L10.3398 16.7476C10.4614 16.6355 10.5614 16.4986 10.6339 16.3449C10.7064 16.1912 10.7501 16.0235 10.7625 15.8516C10.7749 15.6797 10.7557 15.5068 10.706 15.3429C10.6564 15.1789 10.5772 15.0271 10.4731 14.8961C10.3689 14.7652 10.2418 14.6575 10.0991 14.5794C9.95632 14.5013 9.80067 14.4543 9.64103 14.4409C9.48138 14.4276 9.32086 14.4483 9.16863 14.5018C9.0164 14.5552 8.87544 14.6405 8.75381 14.7526L3.0663 20.0026C2.93251 20.1259 2.82509 20.2788 2.75144 20.451C2.67779 20.6232 2.63965 20.8106 2.63965 21.0001C2.63965 21.1897 2.67779 21.3771 2.75144 21.5493C2.82509 21.7215 2.93251 21.8744 3.0663 21.9976L8.75381 27.2476C8.99946 27.4741 9.3186 27.5863 9.64103 27.5594C9.96345 27.5324 10.2627 27.3687 10.4731 27.1041C10.6834 26.8396 10.7875 26.4959 10.7625 26.1487C10.7375 25.8015 10.5855 25.4791 10.3398 25.2526L7.1548 22.3126H24.9843C25.3075 22.3126 25.6175 22.1744 25.8461 21.9282C26.0747 21.6821 26.2031 21.3482 26.2031 21.0001Z" fill="#275473"/>
<path d="M15.2344 14C15.2344 15.2285 15.2344 15.8427 15.509 16.2855C15.6273 16.4759 15.7791 16.6394 15.9559 16.7668C16.367 17.0625 16.9374 17.0625 18.0781 17.0625H24.9844C25.9541 17.0625 26.8841 17.4773 27.5697 18.2158C28.2554 18.9542 28.6406 19.9557 28.6406 21C28.6406 22.0443 28.2554 23.0458 27.5697 23.7842C26.8841 24.5227 25.9541 24.9375 24.9844 24.9375H18.0781C16.9374 24.9375 16.367 24.9375 15.9559 25.2315C15.779 25.3594 15.6271 25.5235 15.509 25.7145C15.2344 26.1573 15.2344 26.7715 15.2344 28C15.2344 32.949 15.2344 35.4253 16.6627 36.9618C18.0895 38.5 20.3872 38.5 24.9827 38.5H26.6078C31.2065 38.5 33.5026 38.5 34.931 36.9618C36.3594 35.4253 36.3594 32.949 36.3594 28V14C36.3594 9.051 36.3594 6.57475 34.931 5.03825C33.5026 3.5 31.2049 3.5 26.6094 3.5H24.9844C20.3872 3.5 18.0895 3.5 16.6627 5.03825C15.2344 6.57475 15.2344 9.051 15.2344 14Z" fill="#275473"/>
</svg>
