<svg width="24" height="28" viewBox="0 0 24 28" fill="none" xmlns="http://www.w3.org/2000/svg">
<path d="M23.9827 19.3333C23.9884 19.191 23.9709 19.0487 23.9307 18.912L21.264 10.912C21.176 10.6464 21.0064 10.4153 20.7795 10.2516C20.5526 10.0878 20.2798 9.99981 20 10H14.6667V12.6667H19.0387L21.2613 19.3333H2.73867L4.96133 12.6667H9.33333V10H4C3.72018 9.99981 3.44742 10.0878 3.22049 10.2516C2.99357 10.4153 2.82404 10.6464 2.736 10.912L0.0693334 18.912C0.0291485 19.0487 0.0115834 19.191 0.0173333 19.3333C1.49012e-08 19.3333 0 26 0 26C0 26.3536 0.140476 26.6928 0.390524 26.9428C0.640573 27.1929 0.979711 27.3333 1.33333 27.3333H22.6667C23.0203 27.3333 23.3594 27.1929 23.6095 26.9428C23.8595 26.6928 24 26.3536 24 26C24 26 24 19.3333 23.9827 19.3333ZM17.3333 8.53867C17.6787 8.53867 18.024 8.412 18.276 8.16133C18.526 7.9113 18.6664 7.57222 18.6664 7.21867C18.6664 6.86511 18.526 6.52604 18.276 6.276L12 0L5.724 6.276C5.47404 6.52604 5.33362 6.86511 5.33362 7.21867C5.33362 7.57222 5.47404 7.9113 5.724 8.16133C5.976 8.41333 6.32133 8.53867 6.66667 8.53867C7.012 8.53867 7.35733 8.41333 7.60933 8.16133L10.6667 5.104V14C10.6667 14.3536 10.8071 14.6928 11.0572 14.9428C11.3072 15.1929 11.6464 15.3333 12 15.3333C12.3536 15.3333 12.6928 15.1929 12.9428 14.9428C13.1929 14.6928 13.3333 14.3536 13.3333 14V5.104L16.3907 8.16133C16.6426 8.40689 16.9816 8.54258 17.3333 8.53867Z" fill="#275473"/>
</svg>
