<svg width="14" height="40" viewBox="0 0 14 40" fill="none" xmlns="http://www.w3.org/2000/svg">
<path d="M4.7983 1.81677C4.35657 1.46991 4.27966 0.830626 4.62653 0.388892C4.97339 -0.0528413 5.61267 -0.129748 6.05441 0.217116L4.7983 1.81677ZM10.8501 34.5761C10.8501 37.5716 8.42178 39.9998 5.42635 39.9998C2.43092 39.9998 0.00264862 37.5716 0.00264862 34.5761C0.00264862 31.5807 2.43092 29.1524 5.42635 29.1524C8.42178 29.1524 10.8501 31.5807 10.8501 34.5761ZM6.05441 0.217116C14.4357 6.79836 14.4725 15.6426 12.4705 22.6597C11.4704 26.1652 9.95428 29.2635 8.67367 31.4945C8.03219 32.612 7.44607 33.5183 7.00679 34.1566C6.78735 34.4755 6.60263 34.7302 6.46414 34.913C6.39542 35.0037 6.33454 35.0814 6.28427 35.1423C6.25972 35.1721 6.23234 35.2044 6.20464 35.2349C6.2037 35.2359 6.12214 35.3304 6.00953 35.4092L4.84318 33.743C4.7745 33.7911 4.7294 33.8363 4.72436 33.8413C4.71026 33.8551 4.70152 33.8647 4.70017 33.8662C4.69703 33.8697 4.70128 33.8651 4.71506 33.8484C4.74148 33.8164 4.78416 33.7624 4.84302 33.6847C4.95967 33.5308 5.12618 33.3016 5.33131 33.0036C5.74115 32.408 6.29747 31.5485 6.90974 30.4819C8.1366 28.3446 9.57317 25.4016 10.5146 22.1017C12.3959 15.5079 12.2718 7.6852 4.7983 1.81677L6.05441 0.217116Z" fill="#FFB656"/>
</svg>
