<svg width="88" height="42" viewBox="0 0 88 42" fill="none" xmlns="http://www.w3.org/2000/svg">
<path fill-rule="evenodd" clip-rule="evenodd" d="M83.3255 24.7251C82.7939 24.2345 81.8504 24.3515 81.201 24.9796C73.4399 32.2871 65.6569 36.4453 58.0826 37.3982C50.7074 38.3251 43.6021 36.1176 36.9678 30.8877C35.4904 29.7496 33.2849 27.2797 31.4361 24.2767C33.5685 21.5106 35.1348 18.3452 36.0643 15.3621C37.4358 10.9566 37.2164 7.07615 35.9507 5.28733C35.2494 4.29685 34.2642 3.75375 33.0574 3.61891C31.5124 3.44848 29.3259 4.01054 26.6353 6.30276C22.9217 9.47834 21.6565 13.5483 22.1936 17.8056C22.4785 20.0433 23.2987 22.3316 24.3959 24.4952C22.6997 25.8723 20.677 26.7888 18.3355 26.8119C13.3754 26.8934 10.0495 23.3787 7.88565 19.0424C6.00795 15.2916 3.86624 9.67795 5.12329 4.87706C5.54952 3.24569 6.43231 1.78421 5.1965 0.633117C3.30678 -1.15041 1.13972 1.17005 0.551058 3.41108C-0.710911 8.22502 0.421183 13.7188 1.67695 17.8814C3.9792 25.5425 9.16181 32.0751 17.122 32.1423C20.8557 32.1572 24.1717 30.8237 26.9689 28.7329C29.076 31.7323 31.4392 34.1426 33.0358 35.305C40.951 40.9215 49.3103 42.9954 57.7767 41.5599C66.2342 40.1301 74.8224 35.2358 83.1124 26.7594C83.7579 26.1238 83.8571 25.2158 83.3255 24.7251ZM28.688 18.2991C28.3098 17.0254 28.0993 15.7554 28.1323 14.5211C28.177 12.951 28.6576 11.4446 30.061 10.2519C30.2985 10.0525 30.5912 9.77855 30.8287 9.57915C30.9325 10.1106 31.0976 11.1605 31.0033 12.0555C30.7832 14.0543 30.0478 16.4873 28.8528 18.812C28.7837 18.6367 28.7314 18.4707 28.688 18.2991Z" fill="#4D2C5E"/>
<path fill-rule="evenodd" clip-rule="evenodd" d="M30.9658 9.21197C31.1044 9.27333 31.24 9.30684 31.2409 9.19725C31.2389 9.0598 31.1387 9.09317 30.9658 9.21197Z" fill="#4D2C5E"/>
<path fill-rule="evenodd" clip-rule="evenodd" d="M78.8943 29.1308C78.0481 30.6758 77.2148 32.3118 76.5791 33.8531C75.5975 36.2571 75.0525 38.4158 75.48 39.8926C75.5816 40.642 76.3401 41.0273 77.1602 40.7488C77.9843 40.4777 78.5691 39.643 78.4586 38.8991C78.4595 38.5216 78.6422 38.1089 78.823 37.6478C79.2396 36.562 80.0338 35.3871 80.8968 34.1193C81.9996 32.502 83.2923 30.8643 84.407 29.3585C85.4204 27.9959 86.2785 26.7411 86.8446 25.7595C87.738 24.2146 87.9125 22.9836 87.8257 22.2844C87.8 22.1021 86.4821 19.4999 83.5813 20.9304C82.5439 21.445 79.9569 22.8663 79.8291 22.9369C78.2647 23.8827 75.363 25.6015 72.6657 26.6359C71.8131 26.9647 70.992 27.2637 70.2613 27.3768C70.2298 27.3172 70.1983 27.2577 70.158 27.2038C69.5803 26.3574 68.283 26.2916 67.2428 27.0461C66.6715 27.4159 65.8753 28.3639 65.6306 28.905C65.1599 29.9554 65.471 30.7217 66.38 31.28C67.6186 32.0375 69.5266 32.0756 71.7226 31.6545C74.0317 31.2019 76.7093 30.1302 78.8943 29.1308ZM81.8261 24.169C82.0217 23.8474 82.1012 23.6187 81.8878 23.5944C81.6488 23.5664 81.768 23.9477 81.8261 24.169Z" fill="#4D2C5E"/>
</svg>
