<svg width="1724" height="881" viewBox="0 0 1724 881" fill="none" xmlns="http://www.w3.org/2000/svg">
<path fill-rule="evenodd" clip-rule="evenodd" d="M1641.99 543.897C1608.38 586.211 1476.36 603.956 1383.32 633.013C1287.88 662.823 1250.6 733.37 1090.75 716.064C906.519 696.118 919.666 591.068 739.423 563.301C510.216 527.991 248.862 622.668 77.4566 559.962C-76.0087 503.819 237.393 463.165 345.008 419.011C398.658 396.999 487.342 388.507 545.777 367.814C610.931 344.742 623.265 309.666 704.287 291.787C849.835 259.669 984.706 201.925 1194.13 224.744C1391.52 246.252 1493.79 326.549 1578.71 387.064C1654.02 440.728 1679.77 496.351 1641.99 543.897Z" stroke="#2360BB" stroke-width="2"/>
<path fill-rule="evenodd" clip-rule="evenodd" d="M1638.88 576.339C1605.26 618.654 1473.24 636.398 1380.21 665.456C1284.76 695.265 1247.49 765.813 1087.64 748.507C903.401 728.56 916.549 623.511 736.305 595.744C507.099 560.433 245.745 655.111 74.3394 592.405C-79.1259 536.262 234.276 495.607 341.891 451.453C395.541 429.441 484.224 420.949 542.66 400.256C607.814 377.185 620.148 342.108 701.17 324.229C846.718 292.112 981.589 234.368 1191.01 257.186C1388.41 278.694 1490.67 358.991 1575.59 419.507C1650.9 473.17 1676.65 528.793 1638.88 576.339Z" stroke="#FFB656" stroke-width="2"/>
<path fill-rule="evenodd" clip-rule="evenodd" d="M1641.22 552.007C1607.61 594.322 1475.59 612.067 1382.55 641.124C1287.11 670.934 1249.83 741.481 1089.98 724.175C905.745 704.229 918.893 599.179 738.649 571.412C509.443 536.102 248.089 630.779 76.6832 568.073C-76.7822 511.93 236.62 471.275 344.234 427.122C397.884 405.11 486.568 396.617 545.004 375.925C610.158 352.853 622.492 317.777 703.514 299.898C849.061 267.78 983.933 210.036 1193.35 232.854C1390.75 254.363 1493.02 334.66 1577.94 395.175C1653.24 448.839 1678.99 504.462 1641.22 552.007Z" stroke="#FFB656" stroke-width="2"/>
<path fill-rule="evenodd" clip-rule="evenodd" d="M1638.1 584.45C1604.49 626.764 1472.47 644.509 1379.43 673.566C1283.99 703.376 1246.71 773.924 1086.86 756.617C902.628 736.671 915.776 631.622 735.532 603.854C506.325 568.544 244.972 663.221 73.566 600.515C-79.8994 544.373 233.502 503.718 341.117 459.564C394.767 437.552 483.451 429.06 541.887 408.367C607.04 385.296 619.375 350.219 700.396 332.34C845.944 300.222 980.816 242.478 1190.24 265.297C1387.63 286.805 1489.9 367.102 1574.82 427.617C1650.13 481.281 1675.87 536.904 1638.1 584.45Z" stroke="#FFB656" stroke-width="2"/>
<path fill-rule="evenodd" clip-rule="evenodd" d="M1640.44 560.118C1606.82 602.432 1474.81 620.177 1381.77 649.234C1286.33 679.044 1249.05 749.591 1089.2 732.285C904.964 712.339 918.112 607.29 737.868 579.522C508.661 544.212 247.308 638.889 75.9019 576.183C-77.5634 520.041 235.838 479.386 343.453 435.232C397.103 413.22 485.787 404.728 544.222 384.035C609.376 360.964 621.711 325.887 702.732 308.008C848.28 275.89 983.152 218.146 1192.57 240.965C1389.97 262.473 1492.24 342.77 1577.16 403.285C1652.46 456.949 1678.21 512.572 1640.44 560.118Z" stroke="#FFB656" stroke-width="2"/>
<path fill-rule="evenodd" clip-rule="evenodd" d="M1639.66 568.228C1606.04 610.543 1474.02 628.287 1380.99 657.345C1285.54 687.154 1248.27 757.702 1088.42 740.396C904.183 720.45 917.33 615.4 737.087 587.633C507.88 552.323 246.526 647 75.1207 584.294C-78.3447 528.151 235.057 487.496 342.672 443.343C396.322 421.33 485.006 412.838 543.441 392.146C608.595 369.074 620.929 333.997 701.951 316.119C847.499 284.001 982.37 226.257 1191.79 249.075C1389.19 270.584 1491.45 350.881 1576.38 411.396C1651.68 465.06 1677.43 520.683 1639.66 568.228Z" stroke="#2360BB" stroke-width="2"/>
<path fill-rule="evenodd" clip-rule="evenodd" d="M1640.81 531.747C1607.19 574.062 1475.17 591.806 1382.14 620.864C1286.69 650.673 1249.42 721.221 1089.57 703.915C905.331 683.969 918.479 578.919 738.235 551.152C509.029 515.842 247.675 610.519 76.2691 547.813C-77.1962 491.67 236.206 451.015 343.82 406.862C397.47 384.849 486.154 376.357 544.59 355.665C609.744 332.593 622.078 297.517 703.1 279.638C848.647 247.52 983.519 189.776 1192.94 212.594C1390.34 234.103 1492.6 314.4 1577.52 374.915C1652.83 428.579 1678.58 484.202 1640.81 531.747Z" stroke="#2360BB" stroke-width="2"/>
<path fill-rule="evenodd" clip-rule="evenodd" d="M1633.92 522.139C1600.31 564.453 1468.29 582.198 1375.25 611.255C1279.81 641.065 1242.53 711.612 1082.68 694.306C898.448 674.36 911.596 569.311 731.352 541.543C502.146 506.233 240.792 600.91 69.3863 538.204C-84.0791 482.062 229.323 441.407 336.938 397.253C390.588 375.241 479.271 366.749 537.707 346.056C602.861 322.985 615.195 287.908 696.217 270.029C841.764 237.911 976.636 180.167 1186.06 202.986C1383.45 224.494 1485.72 304.791 1570.64 365.306C1645.95 418.97 1671.7 474.593 1633.92 522.139Z" stroke="#FFB656" stroke-width="2"/>
<path fill-rule="evenodd" clip-rule="evenodd" d="M1705.27 465.974C1671.65 508.289 1539.63 526.033 1446.6 555.091C1351.15 584.901 1313.88 655.448 1154.03 638.142C969.792 618.196 982.94 513.146 802.696 485.379C573.49 450.069 312.136 544.746 140.73 482.04C-12.7353 425.897 300.666 385.242 408.281 341.089C461.931 319.077 550.615 310.584 609.051 289.892C674.204 266.82 686.539 231.744 767.561 213.865C913.108 181.747 1047.98 124.003 1257.4 146.821C1454.8 168.33 1557.06 248.627 1641.98 309.142C1717.29 362.806 1743.04 418.429 1705.27 465.974Z" stroke="#FFB656" stroke-width="2"/>
<path fill-rule="evenodd" clip-rule="evenodd" d="M1607.06 426.867C1573.45 469.181 1441.43 486.926 1348.39 515.983C1252.95 545.793 1215.67 616.341 1055.82 599.034C871.589 579.088 884.737 474.039 704.493 446.271C475.286 410.961 213.933 505.638 42.5269 442.932C-110.938 386.79 202.463 346.135 310.078 301.981C363.728 279.969 452.412 271.477 510.847 250.784C576.001 227.713 588.336 192.636 669.357 174.757C814.905 142.639 949.777 84.8954 1159.2 107.714C1356.59 129.222 1458.86 209.519 1543.78 270.034C1619.09 323.698 1644.84 379.321 1607.06 426.867Z" stroke="#2360BB" stroke-width="2"/>
<path fill-rule="evenodd" clip-rule="evenodd" d="M1669.42 655.313C1635.81 697.627 1503.79 715.372 1410.75 744.429C1315.31 774.239 1278.03 844.786 1118.18 827.48C933.948 807.534 947.096 702.484 766.852 674.717C537.646 639.407 276.292 734.084 104.886 671.378C-48.5791 615.235 264.823 574.581 372.438 530.427C426.088 508.415 514.771 499.923 573.207 479.23C638.361 456.158 650.695 421.082 731.717 403.203C877.264 371.085 1012.14 313.341 1221.56 336.16C1418.95 357.668 1521.22 437.965 1606.14 498.48C1681.45 552.144 1707.2 607.767 1669.42 655.313Z" stroke="#2360BB" stroke-width="2"/>
</svg>
