<svg width="368" height="426" viewBox="0 0 368 426" fill="none" xmlns="http://www.w3.org/2000/svg">
<path d="M367.928 77.6654C364.225 174.615 361.764 227.432 353.752 307.151C346.974 337.635 339.804 350.249 316.539 358.853C223.884 385.887 158.887 407.531 83.5134 425.976C52.825 425.223 41.8843 417.051 32.1237 398.764C15.4453 334.262 12.326 263.637 0.226756 173.814C-1.39506 139.173 5.31333 125.104 32.1238 110.319C130.347 68.1589 273.123 10.5431 273.123 10.5431C273.123 10.5431 300.415 -2.87953 316.539 0.565421C335.396 6.61002 343.6 13.3029 353.752 26.8701C365.464 42.8784 368.531 54.0098 367.928 77.6654Z" fill="#FAB841"/>
</svg>
