<svg width="7" height="5" viewBox="0 0 7 5" fill="none" xmlns="http://www.w3.org/2000/svg">
<path d="M2.27763 4.8956L0.0916288 2.72268C0.0305429 2.6616 0 2.58306 0 2.48707C0 2.39108 0.0305429 2.31254 0.0916288 2.25145L0.575953 1.78022C0.637039 1.7104 0.713396 1.6755 0.805025 1.6755C0.896653 1.6755 0.977374 1.7104 1.04719 1.78022L2.51325 3.24628L5.65481 0.104719C5.72462 0.0349063 5.80534 0 5.89697 0C5.9886 0 6.06496 0.0349063 6.12604 0.104719L6.61036 0.575953C6.67145 0.637039 6.70199 0.715577 6.70199 0.811569C6.70199 0.907561 6.67145 0.9861 6.61036 1.04719L2.74886 4.8956C2.68778 4.96541 2.60924 5.00032 2.51325 5.00032C2.41726 5.00032 2.33872 4.96541 2.27763 4.8956Z" fill="white"/>
</svg>
