<svg width="19" height="20" viewBox="0 0 19 20" fill="none" xmlns="http://www.w3.org/2000/svg">
<path d="M14.2401 12.8571V15.7143H11.0756V18.5714H7.91117V20H12.6579V17.1429H15.8223V14.2857H18.9868V12.8571H14.2401ZM1.58223 1.42857H7.91117V5.71429C7.91117 6.50214 8.62081 7.14286 9.49341 7.14286H14.2401V10H15.8223V5.71429C15.8223 5.52486 15.7389 5.34321 15.5906 5.20929L10.0527 0.209286C9.9044 0.0753219 9.70321 4.04553e-05 9.49341 0H1.58223C0.709632 0 0 0.640714 0 1.42857V18.5714C0 19.3593 0.709632 20 1.58223 20H4.7467V18.5714H1.58223V1.42857ZM13.9126 5.71429H9.49341V1.72429L13.9126 5.71429Z" fill="#FFB656"/>
</svg>
