<svg width="88" height="42" viewBox="0 0 88 42" fill="none" xmlns="http://www.w3.org/2000/svg">
<path fill-rule="evenodd" clip-rule="evenodd" d="M4.51802 24.7253C5.04962 24.2347 5.99308 24.3517 6.64253 24.9798C14.4035 32.2872 22.1864 36.4453 29.7606 37.3982C37.1357 38.3251 44.241 36.1177 50.8752 30.8879C52.3525 29.7497 54.558 27.2799 56.4068 24.2769C54.2744 21.5108 52.7081 18.3454 51.7787 15.3625C50.4071 10.957 50.6266 7.07655 51.8922 5.28775C52.5936 4.29729 53.5787 3.7542 54.7855 3.61936C56.3305 3.44893 58.517 4.01098 61.2075 6.30318C64.9211 9.47872 66.1863 13.5486 65.6492 17.8058C65.3643 20.0435 64.5441 22.3318 63.4469 24.4954C65.1431 25.8725 67.1658 26.7889 69.5073 26.812C74.4673 26.8935 77.7931 23.379 79.957 19.0426C81.8347 15.2919 83.9763 9.67832 82.7193 4.87749C82.2931 3.24614 81.4103 1.78468 82.6461 0.633599C84.5358 -1.14991 86.7028 1.17052 87.2915 3.41153C88.5534 8.22541 87.4214 13.7192 86.1656 17.8817C83.8634 25.5427 78.6808 32.0752 70.7207 32.1425C66.9871 32.1573 63.6711 30.8238 60.874 28.7331C58.7669 31.7324 56.4037 34.1427 54.8071 35.3051C46.892 40.9215 38.5328 42.9953 30.0665 41.56C21.6091 40.1302 13.021 35.2359 4.73113 26.7595C4.08564 26.124 3.98643 25.216 4.51802 24.7253ZM59.1549 18.2994C59.533 17.0257 59.7435 15.7557 59.7105 14.5214C59.6658 12.9514 59.1853 11.445 57.7819 10.2523C57.5444 10.0529 57.2517 9.77892 57.0142 9.57952C56.9104 10.111 56.7454 11.1609 56.8396 12.0558C57.0597 14.0546 57.7951 16.4876 58.9901 18.8123C59.0591 18.6369 59.1115 18.471 59.1549 18.2994Z" fill="white"/>
<path fill-rule="evenodd" clip-rule="evenodd" d="M8.95015 29.13C9.79631 30.6749 10.6297 32.3109 11.2654 33.8522C12.2469 36.2562 12.7918 38.4149 12.3644 39.8916C12.2628 40.6411 11.5043 41.0264 10.6842 40.7478C9.86016 40.4767 9.27533 39.6421 9.38579 38.8982C9.38496 38.5207 9.2022 38.1079 9.02142 37.6469C8.60486 36.5611 7.81067 35.3862 6.94768 34.1184C5.84486 32.5011 4.55221 30.8634 3.43754 29.3577C2.42411 27.9951 1.56604 26.7403 0.99995 25.7587C0.106581 24.2138 -0.0679641 22.9829 0.0188698 22.2836C0.0445134 22.1014 1.36247 19.4992 4.2632 20.9297C5.30058 21.4443 7.88757 22.8656 8.01539 22.9362C9.57975 23.882 12.4814 25.6007 15.1787 26.6351C16.0312 26.9639 16.8523 27.2629 17.583 27.3759C17.6145 27.3164 17.646 27.2569 17.6864 27.203C18.264 26.3566 19.5613 26.2909 20.6015 27.0453C21.1728 27.4151 21.969 28.3631 22.2137 28.9041C22.6844 29.9546 22.3733 30.7209 21.4643 31.2792C20.2258 32.0366 18.3177 32.0747 16.1218 31.6537C13.8127 31.2011 11.1351 30.1294 8.95015 29.13ZM6.0184 24.1682C5.82282 23.8466 5.74325 23.6179 5.95668 23.5936C6.19568 23.5656 6.07652 23.9469 6.0184 24.1682Z" fill="white"/>
</svg>
