<svg width="31" height="13" viewBox="0 0 31 13" fill="none" xmlns="http://www.w3.org/2000/svg">
<path fill-rule="evenodd" clip-rule="evenodd" d="M3.0035 7.87641C3.17937 7.72473 3.4875 7.75618 3.69739 7.94449C6.20648 10.1345 8.73548 11.3658 11.2092 11.6224C13.6178 11.872 15.9509 11.1688 18.1421 9.5477C18.6299 9.19476 19.3613 8.43328 19.9782 7.51109C19.2919 6.67856 18.7923 5.722 18.5003 4.81816C18.0695 3.48329 18.157 2.30121 18.5782 1.75116C18.8116 1.44659 19.136 1.27694 19.5313 1.23058C20.0374 1.17189 20.7503 1.33332 21.6211 2.01915C22.823 2.96933 23.2204 4.20253 23.0275 5.50069C22.9253 6.18305 22.6478 6.88318 22.2801 7.54654C22.8294 7.95823 23.4873 8.22825 24.2531 8.22495C25.8752 8.22789 26.9773 7.14346 27.7026 5.81404C28.332 4.66414 29.0552 2.94605 28.6634 1.49034C28.5306 0.99567 28.2478 0.55473 28.6566 0.198919C29.282 -0.352273 29.9814 0.344455 30.1649 1.02397C30.5583 2.48363 30.1658 4.16079 29.7382 5.43329C28.9542 7.77528 27.2325 9.78647 24.6285 9.84205C23.4072 9.86304 22.3279 9.47179 21.4214 8.84774C20.7201 9.76997 19.9373 10.514 19.4104 10.8749C16.7986 12.6193 14.0559 13.2874 11.2924 12.8878C8.53176 12.4899 5.74236 11.0381 3.06498 8.49464C2.85641 8.30405 2.82763 8.0281 3.0035 7.87641ZM20.9013 5.67956C21.0301 5.2902 21.1041 4.90274 21.0983 4.52717C21.09 4.0495 20.9389 3.5931 20.4847 3.23627C20.4078 3.17662 20.3131 3.09453 20.2363 3.03488C20.2002 3.19711 20.1419 3.51739 20.1692 3.78939C20.233 4.3968 20.4638 5.1341 20.8453 5.83639C20.8686 5.78273 20.8864 5.73198 20.9013 5.67956Z" fill="#4D2C5E"/>
<path fill-rule="evenodd" clip-rule="evenodd" d="M2.90917 7.57603C3.18037 8.0438 3.44699 8.53944 3.64919 9.00703C3.96129 9.73639 4.13124 10.3928 3.9851 10.8454C3.94874 11.0746 3.69849 11.1956 3.4307 11.1142C3.16159 11.0351 2.97321 10.7829 3.01244 10.5554C3.0137 10.4402 2.95544 10.315 2.89804 10.1751C2.76585 9.84554 2.51019 9.49048 2.23236 9.10735C1.8773 8.61862 1.46008 8.12451 1.10068 7.66989C0.773897 7.2585 0.497622 6.87932 0.315978 6.58224C0.0293037 6.11469 -0.0229415 5.73977 0.00836393 5.52598C0.0175116 5.47024 0.46021 4.67021 1.40556 5.09397C1.74363 5.24644 2.58614 5.6688 2.62777 5.68979C3.13688 5.97152 4.08135 6.48325 4.9616 6.78705C5.23982 6.88361 5.50785 6.97124 5.74698 7.00252C5.75755 6.98421 5.76812 6.96591 5.78157 6.94927C5.97441 6.68839 6.40005 6.6626 6.73808 6.88827C6.9239 6.9986 7.18115 7.28442 7.25918 7.44846C7.40926 7.76698 7.30414 8.00223 7.00383 8.17664C6.59465 8.4133 5.96886 8.43336 5.25051 8.31456C4.4952 8.18663 3.62156 7.87139 2.90917 7.57603ZM1.96796 6.07463C1.90513 5.97734 1.87997 5.90789 1.95005 5.89954C2.02854 5.88994 1.98792 6.00683 1.96796 6.07463Z" fill="#4D2C5E"/>
</svg>
