<svg width="274" height="98" viewBox="0 0 274 98" fill="none" xmlns="http://www.w3.org/2000/svg">
<path d="M68.9359 30.7863C68.9359 30.7863 66.652 44.1636 56.8637 42.7497C47.0754 41.3359 43.2688 23.6082 50.8819 16.8651C58.495 10.1221 65.3468 14.9075 80.6818 8.27325C96.0168 1.63896 105.696 12.1885 105.805 22.1944C105.914 29.9162 100.258 33.8315 94.603 32.3089C88.9475 30.7863 86.4461 27.306 86.4461 27.306C86.4461 27.306 85.4672 34.2666 93.1891 52.8643C97.9745 64.5015 100.041 77.6613 88.2949 79.7277C81.0081 81.0328 72.1987 77.4438 71.6549 57.5409C71.2198 40.3571 68.9359 30.7863 68.9359 30.7863Z" fill="#030401"/>
<path d="M236.858 46.6654C236.858 46.6654 225.33 53.9522 219.892 45.6865C214.454 37.4208 225.004 22.8472 235.118 23.9347C245.124 25.0223 246.212 33.3968 261.438 40.3574C276.664 47.3179 275.25 61.5653 267.963 68.3083C262.308 73.5287 255.565 72.0061 252.955 66.7857C250.345 61.5653 251.215 57.3237 251.215 57.3237C251.215 57.3237 245.342 61.239 236.75 79.5105C231.312 90.8214 222.937 101.153 213.475 93.8666C207.602 89.4075 204.34 80.4893 218.805 66.6769C231.312 54.8222 236.858 46.6654 236.858 46.6654Z" fill="#030401"/>
<path d="M44.7935 78.965C44.7935 78.965 41.4219 68.4154 31.0899 73.7446C25.5432 76.5723 20.9753 82.0102 25.7607 90.6022C30.5461 99.1941 42.4008 101.369 56.4307 91.3635C63.935 86.0343 70.4605 73.7446 61.2161 60.1497C55.1256 51.1227 44.4672 45.5761 34.3526 49.7089C31.3074 50.9052 29.0234 52.4278 26.1957 50.9052C21.1928 48.295 25.5432 43.4009 25.5432 43.4009C25.5432 43.4009 26.6308 51.9929 38.2679 46.8812C47.1862 42.9659 46.8599 30.3498 38.1592 25.8907C29.4585 21.4316 15.1023 26.652 8.79432 39.4855C4.66149 48.0775 6.2929 57.322 14.6673 66.8928C23.0417 76.3548 36.9629 66.784 41.6395 69.6117C46.4249 72.5482 44.7935 78.965 44.7935 78.965Z" fill="#030401"/>
<path d="M151.384 62.7619C149.862 56.0189 145.185 50.3635 143.554 33.0708C143.119 28.5029 142.575 19.0409 140.182 14.038C137.898 9.3614 133.983 7.51247 129.85 7.40371C125.717 6.96867 121.585 8.2738 118.757 12.7329C115.712 17.4095 114.08 26.654 113.101 31.2219C109.404 48.1883 104.074 53.1912 101.682 59.7167C99.8328 65.4809 100.159 71.6801 105.597 75.5955C110.165 78.967 116.364 77.8794 119.627 74.6167C126.152 68.3087 123.977 54.7138 123.977 54.7138C123.977 54.7138 123.869 53.9525 123.76 52.8649C124.63 53.5175 125.717 53.9525 126.914 53.9525C127.023 53.9525 127.023 53.9525 127.131 53.9525C128.328 54.0613 129.415 53.7349 130.394 53.2999C130.177 54.4963 129.959 55.2576 129.959 55.2576C129.959 55.2576 126.044 68.4174 131.808 75.5955C134.744 79.1845 140.726 81.0334 145.62 78.3144C151.384 74.7254 152.472 68.7437 151.384 62.7619ZM123.542 46.6657C123.651 41.8803 124.63 36.6599 128.001 36.8774C131.59 36.9861 131.808 42.3153 131.373 47.1007C129.306 47.862 126.479 48.297 123.542 46.6657Z" fill="#030401"/>
<path d="M191.298 54.8209C196.519 55.3647 202.065 54.3859 206.416 50.0355C212.724 43.7275 217.509 25.1298 207.286 16.7554C197.715 9.03351 175.311 4.24813 166.936 14.5802C166.936 14.5802 166.936 14.6889 166.827 14.6889C165.849 15.7765 165.087 17.0816 164.543 18.713C161.172 29.0451 163.021 30.2414 161.063 44.3801C158.997 58.5187 148.556 76.3552 162.368 80.5968C182.054 86.796 177.703 59.7151 175.528 49.4917C175.528 49.4917 175.528 49.4918 175.637 49.6005C176.724 50.2531 185.425 56.1261 183.685 72.2223C181.945 88.2099 198.585 90.6026 203.588 80.7055C207.503 73.4187 204.023 61.8903 191.298 54.8209ZM178.465 32.3079C179.552 27.305 178.138 22.302 185.425 23.7159C191.081 24.9123 190.211 29.1539 188.253 34.2655C186.513 38.7246 188.47 44.5976 180.64 42.7487C173.897 41.0085 177.268 37.6371 178.465 32.3079Z" fill="#030401"/>
<path d="M62.3208 24.5856C62.3208 24.5856 60.0368 37.963 50.2486 36.5491C40.4603 35.1352 36.6537 17.4075 44.2668 10.6645C51.8799 3.92142 58.7317 8.70684 74.0667 2.07256C89.4017 -4.56173 99.0812 5.98786 99.19 15.9937C99.2988 23.7155 93.6433 27.6308 87.9879 26.1082C82.3324 24.5856 79.8309 21.1053 79.8309 21.1053C79.8309 21.1053 78.8521 28.0659 86.574 46.6636C91.3594 58.3008 93.4258 71.4607 81.6798 73.5271C74.393 74.8322 65.5835 71.2431 65.0398 51.3403C64.6047 34.1564 62.3208 24.5856 62.3208 24.5856Z" fill="#FFB656"/>
<path d="M230.243 40.4647C230.243 40.4647 218.715 47.7515 213.277 39.4858C207.839 31.2201 218.389 16.6465 228.503 17.7341C238.509 18.8216 239.597 27.1961 254.823 34.1567C270.049 41.1172 268.635 55.3646 261.348 62.1077C255.693 67.3281 248.95 65.8055 246.34 60.585C243.729 55.3646 244.599 51.123 244.599 51.123C244.599 51.123 238.726 55.0384 230.135 73.3098C224.697 84.6207 216.322 94.9528 206.86 87.666C200.987 83.2069 197.724 74.2887 212.189 60.4763C224.697 48.5128 230.243 40.4647 230.243 40.4647Z" fill="#FFB656"/>
<path d="M38.1783 72.7643C38.1783 72.7643 34.8068 62.2147 24.4748 67.5439C18.9281 70.3716 14.3602 75.8095 19.1456 84.4015C23.9309 92.9934 35.7857 95.1685 49.8155 85.1627C57.3199 79.8336 63.8454 67.5439 54.6009 53.949C48.5104 44.922 37.8521 39.3753 27.7375 43.5081C24.6923 44.7045 22.4083 46.2271 19.5806 44.7045C14.5777 42.0943 18.9281 37.2001 18.9281 37.2001C18.9281 37.2001 20.0156 45.7921 31.6528 40.6804C40.571 36.7651 40.2448 24.1491 31.5441 19.69C22.8434 15.2309 8.48723 20.4513 2.17922 33.2849C-1.95361 41.8768 -0.322238 51.1212 8.05219 60.692C16.4266 70.154 30.3477 60.5832 35.0243 63.411C39.8097 66.3475 38.1783 72.7643 38.1783 72.7643Z" fill="#FFB656"/>
<path d="M144.769 56.5612C143.247 49.8181 138.57 44.1627 136.939 26.8701C136.504 22.3022 135.96 12.8402 133.567 7.83728C131.283 3.16065 127.368 1.31178 123.235 1.20302C119.102 0.767987 114.969 2.07305 112.142 6.53216C109.096 11.2088 107.465 20.4533 106.486 25.0211C102.788 41.9875 97.4593 46.9904 95.0666 53.516C93.2177 59.2802 93.544 65.4794 98.9819 69.3947C103.55 72.7662 109.749 71.6787 113.012 68.4159C119.537 62.1079 117.362 48.5131 117.362 48.5131C117.362 48.5131 117.253 47.7518 117.145 46.6642C118.015 47.3167 119.102 47.7518 120.299 47.7518C120.407 47.7518 120.407 47.7518 120.516 47.7518C121.712 47.8605 122.8 47.5342 123.779 47.0992C123.561 48.2955 123.344 49.0569 123.344 49.0569C123.344 49.0569 119.429 62.2166 125.193 69.3947C128.129 72.9837 134.111 74.8326 139.005 72.1137C144.769 68.5246 145.857 62.4342 144.769 56.5612ZM116.927 40.4649C117.036 35.6795 118.015 30.4591 121.386 30.6766C124.975 30.7854 125.193 36.1146 124.758 40.9C122.583 41.6613 119.864 42.0963 116.927 40.4649Z" fill="#FFB656"/>
<path d="M184.683 48.6203C189.903 49.1641 195.45 48.1852 199.8 43.8348C206.108 37.5268 211.003 18.9291 200.671 10.5547C191.1 2.83282 168.695 -1.95256 160.321 8.37952C160.321 8.37952 160.321 8.48825 160.212 8.48825C159.233 9.57584 158.472 10.881 157.928 12.5123C154.557 22.8444 156.406 24.0408 154.448 38.1794C152.382 52.3181 141.941 70.1545 155.753 74.3961C175.438 80.5953 171.088 53.5144 168.913 43.2911C168.913 43.2911 168.913 43.2911 169.022 43.3999C170.109 44.0524 178.81 49.9254 177.07 66.0217C175.33 82.0092 191.97 84.4019 196.973 74.5048C200.888 67.218 197.299 55.6896 184.683 48.6203ZM171.849 26.1072C172.937 21.1043 171.523 16.1014 178.81 17.5153C184.465 18.7116 183.595 22.9532 181.638 28.0648C179.898 32.5239 181.855 38.397 174.025 36.5481C167.282 34.8079 170.653 31.3276 171.849 26.1072Z" fill="#FFB656"/>
</svg>
