<svg width="617" height="341" viewBox="0 0 617 341" fill="none" xmlns="http://www.w3.org/2000/svg">
<g clip-path="url(#clip0_849_27416)">
<path d="M590.607 20.4841C588.691 12.2801 592.756 3.78986 599.688 1.52065C606.622 -0.748555 613.796 4.06254 615.712 12.2665C617.63 20.4706 613.565 28.9607 606.633 31.23C599.7 33.4991 592.525 28.6881 590.607 20.4841ZM1.97185 328.623C2.22811 327.057 3.50922 326.032 4.83331 326.337C6.15739 326.639 7.02305 328.155 6.76679 329.722L1.97185 328.623ZM10.9658 307.707C10.6313 309.252 9.30105 310.184 7.99454 309.789C6.68801 309.393 5.90001 307.819 6.23447 306.273L10.9658 307.707ZM11.502 284.403C11.9067 282.881 13.2777 282.035 14.5642 282.513C15.8507 282.993 16.5656 284.615 16.1609 286.137L11.502 284.403ZM22.3746 264.854C21.8979 266.348 20.4887 267.101 19.2272 266.536C17.9655 265.974 17.3292 264.305 17.8058 262.812L22.3746 264.854ZM25.1677 241.707C25.7208 240.25 27.1665 239.601 28.3964 240.256C29.6263 240.911 30.175 242.622 29.6216 244.077L25.1677 241.707ZM37.9778 223.934C37.3414 225.341 35.8616 225.871 34.6726 225.117C33.4835 224.364 33.0355 222.613 33.6718 221.206L37.9778 223.934ZM43.4305 201.479C44.1578 200.134 45.668 199.741 46.8039 200.602C47.9397 201.463 48.2708 203.249 47.5436 204.594L43.4305 201.479ZM58.4261 186.294C57.6002 187.556 56.0663 187.786 55.0002 186.809C53.934 185.832 53.7392 184.016 54.565 182.755L58.4261 186.294ZM67.1854 165.354C68.1162 164.199 69.662 164.156 70.638 165.258C71.6138 166.359 71.6502 168.188 70.7194 169.343L67.1854 165.354ZM84.4794 154.118C83.4413 155.137 81.9019 154.967 81.041 153.738C80.18 152.51 80.3237 150.688 81.3619 149.669L84.4794 154.118ZM97.085 136.143C98.2253 135.291 99.7335 135.695 100.453 137.045C101.173 138.394 100.832 140.179 99.6915 141.031L97.085 136.143ZM116.23 130.48C115.001 131.138 113.555 130.492 112.999 129.038C112.443 127.584 112.988 125.872 114.217 125.214L116.23 130.48ZM132.438 117.227C133.732 116.779 135.088 117.657 135.467 119.189C135.846 120.72 135.104 122.326 133.81 122.774L132.438 117.227ZM152.161 117.995C150.828 118.234 149.584 117.147 149.382 115.569C149.181 113.991 150.099 112.519 151.433 112.28L152.161 117.995ZM170.709 110.059C172.053 109.953 173.217 111.157 173.307 112.75C173.398 114.342 172.381 115.719 171.034 115.826L170.709 110.059ZM190.021 114.723C188.673 114.774 187.547 113.522 187.503 111.927C187.46 110.331 188.519 108.997 189.867 108.947L190.021 114.723ZM209.033 108.591C210.382 108.59 211.476 109.884 211.476 111.48C211.476 113.076 210.384 114.37 209.034 114.37L209.033 108.591ZM228.065 114.684C226.717 114.641 225.654 113.312 225.692 111.716C225.727 110.121 226.851 108.863 228.199 108.907L228.065 114.684ZM247.327 109.802C248.675 109.884 249.711 111.242 249.642 112.836C249.574 114.43 248.426 115.656 247.078 115.575L247.327 109.802ZM266.104 116.948C264.758 116.836 263.744 115.455 263.838 113.863C263.934 112.271 265.1 111.071 266.446 111.183L266.104 116.948ZM285.516 112.942C286.859 113.077 287.857 114.475 287.743 116.065C287.629 117.656 286.447 118.836 285.103 118.701L285.516 112.942ZM304.098 120.725C302.755 120.575 301.77 119.165 301.895 117.576C302.022 115.988 303.214 114.821 304.557 114.971L304.098 120.725ZM323.581 117.153C324.924 117.309 325.905 118.723 325.773 120.312C325.641 121.9 324.446 123.061 323.104 122.904L323.581 117.153ZM342.111 125.106C340.768 124.953 339.785 123.541 339.915 121.953C340.043 120.364 341.237 119.2 342.578 119.353L342.111 125.106ZM361.559 121.425C362.902 121.564 363.896 122.965 363.779 124.555C363.664 126.145 362.478 127.321 361.135 127.183L361.559 121.425ZM380.227 128.969C378.882 128.858 377.866 127.478 377.96 125.885C378.053 124.293 379.22 123.092 380.565 123.203L380.227 128.969ZM399.572 124.483C400.918 124.551 401.965 125.899 401.906 127.493C401.849 129.088 400.711 130.326 399.363 130.258L399.572 124.483ZM418.549 130.807C417.201 130.801 416.112 129.502 416.117 127.906C416.122 126.31 417.219 125.021 418.567 125.027L418.549 130.807ZM437.528 124.545C438.874 124.466 440.02 125.694 440.087 127.288C440.154 128.882 439.115 130.238 437.769 130.317L437.528 124.545ZM456.964 128.428C455.626 128.618 454.41 127.488 454.249 125.904C454.087 124.319 455.041 122.88 456.381 122.689L456.964 128.428ZM474.994 119.061C476.313 118.728 477.61 119.723 477.892 121.284C478.173 122.845 477.332 124.38 476.013 124.713L474.994 119.061ZM494.692 118.72C493.413 119.226 492.029 118.41 491.602 116.896C491.174 115.382 491.865 113.745 493.142 113.239L494.692 118.72ZM512.011 104.307C513.241 103.656 514.685 104.31 515.236 105.767C515.786 107.224 515.234 108.933 514.003 109.584L512.011 104.307ZM533.866 98.024C532.679 98.7836 531.198 98.2615 530.556 96.8578C529.915 95.4542 530.356 93.7004 531.541 92.9408L533.866 98.024ZM550.201 79.7079C551.324 78.8245 552.84 79.1862 553.587 80.5155C554.333 81.8448 554.029 83.6384 552.905 84.5217L550.201 79.7079ZM570.731 68.829C569.698 69.8528 568.158 69.69 567.292 68.4657C566.427 67.2411 566.564 65.4186 567.599 64.3948L570.731 68.829ZM583.216 46.7451C584.123 45.5628 585.666 45.4732 586.666 46.5451C587.666 47.6171 587.74 49.4446 586.835 50.6271L583.216 46.7451ZM600.343 29.4693C599.644 30.8354 598.143 31.2739 596.989 30.4488C595.835 29.6234 595.465 27.847 596.162 26.4808L600.343 29.4693ZM2.76378 340.217C0.343713 339.83 0.343731 339.83 0.34375 339.83C0.343732 339.83 0.343758 339.83 0.34375 339.83C0.343786 339.83 0.343875 339.83 0.343924 339.828C0.344024 339.828 0.344151 339.826 0.344307 339.826C0.344618 339.822 0.345043 339.819 0.345583 339.815C0.346661 339.805 0.348199 339.792 0.3502 339.774C0.354205 339.74 0.360067 339.691 0.367846 339.626C0.383403 339.495 0.406619 339.304 0.437935 339.054C0.500564 338.553 0.5956 337.815 0.726564 336.859C0.988483 334.946 1.39417 332.157 1.97185 328.623L6.76679 329.722C6.19918 333.193 5.8021 335.925 5.54757 337.784C5.42031 338.713 5.32869 339.424 5.26924 339.9C5.23951 340.136 5.21782 340.316 5.20373 340.433C5.19669 340.493 5.19155 340.537 5.18824 340.564C5.1866 340.58 5.18541 340.589 5.18468 340.595C5.18432 340.599 5.18406 340.601 5.18393 340.603C5.18395 340.603 5.18383 340.603 2.76378 340.217ZM6.23447 306.273C7.6673 299.65 9.40732 292.285 11.502 284.403L16.1609 286.137C14.0951 293.909 12.3789 301.174 10.9658 307.707L6.23447 306.273ZM17.8058 262.812C19.9987 255.944 22.4446 248.87 25.1677 241.707L29.6216 244.077C26.943 251.124 24.5352 258.088 22.3746 264.854L17.8058 262.812ZM33.6718 221.206C36.6655 214.587 39.9122 207.981 43.4305 201.479L47.5436 204.594C44.0993 210.961 40.9165 217.436 37.9778 223.934L33.6718 221.206ZM54.565 182.755C58.494 176.752 62.6951 170.925 67.1854 165.354L70.7194 169.343C66.3528 174.761 62.2603 180.436 58.4261 186.294L54.565 182.755ZM81.3619 149.669C86.3072 144.816 91.5429 140.282 97.085 136.143L99.6915 141.031C94.3369 145.03 89.2712 149.416 84.4794 154.118L81.3619 149.669ZM114.217 125.214C120.005 122.115 126.075 119.432 132.438 117.227L133.81 122.774C127.67 124.902 121.814 127.49 116.23 130.48L114.217 125.214ZM151.433 112.28C154.603 111.714 157.836 111.261 161.133 110.925L161.551 116.684C158.357 117.009 155.228 117.448 152.161 117.995L151.433 112.28ZM161.133 110.925C164.332 110.6 167.524 110.312 170.709 110.059L171.034 115.826C167.879 116.076 164.719 116.361 161.551 116.684L161.133 110.925ZM189.867 108.947C196.291 108.705 202.68 108.592 209.033 108.591L209.034 114.37C202.729 114.372 196.392 114.484 190.021 114.723L189.867 108.947ZM228.199 108.907C234.618 109.115 240.996 109.42 247.327 109.802L247.078 115.575C240.781 115.195 234.442 114.891 228.065 114.684L228.199 108.907ZM266.446 111.183C272.854 111.715 279.213 112.309 285.516 112.942L285.103 118.701C278.819 118.07 272.484 117.479 266.104 116.948L266.446 111.183ZM304.557 114.971C310.96 115.686 317.304 116.421 323.581 117.153L323.104 122.904C316.827 122.174 310.491 121.439 304.098 120.725L304.557 114.971ZM342.578 119.353C348.983 120.082 355.309 120.782 361.559 121.425L361.135 127.183C354.866 126.538 348.522 125.836 342.111 125.106L342.578 119.353ZM380.565 123.203C386.997 123.733 393.333 124.17 399.572 124.483L399.363 130.258C393.074 129.942 386.693 129.502 380.227 128.969L380.565 123.203ZM418.567 125.027C425.009 125.055 431.33 124.907 437.528 124.545L437.769 130.317C431.475 130.685 425.066 130.835 418.549 130.807L418.567 125.027ZM456.381 122.689C462.74 121.784 468.946 120.589 474.994 119.061L476.013 124.713C469.807 126.282 463.455 127.504 456.964 128.428L456.381 122.689ZM493.142 113.239C496.123 112.06 499.059 110.777 501.948 109.385L503.789 114.739C500.8 116.178 497.768 117.503 494.692 118.72L493.142 113.239ZM501.948 109.385C505.419 107.714 508.773 106.02 512.011 104.307L514.003 109.584C510.713 111.323 507.311 113.043 503.789 114.739L501.948 109.385ZM531.541 92.9408C538.395 88.5521 544.596 84.1168 550.201 79.7079L552.905 84.5217C547.173 89.0289 540.847 93.5538 533.866 98.024L531.541 92.9408ZM567.599 64.3948C573.86 58.1994 579.006 52.2408 583.216 46.7451L586.835 50.6271C582.474 56.3195 577.167 62.4627 570.731 68.829L567.599 64.3948ZM596.162 26.4808C597.953 22.9737 599.135 20.1741 599.864 18.2746C600.229 17.3248 600.479 16.6 600.636 16.1242C600.714 15.8863 600.769 15.7106 600.803 15.6002C600.82 15.545 600.831 15.5062 600.837 15.484C600.841 15.4729 600.842 15.466 600.844 15.4633C600.844 15.4619 600.844 15.4625 600.844 15.4633C600.844 15.4637 600.844 15.4634 600.842 15.4644C600.842 15.4638 600.842 15.4648 600.842 15.4644C600.842 15.4647 600.842 15.4667 600.842 15.4669C600.842 15.4674 600.842 15.4679 603.161 16.3753C605.479 17.2827 605.479 17.2832 605.479 17.2838C605.479 17.2834 605.479 17.284 605.479 17.2838C605.479 17.2847 605.477 17.2868 605.477 17.2878C605.477 17.2898 605.476 17.2921 605.476 17.2946C605.474 17.2996 605.472 17.3057 605.471 17.3129C605.466 17.3272 605.461 17.3458 605.454 17.3686C605.441 17.4142 605.422 17.4766 605.399 17.5554C605.35 17.7129 605.28 17.9362 605.187 18.2221C604.999 18.7939 604.714 19.6161 604.312 20.6644C603.506 22.7611 602.234 25.7613 600.343 29.4693L596.162 26.4808Z" fill="#85B6FF"/>
</g>
<defs>
<clipPath id="clip0_849_27416">
<rect width="617" height="341" fill="white"/>
</clipPath>
</defs>
</svg>
