<svg width="60" height="62" viewBox="0 0 60 62" fill="none" xmlns="http://www.w3.org/2000/svg">
<path d="M59.4126 24.7885H56.9963V24.6606H29.998V36.9908H46.9514C44.4781 44.1686 37.832 49.3211 29.998 49.3211C20.0582 49.3211 11.9992 41.0398 11.9992 30.8257C11.9992 20.6116 20.0582 12.3303 29.998 12.3303C34.5862 12.3303 38.7605 14.1089 41.9388 17.0142L50.4237 8.2952C45.066 3.16426 37.8995 0 29.998 0C13.4316 0 0 13.8022 0 30.8257C0 47.8492 13.4316 61.6514 29.998 61.6514C46.5645 61.6514 59.9961 47.8492 59.9961 30.8257C59.9961 28.7588 59.7891 26.7413 59.4126 24.7885Z" fill="#FFC107"/>
<path d="M29.9889 61.6517C37.7374 61.6517 44.7779 58.6046 50.1011 53.6494L40.8167 45.5761C37.7037 48.0089 33.8998 49.3246 29.9889 49.3214C22.1864 49.3214 15.5613 44.209 13.0655 37.0744L3.28315 44.8193C8.24783 54.8022 18.3302 61.6517 29.9889 61.6517Z" fill="#4CAF50"/>
<path d="M59.4185 24.7884H57.0022V24.6605H30.0039V36.9907H46.9573C45.7742 40.4069 43.6431 43.392 40.8272 45.5772L40.8317 45.5742L50.1161 53.6474C49.4592 54.2608 60.002 46.2384 60.002 30.8256C60.002 28.7587 59.795 26.7412 59.4185 24.7884Z" fill="#1976D2"/>
<path d="M3.45595 16.4779L13.3118 23.9053C15.9786 17.1206 22.4372 12.3303 29.9952 12.3303C34.5834 12.3303 38.7576 14.1089 41.9359 17.0142L50.4209 8.2952C45.0632 3.16426 37.8967 0 29.9952 0C18.473 0 8.48062 6.68455 3.45595 16.4779Z" fill="#FF3D00"/>
</svg>
