<svg width="25" height="24" viewBox="0 0 25 24" fill="none" xmlns="http://www.w3.org/2000/svg">
<path d="M15.1723 14.4934C14.8061 14.0947 14.4033 13.743 13.9639 13.4381C13.5245 13.1332 13.0525 12.8713 12.548 12.6524C12.0434 12.4336 11.5308 12.2733 11.01 12.1717C10.4892 12.07 9.94398 12.0153 9.37436 12.0075C8.65826 12.0075 7.96658 12.0974 7.29931 12.2772C6.63203 12.457 6.00952 12.7072 5.43176 13.0277C4.854 13.3482 4.32913 13.7391 3.85716 14.2003C3.38519 14.6615 2.97831 15.1696 2.63654 15.7247C2.29476 16.2797 2.0303 16.8777 1.84314 17.5188C1.65597 18.1598 1.56239 18.8243 1.56239 19.5122H0C0 18.5741 0.142406 17.6712 0.427217 16.8035C0.712028 15.9357 1.12297 15.1345 1.66004 14.3996C2.19712 13.6648 2.83184 13.012 3.56421 12.4414C4.29658 11.8707 5.1266 11.4212 6.05427 11.0929C5.13474 10.5144 4.41864 9.78737 3.90598 8.91182C3.39332 8.03627 3.13292 7.06692 3.12479 6.00375C3.12479 5.17511 3.28754 4.39728 3.61303 3.67026C3.93853 2.94325 4.38202 2.30613 4.94351 1.75891C5.50499 1.21169 6.1682 0.781739 6.93312 0.469043C7.69804 0.156348 8.51179 0 9.37436 0C10.2369 0 11.0466 0.156348 11.8034 0.469043C12.5602 0.781739 13.2234 1.20779 13.793 1.74719C14.3626 2.28659 14.8102 2.9237 15.1357 3.65854C15.4612 4.39337 15.6239 5.17511 15.6239 6.00375C15.6239 6.5197 15.5588 7.02392 15.4286 7.51642C15.2984 8.00891 15.1031 8.47405 14.8427 8.91182C14.5823 9.34959 14.2772 9.75219 13.9273 10.1196C13.5774 10.487 13.1664 10.8114 12.6944 11.0929C13.378 11.343 14.0209 11.6635 14.623 12.0544C15.2252 12.4453 15.7745 12.9026 16.2709 13.4264L15.1723 14.4934ZM4.68718 6.00375C4.68718 6.62914 4.80924 7.21154 5.05337 7.75094C5.29749 8.29034 5.63113 8.7672 6.05427 9.18152C6.47742 9.59584 6.97381 9.92026 7.54343 10.1548C8.11305 10.3893 8.72336 10.5066 9.37436 10.5066C10.0172 10.5066 10.6235 10.3893 11.1931 10.1548C11.7627 9.92026 12.2591 9.59975 12.6822 9.19325C13.1054 8.78674 13.4431 8.30988 13.6954 7.76266C13.9476 7.21545 14.0697 6.62914 14.0615 6.00375C14.0615 5.38618 13.9395 4.80378 13.6954 4.25657C13.4512 3.70935 13.1176 3.23249 12.6944 2.82598C12.2713 2.41948 11.7708 2.09506 11.1931 1.85272C10.6153 1.61038 10.0091 1.49312 9.37436 1.50094C8.72336 1.50094 8.11712 1.6182 7.55564 1.85272C6.99415 2.08724 6.49776 2.40775 6.06648 2.81426C5.63519 3.22076 5.29749 3.70153 5.05337 4.25657C4.80924 4.8116 4.68718 5.394 4.68718 6.00375ZM22.5571 10.5066C22.8988 10.5066 23.2162 10.5652 23.5091 10.6825C23.8021 10.7997 24.0625 10.96 24.2903 11.1632C24.5182 11.3665 24.6891 11.6127 24.803 11.902C24.9169 12.1912 24.982 12.5 24.9983 12.8283C24.9983 13.1332 24.9373 13.4303 24.8152 13.7195C24.6931 14.0088 24.5182 14.2628 24.2903 14.4817L15.5385 22.8893L10.9368 23.9916L12.0841 19.5708L20.836 11.175C21.072 10.9482 21.3364 10.7802 21.6294 10.6707C21.9223 10.5613 22.2316 10.5066 22.5571 10.5066ZM23.1796 13.4264C23.3505 13.2622 23.4359 13.0629 23.4359 12.8283C23.4359 12.586 23.3545 12.3906 23.1918 12.242C23.029 12.0935 22.8174 12.0153 22.5571 12.0075C22.4431 12.0075 22.3333 12.0231 22.2275 12.0544C22.1217 12.0857 22.0281 12.1443 21.9467 12.2303L13.5001 20.3447L13.085 21.9278L14.7329 21.5291L23.1796 13.4264Z" fill="#275473"/>
</svg>
