<svg width="64" height="60" viewBox="0 0 64 60" fill="none" xmlns="http://www.w3.org/2000/svg">
<path d="M32 18.4615C34.4248 18.4615 36.7504 17.489 38.465 15.7579C40.1796 14.0268 41.1429 11.6789 41.1429 9.23077C41.1429 6.78262 40.1796 4.43473 38.465 2.70363C36.7504 0.972524 34.4248 0 32 0C29.5752 0 27.2496 0.972524 25.535 2.70363C23.8204 4.43473 22.8571 6.78262 22.8571 9.23077C22.8571 11.6789 23.8204 14.0268 25.535 15.7579C27.2496 17.489 29.5752 18.4615 32 18.4615ZM18.2857 10.3846C18.2857 11.4453 18.0788 12.4956 17.6768 13.4755C17.2747 14.4555 16.6854 15.3458 15.9426 16.0959C15.1997 16.8459 14.3178 17.4408 13.3472 17.8467C12.3766 18.2526 11.3363 18.4615 10.2857 18.4615C9.23514 18.4615 8.19485 18.2526 7.22425 17.8467C6.25364 17.4408 5.37173 16.8459 4.62886 16.0959C3.88599 15.3458 3.29672 14.4555 2.89468 13.4755C2.49264 12.4956 2.28571 11.4453 2.28571 10.3846C2.28571 8.24248 3.12857 6.18809 4.62886 4.67337C6.12915 3.15865 8.16398 2.30769 10.2857 2.30769C12.4074 2.30769 14.4423 3.15865 15.9426 4.67337C17.4429 6.18809 18.2857 8.24248 18.2857 10.3846ZM61.7143 10.3846C61.7143 11.4453 61.5074 12.4956 61.1053 13.4755C60.7033 14.4555 60.114 15.3458 59.3711 16.0959C58.6283 16.8459 57.7464 17.4408 56.7758 17.8467C55.8051 18.2526 54.7649 18.4615 53.7143 18.4615C52.6637 18.4615 51.6234 18.2526 50.6528 17.8467C49.6822 17.4408 48.8003 16.8459 48.0574 16.0959C47.3146 15.3458 46.7253 14.4555 46.3233 13.4755C45.9212 12.4956 45.7143 11.4453 45.7143 10.3846C45.7143 8.24248 46.5571 6.18809 48.0574 4.67337C49.5577 3.15865 51.5926 2.30769 53.7143 2.30769C55.836 2.30769 57.8709 3.15865 59.3711 4.67337C60.8714 6.18809 61.7143 8.24248 61.7143 10.3846ZM16.8617 23.0769C15.561 24.7127 14.8537 26.7485 14.8571 28.8462V46.1538C14.8571 49.0038 15.5383 51.6923 16.7474 54.0623C15.0054 54.9871 13.0564 55.442 11.0891 55.383C9.1218 55.324 7.20296 54.753 5.51841 53.7254C3.83387 52.6978 2.44072 51.2484 1.47391 49.5176C0.507108 47.7868 -0.000589057 45.8332 5.12898e-07 43.8462V28.8462C5.12898e-07 27.3161 0.60204 25.8486 1.67368 24.7667C2.74531 23.6848 4.19876 23.0769 5.71429 23.0769H16.8617ZM47.2526 54.0623C48.4988 51.6162 49.1469 48.9045 49.1429 46.1538V28.8462C49.1429 26.6631 48.3931 24.6577 47.1383 23.0769H58.2857C59.8012 23.0769 61.2547 23.6848 62.3263 24.7667C63.398 25.8486 64 27.3161 64 28.8462V43.8462C64.0006 45.8332 63.4929 47.7868 62.5261 49.5176C61.5593 51.2484 60.1661 52.6978 58.4816 53.7254C56.797 54.753 54.8782 55.324 52.9109 55.383C50.9436 55.442 48.9946 54.9871 47.2526 54.0623ZM24 23.0769C22.4845 23.0769 21.031 23.6848 19.9594 24.7667C18.8878 25.8486 18.2857 27.3161 18.2857 28.8462V46.1538C18.2857 49.8261 19.7306 53.3479 22.3025 55.9446C24.8745 58.5412 28.3627 60 32 60C35.6373 60 39.1255 58.5412 41.6975 55.9446C44.2694 53.3479 45.7143 49.8261 45.7143 46.1538V28.8462C45.7143 27.3161 45.1122 25.8486 44.0406 24.7667C42.969 23.6848 41.5155 23.0769 40 23.0769H24Z" fill="#2274AC"/>
</svg>
