<svg width="1385" height="710" viewBox="0 0 1385 710" fill="none" xmlns="http://www.w3.org/2000/svg">
<mask id="mask0_849_10655" style="mask-type:alpha" maskUnits="userSpaceOnUse" x="0" y="0" width="1385" height="710">
<path d="M0 20C0 8.95432 8.9543 0 20 0H1365C1376.05 0 1385 8.9543 1385 20V690C1385 701.046 1376.05 710 1365 710H20C8.95428 710 0 701.046 0 690V20Z" fill="#DD2679"/>
</mask>
<g mask="url(#mask0_849_10655)">
<path d="M-0.015625 20C-0.015625 8.95429 8.93868 0 19.9844 0H1364.98C1376.03 0 1384.98 8.95431 1384.98 20V346.879C1384.98 355.83 1379.04 363.691 1370.42 366.125L25.4224 746.152C12.6589 749.758 -0.015625 740.169 -0.015625 726.905V20Z" fill="#275473"/>
<g filter="url(#filter0_f_849_10655)">
<path d="M-122.71 1006.66L1389.64 738.423C1399.19 736.729 1406.15 728.428 1406.15 718.73V271.349C1406.15 255.49 1388.6 245.853 1375.17 254.281C1273.41 318.115 1083.59 428.704 942.601 481.833C746.4 555.764 448.866 410.45 304.411 379.858C192.888 356.24 -27.9973 443.1 -135.026 494.263C-141.907 497.552 -146.203 504.51 -146.203 512.136V986.968C-146.203 999.411 -134.962 1008.83 -122.71 1006.66Z" fill="#2360BB"/>
</g>
</g>
<defs>
<filter id="filter0_f_849_10655" x="-226.203" y="171.162" width="1712.36" height="915.812" filterUnits="userSpaceOnUse" color-interpolation-filters="sRGB">
<feFlood flood-opacity="0" result="BackgroundImageFix"/>
<feBlend mode="normal" in="SourceGraphic" in2="BackgroundImageFix" result="shape"/>
<feGaussianBlur stdDeviation="40" result="effect1_foregroundBlur_849_10655"/>
</filter>
</defs>
</svg>
