<svg width="27" height="28" viewBox="0 0 27 28" fill="none" xmlns="http://www.w3.org/2000/svg">
<path d="M8.89356 12.6887C8.33872 12.6906 7.7937 12.8384 7.31095 13.118C7.99061 11.3198 9.11788 9.73409 10.5812 8.51791C10.6649 8.44744 10.7342 8.36079 10.7852 8.26293C10.8362 8.16507 10.8678 8.0579 10.8782 7.94755C10.8887 7.8372 10.8777 7.72583 10.8461 7.61979C10.8144 7.51376 10.7626 7.41513 10.6937 7.32955C10.6247 7.24397 10.54 7.17311 10.4442 7.12102C10.3485 7.06892 10.2437 7.03662 10.1357 7.02594C10.0277 7.01526 9.91879 7.02642 9.81505 7.05878C9.71132 7.09114 9.61483 7.14407 9.53111 7.21455C6.53089 9.70627 5.1958 13.1563 5.1958 15.2954C5.20096 16.0517 5.42146 16.7901 5.83037 17.4205C6.23928 18.0509 6.8189 18.5459 7.49846 18.8451C7.93826 19.0629 8.41989 19.1781 8.90856 19.1825C9.33869 19.2038 9.76858 19.1357 10.1722 18.9822C10.5758 18.8286 10.9446 18.5929 11.2565 18.2893C11.5683 17.9857 11.8165 17.6205 11.9861 17.2159C12.1557 16.8113 12.2432 16.3758 12.2432 15.9356C12.2432 15.4954 12.1557 15.0598 11.9861 14.6552C11.8165 14.2506 11.5683 13.8854 11.2565 13.5818C10.9446 13.2782 10.5758 13.0425 10.1722 12.889C9.76858 12.7354 9.33869 12.6673 8.90856 12.6887H8.89356Z" fill="#7838A6"/>
<path d="M17.251 12.6887C16.6961 12.6899 16.1509 12.8379 15.6684 13.1181C16.3478 11.3217 17.4721 9.73656 18.9311 8.51797C19.0224 8.45068 19.0993 8.36501 19.157 8.26621C19.2148 8.16741 19.2521 8.05759 19.2667 7.9435C19.2814 7.82941 19.273 7.71346 19.2422 7.60279C19.2113 7.49212 19.1587 7.38907 19.0874 7.29999C19.0161 7.21091 18.9278 7.13767 18.8278 7.08479C18.7278 7.03192 18.6183 7.00051 18.506 6.99251C18.3937 6.98451 18.281 7.00009 18.1748 7.03829C18.0686 7.07648 17.9712 7.13649 17.8885 7.21461C14.8883 9.70633 13.5532 13.1564 13.5532 15.2954C13.5568 16.0432 13.7708 16.7741 14.1699 17.4009C14.5689 18.0276 15.136 18.5237 15.8034 18.8299C16.2543 19.054 16.7496 19.1694 17.251 19.1672C17.6811 19.1886 18.111 19.1204 18.5146 18.9669C18.9182 18.8134 19.2871 18.5777 19.5989 18.274C19.9107 17.9704 20.1589 17.6053 20.3285 17.2007C20.4982 16.7961 20.5856 16.3605 20.5856 15.9203C20.5856 15.4801 20.4982 15.0445 20.3285 14.6399C20.1589 14.2353 19.9107 13.8701 19.5989 13.5665C19.2871 13.2629 18.9182 13.0272 18.5146 12.8737C18.111 12.7202 17.6811 12.652 17.251 12.6734V12.6887Z" fill="#7838A6"/>
</svg>
