<svg width="14" height="30" viewBox="0 0 14 30" fill="none" xmlns="http://www.w3.org/2000/svg">
<path d="M4.96618 1.91987C4.4707 1.6487 4.28886 1.02721 4.56003 0.531725C4.8312 0.0362413 5.45269 -0.1456 5.94818 0.12557L4.96618 1.91987ZM10.9117 24.5453C10.9117 27.5578 8.46962 29.9998 5.45718 29.9998C2.44473 29.9998 0.00266366 27.5578 0.00266366 24.5453C0.00266366 21.5329 2.44473 19.0908 5.45718 19.0908C8.46962 19.0908 10.9117 21.5329 10.9117 24.5453ZM5.94818 0.12557C10.1065 2.40138 12.3416 5.14273 13.2098 8.0662C14.0716 10.968 13.5331 13.8714 12.5043 16.3846C11.4752 18.8988 9.92289 21.1052 8.6254 22.6806C7.97371 23.4719 7.37839 24.1135 6.93184 24.5657C6.70875 24.7917 6.52029 24.9729 6.37808 25.1037C6.3076 25.1685 6.24422 25.2249 6.19111 25.2698C6.16516 25.2917 6.13559 25.3161 6.10535 25.3392C6.10052 25.3429 6.01565 25.4108 5.90562 25.4645L5.00874 23.6262C4.94338 23.658 4.89803 23.6894 4.89015 23.6948C4.87436 23.7056 4.86401 23.7135 4.8614 23.7155C4.85586 23.7198 4.85809 23.7183 4.8707 23.7076C4.89472 23.6873 4.93549 23.6515 4.9933 23.5983C5.10769 23.4931 5.27246 23.3351 5.47635 23.1286C5.88374 22.716 6.43735 22.1199 7.04652 21.3802C8.27075 19.8938 9.68791 17.8656 10.6114 15.6097C11.5352 13.3528 11.9327 10.9506 11.249 8.64849C10.5718 6.36805 8.78021 4.00723 4.96618 1.91987L5.94818 0.12557Z" fill="#2274AC"/>
</svg>
