<svg width="20" height="20" viewBox="0 0 20 20" fill="none" xmlns="http://www.w3.org/2000/svg">
<path d="M19.5711 10.2509L15.4181 7.95103V3.35138C15.4178 3.20738 15.378 3.06603 15.3027 2.94181C15.2273 2.81758 15.1192 2.71493 14.9893 2.64437L10.416 0.108876C10.2882 0.0375503 10.1433 0 9.9957 0C9.84813 0 9.70316 0.0375503 9.57536 0.108876L5.00206 2.64437C4.8722 2.71493 4.76407 2.81758 4.68874 2.94181C4.6134 3.06603 4.57357 3.20738 4.57331 3.35138V7.95103L0.420347 10.2509C0.292056 10.3225 0.185614 10.4255 0.111799 10.5497C0.0379845 10.6739 -0.000581486 10.8147 6.62696e-06 10.9579V16.0289C0.000892175 16.1707 0.0401562 16.3098 0.113897 16.4324C0.187638 16.555 0.293288 16.6568 0.420347 16.7277L5.00206 19.2632C5.12986 19.3346 5.27483 19.3721 5.4224 19.3721C5.56997 19.3721 5.71494 19.3346 5.84274 19.2632L10.0041 16.9634L14.1655 19.2632C14.2928 19.3363 14.4378 19.3755 14.5858 19.377C14.731 19.3741 14.8729 19.3349 14.9978 19.2632L19.5795 16.7277C19.7065 16.6568 19.8122 16.555 19.8859 16.4324C19.9597 16.3098 19.9989 16.1707 19.9998 16.0289V10.9579C19.9996 10.8139 19.9597 10.6725 19.8844 10.5483C19.809 10.4241 19.7009 10.3214 19.5711 10.2509ZM9.9957 1.75045L13.7367 3.82272V8.15419L9.9873 10.2346L6.25467 8.12169V3.82272L9.9957 1.75045ZM5.41399 17.6217L1.68137 15.5575V11.4048L5.61576 9.2269L9.31475 11.3154V15.4681L5.41399 17.6217ZM18.2848 15.5575L14.5522 17.6217L10.6598 15.4681V11.3479L14.4093 9.25941L18.2848 11.4048V15.5575Z" fill="#48537D"/>
</svg>
