<svg width="44" height="34" viewBox="0 0 44 34" fill="none" xmlns="http://www.w3.org/2000/svg">
<path d="M9.38528 0.686098C9.19835 0.484185 8.97144 0.319831 8.71773 0.202563C8.46401 0.0852955 8.18853 0.0174453 7.90724 0.00294539C7.62596 -0.0115545 7.34447 0.0275843 7.07908 0.118093C6.8137 0.208602 6.56971 0.348682 6.36124 0.530212C6.15277 0.711742 5.98398 0.931114 5.86465 1.17561C5.74531 1.42011 5.67781 1.68487 5.66605 1.95455C5.65429 2.22423 5.69851 2.49346 5.79615 2.74664C5.89378 2.99983 6.04288 3.23193 6.23482 3.42949L9.07308 6.42954C2.96196 10.3288 0.309966 15.9243 0.182245 16.1878C0.0620681 16.4488 0 16.7311 0 17.0164C0 17.3017 0.0620681 17.584 0.182245 17.845C0.24788 17.9844 1.80182 21.2887 5.23611 24.5777C9.82699 28.9716 15.6153 31.2934 22.0013 31.2934C25.105 31.3099 28.1809 30.732 31.0483 29.5937L34.612 33.3501C34.9937 33.7429 35.5216 33.9758 36.0812 33.9982C36.6409 34.0206 37.1872 33.8308 37.6018 33.4698C38.0163 33.1088 38.2656 32.6058 38.2957 32.0699C38.3258 31.5339 38.1342 31.0082 37.7625 30.6067L9.38528 0.686098ZM22.0013 27.214C16.7523 27.214 12.1615 25.3902 8.35819 21.7952C6.86217 20.3759 5.5749 18.7679 4.53187 17.0155C5.46672 15.4331 7.86504 11.9333 11.9823 9.48738L27.9634 26.3335C26.0362 26.9232 24.0245 27.2203 22.0013 27.214ZM43.8204 17.845C43.7565 17.9827 42.2239 21.2445 38.8535 24.5012C38.6605 24.7065 38.4259 24.8721 38.1642 24.9879C37.9024 25.1037 37.6187 25.1673 37.3305 25.1749C37.0422 25.1825 36.7554 25.1339 36.4874 25.0321C36.2193 24.9303 35.9756 24.7773 35.7711 24.5825C35.5667 24.3877 35.4056 24.1552 35.2977 23.8989C35.1899 23.6427 35.1375 23.3681 35.1437 23.0919C35.15 22.8157 35.2147 22.5435 35.334 22.292C35.4533 22.0405 35.6247 21.8148 35.8378 21.6287C37.2536 20.2494 38.475 18.6985 39.4708 17.0155C38.4284 15.2628 37.141 13.6548 35.6445 12.2359C31.8394 8.6409 27.2503 6.81708 22.0013 6.81708C21.4071 6.81708 20.8128 6.84087 20.2274 6.88847C19.9453 6.91743 19.66 6.89206 19.3883 6.81385C19.1166 6.73565 18.8639 6.60619 18.6452 6.43308C18.4264 6.25997 18.246 6.04671 18.1145 5.80583C17.983 5.56495 17.903 5.3013 17.8794 5.0304C17.8557 4.75949 17.8888 4.48679 17.9768 4.22832C18.0647 3.96985 18.2056 3.73083 18.3913 3.52531C18.577 3.31978 18.8037 3.1519 19.0581 3.03153C19.3125 2.91116 19.5894 2.84073 19.8726 2.82438C20.5698 2.76659 21.2918 2.73769 22.0013 2.73769C28.3874 2.73769 34.1757 5.06124 38.763 9.45508C42.1955 12.7441 43.7494 16.0501 43.8151 16.1878C43.9361 16.4485 43.9991 16.7305 44 17.0159C44.0009 17.3012 43.9397 17.5836 43.8204 17.845Z" fill="#2274AC"/>
</svg>
